ISO-10303-21;
HEADER;

/* File generated by Shapr3D Version 26.50.0.10685 */

FILE_DESCRIPTION(('HOOPS Exchange Step'),'2;1');

FILE_NAME('/private/var/mobile/Containers/Data/Application/5F2095C5-6E5A-4F28-9900-660682EC0850/tmp/export/temp_export',
'2026-05-03T19:12:17+02:00',
('mobile'),
('Shapr3D Limited'),
'HOOPS Exchange 2025.9',
'Shapr3D',
'Authorized');

FILE_SCHEMA( ('AP242_MANAGED_MODEL_BASED_3D_ENGINEERING_MIM_LF {1 0 10303 442 1 1 4}') );

ENDSEC;

DATA;
#3=(NAMED_UNIT(*)PLANE_ANGLE_UNIT()SI_UNIT($,.RADIAN.));
#4=PLANE_ANGLE_MEASURE_WITH_UNIT(PLANE_ANGLE_MEASURE(0.0174532925),#3);
#5=(CONVERSION_BASED_UNIT('DEGREE',#4)NAMED_UNIT(#6)PLANE_ANGLE_UNIT());
#6=DIMENSIONAL_EXPONENTS(0.,0.,0.,0.,0.,0.,0.);
#7=(NAMED_UNIT(*)SI_UNIT($,.STERADIAN.)SOLID_ANGLE_UNIT());
#8=(LENGTH_UNIT()NAMED_UNIT(*)SI_UNIT(.MILLI.,.METRE.));
#9=UNCERTAINTY_MEASURE_WITH_UNIT(LENGTH_MEASURE(1.000000E-03),#8,'DISTANCE_ACCURACY_VALUE','Maximum Tolerance applied to model');
#10=(GEOMETRIC_REPRESENTATION_CONTEXT(3)GLOBAL_UNCERTAINTY_ASSIGNED_CONTEXT((#9))GLOBAL_UNIT_ASSIGNED_CONTEXT((#8,#5,#7))REPRESENTATION_CONTEXT('','root'));
#12=CARTESIAN_POINT('',(0.,0.,0.));
#13=DIRECTION('',(0.,0.,1.));
#14=DIRECTION('',(1.,0.,0.));
#15=AXIS2_PLACEMENT_3D('TS3D_PRODUCT_CSYS',#12,#13,#14);
#26=(NAMED_UNIT(*)PLANE_ANGLE_UNIT()SI_UNIT($,.RADIAN.));
#27=PLANE_ANGLE_MEASURE_WITH_UNIT(PLANE_ANGLE_MEASURE(0.0174532925),#26);
#28=(CONVERSION_BASED_UNIT('DEGREE',#27)NAMED_UNIT(#29)PLANE_ANGLE_UNIT());
#29=DIMENSIONAL_EXPONENTS(0.,0.,0.,0.,0.,0.,0.);
#30=(NAMED_UNIT(*)SI_UNIT($,.STERADIAN.)SOLID_ANGLE_UNIT());
#31=(LENGTH_UNIT()NAMED_UNIT(*)SI_UNIT(.MILLI.,.METRE.));
#32=UNCERTAINTY_MEASURE_WITH_UNIT(LENGTH_MEASURE(1.000000E-05),#31,'DISTANCE_ACCURACY_VALUE','Maximum Tolerance applied to model');
#33=(GEOMETRIC_REPRESENTATION_CONTEXT(3)GLOBAL_UNCERTAINTY_ASSIGNED_CONTEXT((#32))GLOBAL_UNIT_ASSIGNED_CONTEXT((#31,#28,#30))REPRESENTATION_CONTEXT('','Folder 34'));
#45=CARTESIAN_POINT('',(0.,0.,0.));
#46=DIRECTION('',(0.,0.,1.));
#47=DIRECTION('',(1.,0.,-0.));
#48=AXIS2_PLACEMENT_3D('',#45,#46,#47);
#49=ITEM_DEFINED_TRANSFORMATION('','',#48,#15);
#50=(REPRESENTATION_RELATIONSHIP('','',#35,#16)REPRESENTATION_RELATIONSHIP_WITH_TRANSFORMATION(#49)SHAPE_REPRESENTATION_RELATIONSHIP());
#51=NEXT_ASSEMBLY_USAGE_OCCURRENCE('Folder 34_1','Folder 34','Folder 34',#25,#44,$);
#52=PRODUCT_DEFINITION_SHAPE('','',#51);
#53=CONTEXT_DEPENDENT_SHAPE_REPRESENTATION(#50,#52);
#55=CARTESIAN_POINT('',(-2030.,-142.000018128,63.000018128));
#56=DIRECTION('',(0.,1.,0.));
#57=DIRECTION('',(1.,0.,0.));
#58=AXIS2_PLACEMENT_3D('',#55,#56,#57);
#59=PLANE('',#58);
#60=CARTESIAN_POINT('',(96.202533526,-142.000018128,3.000018128));
#61=VERTEX_POINT('',#60);
#62=CARTESIAN_POINT('',(57.797711896,-142.000018128,3.000018128));
#63=VERTEX_POINT('',#62);
#64=CARTESIAN_POINT('',(96.202533526,-142.000018128,3.000018128));
#65=DIRECTION('',(-1.,0.,0.));
#66=VECTOR('',#65,38.40482163);
#67=LINE('',#64,#66);
#68=EDGE_CURVE('',#61,#63,#67,.T.);
#69=ORIENTED_EDGE('',*,*,#68,.F.);
#70=CARTESIAN_POINT('',(96.250122711,-142.000018128,4.352763072));
#71=VERTEX_POINT('',#70);
#72=CARTESIAN_POINT('',(77.000122711,-142.000018128,4.352763072));
#73=DIRECTION('',(-0.,1.,0.));
#74=DIRECTION('',(1.,0.,0.));
#75=AXIS2_PLACEMENT_3D('',#72,#73,#74);
#76=CIRCLE('',#75,19.25);
#77=EDGE_CURVE('',#71,#61,#76,.T.);
#78=ORIENTED_EDGE('',*,*,#77,.F.);
#79=CARTESIAN_POINT('',(77.000122711,-142.000018128,4.352763072));
#80=DIRECTION('',(-0.,1.,0.));
#81=DIRECTION('',(1.,0.,0.));
#82=AXIS2_PLACEMENT_3D('',#79,#80,#81);
#83=CIRCLE('',#82,19.25);
#84=EDGE_CURVE('',#63,#71,#83,.T.);
#85=ORIENTED_EDGE('',*,*,#84,.F.);
#86=EDGE_LOOP('',(#69,#78,#85));
#87=FACE_BOUND('',#86,.T.);
#88=ADVANCED_FACE('',(#87),#59,.F.);
#89=CARTESIAN_POINT('',(-19.335523907,-2148.917898305,63.000018128));
#90=DIRECTION('',(-0.99999995,-0.000315372,-0.));
#91=DIRECTION('',(-0.000315372,0.99999995,0.));
#92=AXIS2_PLACEMENT_3D('',#89,#90,#91);
#93=PLANE('',#92);
#94=CARTESIAN_POINT('',(-19.993957064,-61.120290235,3.000018128));
#95=VERTEX_POINT('',#94);
#96=CARTESIAN_POINT('',(-20.006083881,-22.667881332,4.352763072));
#97=VERTEX_POINT('',#96);
#98=CARTESIAN_POINT('',(-20.000012968,-41.917880374,4.352763072));
#99=DIRECTION('',(-0.99999995,-0.000315372,-0.));
#100=DIRECTION('',(-0.000315372,0.99999995,0.));
#101=AXIS2_PLACEMENT_3D('',#98,#99,#100);
#102=CIRCLE('',#101,19.25);
#103=EDGE_CURVE('',#95,#97,#102,.T.);
#104=ORIENTED_EDGE('',*,*,#103,.T.);
#105=CARTESIAN_POINT('',(-20.006068873,-22.715470514,3.000018128));
#106=VERTEX_POINT('',#105);
#107=CARTESIAN_POINT('',(-20.000012968,-41.917880374,4.352763072));
#108=DIRECTION('',(-0.99999995,-0.000315372,-0.));
#109=DIRECTION('',(-0.000315372,0.99999995,0.));
#110=AXIS2_PLACEMENT_3D('',#107,#108,#109);
#111=CIRCLE('',#110,19.25);
#112=EDGE_CURVE('',#97,#106,#111,.T.);
#113=ORIENTED_EDGE('',*,*,#112,.T.);
#114=CARTESIAN_POINT('',(-20.006068873,-22.715470514,3.000018128));
#115=DIRECTION('',(0.000315372,-0.99999995,-0.));
#116=VECTOR('',#115,38.40482163);
#117=LINE('',#114,#116);
#118=EDGE_CURVE('',#106,#95,#117,.T.);
#119=ORIENTED_EDGE('',*,*,#118,.T.);
#120=EDGE_LOOP('',(#104,#113,#119));
#121=FACE_BOUND('',#120,.T.);
#122=ADVANCED_FACE('',(#121),#93,.T.);
#123=CARTESIAN_POINT('',(77.000122711,-142.000018128,4.352763072));
#124=DIRECTION('',(-0.,1.,0.));
#125=DIRECTION('',(1.,0.,0.));
#126=AXIS2_PLACEMENT_3D('',#123,#124,#125);
#127=CYLINDRICAL_SURFACE('',#126,19.25);
#128=CARTESIAN_POINT('',(96.250122711,-122.000018128,4.352763072));
#129=VERTEX_POINT('',#128);
#130=CARTESIAN_POINT('',(96.250122711,-122.000018128,4.352763072));
#131=DIRECTION('',(-0.,-1.,-0.));
#132=VECTOR('',#131,20.);
#133=LINE('',#130,#132);
#134=EDGE_CURVE('',#129,#71,#133,.T.);
#135=ORIENTED_EDGE('',*,*,#134,.T.);
#136=ORIENTED_EDGE('',*,*,#77,.T.);
#137=CARTESIAN_POINT('',(96.202533526,-122.000018128,3.000018128));
#138=VERTEX_POINT('',#137);
#139=CARTESIAN_POINT('',(96.202533526,-142.000018128,3.000018128));
#140=DIRECTION('',(0.,1.,0.));
#141=VECTOR('',#140,20.);
#142=LINE('',#139,#141);
#143=EDGE_CURVE('',#61,#138,#142,.T.);
#144=ORIENTED_EDGE('',*,*,#143,.T.);
#145=CARTESIAN_POINT('',(77.000122711,-122.000018128,4.352763072));
#146=DIRECTION('',(-0.,1.,0.));
#147=DIRECTION('',(1.,0.,0.));
#148=AXIS2_PLACEMENT_3D('',#145,#146,#147);
#149=CIRCLE('',#148,19.25);
#150=EDGE_CURVE('',#129,#138,#149,.T.);
#151=ORIENTED_EDGE('',*,*,#150,.F.);
#152=EDGE_LOOP('',(#135,#136,#144,#151));
#153=FACE_BOUND('',#152,.T.);
#154=ADVANCED_FACE('',(#153),#127,.T.);
#155=CARTESIAN_POINT('',(96.250122711,-122.000018128,4.352763072));
#156=CARTESIAN_POINT('',(96.250122711,-114.621497467,4.352763072));
#157=CARTESIAN_POINT('',(95.842917548,-107.557117609,4.352763072));
#158=CARTESIAN_POINT('',(94.535758133,-97.403003412,4.352763072));
#159=CARTESIAN_POINT('',(93.983564262,-94.092192279,4.352763072));
#160=CARTESIAN_POINT('',(92.627150484,-87.618391453,4.352763072));
#161=CARTESIAN_POINT('',(91.822865751,-84.455298524,4.352763072));
#162=CARTESIAN_POINT('',(89.940975732,-78.283466305,4.352763072));
#163=CARTESIAN_POINT('',(88.863230214,-75.274641616,4.352763072));
#164=CARTESIAN_POINT('',(86.413932354,-69.427555215,4.352763072));
#165=CARTESIAN_POINT('',(85.042173128,-66.589297506,4.352763072));
#166=CARTESIAN_POINT('',(81.990468761,-61.110756338,4.352763072));
#167=CARTESIAN_POINT('',(80.310329516,-58.470637195,4.352763072));
#168=CARTESIAN_POINT('',(76.639997364,-53.42469289,4.352763072));
#169=CARTESIAN_POINT('',(74.649759166,-51.019178768,4.352763072));
#170=CARTESIAN_POINT('',(70.373999516,-46.480356582,4.352763072));
#171=CARTESIAN_POINT('',(68.088662781,-44.347360315,4.352763072));
#172=CARTESIAN_POINT('',(63.252200946,-40.383066262,4.352763072));
#173=CARTESIAN_POINT('',(60.701407449,-38.551902011,4.352763072));
#174=CARTESIAN_POINT('',(55.370020838,-35.205043173,4.352763072));
#175=CARTESIAN_POINT('',(52.589717979,-33.689257174,4.352763072));
#176=CARTESIAN_POINT('',(46.831735124,-30.970567557,4.352763072));
#177=CARTESIAN_POINT('',(43.854181667,-29.767453162,4.352763072));
#178=CARTESIAN_POINT('',(37.723958267,-27.660186079,4.352763072));
#179=CARTESIAN_POINT('',(34.571263112,-26.755834968,4.352763072));
#180=CARTESIAN_POINT('',(28.101482444,-25.227444104,4.352763072));
#181=CARTESIAN_POINT('',(24.784298803,-24.603281431,4.352763072));
#182=CARTESIAN_POINT('',(17.98690003,-23.616878828,4.352763072));
#183=CARTESIAN_POINT('',(14.506580767,-23.254589016,4.352763072));
#184=CARTESIAN_POINT('',(7.378163578,-22.77634954,4.352763072));
#185=CARTESIAN_POINT('',(3.729985976,-22.660395637,4.352763072));
#186=CARTESIAN_POINT('',(-0.006084876,-22.66157389,4.352763072));
#187=CARTESIAN_POINT('',(96.250122711,-122.000018128,3.906522889));
#188=CARTESIAN_POINT('',(96.250122711,-114.621497467,3.906522889));
#189=CARTESIAN_POINT('',(95.842917548,-107.557117609,3.906522889));
#190=CARTESIAN_POINT('',(94.535758133,-97.403003412,3.906522889));
#191=CARTESIAN_POINT('',(93.983564262,-94.092192279,3.906522889));
#192=CARTESIAN_POINT('',(92.627150484,-87.618391453,3.906522889));
#193=CARTESIAN_POINT('',(91.822865751,-84.455298524,3.906522889));
#194=CARTESIAN_POINT('',(89.940975732,-78.283466305,3.906522889));
#195=CARTESIAN_POINT('',(88.863230214,-75.274641616,3.906522889));
#196=CARTESIAN_POINT('',(86.413932354,-69.427555215,3.906522889));
#197=CARTESIAN_POINT('',(85.042173128,-66.589297506,3.906522889));
#198=CARTESIAN_POINT('',(81.990468761,-61.110756338,3.906522889));
#199=CARTESIAN_POINT('',(80.310329516,-58.470637195,3.906522889));
#200=CARTESIAN_POINT('',(76.639997364,-53.42469289,3.906522889));
#201=CARTESIAN_POINT('',(74.649759166,-51.019178768,3.906522889));
#202=CARTESIAN_POINT('',(70.373999516,-46.480356582,3.906522889));
#203=CARTESIAN_POINT('',(68.088662781,-44.347360315,3.906522889));
#204=CARTESIAN_POINT('',(63.252200946,-40.383066262,3.906522889));
#205=CARTESIAN_POINT('',(60.701407449,-38.551902011,3.906522889));
#206=CARTESIAN_POINT('',(55.370020838,-35.205043173,3.906522889));
#207=CARTESIAN_POINT('',(52.589717979,-33.689257174,3.906522889));
#208=CARTESIAN_POINT('',(46.831735124,-30.970567557,3.906522889));
#209=CARTESIAN_POINT('',(43.854181667,-29.767453162,3.906522889));
#210=CARTESIAN_POINT('',(37.723958267,-27.660186079,3.906522889));
#211=CARTESIAN_POINT('',(34.571263112,-26.755834968,3.906522889));
#212=CARTESIAN_POINT('',(28.101482444,-25.227444104,3.906522889));
#213=CARTESIAN_POINT('',(24.784298803,-24.603281431,3.906522889));
#214=CARTESIAN_POINT('',(17.98690003,-23.616878828,3.906522889));
#215=CARTESIAN_POINT('',(14.506580767,-23.254589016,3.906522889));
#216=CARTESIAN_POINT('',(7.378163578,-22.77634954,3.906522889));
#217=CARTESIAN_POINT('',(3.729985976,-22.660395637,3.906522889));
#218=CARTESIAN_POINT('',(-0.006084876,-22.66157389,3.906522889));
#219=CARTESIAN_POINT('',(96.234610232,-122.000018128,3.455351614));
#220=CARTESIAN_POINT('',(96.234610232,-114.622071106,3.455351614));
#221=CARTESIAN_POINT('',(95.827435218,-107.558346183,3.455351614));
#222=CARTESIAN_POINT('',(94.52042102,-97.405360038,3.455351614));
#223=CARTESIAN_POINT('',(93.968292554,-94.094949076,3.455351614));
#224=CARTESIAN_POINT('',(92.612056601,-87.621996962,3.455351614));
#225=CARTESIAN_POINT('',(91.80788434,-84.459352656,3.455351614));
#226=CARTESIAN_POINT('',(89.926281077,-78.288460878,3.455351614));
#227=CARTESIAN_POINT('',(88.848709955,-75.280128076,3.455351614));
#228=CARTESIAN_POINT('',(86.39983685,-69.434055669,3.455351614));
#229=CARTESIAN_POINT('',(85.028328148,-66.596320066,3.455351614));
#230=CARTESIAN_POINT('',(81.977210016,-61.11883133,3.455351614));
#231=CARTESIAN_POINT('',(80.297406638,-58.479242381,3.455351614));
#232=CARTESIAN_POINT('',(76.627830551,-53.434337508,3.455351614));
#233=CARTESIAN_POINT('',(74.638012588,-51.029332374,3.455351614));
#234=CARTESIAN_POINT('',(70.363163474,-46.491476745,3.455351614));
#235=CARTESIAN_POINT('',(68.078316893,-44.358937796,3.455351614));
#236=CARTESIAN_POINT('',(63.242879303,-40.395483284,3.455351614));
#237=CARTESIAN_POINT('',(60.69261963,-38.564701149,3.455351614));
#238=CARTESIAN_POINT('',(55.362313245,-35.218520439,3.455351614));
#239=CARTESIAN_POINT('',(52.582556553,-33.703030526,3.455351614));
#240=CARTESIAN_POINT('',(46.825650122,-30.984849153,3.455351614));
#241=CARTESIAN_POINT('',(43.84862682,-29.781947086,3.455351614));
#242=CARTESIAN_POINT('',(37.719427517,-27.675032037,3.455351614));
#243=CARTESIAN_POINT('',(34.567226325,-26.770820793,3.455351614));
#244=CARTESIAN_POINT('',(28.098386369,-25.242652158,3.455351614));
#245=CARTESIAN_POINT('',(24.781649557,-24.618571948,3.455351614));
#246=CARTESIAN_POINT('',(17.985093767,-23.632291674,3.455351614));
#247=CARTESIAN_POINT('',(14.505170745,-23.270041769,3.455351614));
#248=CARTESIAN_POINT('',(7.377496831,-22.791852158,3.455351614));
#249=CARTESIAN_POINT('',(3.729666327,-22.675908217,3.455351614));
#250=CARTESIAN_POINT('',(-0.006079984,-22.677086368,3.455351614));
#251=CARTESIAN_POINT('',(96.202533524,-122.000018128,3.000018095));
#252=CARTESIAN_POINT('',(96.202533524,-114.623257277,3.000018095));
#253=CARTESIAN_POINT('',(95.795420852,-107.560886627,3.000018095));
#254=CARTESIAN_POINT('',(94.488706932,-97.410233071,3.000018095));
#255=CARTESIAN_POINT('',(93.936713713,-94.100649583,3.000018095));
#256=CARTESIAN_POINT('',(92.580845467,-87.629452434,3.000018095));
#257=CARTESIAN_POINT('',(91.776905774,-84.467735792,3.000018095));
#258=CARTESIAN_POINT('',(89.895895464,-78.298788658,3.000018095));
#259=CARTESIAN_POINT('',(88.818684961,-75.29147298,3.000018095));
#260=CARTESIAN_POINT('',(86.370690162,-69.447497312,3.000018095));
#261=CARTESIAN_POINT('',(84.999699494,-66.610841317,3.000018095));
#262=CARTESIAN_POINT('',(81.949793578,-61.1355288,3.000018095));
#263=CARTESIAN_POINT('',(80.270684707,-58.497036188,3.000018095));
#264=CARTESIAN_POINT('',(76.602672011,-53.454280654,3.000018095));
#265=CARTESIAN_POINT('',(74.61372301,-51.050328004,3.000018095));
#266=CARTESIAN_POINT('',(70.340756704,-46.514471021,3.000018095));
#267=CARTESIAN_POINT('',(68.056923662,-44.382877715,3.000018095));
#268=CARTESIAN_POINT('',(63.223604006,-40.421159207,3.000018095));
#269=CARTESIAN_POINT('',(60.674448176,-38.59116721,3.000018095));
#270=CARTESIAN_POINT('',(55.346375483,-35.246388734,3.000018095));
#271=CARTESIAN_POINT('',(52.567748156,-33.731511069,3.000018095));
#272=CARTESIAN_POINT('',(46.813067554,-31.014380643,3.000018095));
#273=CARTESIAN_POINT('',(43.837140504,-29.811917627,3.000018095));
#274=CARTESIAN_POINT('',(37.71005883,-27.705730514,3.000018095));
#275=CARTESIAN_POINT('',(34.558879057,-26.801808485,3.000018095));
#276=CARTESIAN_POINT('',(28.091984305,-25.274099377,3.000018095));
#277=CARTESIAN_POINT('',(24.776171443,-24.650189682,3.000018095));
#278=CARTESIAN_POINT('',(17.981358776,-23.664162361,3.000018095));
#279=CARTESIAN_POINT('',(14.5022551,-23.301994976,3.000018095));
#280=CARTESIAN_POINT('',(7.37611813,-22.823908477,3.000018095));
#281=CARTESIAN_POINT('',(3.729005357,-22.707985136,3.000018095));
#282=CARTESIAN_POINT('',(-0.006069868,-22.709163074,3.000018095));
#283=(BOUNDED_SURFACE()
B_SPLINE_SURFACE(3,3,((#155,#156,#157,#158,#159,#160,#161,#162,#163,#164,#165,#166,#167,#168,#169,#170,#171,#172,#173,#174,#175,#176,#177,#178,#179,#180,
#181,#182,#183,#184,#185,#186),(#187,#188,#189,#190,#191,#192,#193,#194,#195,#196,#197,#198,#199,#200,#201,#202,#203,#204,#205,#206,#207,#208,#209,#210,#211,#212,
#213,#214,#215,#216,#217,#218),(#219,#220,#221,#222,#223,#224,#225,#226,#227,#228,#229,#230,#231,#232,#233,#234,#235,#236,#237,#238,#239,#240,#241,#242,#243,#244,
#245,#246,#247,#248,#249,#250),(#251,#252,#253,#254,#255,#256,#257,#258,#259,#260,#261,#262,#263,#264,#265,#266,#267,#268,#269,#270,#271,#272,#273,#274,#275,#276,
#277,#278,#279,#280,#281,#282)),.UNSPECIFIED.,.F.,.F.,.U.)
B_SPLINE_SURFACE_WITH_KNOTS((4,4),(4,2,2,2,2,2,2,2,2,2,2,2,2,2,2,4),(0.,0.016992082),(0.119055704,0.214291778,0.261909815,0.309527852,0.357145889,0.404763926,0.452381963,0.5,0.547618037,0.595236074,0.642854111,0.690472148,0.738090185,0.785708222,0.833326259,0.880944296),.UNSPECIFIED.)
GEOMETRIC_REPRESENTATION_ITEM()
RATIONAL_B_SPLINE_SURFACE(((1.,1.,1.,1.,1.,1.,1.,1.,1.,1.,1.,1.,1.,1.,1.,1.,1.,1.,1.,1.,1.,1.,1.,1.,1.,1.,
1.,1.,1.,1.,1.,1.),(0.97734389,0.97734389,0.97734389,0.97734389,0.97734389,0.97734389,0.97734389,0.97734389,0.97734389,0.97734389,0.97734389,0.97734389,0.97734389,0.97734389,0.97734389,0.97734389,0.97734389,0.97734389,0.97734389,0.97734389,0.97734389,0.97734389,0.97734389,0.97734389,0.97734389,0.97734389,
0.97734389,0.97734389,0.97734389,0.97734389,0.97734389,0.97734389),(0.955457729,0.955457729,0.955457729,0.955457729,0.955457729,0.955457729,0.955457729,0.955457729,0.955457729,0.955457729,0.955457729,0.955457729,0.955457729,0.955457729,0.955457729,0.955457729,0.955457729,0.955457729,0.955457729,0.955457729,0.955457729,0.955457729,0.955457729,0.955457729,0.955457729,0.955457729,
0.955457729,0.955457729,0.955457729,0.955457729,0.955457729,0.955457729),(0.934341517,0.934341517,0.934341517,0.934341517,0.934341517,0.934341517,0.934341517,0.934341517,0.934341517,0.934341517,0.934341517,0.934341517,0.934341517,0.934341517,0.934341517,0.934341517,0.934341517,0.934341517,0.934341517,0.934341517,0.934341517,0.934341517,0.934341517,0.934341517,0.934341517,0.934341517,
0.934341517,0.934341517,0.934341517,0.934341517,0.934341517,0.934341517)))
REPRESENTATION_ITEM('')
SURFACE()
);
#284=CARTESIAN_POINT('',(-0.006084876,-22.66157389,4.352763072));
#285=VERTEX_POINT('',#284);
#286=CARTESIAN_POINT('',(-0.006084876,-22.66157389,4.352763072));
#287=CARTESIAN_POINT('',(3.729985976,-22.660395637,4.352763072));
#288=CARTESIAN_POINT('',(7.378163578,-22.77634954,4.352763072));
#289=CARTESIAN_POINT('',(14.506580767,-23.254589016,4.352763072));
#290=CARTESIAN_POINT('',(17.98690003,-23.616878828,4.352763072));
#291=CARTESIAN_POINT('',(24.784298803,-24.603281431,4.352763072));
#292=CARTESIAN_POINT('',(28.101482444,-25.227444104,4.352763072));
#293=CARTESIAN_POINT('',(34.571263112,-26.755834968,4.352763072));
#294=CARTESIAN_POINT('',(37.723958267,-27.660186079,4.352763072));
#295=CARTESIAN_POINT('',(43.854181667,-29.767453162,4.352763072));
#296=CARTESIAN_POINT('',(46.831735124,-30.970567557,4.352763072));
#297=CARTESIAN_POINT('',(52.589717979,-33.689257174,4.352763072));
#298=CARTESIAN_POINT('',(55.370020838,-35.205043173,4.352763072));
#299=CARTESIAN_POINT('',(60.701407449,-38.551902011,4.352763072));
#300=CARTESIAN_POINT('',(63.252200946,-40.383066262,4.352763072));
#301=CARTESIAN_POINT('',(68.088662781,-44.347360315,4.352763072));
#302=CARTESIAN_POINT('',(70.373999516,-46.480356582,4.352763072));
#303=CARTESIAN_POINT('',(74.649759166,-51.019178768,4.352763072));
#304=CARTESIAN_POINT('',(76.639997364,-53.42469289,4.352763072));
#305=CARTESIAN_POINT('',(80.310329516,-58.470637195,4.352763072));
#306=CARTESIAN_POINT('',(81.990468761,-61.110756338,4.352763072));
#307=CARTESIAN_POINT('',(85.042173128,-66.589297506,4.352763072));
#308=CARTESIAN_POINT('',(86.413932354,-69.427555215,4.352763072));
#309=CARTESIAN_POINT('',(88.863230214,-75.274641616,4.352763072));
#310=CARTESIAN_POINT('',(89.940975732,-78.283466305,4.352763072));
#311=CARTESIAN_POINT('',(91.822865751,-84.455298524,4.352763072));
#312=CARTESIAN_POINT('',(92.627150484,-87.618391453,4.352763072));
#313=CARTESIAN_POINT('',(93.983564262,-94.092192279,4.352763072));
#314=CARTESIAN_POINT('',(94.535758133,-97.403003412,4.352763072));
#315=CARTESIAN_POINT('',(95.842917548,-107.557117609,4.352763072));
#316=CARTESIAN_POINT('',(96.250122711,-114.621497467,4.352763072));
#317=CARTESIAN_POINT('',(96.250122711,-122.000018128,4.352763072));
#318=B_SPLINE_CURVE_WITH_KNOTS('',3,(#286,#287,#288,#289,#290,#291,#292,#293,#294,#295,#296,#297,#298,#299,#300,#301,#302,#303,#304,#305,#306,#307,#308,#309,#310,#311,
#312,#313,#314,#315,#316,#317),.UNSPECIFIED.,.F.,.F.,(4,2,2,2,2,2,2,2,2,2,2,2,2,2,2,4),(0.119055704,0.166673741,0.214291778,0.261909815,0.309527852,0.357145889,0.404763926,0.452381963,0.5,0.547618037,0.595236074,0.642854111,0.690472148,0.738090185,0.785708222,0.880944296),.UNSPECIFIED.);
#319=EDGE_CURVE('',#285,#129,#318,.T.);
#320=ORIENTED_EDGE('',*,*,#319,.T.);
#321=ORIENTED_EDGE('',*,*,#150,.T.);
#322=CARTESIAN_POINT('',(-0.006069868,-22.709163072,3.000018128));
#323=VERTEX_POINT('',#322);
#324=CARTESIAN_POINT('',(96.202533526,-122.000018128,3.000018128));
#325=CARTESIAN_POINT('',(96.202533526,-118.692055009,3.000018128));
#326=CARTESIAN_POINT('',(96.120824111,-115.394162917,3.000018128));
#327=CARTESIAN_POINT('',(95.943454398,-112.10806136,3.000018128));
#328=CARTESIAN_POINT('',(95.766084686,-108.821959802,3.000018128));
#329=CARTESIAN_POINT('',(95.493070411,-105.547646838,3.000018128));
#330=CARTESIAN_POINT('',(95.108438956,-102.28709116,3.000018128));
#331=CARTESIAN_POINT('',(94.723807502,-99.026535482,3.000018128));
#332=CARTESIAN_POINT('',(94.227745443,-95.779714095,3.000018128));
#333=CARTESIAN_POINT('',(93.599032737,-92.549242456,3.000018128));
#334=CARTESIAN_POINT('',(93.284676383,-90.934006637,3.000018128));
#335=CARTESIAN_POINT('',(92.937149998,-89.322859163,3.000018128));
#336=CARTESIAN_POINT('',(92.553281133,-87.716191053,3.000018128));
#337=CARTESIAN_POINT('',(92.361346701,-86.912856998,3.000018128));
#338=CARTESIAN_POINT('',(92.160318064,-86.110643842,3.000018128));
#339=CARTESIAN_POINT('',(91.949759353,-85.309605307,3.000018128));
#340=CARTESIAN_POINT('',(91.739200642,-84.508566772,3.000018128));
#341=CARTESIAN_POINT('',(91.518846637,-83.7078004,3.000018128));
#342=CARTESIAN_POINT('',(91.289181802,-82.910599572,3.000018128));
#343=CARTESIAN_POINT('',(90.370522461,-79.721796257,3.000018128));
#344=CARTESIAN_POINT('',(89.306173916,-76.599155352,3.000018128));
#345=CARTESIAN_POINT('',(88.07947261,-73.550244342,3.000018128));
#346=CARTESIAN_POINT('',(86.852771305,-70.501333333,3.000018128));
#347=CARTESIAN_POINT('',(85.463823865,-67.526103797,3.000018128));
#348=CARTESIAN_POINT('',(83.892934617,-64.633500208,3.000018128));
#349=CARTESIAN_POINT('',(83.107489993,-63.187198413,3.000018128));
#350=CARTESIAN_POINT('',(82.276419127,-61.761617042,3.000018128));
#351=CARTESIAN_POINT('',(81.396929813,-60.358024132,3.000018128));
#352=CARTESIAN_POINT('',(80.957185156,-59.656227676,3.000018128));
#353=CARTESIAN_POINT('',(80.505332199,-58.95993001,3.000018128));
#354=CARTESIAN_POINT('',(80.04096445,-58.269315736,3.000018128));
#355=CARTESIAN_POINT('',(79.576596701,-57.578701462,3.000018128));
#356=CARTESIAN_POINT('',(79.101499916,-56.896478572,3.000018128));
#357=CARTESIAN_POINT('',(78.61705808,-56.224712601,3.000018128));
#358=CARTESIAN_POINT('',(76.679290736,-53.53764872,3.000018128));
#359=CARTESIAN_POINT('',(74.585351081,-51.007084367,3.000018128));
#360=CARTESIAN_POINT('',(72.335689883,-48.63256783,3.000018128));
#361=CARTESIAN_POINT('',(70.086028684,-46.258051294,3.000018128));
#362=CARTESIAN_POINT('',(67.680772623,-44.039455627,3.000018128));
#363=CARTESIAN_POINT('',(65.118424095,-41.978281573,3.000018128));
#364=CARTESIAN_POINT('',(63.83724983,-40.947694546,3.000018128));
#365=CARTESIAN_POINT('',(62.516764262,-39.95650119,3.000018128));
#366=CARTESIAN_POINT('',(61.156763485,-39.004905835,3.000018128));
#367=CARTESIAN_POINT('',(60.476763096,-38.529108158,3.000018128));
#368=CARTESIAN_POINT('',(59.785659842,-38.062462318,3.000018128));
#369=CARTESIAN_POINT('',(59.089409261,-37.608856722,3.000018128));
#370=CARTESIAN_POINT('',(58.393158679,-37.155251125,3.000018128));
#371=CARTESIAN_POINT('',(57.691051525,-36.714149507,3.000018128));
#372=CARTESIAN_POINT('',(56.983257524,-36.285189496,3.000018128));
#373=CARTESIAN_POINT('',(54.15208152,-34.56934945,3.000018128));
#374=CARTESIAN_POINT('',(51.230254323,-33.047052717,3.000018128));
#375=CARTESIAN_POINT('',(48.226769764,-31.699097166,3.000018128));
#376=CARTESIAN_POINT('',(45.223285206,-30.351141615,3.000018128));
#377=CARTESIAN_POINT('',(42.138161043,-29.177489334,3.000018128));
#378=CARTESIAN_POINT('',(38.978908442,-28.162103734,3.000018128));
#379=CARTESIAN_POINT('',(38.189095292,-27.908257334,3.000018128));
#380=CARTESIAN_POINT('',(37.393710055,-27.664056762,3.000018128));
#381=CARTESIAN_POINT('',(36.597491755,-27.430581891,3.000018128));
#382=CARTESIAN_POINT('',(35.801273454,-27.197107019,3.000018128));
#383=CARTESIAN_POINT('',(35.003649051,-26.97414505,3.000018128));
#384=CARTESIAN_POINT('',(34.204681845,-26.761222719,3.000018128));
#385=CARTESIAN_POINT('',(32.606747432,-26.335378058,3.000018128));
#386=CARTESIAN_POINT('',(31.003445957,-25.949660917,3.000018128));
#387=CARTESIAN_POINT('',(29.395235496,-25.600646424,3.000018128));
#388=CARTESIAN_POINT('',(26.178814574,-24.902617437,3.000018128));
#389=CARTESIAN_POINT('',(22.942781684,-24.351219803,3.000018128));
#390=CARTESIAN_POINT('',(19.690171966,-23.923760917,3.000018128));
#391=CARTESIAN_POINT('',(16.437562248,-23.49630203,3.000018128));
#392=CARTESIAN_POINT('',(13.16834028,-23.193046722,3.000018128));
#393=CARTESIAN_POINT('',(9.884918718,-22.995956467,3.000018128));
#394=CARTESIAN_POINT('',(6.601497156,-22.798866212,3.000018128));
#395=CARTESIAN_POINT('',(3.303852165,-22.708119215,3.000018128));
#396=CARTESIAN_POINT('',(-0.006069868,-22.709163072,3.000018128));
#397=B_SPLINE_CURVE_WITH_KNOTS('',3,(#324,#325,#326,#327,#328,#329,#330,#331,#332,#333,#334,#335,#336,#337,#338,#339,#340,#341,#342,#343,#344,#345,#346,#347,#348,#349,
#350,#351,#352,#353,#354,#355,#356,#357,#358,#359,#360,#361,#362,#363,#364,#365,#366,#367,#368,#369,#370,#371,#372,#373,#374,
#375,#376,#377,#378,#379,#380,#381,#382,#383,#384,#385,#386,#387,#388,#389,#390,#391,#392,#393,#394,#395,#396),.UNSPECIFIED.,.F.,.F.,(4,3,3,3,3,3,3,3,3,3,3,3,3,3,3,3,3,3,3,3,3,3,3,3,4),(0.,0.009849358,0.019698715,0.029548073,0.034472752,0.036935091,0.03939743,0.049246788,0.059096146,0.064020825,0.066483164,0.068945503,0.078794861,0.088644219,0.093568897,0.096031237,0.098493576,0.108342934,0.118192291,0.120654631,0.12311697,0.128041649,0.137891007,0.147740364,0.157589722),.UNSPECIFIED.);
#398=EDGE_CURVE('',#138,#323,#397,.T.);
#399=ORIENTED_EDGE('',*,*,#398,.T.);
#400=CARTESIAN_POINT('',(-0.000013963,-41.911572932,4.352763072));
#401=DIRECTION('',(-0.99999995,-0.000315372,-0.));
#402=DIRECTION('',(-0.000315372,0.99999995,0.));
#403=AXIS2_PLACEMENT_3D('',#400,#401,#402);
#404=CIRCLE('',#403,19.25);
#405=EDGE_CURVE('',#285,#323,#404,.T.);
#406=ORIENTED_EDGE('',*,*,#405,.F.);
#407=EDGE_LOOP('',(#320,#321,#399,#406));
#408=FACE_BOUND('',#407,.T.);
#409=ADVANCED_FACE('',(#408),#283,.T.);
#410=CARTESIAN_POINT('',(-0.000013963,-41.911572932,4.352763072));
#411=DIRECTION('',(-0.99999995,-0.000315372,-0.));
#412=DIRECTION('',(-0.000315372,0.99999995,0.));
#413=AXIS2_PLACEMENT_3D('',#410,#411,#412);
#414=CYLINDRICAL_SURFACE('',#413,19.25);
#415=CARTESIAN_POINT('',(-20.006083881,-22.667881332,4.352763072));
#416=DIRECTION('',(0.99999995,0.000315372,0.));
#417=VECTOR('',#416,20.);
#418=LINE('',#415,#417);
#419=EDGE_CURVE('',#97,#285,#418,.T.);
#420=ORIENTED_EDGE('',*,*,#419,.T.);
#421=ORIENTED_EDGE('',*,*,#405,.T.);
#422=CARTESIAN_POINT('',(-0.006069868,-22.709163072,3.000018128));
#423=DIRECTION('',(-0.99999995,-0.000315372,-0.));
#424=VECTOR('',#423,20.);
#425=LINE('',#422,#424);
#426=EDGE_CURVE('',#323,#106,#425,.T.);
#427=ORIENTED_EDGE('',*,*,#426,.T.);
#428=ORIENTED_EDGE('',*,*,#112,.F.);
#429=EDGE_LOOP('',(#420,#421,#427,#428));
#430=FACE_BOUND('',#429,.T.);
#431=ADVANCED_FACE('',(#430),#414,.T.);
#432=CARTESIAN_POINT('',(-69.5,7.999981872,3.000018128));
#433=DIRECTION('',(0.,0.,-1.));
#434=DIRECTION('',(0.,1.,0.));
#435=AXIS2_PLACEMENT_3D('',#432,#433,#434);
#436=PLANE('',#435);
#437=CARTESIAN_POINT('',(0.006041942,-61.113982793,3.000018128));
#438=VERTEX_POINT('',#437);
#439=CARTESIAN_POINT('',(57.797711896,-122.000018128,3.000018128));
#440=VERTEX_POINT('',#439);
#441=CARTESIAN_POINT('',(0.006041942,-61.113982793,3.000018128));
#442=CARTESIAN_POINT('',(2.052117403,-61.113337518,3.000018128));
#443=CARTESIAN_POINT('',(4.092877973,-61.157374592,3.000018128));
#444=CARTESIAN_POINT('',(6.127420607,-61.253685901,3.000018128));
#445=CARTESIAN_POINT('',(8.161963241,-61.349997211,3.000018128));
#446=CARTESIAN_POINT('',(10.190284477,-61.498611866,3.000018128));
#447=CARTESIAN_POINT('',(12.211163725,-61.709791381,3.000018128));
#448=CARTESIAN_POINT('',(14.232042974,-61.920970897,3.000018128));
#449=CARTESIAN_POINT('',(16.245496205,-62.194580998,3.000018128));
#450=CARTESIAN_POINT('',(18.249785215,-62.545234799,3.000018128));
#451=CARTESIAN_POINT('',(20.254074224,-62.895888601,3.000018128));
#452=CARTESIAN_POINT('',(22.249241869,-63.323225794,3.000018128));
#453=CARTESIAN_POINT('',(24.232701897,-63.848989027,3.000018128));
#454=CARTESIAN_POINT('',(24.728566904,-63.980429835,3.000018128));
#455=CARTESIAN_POINT('',(25.224299253,-64.118249066,3.000018128));
#456=CARTESIAN_POINT('',(25.717323137,-64.262133923,3.000018128));
#457=CARTESIAN_POINT('',(26.210347021,-64.406018781,3.000018128));
#458=CARTESIAN_POINT('',(26.700747793,-64.555974268,3.000018128));
#459=CARTESIAN_POINT('',(27.188392297,-64.712308551,3.000018128));
#460=CARTESIAN_POINT('',(28.163681305,-65.024977116,3.000018128));
#461=CARTESIAN_POINT('',(29.127958768,-65.363129548,3.000018128));
#462=CARTESIAN_POINT('',(30.080012757,-65.729570601,3.000018128));
#463=CARTESIAN_POINT('',(31.984120734,-66.462452705,3.000018128));
#464=CARTESIAN_POINT('',(33.83960728,-67.307858721,3.000018128));
#465=CARTESIAN_POINT('',(35.633910839,-68.29485969,3.000018128));
#466=CARTESIAN_POINT('',(36.082486728,-68.541609932,3.000018128));
#467=CARTESIAN_POINT('',(36.527210146,-68.797275897,3.000018128));
#468=CARTESIAN_POINT('',(36.967855438,-69.062379813,3.000018128));
#469=CARTESIAN_POINT('',(37.408500729,-69.327483729,3.000018128));
#470=CARTESIAN_POINT('',(37.846025195,-69.602672977,3.000018128));
#471=CARTESIAN_POINT('',(38.275586449,-69.885392737,3.000018128));
#472=CARTESIAN_POINT('',(39.134708956,-70.450832257,3.000018128));
#473=CARTESIAN_POINT('',(39.963966994,-71.047664105,3.000018128));
#474=CARTESIAN_POINT('',(40.762587195,-71.676701214,3.000018128));
#475=CARTESIAN_POINT('',(42.359827595,-72.934775434,3.000018128));
#476=CARTESIAN_POINT('',(43.834282988,-74.32191631,3.000018128));
#477=CARTESIAN_POINT('',(45.184787604,-75.839349253,3.000018128));
#478=CARTESIAN_POINT('',(45.860039912,-76.598065724,3.000018128));
#479=CARTESIAN_POINT('',(46.504302671,-77.389357162,3.000018128));
#480=CARTESIAN_POINT('',(47.118223924,-78.212542369,3.000018128));
#481=CARTESIAN_POINT('',(47.42518455,-78.624134973,3.000018128));
#482=CARTESIAN_POINT('',(47.725339524,-79.044755998,3.000018128));
#483=CARTESIAN_POINT('',(48.015759799,-79.469878616,3.000018128));
#484=CARTESIAN_POINT('',(48.306180074,-79.895001234,3.000018128));
#485=CARTESIAN_POINT('',(48.586974078,-80.324650523,3.000018128));
#486=CARTESIAN_POINT('',(48.858689757,-80.758568815,3.000018128));
#487=CARTESIAN_POINT('',(49.945552473,-82.494241983,3.000018128));
#488=CARTESIAN_POINT('',(50.888327046,-84.297671346,3.000018128));
#489=CARTESIAN_POINT('',(51.716901768,-86.154802196,3.000018128));
#490=CARTESIAN_POINT('',(52.545476491,-88.011933045,3.000018128));
#491=CARTESIAN_POINT('',(53.25978891,-89.922794748,3.000018128));
#492=CARTESIAN_POINT('',(53.88117999,-91.877351903,3.000018128));
#493=CARTESIAN_POINT('',(54.03652776,-92.365991191,3.000018128));
#494=CARTESIAN_POINT('',(54.186181942,-92.857915037,3.000018128));
#495=CARTESIAN_POINT('',(54.329623332,-93.35021079,3.000018128));
#496=CARTESIAN_POINT('',(54.473064723,-93.842506544,3.000018128));
#497=CARTESIAN_POINT('',(54.610436452,-94.335561573,3.000018128));
#498=CARTESIAN_POINT('',(54.74213841,-94.829325854,3.000018128));
#499=CARTESIAN_POINT('',(55.005542327,-95.816854416,3.000018128));
#500=CARTESIAN_POINT('',(55.246305371,-96.807215205,3.000018128));
#501=CARTESIAN_POINT('',(55.467078727,-97.800076576,3.000018128));
#502=CARTESIAN_POINT('',(55.908625438,-99.785799319,3.000018128));
#503=CARTESIAN_POINT('',(56.270494938,-101.781489168,3.000018128));
#504=CARTESIAN_POINT('',(56.568654245,-103.785148753,3.000018128));
#505=CARTESIAN_POINT('',(56.866813553,-105.788808339,3.000018128));
#506=CARTESIAN_POINT('',(57.100884312,-107.800484989,3.000018128));
#507=CARTESIAN_POINT('',(57.282046405,-109.818780175,3.000018128));
#508=CARTESIAN_POINT('',(57.463208498,-111.83707536,3.000018128));
#509=CARTESIAN_POINT('',(57.591535517,-113.861979873,3.000018128));
#510=CARTESIAN_POINT('',(57.675179168,-115.892473988,3.000018128));
#511=CARTESIAN_POINT('',(57.758822819,-117.922968104,3.000018128));
#512=CARTESIAN_POINT('',(57.797711896,-119.959060729,3.000018128));
#513=CARTESIAN_POINT('',(57.797711896,-122.000018128,3.000018128));
#514=B_SPLINE_CURVE_WITH_KNOTS('',3,(#441,#442,#443,#444,#445,#446,#447,#448,#449,#450,#451,#452,#453,#454,#455,#456,#457,#458,#459,#460,#461,#462,#463,#464,#465,#466,
#467,#468,#469,#470,#471,#472,#473,#474,#475,#476,#477,#478,#479,#480,#481,#482,#483,#484,#485,#486,#487,#488,#489,#490,#491,
#492,#493,#494,#495,#496,#497,#498,#499,#500,#501,#502,#503,#504,#505,#506,#507,#508,#509,#510,#511,#512,#513),.UNSPECIFIED.,.F.,.F.,(4,3,3,3,3,3,3,3,3,3,3,3,3,3,3,3,3,3,3,3,3,3,3,3,4),(0.,0.006095029,0.012190058,0.018285087,0.024380117,0.025903874,0.027427631,0.030475146,0.036570175,0.038093932,0.03961769,0.042665204,0.048760233,0.051807748,0.053331505,0.054855262,0.060950292,0.067045321,0.068569078,0.070092835,0.07314035,0.079235379,0.085330408,0.091425437,0.097520466),.UNSPECIFIED.);
#515=EDGE_CURVE('',#438,#440,#514,.T.);
#516=ORIENTED_EDGE('',*,*,#515,.F.);
#517=CARTESIAN_POINT('',(-19.993957064,-61.120290235,3.000018128));
#518=DIRECTION('',(0.99999995,0.000315372,0.));
#519=VECTOR('',#518,20.);
#520=LINE('',#517,#519);
#521=EDGE_CURVE('',#95,#438,#520,.T.);
#522=ORIENTED_EDGE('',*,*,#521,.F.);
#523=ORIENTED_EDGE('',*,*,#118,.F.);
#524=ORIENTED_EDGE('',*,*,#426,.F.);
#525=ORIENTED_EDGE('',*,*,#398,.F.);
#526=ORIENTED_EDGE('',*,*,#143,.F.);
#527=ORIENTED_EDGE('',*,*,#68,.T.);
#528=CARTESIAN_POINT('',(57.797711896,-122.000018128,3.000018128));
#529=DIRECTION('',(-0.,-1.,-0.));
#530=VECTOR('',#529,20.);
#531=LINE('',#528,#530);
#532=EDGE_CURVE('',#440,#63,#531,.T.);
#533=ORIENTED_EDGE('',*,*,#532,.F.);
#534=EDGE_LOOP('',(#516,#522,#523,#524,#525,#526,#527,#533));
#535=FACE_BOUND('',#534,.T.);
#536=ADVANCED_FACE('',(#535),#436,.T.);
#537=CARTESIAN_POINT('',(77.000122711,-142.000018128,4.352763072));
#538=DIRECTION('',(-0.,1.,0.));
#539=DIRECTION('',(1.,0.,0.));
#540=AXIS2_PLACEMENT_3D('',#537,#538,#539);
#541=CYLINDRICAL_SURFACE('',#540,19.25);
#542=ORIENTED_EDGE('',*,*,#134,.F.);
#543=CARTESIAN_POINT('',(77.000122711,-122.000018128,4.352763072));
#544=DIRECTION('',(-0.,1.,0.));
#545=DIRECTION('',(1.,0.,0.));
#546=AXIS2_PLACEMENT_3D('',#543,#544,#545);
#547=CIRCLE('',#546,19.25);
#548=EDGE_CURVE('',#440,#129,#547,.T.);
#549=ORIENTED_EDGE('',*,*,#548,.F.);
#550=ORIENTED_EDGE('',*,*,#532,.T.);
#551=ORIENTED_EDGE('',*,*,#84,.T.);
#552=EDGE_LOOP('',(#542,#549,#550,#551));
#553=FACE_BOUND('',#552,.T.);
#554=ADVANCED_FACE('',(#553),#541,.T.);
#555=CARTESIAN_POINT('',(57.797711913,-122.000018128,3.000017887));
#556=CARTESIAN_POINT('',(57.797711913,-116.04343657,3.000017887));
#557=CARTESIAN_POINT('',(57.465240258,-110.602511161,3.000017887));
#558=CARTESIAN_POINT('',(56.518044284,-103.244620465,3.000017887));
#559=CARTESIAN_POINT('',(56.127978634,-100.925755844,3.000017887));
#560=CARTESIAN_POINT('',(55.212358454,-96.555745174,3.000017887));
#561=CARTESIAN_POINT('',(54.686868585,-94.504702105,3.000017887));
#562=CARTESIAN_POINT('',(53.515789515,-90.664040074,3.000017887));
#563=CARTESIAN_POINT('',(52.87034019,-88.874506301,3.000017887));
#564=CARTESIAN_POINT('',(51.473925513,-85.540915314,3.000017887));
#565=CARTESIAN_POINT('',(50.723166525,-83.996854105,3.000017887));
#566=CARTESIAN_POINT('',(49.124623815,-81.127086593,3.000017887));
#567=CARTESIAN_POINT('',(48.277033717,-79.801216382,3.000017887));
#568=CARTESIAN_POINT('',(46.480839826,-77.33182289,3.000017887));
#569=CARTESIAN_POINT('',(45.532281216,-76.187989343,3.000017887));
#570=CARTESIAN_POINT('',(43.513564544,-74.045072815,3.000017887));
#571=CARTESIAN_POINT('',(42.443222219,-73.045678814,3.000017887));
#572=CARTESIAN_POINT('',(40.145664467,-71.162443746,3.000017887));
#573=CARTESIAN_POINT('',(38.918118255,-70.278469478,3.000017887));
#574=CARTESIAN_POINT('',(36.264401338,-68.612558419,3.000017887));
#575=CARTESIAN_POINT('',(34.837941102,-67.830712817,3.000017887));
#576=CARTESIAN_POINT('',(31.748202166,-66.371861449,3.000017887));
#577=CARTESIAN_POINT('',(30.08479724,-65.69506594,3.000017887));
#578=CARTESIAN_POINT('',(26.493111529,-64.460422343,3.000017887));
#579=CARTESIAN_POINT('',(24.564855892,-63.902772193,3.000017887));
#580=CARTESIAN_POINT('',(20.42691723,-62.925244828,3.000017887));
#581=CARTESIAN_POINT('',(18.217332083,-62.50549023,3.000017887));
#582=CARTESIAN_POINT('',(13.509526843,-61.822318402,3.000017887));
#583=CARTESIAN_POINT('',(11.011410621,-61.558950929,3.000017887));
#584=CARTESIAN_POINT('',(5.725426562,-61.20431873,3.000017887));
#585=CARTESIAN_POINT('',(2.937638187,-61.113058232,3.000017887));
#586=CARTESIAN_POINT('',(0.006041942,-61.113982776,3.000017887));
#587=CARTESIAN_POINT('',(57.765635195,-122.000018128,3.455351477));
#588=CARTESIAN_POINT('',(57.765635195,-116.044622742,3.455351477));
#589=CARTESIAN_POINT('',(57.433225882,-110.605051606,3.455351477));
#590=CARTESIAN_POINT('',(56.486330186,-103.249493499,3.455351477));
#591=CARTESIAN_POINT('',(56.096399783,-100.931456353,3.455351477));
#592=CARTESIAN_POINT('',(55.18114731,-96.563200649,3.455351477));
#593=CARTESIAN_POINT('',(54.655890009,-94.513085243,3.455351477));
#594=CARTESIAN_POINT('',(53.485403892,-90.674367857,3.455351477));
#595=CARTESIAN_POINT('',(52.840315186,-88.885851208,3.455351477));
#596=CARTESIAN_POINT('',(51.444778816,-85.554356961,3.455351477));
#597=CARTESIAN_POINT('',(50.694537863,-84.01137536,3.455351477));
#598=CARTESIAN_POINT('',(49.097207369,-81.143784068,3.455351477));
#599=CARTESIAN_POINT('',(48.250311777,-79.819010195,3.455351477));
#600=CARTESIAN_POINT('',(46.455681278,-77.351766042,3.455351477));
#601=CARTESIAN_POINT('',(45.50799163,-76.208984979,3.455351477));
#602=CARTESIAN_POINT('',(43.491157767,-74.068067099,3.455351477));
#603=CARTESIAN_POINT('',(42.421828981,-73.06961874,3.455351477));
#604=CARTESIAN_POINT('',(40.126389164,-71.188119676,3.455351477));
#605=CARTESIAN_POINT('',(38.899946796,-70.304935547,3.455351477));
#606=CARTESIAN_POINT('',(36.248463571,-68.640426722,3.455351477));
#607=CARTESIAN_POINT('',(34.823132701,-67.859193368,3.455351477));
#608=CARTESIAN_POINT('',(31.735619594,-66.401392947,3.455351477));
#609=CARTESIAN_POINT('',(30.073310921,-65.725036491,3.455351477));
#610=CARTESIAN_POINT('',(26.483742839,-64.49112083,3.455351477));
#611=CARTESIAN_POINT('',(24.556508621,-63.933759895,3.455351477));
#612=CARTESIAN_POINT('',(20.420515164,-62.956692056,3.455351477));
#613=CARTESIAN_POINT('',(18.211853967,-62.537107974,3.455351477));
#614=CARTESIAN_POINT('',(13.505791851,-61.854189099,3.455351477));
#615=CARTESIAN_POINT('',(11.008494975,-61.590904146,3.455351477));
#616=CARTESIAN_POINT('',(5.724047861,-61.23637506,3.455351477));
#617=CARTESIAN_POINT('',(2.936977217,-61.14513516,3.455351477));
#618=CARTESIAN_POINT('',(0.006052058,-61.146059492,3.455351477));
#619=CARTESIAN_POINT('',(57.750122711,-122.000018128,3.906522822));
#620=CARTESIAN_POINT('',(57.750122711,-116.045196381,3.906522822));
#621=CARTESIAN_POINT('',(57.417743547,-110.60628018,3.906522822));
#622=CARTESIAN_POINT('',(56.470993069,-103.251850126,3.906522822));
#623=CARTESIAN_POINT('',(56.081128071,-100.934213151,3.906522822));
#624=CARTESIAN_POINT('',(55.166053423,-96.566806159,3.906522822));
#625=CARTESIAN_POINT('',(54.640908594,-94.517139377,3.906522822));
#626=CARTESIAN_POINT('',(53.470709232,-90.679362432,3.906522822));
#627=CARTESIAN_POINT('',(52.825794923,-88.89133767,3.906522822));
#628=CARTESIAN_POINT('',(51.430683307,-85.560857417,3.906522822));
#629=CARTESIAN_POINT('',(50.680692878,-84.018397922,3.906522822));
#630=CARTESIAN_POINT('',(49.083948619,-81.151859063,3.906522822));
#631=CARTESIAN_POINT('',(48.237388895,-79.827615383,3.906522822));
#632=CARTESIAN_POINT('',(46.443514462,-77.361410664,3.906522822));
#633=CARTESIAN_POINT('',(45.496245048,-76.219138589,3.906522822));
#634=CARTESIAN_POINT('',(43.480321722,-74.079187265,3.906522822));
#635=CARTESIAN_POINT('',(42.41148309,-73.081196224,3.906522822));
#636=CARTESIAN_POINT('',(40.117067518,-71.200536702,3.906522822));
#637=CARTESIAN_POINT('',(38.891158975,-70.317734689,3.906522822));
#638=CARTESIAN_POINT('',(36.240755976,-68.653903993,3.906522822));
#639=CARTESIAN_POINT('',(34.815971273,-67.872966725,3.906522822));
#640=CARTESIAN_POINT('',(31.72953459,-66.415674548,3.906522822));
#641=CARTESIAN_POINT('',(30.067756072,-65.739530419,3.906522822));
#642=CARTESIAN_POINT('',(26.479212087,-64.505966792,3.906522822));
#643=CARTESIAN_POINT('',(24.552471833,-63.948745724,3.906522822));
#644=CARTESIAN_POINT('',(20.417419088,-62.971900114,3.906522822));
#645=CARTESIAN_POINT('',(18.20920472,-62.552398495,3.906522822));
#646=CARTESIAN_POINT('',(13.503985588,-61.869601949,3.906522822));
#647=CARTESIAN_POINT('',(11.007084953,-61.606356903,3.906522822));
#648=CARTESIAN_POINT('',(5.723381114,-61.251877683,3.906522822));
#649=CARTESIAN_POINT('',(2.936657567,-61.160647745,3.906522822));
#650=CARTESIAN_POINT('',(0.00605695,-61.161571975,3.906522822));
#651=CARTESIAN_POINT('',(57.750122711,-122.000018128,4.352763072));
#652=CARTESIAN_POINT('',(57.750122711,-116.045196381,4.352763072));
#653=CARTESIAN_POINT('',(57.417743547,-110.60628018,4.352763072));
#654=CARTESIAN_POINT('',(56.470993069,-103.251850126,4.352763072));
#655=CARTESIAN_POINT('',(56.081128071,-100.934213151,4.352763072));
#656=CARTESIAN_POINT('',(55.166053423,-96.566806159,4.352763072));
#657=CARTESIAN_POINT('',(54.640908594,-94.517139377,4.352763072));
#658=CARTESIAN_POINT('',(53.470709232,-90.679362432,4.352763072));
#659=CARTESIAN_POINT('',(52.825794923,-88.89133767,4.352763072));
#660=CARTESIAN_POINT('',(51.430683307,-85.560857417,4.352763072));
#661=CARTESIAN_POINT('',(50.680692878,-84.018397922,4.352763072));
#662=CARTESIAN_POINT('',(49.083948619,-81.151859063,4.352763072));
#663=CARTESIAN_POINT('',(48.237388895,-79.827615383,4.352763072));
#664=CARTESIAN_POINT('',(46.443514462,-77.361410664,4.352763072));
#665=CARTESIAN_POINT('',(45.496245048,-76.219138589,4.352763072));
#666=CARTESIAN_POINT('',(43.480321722,-74.079187265,4.352763072));
#667=CARTESIAN_POINT('',(42.41148309,-73.081196224,4.352763072));
#668=CARTESIAN_POINT('',(40.117067518,-71.200536702,4.352763072));
#669=CARTESIAN_POINT('',(38.891158975,-70.317734689,4.352763072));
#670=CARTESIAN_POINT('',(36.240755976,-68.653903993,4.352763072));
#671=CARTESIAN_POINT('',(34.815971273,-67.872966725,4.352763072));
#672=CARTESIAN_POINT('',(31.72953459,-66.415674548,4.352763072));
#673=CARTESIAN_POINT('',(30.067756072,-65.739530419,4.352763072));
#674=CARTESIAN_POINT('',(26.479212087,-64.505966792,4.352763072));
#675=CARTESIAN_POINT('',(24.552471833,-63.948745724,4.352763072));
#676=CARTESIAN_POINT('',(20.417419088,-62.971900114,4.352763072));
#677=CARTESIAN_POINT('',(18.20920472,-62.552398495,4.352763072));
#678=CARTESIAN_POINT('',(13.503985588,-61.869601949,4.352763072));
#679=CARTESIAN_POINT('',(11.007084953,-61.606356903,4.352763072));
#680=CARTESIAN_POINT('',(5.723381114,-61.251877683,4.352763072));
#681=CARTESIAN_POINT('',(2.936657567,-61.160647745,4.352763072));
#682=CARTESIAN_POINT('',(0.00605695,-61.161571975,4.352763072));
#683=CARTESIAN_POINT('',(57.750122711,-122.000018128,42.852763072));
#684=CARTESIAN_POINT('',(57.750122711,-116.045196381,42.852763072));
#685=CARTESIAN_POINT('',(57.417743547,-110.60628018,42.852763072));
#686=CARTESIAN_POINT('',(56.470993069,-103.251850126,42.852763072));
#687=CARTESIAN_POINT('',(56.081128071,-100.934213151,42.852763072));
#688=CARTESIAN_POINT('',(55.166053423,-96.566806159,42.852763072));
#689=CARTESIAN_POINT('',(54.640908594,-94.517139377,42.852763072));
#690=CARTESIAN_POINT('',(53.470709232,-90.679362432,42.852763072));
#691=CARTESIAN_POINT('',(52.825794923,-88.89133767,42.852763072));
#692=CARTESIAN_POINT('',(51.430683307,-85.560857417,42.852763072));
#693=CARTESIAN_POINT('',(50.680692878,-84.018397922,42.852763072));
#694=CARTESIAN_POINT('',(49.083948619,-81.151859063,42.852763072));
#695=CARTESIAN_POINT('',(48.237388895,-79.827615383,42.852763072));
#696=CARTESIAN_POINT('',(46.443514462,-77.361410664,42.852763072));
#697=CARTESIAN_POINT('',(45.496245048,-76.219138589,42.852763072));
#698=CARTESIAN_POINT('',(43.480321722,-74.079187265,42.852763072));
#699=CARTESIAN_POINT('',(42.41148309,-73.081196224,42.852763072));
#700=CARTESIAN_POINT('',(40.117067518,-71.200536702,42.852763072));
#701=CARTESIAN_POINT('',(38.891158975,-70.317734689,42.852763072));
#702=CARTESIAN_POINT('',(36.240755976,-68.653903993,42.852763072));
#703=CARTESIAN_POINT('',(34.815971273,-67.872966725,42.852763072));
#704=CARTESIAN_POINT('',(31.72953459,-66.415674548,42.852763072));
#705=CARTESIAN_POINT('',(30.067756072,-65.739530419,42.852763072));
#706=CARTESIAN_POINT('',(26.479212087,-64.505966792,42.852763072));
#707=CARTESIAN_POINT('',(24.552471833,-63.948745724,42.852763072));
#708=CARTESIAN_POINT('',(20.417419088,-62.971900114,42.852763072));
#709=CARTESIAN_POINT('',(18.20920472,-62.552398495,42.852763072));
#710=CARTESIAN_POINT('',(13.503985588,-61.869601949,42.852763072));
#711=CARTESIAN_POINT('',(11.007084953,-61.606356903,42.852763072));
#712=CARTESIAN_POINT('',(5.723381114,-61.251877683,42.852763072));
#713=CARTESIAN_POINT('',(2.936657567,-61.160647745,42.852763072));
#714=CARTESIAN_POINT('',(0.00605695,-61.161571975,42.852763072));
#715=CARTESIAN_POINT('',(96.250122711,-122.000018128,42.852763072));
#716=CARTESIAN_POINT('',(96.250122711,-114.621497467,42.852763072));
#717=CARTESIAN_POINT('',(95.842917548,-107.557117609,42.852763072));
#718=CARTESIAN_POINT('',(94.535758133,-97.403003412,42.852763072));
#719=CARTESIAN_POINT('',(93.983564262,-94.092192279,42.852763072));
#720=CARTESIAN_POINT('',(92.627150484,-87.618391453,42.852763072));
#721=CARTESIAN_POINT('',(91.822865751,-84.455298524,42.852763072));
#722=CARTESIAN_POINT('',(89.940975732,-78.283466305,42.852763072));
#723=CARTESIAN_POINT('',(88.863230214,-75.274641616,42.852763072));
#724=CARTESIAN_POINT('',(86.413932354,-69.427555215,42.852763072));
#725=CARTESIAN_POINT('',(85.042173128,-66.589297506,42.852763072));
#726=CARTESIAN_POINT('',(81.990468761,-61.110756338,42.852763072));
#727=CARTESIAN_POINT('',(80.310329516,-58.470637195,42.852763072));
#728=CARTESIAN_POINT('',(76.639997364,-53.42469289,42.852763072));
#729=CARTESIAN_POINT('',(74.649759166,-51.019178768,42.852763072));
#730=CARTESIAN_POINT('',(70.373999516,-46.480356582,42.852763072));
#731=CARTESIAN_POINT('',(68.088662781,-44.347360315,42.852763072));
#732=CARTESIAN_POINT('',(63.252200946,-40.383066262,42.852763072));
#733=CARTESIAN_POINT('',(60.701407449,-38.551902011,42.852763072));
#734=CARTESIAN_POINT('',(55.370020838,-35.205043173,42.852763072));
#735=CARTESIAN_POINT('',(52.589717979,-33.689257174,42.852763072));
#736=CARTESIAN_POINT('',(46.831735124,-30.970567557,42.852763072));
#737=CARTESIAN_POINT('',(43.854181667,-29.767453162,42.852763072));
#738=CARTESIAN_POINT('',(37.723958267,-27.660186079,42.852763072));
#739=CARTESIAN_POINT('',(34.571263112,-26.755834968,42.852763072));
#740=CARTESIAN_POINT('',(28.101482444,-25.227444104,42.852763072));
#741=CARTESIAN_POINT('',(24.784298803,-24.603281431,42.852763072));
#742=CARTESIAN_POINT('',(17.98690003,-23.616878828,42.852763072));
#743=CARTESIAN_POINT('',(14.506580767,-23.254589016,42.852763072));
#744=CARTESIAN_POINT('',(7.378163578,-22.77634954,42.852763072));
#745=CARTESIAN_POINT('',(3.729985976,-22.660395637,42.852763072));
#746=CARTESIAN_POINT('',(-0.006084876,-22.66157389,42.852763072));
#747=CARTESIAN_POINT('',(96.250122711,-122.000018128,4.352763072));
#748=CARTESIAN_POINT('',(96.250122711,-114.621497467,4.352763072));
#749=CARTESIAN_POINT('',(95.842917548,-107.557117609,4.352763072));
#750=CARTESIAN_POINT('',(94.535758133,-97.403003412,4.352763072));
#751=CARTESIAN_POINT('',(93.983564262,-94.092192279,4.352763072));
#752=CARTESIAN_POINT('',(92.627150484,-87.618391453,4.352763072));
#753=CARTESIAN_POINT('',(91.822865751,-84.455298524,4.352763072));
#754=CARTESIAN_POINT('',(89.940975732,-78.283466305,4.352763072));
#755=CARTESIAN_POINT('',(88.863230214,-75.274641616,4.352763072));
#756=CARTESIAN_POINT('',(86.413932354,-69.427555215,4.352763072));
#757=CARTESIAN_POINT('',(85.042173128,-66.589297506,4.352763072));
#758=CARTESIAN_POINT('',(81.990468761,-61.110756338,4.352763072));
#759=CARTESIAN_POINT('',(80.310329516,-58.470637195,4.352763072));
#760=CARTESIAN_POINT('',(76.639997364,-53.42469289,4.352763072));
#761=CARTESIAN_POINT('',(74.649759166,-51.019178768,4.352763072));
#762=CARTESIAN_POINT('',(70.373999516,-46.480356582,4.352763072));
#763=CARTESIAN_POINT('',(68.088662781,-44.347360315,4.352763072));
#764=CARTESIAN_POINT('',(63.252200946,-40.383066262,4.352763072));
#765=CARTESIAN_POINT('',(60.701407449,-38.551902011,4.352763072));
#766=CARTESIAN_POINT('',(55.370020838,-35.205043173,4.352763072));
#767=CARTESIAN_POINT('',(52.589717979,-33.689257174,4.352763072));
#768=CARTESIAN_POINT('',(46.831735124,-30.970567557,4.352763072));
#769=CARTESIAN_POINT('',(43.854181667,-29.767453162,4.352763072));
#770=CARTESIAN_POINT('',(37.723958267,-27.660186079,4.352763072));
#771=CARTESIAN_POINT('',(34.571263112,-26.755834968,4.352763072));
#772=CARTESIAN_POINT('',(28.101482444,-25.227444104,4.352763072));
#773=CARTESIAN_POINT('',(24.784298803,-24.603281431,4.352763072));
#774=CARTESIAN_POINT('',(17.98690003,-23.616878828,4.352763072));
#775=CARTESIAN_POINT('',(14.506580767,-23.254589016,4.352763072));
#776=CARTESIAN_POINT('',(7.378163578,-22.77634954,4.352763072));
#777=CARTESIAN_POINT('',(3.729985976,-22.660395637,4.352763072));
#778=CARTESIAN_POINT('',(-0.006084876,-22.66157389,4.352763072));
#779=(BOUNDED_SURFACE()
B_SPLINE_SURFACE(3,3,((#555,#556,#557,#558,#559,#560,#561,#562,#563,#564,#565,#566,#567,#568,#569,#570,#571,#572,#573,#574,#575,#576,#577,#578,#579,#580,
#581,#582,#583,#584,#585,#586),(#587,#588,#589,#590,#591,#592,#593,#594,#595,#596,#597,#598,#599,#600,#601,#602,#603,#604,#605,#606,#607,#608,#609,#610,#611,#612,
#613,#614,#615,#616,#617,#618),(#619,#620,#621,#622,#623,#624,#625,#626,#627,#628,#629,#630,#631,#632,#633,#634,#635,#636,#637,#638,#639,#640,#641,#642,#643,#644,
#645,#646,#647,#648,#649,#650),(#651,#652,#653,#654,#655,#656,#657,#658,#659,#660,#661,#662,#663,#664,#665,#666,#667,#668,#669,#670,#671,#672,#673,#674,#675,#676,
#677,#678,#679,#680,#681,#682),(#683,#684,#685,#686,#687,#688,#689,#690,#691,#692,#693,#694,#695,#696,#697,#698,#699,#700,#701,#702,#703,#704,#705,#706,#707,#708,
#709,#710,#711,#712,#713,#714),(#715,#716,#717,#718,#719,#720,#721,#722,#723,#724,#725,#726,#727,#728,#729,#730,#731,#732,#733,#734,#735,#736,#737,#738,#739,#740,
#741,#742,#743,#744,#745,#746),(#747,#748,#749,#750,#751,#752,#753,#754,#755,#756,#757,#758,#759,#760,#761,#762,#763,#764,#765,#766,#767,#768,#769,#770,#771,#772,
#773,#774,#775,#776,#777,#778)),.UNSPECIFIED.,.F.,.F.,.U.)
B_SPLINE_SURFACE_WITH_KNOTS((4,3,4),(4,2,2,2,2,2,2,2,2,2,2,2,2,2,2,4),(0.483007915,0.5,1.),(0.119055704,0.214291778,0.261909815,0.309527852,0.357145889,0.404763926,0.452381963,0.5,0.547618037,0.595236074,0.642854111,0.690472148,0.738090185,0.785708222,0.833326259,0.880944296),.UNSPECIFIED.)
GEOMETRIC_REPRESENTATION_ITEM()
RATIONAL_B_SPLINE_SURFACE(((0.934341508,0.934341508,0.934341508,0.934341508,0.934341508,0.934341508,0.934341508,0.934341508,0.934341508,0.934341508,0.934341508,0.934341508,0.934341508,0.934341508,0.934341508,0.934341508,0.934341508,0.934341508,0.934341508,0.934341508,0.934341508,0.934341508,0.934341508,0.934341508,0.934341508,0.934341508,
0.934341508,0.934341508,0.934341508,0.934341508,0.934341508,0.934341508),(0.955457723,0.955457723,0.955457723,0.955457723,0.955457723,0.955457723,0.955457723,0.955457723,0.955457723,0.955457723,0.955457723,0.955457723,0.955457723,0.955457723,0.955457723,0.955457723,0.955457723,0.955457723,0.955457723,0.955457723,0.955457723,0.955457723,0.955457723,0.955457723,0.955457723,0.955457723,
0.955457723,0.955457723,0.955457723,0.955457723,0.955457723,0.955457723),(0.977343887,0.977343887,0.977343887,0.977343887,0.977343887,0.977343887,0.977343887,0.977343887,0.977343887,0.977343887,0.977343887,0.977343887,0.977343887,0.977343887,0.977343887,0.977343887,0.977343887,0.977343887,0.977343887,0.977343887,0.977343887,0.977343887,0.977343887,0.977343887,0.977343887,0.977343887,
0.977343887,0.977343887,0.977343887,0.977343887,0.977343887,0.977343887),(1.,1.,1.,1.,1.,1.,1.,1.,1.,1.,1.,1.,1.,1.,1.,1.,1.,1.,1.,1.,1.,1.,1.,1.,1.,1.,
1.,1.,1.,1.,1.,1.),(0.333333333,0.333333333,0.333333333,0.333333333,0.333333333,0.333333333,0.333333333,0.333333333,0.333333333,0.333333333,0.333333333,0.333333333,0.333333333,0.333333333,0.333333333,0.333333333,0.333333333,0.333333333,0.333333333,0.333333333,0.333333333,0.333333333,0.333333333,0.333333333,0.333333333,0.333333333,
0.333333333,0.333333333,0.333333333,0.333333333,0.333333333,0.333333333),(0.333333333,0.333333333,0.333333333,0.333333333,0.333333333,0.333333333,0.333333333,0.333333333,0.333333333,0.333333333,0.333333333,0.333333333,0.333333333,0.333333333,0.333333333,0.333333333,0.333333333,0.333333333,0.333333333,0.333333333,0.333333333,0.333333333,0.333333333,0.333333333,0.333333333,0.333333333,
0.333333333,0.333333333,0.333333333,0.333333333,0.333333333,0.333333333),(1.,1.,1.,1.,1.,1.,1.,1.,1.,1.,1.,1.,1.,1.,1.,1.,1.,1.,1.,1.,1.,1.,1.,1.,1.,1.,
1.,1.,1.,1.,1.,1.)))
REPRESENTATION_ITEM('')
SURFACE()
);
#780=ORIENTED_EDGE('',*,*,#319,.F.);
#781=CARTESIAN_POINT('',(-0.000013963,-41.911572932,4.352763072));
#782=DIRECTION('',(-0.99999995,-0.000315372,-0.));
#783=DIRECTION('',(-0.000315372,0.99999995,0.));
#784=AXIS2_PLACEMENT_3D('',#781,#782,#783);
#785=CIRCLE('',#784,19.25);
#786=EDGE_CURVE('',#438,#285,#785,.T.);
#787=ORIENTED_EDGE('',*,*,#786,.F.);
#788=ORIENTED_EDGE('',*,*,#515,.T.);
#789=ORIENTED_EDGE('',*,*,#548,.T.);
#790=EDGE_LOOP('',(#780,#787,#788,#789));
#791=FACE_BOUND('',#790,.T.);
#792=ADVANCED_FACE('',(#791),#779,.T.);
#793=CARTESIAN_POINT('',(-0.000013963,-41.911572932,4.352763072));
#794=DIRECTION('',(-0.99999995,-0.000315372,-0.));
#795=DIRECTION('',(-0.000315372,0.99999995,0.));
#796=AXIS2_PLACEMENT_3D('',#793,#794,#795);
#797=CYLINDRICAL_SURFACE('',#796,19.25);
#798=ORIENTED_EDGE('',*,*,#419,.F.);
#799=ORIENTED_EDGE('',*,*,#103,.F.);
#800=ORIENTED_EDGE('',*,*,#521,.T.);
#801=ORIENTED_EDGE('',*,*,#786,.T.);
#802=EDGE_LOOP('',(#798,#799,#800,#801));
#803=FACE_BOUND('',#802,.T.);
#804=ADVANCED_FACE('',(#803),#797,.T.);
#805=CLOSED_SHELL('',(#88,#122,#154,#409,#431,#536,#554,#792,#804));
#806=MANIFOLD_SOLID_BREP('Body 122 (1)',#805);
#807=COLOUR_RGB('',0.627451003,0.627451003,0.643137276);
#808=FILL_AREA_STYLE_COLOUR('',#807);
#809=FILL_AREA_STYLE('',(#808));
#810=SURFACE_STYLE_FILL_AREA(#809);
#811=SURFACE_SIDE_STYLE('',(#810));
#812=SURFACE_STYLE_USAGE(.BOTH.,#811);
#813=PRESENTATION_STYLE_ASSIGNMENT((#812));
#54=STYLED_ITEM('',(#813),#806);
#815=CARTESIAN_POINT('',(96.999991187,-150.000000167,48.000018128));
#816=DIRECTION('',(0.,-1.,-0.));
#817=DIRECTION('',(-1.,-0.,-0.));
#818=AXIS2_PLACEMENT_3D('',#815,#816,#817);
#819=PLANE('',#818);
#820=CARTESIAN_POINT('',(117.000000335,-150.000000167,3.000018128));
#821=VERTEX_POINT('',#820);
#822=CARTESIAN_POINT('',(36.999999665,-150.000000167,3.000018128));
#823=VERTEX_POINT('',#822);
#824=CARTESIAN_POINT('',(117.000000335,-150.000000167,3.000018128));
#825=DIRECTION('',(-1.,-0.,-0.));
#826=VECTOR('',#825,80.000000669);
#827=LINE('',#824,#826);
#828=EDGE_CURVE('',#821,#823,#827,.T.);
#829=ORIENTED_EDGE('',*,*,#828,.F.);
#830=CARTESIAN_POINT('',(117.000000335,-150.000000167,43.000018128));
#831=VERTEX_POINT('',#830);
#832=CARTESIAN_POINT('',(117.000000335,-150.000000167,43.000018128));
#833=DIRECTION('',(0.,0.,-1.));
#834=VECTOR('',#833,40.);
#835=LINE('',#832,#834);
#836=EDGE_CURVE('',#831,#821,#835,.T.);
#837=ORIENTED_EDGE('',*,*,#836,.F.);
#838=CARTESIAN_POINT('',(36.999999665,-150.000000167,43.000018128));
#839=VERTEX_POINT('',#838);
#840=CARTESIAN_POINT('',(117.000000335,-150.000000167,43.000018128));
#841=DIRECTION('',(-1.,-0.,-0.));
#842=VECTOR('',#841,80.000000669);
#843=LINE('',#840,#842);
#844=EDGE_CURVE('',#831,#839,#843,.T.);
#845=ORIENTED_EDGE('',*,*,#844,.T.);
#846=CARTESIAN_POINT('',(36.999999665,-150.000000167,43.000018128));
#847=DIRECTION('',(0.,0.,-1.));
#848=VECTOR('',#847,40.);
#849=LINE('',#846,#848);
#850=EDGE_CURVE('',#839,#823,#849,.T.);
#851=ORIENTED_EDGE('',*,*,#850,.T.);
#852=EDGE_LOOP('',(#829,#837,#845,#851));
#853=FACE_BOUND('',#852,.T.);
#854=ADVANCED_FACE('',(#853),#819,.T.);
#855=CARTESIAN_POINT('',(117.000000335,-145.000000167,48.000018128));
#856=DIRECTION('',(1.,0.,0.));
#857=DIRECTION('',(0.,-1.,-0.));
#858=AXIS2_PLACEMENT_3D('',#855,#856,#857);
#859=PLANE('',#858);
#860=CARTESIAN_POINT('',(117.000000335,-142.000000167,3.000018128));
#861=VERTEX_POINT('',#860);
#862=CARTESIAN_POINT('',(117.000000335,-142.000000167,3.000018128));
#863=DIRECTION('',(0.,-1.,-0.));
#864=VECTOR('',#863,8.);
#865=LINE('',#862,#864);
#866=EDGE_CURVE('',#861,#821,#865,.T.);
#867=ORIENTED_EDGE('',*,*,#866,.F.);
#868=CARTESIAN_POINT('',(117.000000335,-142.000000167,43.000018128));
#869=VERTEX_POINT('',#868);
#870=CARTESIAN_POINT('',(117.000000335,-142.000000167,43.000018128));
#871=DIRECTION('',(0.,0.,-1.));
#872=VECTOR('',#871,40.);
#873=LINE('',#870,#872);
#874=EDGE_CURVE('',#869,#861,#873,.T.);
#875=ORIENTED_EDGE('',*,*,#874,.F.);
#876=CARTESIAN_POINT('',(117.000000335,-142.000000167,43.000018128));
#877=DIRECTION('',(0.,-1.,-0.));
#878=VECTOR('',#877,8.);
#879=LINE('',#876,#878);
#880=EDGE_CURVE('',#869,#831,#879,.T.);
#881=ORIENTED_EDGE('',*,*,#880,.T.);
#882=ORIENTED_EDGE('',*,*,#836,.T.);
#883=EDGE_LOOP('',(#867,#875,#881,#882));
#884=FACE_BOUND('',#883,.T.);
#885=ADVANCED_FACE('',(#884),#859,.T.);
#886=CARTESIAN_POINT('',(99.500915115,-142.000000167,48.000018128));
#887=DIRECTION('',(-0.,1.,0.));
#888=DIRECTION('',(1.,0.,0.));
#889=AXIS2_PLACEMENT_3D('',#886,#887,#888);
#890=PLANE('',#889);
#891=CARTESIAN_POINT('',(37.001463314,-142.000000167,3.000018128));
#892=VERTEX_POINT('',#891);
#893=CARTESIAN_POINT('',(37.001463314,-142.000000167,3.000018128));
#894=DIRECTION('',(1.,0.,0.));
#895=VECTOR('',#894,79.998537021);
#896=LINE('',#893,#895);
#897=EDGE_CURVE('',#892,#861,#896,.T.);
#898=ORIENTED_EDGE('',*,*,#897,.F.);
#899=CARTESIAN_POINT('',(37.001463314,-142.000000167,43.000018128));
#900=VERTEX_POINT('',#899);
#901=CARTESIAN_POINT('',(37.001463314,-142.000000167,43.000018128));
#902=DIRECTION('',(0.,0.,-1.));
#903=VECTOR('',#902,40.);
#904=LINE('',#901,#903);
#905=EDGE_CURVE('',#900,#892,#904,.T.);
#906=ORIENTED_EDGE('',*,*,#905,.F.);
#907=CARTESIAN_POINT('',(37.001463314,-142.000000167,43.000018128));
#908=DIRECTION('',(1.,0.,0.));
#909=VECTOR('',#908,79.998537021);
#910=LINE('',#907,#909);
#911=EDGE_CURVE('',#900,#869,#910,.T.);
#912=ORIENTED_EDGE('',*,*,#911,.T.);
#913=ORIENTED_EDGE('',*,*,#874,.T.);
#914=EDGE_LOOP('',(#898,#906,#912,#913));
#915=FACE_BOUND('',#914,.T.);
#916=ADVANCED_FACE('',(#915),#890,.T.);
#917=CARTESIAN_POINT('',(37.000915784,-144.992681926,48.000018128));
#918=DIRECTION('',(0.999999983,-0.000182956,-0.));
#919=DIRECTION('',(-0.000182956,-0.999999983,-0.));
#920=AXIS2_PLACEMENT_3D('',#917,#918,#919);
#921=PLANE('',#920);
#922=CARTESIAN_POINT('',(37.001463314,-142.000000167,3.000018128));
#923=DIRECTION('',(-0.000182956,-0.999999983,-0.));
#924=VECTOR('',#923,8.000000134);
#925=LINE('',#922,#924);
#926=EDGE_CURVE('',#892,#823,#925,.T.);
#927=ORIENTED_EDGE('',*,*,#926,.T.);
#928=ORIENTED_EDGE('',*,*,#850,.F.);
#929=CARTESIAN_POINT('',(37.001463314,-142.000000167,43.000018128));
#930=DIRECTION('',(-0.000182956,-0.999999983,-0.));
#931=VECTOR('',#930,8.000000134);
#932=LINE('',#929,#931);
#933=EDGE_CURVE('',#900,#839,#932,.T.);
#934=ORIENTED_EDGE('',*,*,#933,.F.);
#935=ORIENTED_EDGE('',*,*,#905,.T.);
#936=EDGE_LOOP('',(#927,#928,#934,#935));
#937=FACE_BOUND('',#936,.T.);
#938=ADVANCED_FACE('',(#937),#921,.F.);
#939=CARTESIAN_POINT('',(-483.000017961,1599.999999833,43.000018128));
#940=DIRECTION('',(0.,-0.,1.));
#941=DIRECTION('',(0.,-1.,-0.));
#942=AXIS2_PLACEMENT_3D('',#939,#940,#941);
#943=PLANE('',#942);
#944=ORIENTED_EDGE('',*,*,#844,.F.);
#945=ORIENTED_EDGE('',*,*,#880,.F.);
#946=ORIENTED_EDGE('',*,*,#911,.F.);
#947=ORIENTED_EDGE('',*,*,#933,.T.);
#948=EDGE_LOOP('',(#944,#945,#946,#947));
#949=FACE_BOUND('',#948,.T.);
#950=ADVANCED_FACE('',(#949),#943,.T.);
#951=CARTESIAN_POINT('',(-483.000017961,1599.999999833,3.000018128));
#952=DIRECTION('',(0.,-0.,1.));
#953=DIRECTION('',(0.,-1.,-0.));
#954=AXIS2_PLACEMENT_3D('',#951,#952,#953);
#955=PLANE('',#954);
#956=ORIENTED_EDGE('',*,*,#828,.T.);
#957=ORIENTED_EDGE('',*,*,#926,.F.);
#958=ORIENTED_EDGE('',*,*,#897,.T.);
#959=ORIENTED_EDGE('',*,*,#866,.T.);
#960=EDGE_LOOP('',(#956,#957,#958,#959));
#961=FACE_BOUND('',#960,.T.);
#962=ADVANCED_FACE('',(#961),#955,.F.);
#963=CLOSED_SHELL('',(#854,#885,#916,#938,#950,#962));
#964=MANIFOLD_SOLID_BREP('Body 120 (4)',#963);
#814=STYLED_ITEM('',(#813),#964);
#966=CARTESIAN_POINT('',(-20.,-22.00000898,48.000018128));
#967=DIRECTION('',(1.,0.,0.));
#968=DIRECTION('',(0.,-1.,-0.));
#969=AXIS2_PLACEMENT_3D('',#966,#967,#968);
#970=PLANE('',#969);
#971=CARTESIAN_POINT('',(-20.,-1.999999833,3.000018128));
#972=VERTEX_POINT('',#971);
#973=CARTESIAN_POINT('',(-20.,-82.000000502,3.000018128));
#974=VERTEX_POINT('',#973);
#975=CARTESIAN_POINT('',(-20.,-1.999999833,3.000018128));
#976=DIRECTION('',(0.,-1.,-0.));
#977=VECTOR('',#976,80.000000669);
#978=LINE('',#975,#977);
#979=EDGE_CURVE('',#972,#974,#978,.T.);
#980=ORIENTED_EDGE('',*,*,#979,.F.);
#981=CARTESIAN_POINT('',(-20.,-1.999999833,43.000018128));
#982=VERTEX_POINT('',#981);
#983=CARTESIAN_POINT('',(-20.,-1.999999833,43.000018128));
#984=DIRECTION('',(0.,0.,-1.));
#985=VECTOR('',#984,40.);
#986=LINE('',#983,#985);
#987=EDGE_CURVE('',#982,#972,#986,.T.);
#988=ORIENTED_EDGE('',*,*,#987,.F.);
#989=CARTESIAN_POINT('',(-20.,-82.000000502,43.000018128));
#990=VERTEX_POINT('',#989);
#991=CARTESIAN_POINT('',(-20.,-1.999999833,43.000018128));
#992=DIRECTION('',(0.,-1.,-0.));
#993=VECTOR('',#992,80.000000669);
#994=LINE('',#991,#993);
#995=EDGE_CURVE('',#982,#990,#994,.T.);
#996=ORIENTED_EDGE('',*,*,#995,.T.);
#997=CARTESIAN_POINT('',(-20.,-82.000000502,43.000018128));
#998=DIRECTION('',(0.,0.,-1.));
#999=VECTOR('',#998,40.);
#1000=LINE('',#997,#999);
#1001=EDGE_CURVE('',#990,#974,#1000,.T.);
#1002=ORIENTED_EDGE('',*,*,#1001,.T.);
#1003=EDGE_LOOP('',(#980,#988,#996,#1002));
#1004=FACE_BOUND('',#1003,.T.);
#1005=ADVANCED_FACE('',(#1004),#970,.T.);
#1006=CARTESIAN_POINT('',(-25.,-1.999999833,48.000018128));
#1007=DIRECTION('',(0.,1.,0.));
#1008=DIRECTION('',(1.,0.,0.));
#1009=AXIS2_PLACEMENT_3D('',#1006,#1007,#1008);
#1010=PLANE('',#1009);
#1011=CARTESIAN_POINT('',(-28.,-1.999999833,3.000018128));
#1012=VERTEX_POINT('',#1011);
#1013=CARTESIAN_POINT('',(-28.,-1.999999833,3.000018128));
#1014=DIRECTION('',(1.,0.,-0.));
#1015=VECTOR('',#1014,8.);
#1016=LINE('',#1013,#1015);
#1017=EDGE_CURVE('',#1012,#972,#1016,.T.);
#1018=ORIENTED_EDGE('',*,*,#1017,.F.);
#1019=CARTESIAN_POINT('',(-28.,-1.999999833,43.000018128));
#1020=VERTEX_POINT('',#1019);
#1021=CARTESIAN_POINT('',(-28.,-1.999999833,43.000018128));
#1022=DIRECTION('',(0.,0.,-1.));
#1023=VECTOR('',#1022,40.);
#1024=LINE('',#1021,#1023);
#1025=EDGE_CURVE('',#1020,#1012,#1024,.T.);
#1026=ORIENTED_EDGE('',*,*,#1025,.F.);
#1027=CARTESIAN_POINT('',(-28.,-1.999999833,43.000018128));
#1028=DIRECTION('',(1.,0.,-0.));
#1029=VECTOR('',#1028,8.);
#1030=LINE('',#1027,#1029);
#1031=EDGE_CURVE('',#1020,#982,#1030,.T.);
#1032=ORIENTED_EDGE('',*,*,#1031,.T.);
#1033=ORIENTED_EDGE('',*,*,#987,.T.);
#1034=EDGE_LOOP('',(#1018,#1026,#1032,#1033));
#1035=FACE_BOUND('',#1034,.T.);
#1036=ADVANCED_FACE('',(#1035),#1010,.T.);
#1037=CARTESIAN_POINT('',(-28.,-19.499085052,48.000018128));
#1038=DIRECTION('',(-1.,0.,0.));
#1039=DIRECTION('',(0.,1.,0.));
#1040=AXIS2_PLACEMENT_3D('',#1037,#1038,#1039);
#1041=PLANE('',#1040);
#1042=CARTESIAN_POINT('',(-28.,-81.998536854,3.000018128));
#1043=VERTEX_POINT('',#1042);
#1044=CARTESIAN_POINT('',(-28.,-81.998536854,3.000018128));
#1045=DIRECTION('',(0.,1.,0.));
#1046=VECTOR('',#1045,79.998537021);
#1047=LINE('',#1044,#1046);
#1048=EDGE_CURVE('',#1043,#1012,#1047,.T.);
#1049=ORIENTED_EDGE('',*,*,#1048,.F.);
#1050=CARTESIAN_POINT('',(-28.,-81.998536854,43.000018128));
#1051=VERTEX_POINT('',#1050);
#1052=CARTESIAN_POINT('',(-28.,-81.998536854,43.000018128));
#1053=DIRECTION('',(0.,0.,-1.));
#1054=VECTOR('',#1053,40.);
#1055=LINE('',#1052,#1054);
#1056=EDGE_CURVE('',#1051,#1043,#1055,.T.);
#1057=ORIENTED_EDGE('',*,*,#1056,.F.);
#1058=CARTESIAN_POINT('',(-28.,-81.998536854,43.000018128));
#1059=DIRECTION('',(0.,1.,0.));
#1060=VECTOR('',#1059,79.998537021);
#1061=LINE('',#1058,#1060);
#1062=EDGE_CURVE('',#1051,#1020,#1061,.T.);
#1063=ORIENTED_EDGE('',*,*,#1062,.T.);
#1064=ORIENTED_EDGE('',*,*,#1025,.T.);
#1065=EDGE_LOOP('',(#1049,#1057,#1063,#1064));
#1066=FACE_BOUND('',#1065,.T.);
#1067=ADVANCED_FACE('',(#1066),#1041,.T.);
#1068=CARTESIAN_POINT('',(-25.007318241,-81.999084383,48.000018128));
#1069=DIRECTION('',(0.000182956,0.999999983,0.));
#1070=DIRECTION('',(0.999999983,-0.000182956,-0.));
#1071=AXIS2_PLACEMENT_3D('',#1068,#1069,#1070);
#1072=PLANE('',#1071);
#1073=CARTESIAN_POINT('',(-28.,-81.998536854,3.000018128));
#1074=DIRECTION('',(0.999999983,-0.000182956,-0.));
#1075=VECTOR('',#1074,8.000000134);
#1076=LINE('',#1073,#1075);
#1077=EDGE_CURVE('',#1043,#974,#1076,.T.);
#1078=ORIENTED_EDGE('',*,*,#1077,.T.);
#1079=ORIENTED_EDGE('',*,*,#1001,.F.);
#1080=CARTESIAN_POINT('',(-28.,-81.998536854,43.000018128));
#1081=DIRECTION('',(0.999999983,-0.000182956,-0.));
#1082=VECTOR('',#1081,8.000000134);
#1083=LINE('',#1080,#1082);
#1084=EDGE_CURVE('',#1051,#990,#1083,.T.);
#1085=ORIENTED_EDGE('',*,*,#1084,.F.);
#1086=ORIENTED_EDGE('',*,*,#1056,.T.);
#1087=EDGE_LOOP('',(#1078,#1079,#1085,#1086));
#1088=FACE_BOUND('',#1087,.T.);
#1089=ADVANCED_FACE('',(#1088),#1072,.F.);
#1090=CARTESIAN_POINT('',(-1770.,-602.000018128,43.000018128));
#1091=DIRECTION('',(0.,-0.,1.));
#1092=DIRECTION('',(1.,0.,0.));
#1093=AXIS2_PLACEMENT_3D('',#1090,#1091,#1092);
#1094=PLANE('',#1093);
#1095=ORIENTED_EDGE('',*,*,#995,.F.);
#1096=ORIENTED_EDGE('',*,*,#1031,.F.);
#1097=ORIENTED_EDGE('',*,*,#1062,.F.);
#1098=ORIENTED_EDGE('',*,*,#1084,.T.);
#1099=EDGE_LOOP('',(#1095,#1096,#1097,#1098));
#1100=FACE_BOUND('',#1099,.T.);
#1101=ADVANCED_FACE('',(#1100),#1094,.T.);
#1102=CARTESIAN_POINT('',(-1770.,-602.000018128,3.000018128));
#1103=DIRECTION('',(0.,-0.,1.));
#1104=DIRECTION('',(1.,0.,0.));
#1105=AXIS2_PLACEMENT_3D('',#1102,#1103,#1104);
#1106=PLANE('',#1105);
#1107=ORIENTED_EDGE('',*,*,#979,.T.);
#1108=ORIENTED_EDGE('',*,*,#1077,.F.);
#1109=ORIENTED_EDGE('',*,*,#1048,.T.);
#1110=ORIENTED_EDGE('',*,*,#1017,.T.);
#1111=EDGE_LOOP('',(#1107,#1108,#1109,#1110));
#1112=FACE_BOUND('',#1111,.T.);
#1113=ADVANCED_FACE('',(#1112),#1106,.F.);
#1114=CLOSED_SHELL('',(#1005,#1036,#1067,#1089,#1101,#1113));
#1115=MANIFOLD_SOLID_BREP('Body 120 (3)',#1114);
#965=STYLED_ITEM('',(#813),#1115);
#35=SHAPE_REPRESENTATION('Folder 34',(#15),#33);
#36=ADVANCED_BREP_SHAPE_REPRESENTATION('Folder 34',(#806,#964,#1115),#33);
#1123=SHAPE_REPRESENTATION_RELATIONSHIP('','',#35,#36);
#1124=CARTESIAN_POINT('',(0.,0.,0.));
#1125=DIRECTION('',(0.,0.,1.));
#1126=DIRECTION('',(1.,0.,0.));
#1127=AXIS2_PLACEMENT_3D('',#1124,#1125,#1126);
#1129=MAPPED_ITEM('',#1128,#1127);
#1128=REPRESENTATION_MAP(#1127,#35);
#1130=APPLICATION_CONTEXT('Managed model based 3d engineering');
#1131=APPLICATION_PROTOCOL_DEFINITION('international standard','ap242_managed_model_based_3d_engineering',2014,#1130);
#1132=PRODUCT_CONTEXT('',#1130,'mechanical');
#1133=PRODUCT_DEFINITION_CONTEXT('part definition',#1130,'design');
#43=PRODUCT('Folder 34','Folder 34','',(#1132));
#1134=PRODUCT_RELATED_PRODUCT_CATEGORY('part','',(#43));
#1135=PRODUCT_DEFINITION_FORMATION_WITH_SPECIFIED_SOURCE('','',#43,.NOT_KNOWN.);
#44=PRODUCT_DEFINITION('design','',#1135,#1133);
#42=PRODUCT_DEFINITION_SHAPE('','',#44);
#1136=SHAPE_DEFINITION_REPRESENTATION(#42,#35);
#34=DRAUGHTING_MODEL('',(#1129),#33);
#16=SHAPE_REPRESENTATION('root',(#15,#48),#10);
#1137=CARTESIAN_POINT('',(0.,0.,0.));
#1138=DIRECTION('',(0.,0.,1.));
#1139=DIRECTION('',(1.,0.,0.));
#1140=AXIS2_PLACEMENT_3D('',#1137,#1138,#1139);
#1142=MAPPED_ITEM('',#1141,#1140);
#1141=REPRESENTATION_MAP(#1140,#16);
#24=PRODUCT('root','root','',(#1132));
#1143=PRODUCT_RELATED_PRODUCT_CATEGORY('part','',(#24));
#1144=PRODUCT_DEFINITION_FORMATION_WITH_SPECIFIED_SOURCE('','',#24,.NOT_KNOWN.);
#25=PRODUCT_DEFINITION('design','',#1144,#1133);
#23=PRODUCT_DEFINITION_SHAPE('','',#25);
#1145=SHAPE_DEFINITION_REPRESENTATION(#23,#16);
#11=DRAUGHTING_MODEL('',(#1142),#10);
#1146=DESCRIPTIVE_REPRESENTATION_ITEM('KEY','/private/var/mobile/Containers/Data/Application/5F2095C5-6E5A-4F28-9900-660682EC0850/tmp/889841E5-F730-417A-BC42-B10A874D013F.tmp');
#1147=PROPERTY_DEFINITION('KEY','',#25);
#1148=REPRESENTATION('',(#1146),#10);
#1149=PROPERTY_DEFINITION_REPRESENTATION(#1147,#1148);
#1150=GENERAL_PROPERTY('','KEY','');
#1151=GENERAL_PROPERTY_ASSOCIATION('','',#1150,#1147);
#1=MECHANICAL_DESIGN_GEOMETRIC_PRESENTATION_REPRESENTATION('',(#54,#814,#965),#10);
ENDSEC;
END-ISO-10303-21;
