ISO-10303-21;
HEADER;

/* File generated by Shapr3D Version 26.50.0.10685 */

FILE_DESCRIPTION(('HOOPS Exchange Step'),'2;1');

FILE_NAME('/private/var/mobile/Containers/Data/Application/5F2095C5-6E5A-4F28-9900-660682EC0850/tmp/export/temp_export',
'2026-05-03T19:11:51+02:00',
('mobile'),
('Shapr3D Limited'),
'HOOPS Exchange 2025.9',
'Shapr3D',
'Authorized');

FILE_SCHEMA( ('AP242_MANAGED_MODEL_BASED_3D_ENGINEERING_MIM_LF {1 0 10303 442 1 1 4}') );

ENDSEC;

DATA;
#3=(NAMED_UNIT(*)PLANE_ANGLE_UNIT()SI_UNIT($,.RADIAN.));
#4=PLANE_ANGLE_MEASURE_WITH_UNIT(PLANE_ANGLE_MEASURE(0.0174532925),#3);
#5=(CONVERSION_BASED_UNIT('DEGREE',#4)NAMED_UNIT(#6)PLANE_ANGLE_UNIT());
#6=DIMENSIONAL_EXPONENTS(0.,0.,0.,0.,0.,0.,0.);
#7=(NAMED_UNIT(*)SI_UNIT($,.STERADIAN.)SOLID_ANGLE_UNIT());
#8=(LENGTH_UNIT()NAMED_UNIT(*)SI_UNIT(.MILLI.,.METRE.));
#9=UNCERTAINTY_MEASURE_WITH_UNIT(LENGTH_MEASURE(1.000000E-03),#8,'DISTANCE_ACCURACY_VALUE','Maximum Tolerance applied to model');
#10=(GEOMETRIC_REPRESENTATION_CONTEXT(3)GLOBAL_UNCERTAINTY_ASSIGNED_CONTEXT((#9))GLOBAL_UNIT_ASSIGNED_CONTEXT((#8,#5,#7))REPRESENTATION_CONTEXT('','root'));
#12=CARTESIAN_POINT('',(0.,0.,0.));
#13=DIRECTION('',(0.,0.,1.));
#14=DIRECTION('',(1.,0.,0.));
#15=AXIS2_PLACEMENT_3D('TS3D_PRODUCT_CSYS',#12,#13,#14);
#26=(NAMED_UNIT(*)PLANE_ANGLE_UNIT()SI_UNIT($,.RADIAN.));
#27=PLANE_ANGLE_MEASURE_WITH_UNIT(PLANE_ANGLE_MEASURE(0.0174532925),#26);
#28=(CONVERSION_BASED_UNIT('DEGREE',#27)NAMED_UNIT(#29)PLANE_ANGLE_UNIT());
#29=DIMENSIONAL_EXPONENTS(0.,0.,0.,0.,0.,0.,0.);
#30=(NAMED_UNIT(*)SI_UNIT($,.STERADIAN.)SOLID_ANGLE_UNIT());
#31=(LENGTH_UNIT()NAMED_UNIT(*)SI_UNIT(.MILLI.,.METRE.));
#32=UNCERTAINTY_MEASURE_WITH_UNIT(LENGTH_MEASURE(1.000000E-05),#31,'DISTANCE_ACCURACY_VALUE','Maximum Tolerance applied to model');
#33=(GEOMETRIC_REPRESENTATION_CONTEXT(3)GLOBAL_UNCERTAINTY_ASSIGNED_CONTEXT((#32))GLOBAL_UNIT_ASSIGNED_CONTEXT((#31,#28,#30))REPRESENTATION_CONTEXT('','Folder 33'));
#45=CARTESIAN_POINT('',(0.,0.,0.));
#46=DIRECTION('',(0.,0.,1.));
#47=DIRECTION('',(1.,0.,-0.));
#48=AXIS2_PLACEMENT_3D('',#45,#46,#47);
#49=ITEM_DEFINED_TRANSFORMATION('','',#48,#15);
#50=(REPRESENTATION_RELATIONSHIP('','',#35,#16)REPRESENTATION_RELATIONSHIP_WITH_TRANSFORMATION(#49)SHAPE_REPRESENTATION_RELATIONSHIP());
#51=NEXT_ASSEMBLY_USAGE_OCCURRENCE('Folder 33_1','Folder 33','Folder 33',#25,#44,$);
#52=PRODUCT_DEFINITION_SHAPE('','',#51);
#53=CONTEXT_DEPENDENT_SHAPE_REPRESENTATION(#50,#52);
#55=CARTESIAN_POINT('',(120.664476093,-1979.917898305,63.000018128));
#56=DIRECTION('',(-0.99999995,-0.000315372,-0.));
#57=DIRECTION('',(-0.000315372,0.99999995,0.));
#58=AXIS2_PLACEMENT_3D('',#55,#56,#57);
#59=PLANE('',#58);
#60=CARTESIAN_POINT('',(119.993931127,146.284529486,3.000018128));
#61=VERTEX_POINT('',#60);
#62=CARTESIAN_POINT('',(120.006042936,107.879709765,3.000018128));
#63=VERTEX_POINT('',#62);
#64=CARTESIAN_POINT('',(119.993931127,146.284529486,3.000018128));
#65=DIRECTION('',(0.000315372,-0.99999995,-0.));
#66=VECTOR('',#65,38.40482163);
#67=LINE('',#64,#66);
#68=EDGE_CURVE('',#61,#63,#67,.T.);
#69=ORIENTED_EDGE('',*,*,#68,.F.);
#70=CARTESIAN_POINT('',(119.993916119,146.332118668,4.352763072));
#71=VERTEX_POINT('',#70);
#72=CARTESIAN_POINT('',(119.999987032,127.082119626,4.352763072));
#73=DIRECTION('',(-0.99999995,-0.000315372,-0.));
#74=DIRECTION('',(-0.000315372,0.99999995,0.));
#75=AXIS2_PLACEMENT_3D('',#72,#73,#74);
#76=CIRCLE('',#75,19.25);
#77=EDGE_CURVE('',#71,#61,#76,.T.);
#78=ORIENTED_EDGE('',*,*,#77,.F.);
#79=CARTESIAN_POINT('',(119.999987032,127.082119626,4.352763072));
#80=DIRECTION('',(-0.99999995,-0.000315372,-0.));
#81=DIRECTION('',(-0.000315372,0.99999995,0.));
#82=AXIS2_PLACEMENT_3D('',#79,#80,#81);
#83=CIRCLE('',#82,19.25);
#84=EDGE_CURVE('',#63,#71,#83,.T.);
#85=ORIENTED_EDGE('',*,*,#84,.F.);
#86=EDGE_LOOP('',(#69,#78,#85));
#87=FACE_BOUND('',#86,.T.);
#88=ADVANCED_FACE('',(#87),#59,.F.);
#89=CARTESIAN_POINT('',(-139.335510977,-1979.999895052,63.000018128));
#90=DIRECTION('',(-0.99999995,-0.000315372,-0.));
#91=DIRECTION('',(-0.000315372,0.99999995,0.));
#92=AXIS2_PLACEMENT_3D('',#89,#90,#91);
#93=PLANE('',#92);
#94=CARTESIAN_POINT('',(-139.993944134,107.797713018,3.000018128));
#95=VERTEX_POINT('',#94);
#96=CARTESIAN_POINT('',(-140.006070952,146.250121921,4.352763072));
#97=VERTEX_POINT('',#96);
#98=CARTESIAN_POINT('',(-140.000000039,127.000122879,4.352763072));
#99=DIRECTION('',(-0.99999995,-0.000315372,-0.));
#100=DIRECTION('',(-0.000315372,0.99999995,0.));
#101=AXIS2_PLACEMENT_3D('',#98,#99,#100);
#102=CIRCLE('',#101,19.25);
#103=EDGE_CURVE('',#95,#97,#102,.T.);
#104=ORIENTED_EDGE('',*,*,#103,.T.);
#105=CARTESIAN_POINT('',(-140.006055943,146.202532739,3.000018128));
#106=VERTEX_POINT('',#105);
#107=CARTESIAN_POINT('',(-140.000000039,127.000122879,4.352763072));
#108=DIRECTION('',(-0.99999995,-0.000315372,-0.));
#109=DIRECTION('',(-0.000315372,0.99999995,0.));
#110=AXIS2_PLACEMENT_3D('',#107,#108,#109);
#111=CIRCLE('',#110,19.25);
#112=EDGE_CURVE('',#97,#106,#111,.T.);
#113=ORIENTED_EDGE('',*,*,#112,.T.);
#114=CARTESIAN_POINT('',(-140.006055943,146.202532739,3.000018128));
#115=DIRECTION('',(0.000315372,-0.99999995,-0.));
#116=VECTOR('',#115,38.40482163);
#117=LINE('',#114,#116);
#118=EDGE_CURVE('',#106,#95,#117,.T.);
#119=ORIENTED_EDGE('',*,*,#118,.T.);
#120=EDGE_LOOP('',(#104,#113,#119));
#121=FACE_BOUND('',#120,.T.);
#122=ADVANCED_FACE('',(#121),#93,.T.);
#123=CARTESIAN_POINT('',(119.999987032,127.082119626,4.352763072));
#124=DIRECTION('',(-0.99999995,-0.000315372,-0.));
#125=DIRECTION('',(-0.000315372,0.99999995,0.));
#126=AXIS2_PLACEMENT_3D('',#123,#124,#125);
#127=CYLINDRICAL_SURFACE('',#126,19.25);
#128=CARTESIAN_POINT('',(-140.006070952,146.250121921,4.352763072));
#129=DIRECTION('',(0.99999995,0.000315372,0.));
#130=VECTOR('',#129,260.);
#131=LINE('',#128,#130);
#132=EDGE_CURVE('',#97,#71,#131,.T.);
#133=ORIENTED_EDGE('',*,*,#132,.T.);
#134=ORIENTED_EDGE('',*,*,#77,.T.);
#135=CARTESIAN_POINT('',(119.993931127,146.284529486,3.000018128));
#136=DIRECTION('',(-0.99999995,-0.000315372,-0.));
#137=VECTOR('',#136,260.);
#138=LINE('',#135,#137);
#139=EDGE_CURVE('',#61,#106,#138,.T.);
#140=ORIENTED_EDGE('',*,*,#139,.T.);
#141=ORIENTED_EDGE('',*,*,#112,.F.);
#142=EDGE_LOOP('',(#133,#134,#140,#141));
#143=FACE_BOUND('',#142,.T.);
#144=ADVANCED_FACE('',(#143),#127,.T.);
#145=CARTESIAN_POINT('',(70.5,186.999981872,3.000018128));
#146=DIRECTION('',(0.,0.,-1.));
#147=DIRECTION('',(0.,1.,0.));
#148=AXIS2_PLACEMENT_3D('',#145,#146,#147);
#149=PLANE('',#148);
#150=ORIENTED_EDGE('',*,*,#118,.F.);
#151=ORIENTED_EDGE('',*,*,#139,.F.);
#152=ORIENTED_EDGE('',*,*,#68,.T.);
#153=CARTESIAN_POINT('',(-139.993944134,107.797713018,3.000018128));
#154=DIRECTION('',(0.99999995,0.000315372,0.));
#155=VECTOR('',#154,260.);
#156=LINE('',#153,#155);
#157=EDGE_CURVE('',#95,#63,#156,.T.);
#158=ORIENTED_EDGE('',*,*,#157,.F.);
#159=EDGE_LOOP('',(#150,#151,#152,#158));
#160=FACE_BOUND('',#159,.T.);
#161=ADVANCED_FACE('',(#160),#149,.T.);
#162=CARTESIAN_POINT('',(119.999987032,127.082119626,4.352763072));
#163=DIRECTION('',(-0.99999995,-0.000315372,-0.));
#164=DIRECTION('',(-0.000315372,0.99999995,0.));
#165=AXIS2_PLACEMENT_3D('',#162,#163,#164);
#166=CYLINDRICAL_SURFACE('',#165,19.25);
#167=ORIENTED_EDGE('',*,*,#132,.F.);
#168=ORIENTED_EDGE('',*,*,#103,.F.);
#169=ORIENTED_EDGE('',*,*,#157,.T.);
#170=ORIENTED_EDGE('',*,*,#84,.T.);
#171=EDGE_LOOP('',(#167,#168,#169,#170));
#172=FACE_BOUND('',#171,.T.);
#173=ADVANCED_FACE('',(#172),#166,.T.);
#174=CLOSED_SHELL('',(#88,#122,#144,#161,#173));
#175=MANIFOLD_SOLID_BREP('Body 123 (1)',#174);
#176=COLOUR_RGB('',0.627451003,0.627451003,0.643137276);
#177=FILL_AREA_STYLE_COLOUR('',#176);
#178=FILL_AREA_STYLE('',(#177));
#179=SURFACE_STYLE_FILL_AREA(#178);
#180=SURFACE_SIDE_STYLE('',(#179));
#181=SURFACE_STYLE_USAGE(.BOTH.,#180);
#182=PRESENTATION_STYLE_ASSIGNMENT((#181));
#54=STYLED_ITEM('',(#182),#175);
#184=CARTESIAN_POINT('',(128.,146.99999102,48.000018128));
#185=DIRECTION('',(1.,0.,0.));
#186=DIRECTION('',(0.,-1.,-0.));
#187=AXIS2_PLACEMENT_3D('',#184,#185,#186);
#188=PLANE('',#187);
#189=CARTESIAN_POINT('',(128.,167.000000167,3.000018128));
#190=VERTEX_POINT('',#189);
#191=CARTESIAN_POINT('',(128.,86.999999498,3.000018128));
#192=VERTEX_POINT('',#191);
#193=CARTESIAN_POINT('',(128.,167.000000167,3.000018128));
#194=DIRECTION('',(0.,-1.,-0.));
#195=VECTOR('',#194,80.000000669);
#196=LINE('',#193,#195);
#197=EDGE_CURVE('',#190,#192,#196,.T.);
#198=ORIENTED_EDGE('',*,*,#197,.F.);
#199=CARTESIAN_POINT('',(128.,167.000000167,43.000018128));
#200=VERTEX_POINT('',#199);
#201=CARTESIAN_POINT('',(128.,167.000000167,43.000018128));
#202=DIRECTION('',(0.,0.,-1.));
#203=VECTOR('',#202,40.);
#204=LINE('',#201,#203);
#205=EDGE_CURVE('',#200,#190,#204,.T.);
#206=ORIENTED_EDGE('',*,*,#205,.F.);
#207=CARTESIAN_POINT('',(128.,86.999999498,43.000018128));
#208=VERTEX_POINT('',#207);
#209=CARTESIAN_POINT('',(128.,167.000000167,43.000018128));
#210=DIRECTION('',(0.,-1.,-0.));
#211=VECTOR('',#210,80.000000669);
#212=LINE('',#209,#211);
#213=EDGE_CURVE('',#200,#208,#212,.T.);
#214=ORIENTED_EDGE('',*,*,#213,.T.);
#215=CARTESIAN_POINT('',(128.,86.999999498,43.000018128));
#216=DIRECTION('',(0.,0.,-1.));
#217=VECTOR('',#216,40.);
#218=LINE('',#215,#217);
#219=EDGE_CURVE('',#208,#192,#218,.T.);
#220=ORIENTED_EDGE('',*,*,#219,.T.);
#221=EDGE_LOOP('',(#198,#206,#214,#220));
#222=FACE_BOUND('',#221,.T.);
#223=ADVANCED_FACE('',(#222),#188,.T.);
#224=CARTESIAN_POINT('',(123.,167.000000167,48.000018128));
#225=DIRECTION('',(0.,1.,0.));
#226=DIRECTION('',(1.,0.,0.));
#227=AXIS2_PLACEMENT_3D('',#224,#225,#226);
#228=PLANE('',#227);
#229=CARTESIAN_POINT('',(120.,167.000000167,3.000018128));
#230=VERTEX_POINT('',#229);
#231=CARTESIAN_POINT('',(120.,167.000000167,3.000018128));
#232=DIRECTION('',(1.,0.,-0.));
#233=VECTOR('',#232,8.);
#234=LINE('',#231,#233);
#235=EDGE_CURVE('',#230,#190,#234,.T.);
#236=ORIENTED_EDGE('',*,*,#235,.F.);
#237=CARTESIAN_POINT('',(120.,167.000000167,43.000018128));
#238=VERTEX_POINT('',#237);
#239=CARTESIAN_POINT('',(120.,167.000000167,43.000018128));
#240=DIRECTION('',(0.,0.,-1.));
#241=VECTOR('',#240,40.);
#242=LINE('',#239,#241);
#243=EDGE_CURVE('',#238,#230,#242,.T.);
#244=ORIENTED_EDGE('',*,*,#243,.F.);
#245=CARTESIAN_POINT('',(120.,167.000000167,43.000018128));
#246=DIRECTION('',(1.,0.,-0.));
#247=VECTOR('',#246,8.);
#248=LINE('',#245,#247);
#249=EDGE_CURVE('',#238,#200,#248,.T.);
#250=ORIENTED_EDGE('',*,*,#249,.T.);
#251=ORIENTED_EDGE('',*,*,#205,.T.);
#252=EDGE_LOOP('',(#236,#244,#250,#251));
#253=FACE_BOUND('',#252,.T.);
#254=ADVANCED_FACE('',(#253),#228,.T.);
#255=CARTESIAN_POINT('',(120.,149.500914948,48.000018128));
#256=DIRECTION('',(-1.,0.,0.));
#257=DIRECTION('',(0.,1.,0.));
#258=AXIS2_PLACEMENT_3D('',#255,#256,#257);
#259=PLANE('',#258);
#260=CARTESIAN_POINT('',(120.,87.001463146,3.000018128));
#261=VERTEX_POINT('',#260);
#262=CARTESIAN_POINT('',(120.,87.001463146,3.000018128));
#263=DIRECTION('',(0.,1.,0.));
#264=VECTOR('',#263,79.998537021);
#265=LINE('',#262,#264);
#266=EDGE_CURVE('',#261,#230,#265,.T.);
#267=ORIENTED_EDGE('',*,*,#266,.F.);
#268=CARTESIAN_POINT('',(120.,87.001463146,43.000018128));
#269=VERTEX_POINT('',#268);
#270=CARTESIAN_POINT('',(120.,87.001463146,43.000018128));
#271=DIRECTION('',(0.,0.,-1.));
#272=VECTOR('',#271,40.);
#273=LINE('',#270,#272);
#274=EDGE_CURVE('',#269,#261,#273,.T.);
#275=ORIENTED_EDGE('',*,*,#274,.F.);
#276=CARTESIAN_POINT('',(120.,87.001463146,43.000018128));
#277=DIRECTION('',(0.,1.,0.));
#278=VECTOR('',#277,79.998537021);
#279=LINE('',#276,#278);
#280=EDGE_CURVE('',#269,#238,#279,.T.);
#281=ORIENTED_EDGE('',*,*,#280,.T.);
#282=ORIENTED_EDGE('',*,*,#243,.T.);
#283=EDGE_LOOP('',(#267,#275,#281,#282));
#284=FACE_BOUND('',#283,.T.);
#285=ADVANCED_FACE('',(#284),#259,.T.);
#286=CARTESIAN_POINT('',(122.992681759,87.000915617,48.000018128));
#287=DIRECTION('',(0.000182956,0.999999983,0.));
#288=DIRECTION('',(0.999999983,-0.000182956,-0.));
#289=AXIS2_PLACEMENT_3D('',#286,#287,#288);
#290=PLANE('',#289);
#291=CARTESIAN_POINT('',(120.,87.001463146,3.000018128));
#292=DIRECTION('',(0.999999983,-0.000182956,-0.));
#293=VECTOR('',#292,8.000000134);
#294=LINE('',#291,#293);
#295=EDGE_CURVE('',#261,#192,#294,.T.);
#296=ORIENTED_EDGE('',*,*,#295,.T.);
#297=ORIENTED_EDGE('',*,*,#219,.F.);
#298=CARTESIAN_POINT('',(120.,87.001463146,43.000018128));
#299=DIRECTION('',(0.999999983,-0.000182956,-0.));
#300=VECTOR('',#299,8.000000134);
#301=LINE('',#298,#300);
#302=EDGE_CURVE('',#269,#208,#301,.T.);
#303=ORIENTED_EDGE('',*,*,#302,.F.);
#304=ORIENTED_EDGE('',*,*,#274,.T.);
#305=EDGE_LOOP('',(#296,#297,#303,#304));
#306=FACE_BOUND('',#305,.T.);
#307=ADVANCED_FACE('',(#306),#290,.F.);
#308=CARTESIAN_POINT('',(-1622.,-433.000018128,43.000018128));
#309=DIRECTION('',(0.,-0.,1.));
#310=DIRECTION('',(1.,0.,0.));
#311=AXIS2_PLACEMENT_3D('',#308,#309,#310);
#312=PLANE('',#311);
#313=ORIENTED_EDGE('',*,*,#213,.F.);
#314=ORIENTED_EDGE('',*,*,#249,.F.);
#315=ORIENTED_EDGE('',*,*,#280,.F.);
#316=ORIENTED_EDGE('',*,*,#302,.T.);
#317=EDGE_LOOP('',(#313,#314,#315,#316));
#318=FACE_BOUND('',#317,.T.);
#319=ADVANCED_FACE('',(#318),#312,.T.);
#320=CARTESIAN_POINT('',(-1622.,-433.000018128,3.000018128));
#321=DIRECTION('',(0.,-0.,1.));
#322=DIRECTION('',(1.,0.,0.));
#323=AXIS2_PLACEMENT_3D('',#320,#321,#322);
#324=PLANE('',#323);
#325=ORIENTED_EDGE('',*,*,#197,.T.);
#326=ORIENTED_EDGE('',*,*,#295,.F.);
#327=ORIENTED_EDGE('',*,*,#266,.T.);
#328=ORIENTED_EDGE('',*,*,#235,.T.);
#329=EDGE_LOOP('',(#325,#326,#327,#328));
#330=FACE_BOUND('',#329,.T.);
#331=ADVANCED_FACE('',(#330),#324,.F.);
#332=CLOSED_SHELL('',(#223,#254,#285,#307,#319,#331));
#333=MANIFOLD_SOLID_BREP('Body 120 (2)',#332);
#183=STYLED_ITEM('',(#182),#333);
#335=CARTESIAN_POINT('',(-140.,146.99999102,48.000018128));
#336=DIRECTION('',(1.,0.,0.));
#337=DIRECTION('',(0.,-1.,-0.));
#338=AXIS2_PLACEMENT_3D('',#335,#336,#337);
#339=PLANE('',#338);
#340=CARTESIAN_POINT('',(-140.,167.000000167,3.000018128));
#341=VERTEX_POINT('',#340);
#342=CARTESIAN_POINT('',(-140.,86.999999498,3.000018128));
#343=VERTEX_POINT('',#342);
#344=CARTESIAN_POINT('',(-140.,167.000000167,3.000018128));
#345=DIRECTION('',(0.,-1.,-0.));
#346=VECTOR('',#345,80.000000669);
#347=LINE('',#344,#346);
#348=EDGE_CURVE('',#341,#343,#347,.T.);
#349=ORIENTED_EDGE('',*,*,#348,.F.);
#350=CARTESIAN_POINT('',(-140.,167.000000167,43.000018128));
#351=VERTEX_POINT('',#350);
#352=CARTESIAN_POINT('',(-140.,167.000000167,43.000018128));
#353=DIRECTION('',(0.,0.,-1.));
#354=VECTOR('',#353,40.);
#355=LINE('',#352,#354);
#356=EDGE_CURVE('',#351,#341,#355,.T.);
#357=ORIENTED_EDGE('',*,*,#356,.F.);
#358=CARTESIAN_POINT('',(-140.,86.999999498,43.000018128));
#359=VERTEX_POINT('',#358);
#360=CARTESIAN_POINT('',(-140.,167.000000167,43.000018128));
#361=DIRECTION('',(0.,-1.,-0.));
#362=VECTOR('',#361,80.000000669);
#363=LINE('',#360,#362);
#364=EDGE_CURVE('',#351,#359,#363,.T.);
#365=ORIENTED_EDGE('',*,*,#364,.T.);
#366=CARTESIAN_POINT('',(-140.,86.999999498,43.000018128));
#367=DIRECTION('',(0.,0.,-1.));
#368=VECTOR('',#367,40.);
#369=LINE('',#366,#368);
#370=EDGE_CURVE('',#359,#343,#369,.T.);
#371=ORIENTED_EDGE('',*,*,#370,.T.);
#372=EDGE_LOOP('',(#349,#357,#365,#371));
#373=FACE_BOUND('',#372,.T.);
#374=ADVANCED_FACE('',(#373),#339,.T.);
#375=CARTESIAN_POINT('',(-145.,167.000000167,48.000018128));
#376=DIRECTION('',(0.,1.,0.));
#377=DIRECTION('',(1.,0.,0.));
#378=AXIS2_PLACEMENT_3D('',#375,#376,#377);
#379=PLANE('',#378);
#380=CARTESIAN_POINT('',(-148.,167.000000167,3.000018128));
#381=VERTEX_POINT('',#380);
#382=CARTESIAN_POINT('',(-148.,167.000000167,3.000018128));
#383=DIRECTION('',(1.,0.,-0.));
#384=VECTOR('',#383,8.);
#385=LINE('',#382,#384);
#386=EDGE_CURVE('',#381,#341,#385,.T.);
#387=ORIENTED_EDGE('',*,*,#386,.F.);
#388=CARTESIAN_POINT('',(-148.,167.000000167,43.000018128));
#389=VERTEX_POINT('',#388);
#390=CARTESIAN_POINT('',(-148.,167.000000167,43.000018128));
#391=DIRECTION('',(0.,0.,-1.));
#392=VECTOR('',#391,40.);
#393=LINE('',#390,#392);
#394=EDGE_CURVE('',#389,#381,#393,.T.);
#395=ORIENTED_EDGE('',*,*,#394,.F.);
#396=CARTESIAN_POINT('',(-148.,167.000000167,43.000018128));
#397=DIRECTION('',(1.,0.,-0.));
#398=VECTOR('',#397,8.);
#399=LINE('',#396,#398);
#400=EDGE_CURVE('',#389,#351,#399,.T.);
#401=ORIENTED_EDGE('',*,*,#400,.T.);
#402=ORIENTED_EDGE('',*,*,#356,.T.);
#403=EDGE_LOOP('',(#387,#395,#401,#402));
#404=FACE_BOUND('',#403,.T.);
#405=ADVANCED_FACE('',(#404),#379,.T.);
#406=CARTESIAN_POINT('',(-148.,149.500914948,48.000018128));
#407=DIRECTION('',(-1.,0.,0.));
#408=DIRECTION('',(0.,1.,0.));
#409=AXIS2_PLACEMENT_3D('',#406,#407,#408);
#410=PLANE('',#409);
#411=CARTESIAN_POINT('',(-148.,87.001463146,3.000018128));
#412=VERTEX_POINT('',#411);
#413=CARTESIAN_POINT('',(-148.,87.001463146,3.000018128));
#414=DIRECTION('',(0.,1.,0.));
#415=VECTOR('',#414,79.998537021);
#416=LINE('',#413,#415);
#417=EDGE_CURVE('',#412,#381,#416,.T.);
#418=ORIENTED_EDGE('',*,*,#417,.F.);
#419=CARTESIAN_POINT('',(-148.,87.001463146,43.000018128));
#420=VERTEX_POINT('',#419);
#421=CARTESIAN_POINT('',(-148.,87.001463146,43.000018128));
#422=DIRECTION('',(0.,0.,-1.));
#423=VECTOR('',#422,40.);
#424=LINE('',#421,#423);
#425=EDGE_CURVE('',#420,#412,#424,.T.);
#426=ORIENTED_EDGE('',*,*,#425,.F.);
#427=CARTESIAN_POINT('',(-148.,87.001463146,43.000018128));
#428=DIRECTION('',(0.,1.,0.));
#429=VECTOR('',#428,79.998537021);
#430=LINE('',#427,#429);
#431=EDGE_CURVE('',#420,#389,#430,.T.);
#432=ORIENTED_EDGE('',*,*,#431,.T.);
#433=ORIENTED_EDGE('',*,*,#394,.T.);
#434=EDGE_LOOP('',(#418,#426,#432,#433));
#435=FACE_BOUND('',#434,.T.);
#436=ADVANCED_FACE('',(#435),#410,.T.);
#437=CARTESIAN_POINT('',(-145.007318241,87.000915617,48.000018128));
#438=DIRECTION('',(0.000182956,0.999999983,0.));
#439=DIRECTION('',(0.999999983,-0.000182956,-0.));
#440=AXIS2_PLACEMENT_3D('',#437,#438,#439);
#441=PLANE('',#440);
#442=CARTESIAN_POINT('',(-148.,87.001463146,3.000018128));
#443=DIRECTION('',(0.999999983,-0.000182956,-0.));
#444=VECTOR('',#443,8.000000134);
#445=LINE('',#442,#444);
#446=EDGE_CURVE('',#412,#343,#445,.T.);
#447=ORIENTED_EDGE('',*,*,#446,.T.);
#448=ORIENTED_EDGE('',*,*,#370,.F.);
#449=CARTESIAN_POINT('',(-148.,87.001463146,43.000018128));
#450=DIRECTION('',(0.999999983,-0.000182956,-0.));
#451=VECTOR('',#450,8.000000134);
#452=LINE('',#449,#451);
#453=EDGE_CURVE('',#420,#359,#452,.T.);
#454=ORIENTED_EDGE('',*,*,#453,.F.);
#455=ORIENTED_EDGE('',*,*,#425,.T.);
#456=EDGE_LOOP('',(#447,#448,#454,#455));
#457=FACE_BOUND('',#456,.T.);
#458=ADVANCED_FACE('',(#457),#441,.F.);
#459=CARTESIAN_POINT('',(-1890.,-433.000018128,43.000018128));
#460=DIRECTION('',(0.,-0.,1.));
#461=DIRECTION('',(1.,0.,0.));
#462=AXIS2_PLACEMENT_3D('',#459,#460,#461);
#463=PLANE('',#462);
#464=ORIENTED_EDGE('',*,*,#364,.F.);
#465=ORIENTED_EDGE('',*,*,#400,.F.);
#466=ORIENTED_EDGE('',*,*,#431,.F.);
#467=ORIENTED_EDGE('',*,*,#453,.T.);
#468=EDGE_LOOP('',(#464,#465,#466,#467));
#469=FACE_BOUND('',#468,.T.);
#470=ADVANCED_FACE('',(#469),#463,.T.);
#471=CARTESIAN_POINT('',(-1890.,-433.000018128,3.000018128));
#472=DIRECTION('',(0.,-0.,1.));
#473=DIRECTION('',(1.,0.,0.));
#474=AXIS2_PLACEMENT_3D('',#471,#472,#473);
#475=PLANE('',#474);
#476=ORIENTED_EDGE('',*,*,#348,.T.);
#477=ORIENTED_EDGE('',*,*,#446,.F.);
#478=ORIENTED_EDGE('',*,*,#417,.T.);
#479=ORIENTED_EDGE('',*,*,#386,.T.);
#480=EDGE_LOOP('',(#476,#477,#478,#479));
#481=FACE_BOUND('',#480,.T.);
#482=ADVANCED_FACE('',(#481),#475,.F.);
#483=CLOSED_SHELL('',(#374,#405,#436,#458,#470,#482));
#484=MANIFOLD_SOLID_BREP('Body 120 (1)',#483);
#334=STYLED_ITEM('',(#182),#484);
#35=SHAPE_REPRESENTATION('Folder 33',(#15),#33);
#36=ADVANCED_BREP_SHAPE_REPRESENTATION('Folder 33',(#175,#333,#484),#33);
#492=SHAPE_REPRESENTATION_RELATIONSHIP('','',#35,#36);
#493=CARTESIAN_POINT('',(0.,0.,0.));
#494=DIRECTION('',(0.,0.,1.));
#495=DIRECTION('',(1.,0.,0.));
#496=AXIS2_PLACEMENT_3D('',#493,#494,#495);
#498=MAPPED_ITEM('',#497,#496);
#497=REPRESENTATION_MAP(#496,#35);
#499=APPLICATION_CONTEXT('Managed model based 3d engineering');
#500=APPLICATION_PROTOCOL_DEFINITION('international standard','ap242_managed_model_based_3d_engineering',2014,#499);
#501=PRODUCT_CONTEXT('',#499,'mechanical');
#502=PRODUCT_DEFINITION_CONTEXT('part definition',#499,'design');
#43=PRODUCT('Folder 33','Folder 33','',(#501));
#503=PRODUCT_RELATED_PRODUCT_CATEGORY('part','',(#43));
#504=PRODUCT_DEFINITION_FORMATION_WITH_SPECIFIED_SOURCE('','',#43,.NOT_KNOWN.);
#44=PRODUCT_DEFINITION('design','',#504,#502);
#42=PRODUCT_DEFINITION_SHAPE('','',#44);
#505=SHAPE_DEFINITION_REPRESENTATION(#42,#35);
#34=DRAUGHTING_MODEL('',(#498),#33);
#16=SHAPE_REPRESENTATION('root',(#15,#48),#10);
#506=CARTESIAN_POINT('',(0.,0.,0.));
#507=DIRECTION('',(0.,0.,1.));
#508=DIRECTION('',(1.,0.,0.));
#509=AXIS2_PLACEMENT_3D('',#506,#507,#508);
#511=MAPPED_ITEM('',#510,#509);
#510=REPRESENTATION_MAP(#509,#16);
#24=PRODUCT('root','root','',(#501));
#512=PRODUCT_RELATED_PRODUCT_CATEGORY('part','',(#24));
#513=PRODUCT_DEFINITION_FORMATION_WITH_SPECIFIED_SOURCE('','',#24,.NOT_KNOWN.);
#25=PRODUCT_DEFINITION('design','',#513,#502);
#23=PRODUCT_DEFINITION_SHAPE('','',#25);
#514=SHAPE_DEFINITION_REPRESENTATION(#23,#16);
#11=DRAUGHTING_MODEL('',(#511),#10);
#515=DESCRIPTIVE_REPRESENTATION_ITEM('KEY','/private/var/mobile/Containers/Data/Application/5F2095C5-6E5A-4F28-9900-660682EC0850/tmp/382B9B08-3483-48FC-B514-EAF31C4971EF.tmp');
#516=PROPERTY_DEFINITION('KEY','',#25);
#517=REPRESENTATION('',(#515),#10);
#518=PROPERTY_DEFINITION_REPRESENTATION(#516,#517);
#519=GENERAL_PROPERTY('','KEY','');
#520=GENERAL_PROPERTY_ASSOCIATION('','',#519,#516);
#1=MECHANICAL_DESIGN_GEOMETRIC_PRESENTATION_REPRESENTATION('',(#54,#183,#334),#10);
ENDSEC;
END-ISO-10303-21;
