ISO-10303-21;
HEADER;

/* File generated by Shapr3D Version 26.50.0.10685 */

FILE_DESCRIPTION(('HOOPS Exchange Step'),'2;1');

FILE_NAME('/private/var/mobile/Containers/Data/Application/5F2095C5-6E5A-4F28-9900-660682EC0850/tmp/export/temp_export',
'2026-05-03T22:02:37+02:00',
('mobile'),
('Shapr3D Limited'),
'HOOPS Exchange 2025.9',
'Shapr3D',
'Authorized');

FILE_SCHEMA( ('AP242_MANAGED_MODEL_BASED_3D_ENGINEERING_MIM_LF {1 0 10303 442 1 1 4}') );

ENDSEC;

DATA;
#3=(NAMED_UNIT(*)PLANE_ANGLE_UNIT()SI_UNIT($,.RADIAN.));
#4=PLANE_ANGLE_MEASURE_WITH_UNIT(PLANE_ANGLE_MEASURE(0.0174532925),#3);
#5=(CONVERSION_BASED_UNIT('DEGREE',#4)NAMED_UNIT(#6)PLANE_ANGLE_UNIT());
#6=DIMENSIONAL_EXPONENTS(0.,0.,0.,0.,0.,0.,0.);
#7=(NAMED_UNIT(*)SI_UNIT($,.STERADIAN.)SOLID_ANGLE_UNIT());
#8=(LENGTH_UNIT()NAMED_UNIT(*)SI_UNIT(.MILLI.,.METRE.));
#9=UNCERTAINTY_MEASURE_WITH_UNIT(LENGTH_MEASURE(1.000000E-05),#8,'DISTANCE_ACCURACY_VALUE','Maximum Tolerance applied to model');
#10=(GEOMETRIC_REPRESENTATION_CONTEXT(3)GLOBAL_UNCERTAINTY_ASSIGNED_CONTEXT((#9))GLOBAL_UNIT_ASSIGNED_CONTEXT((#8,#5,#7))REPRESENTATION_CONTEXT('','root'));
#12=CARTESIAN_POINT('',(0.,0.,0.));
#13=DIRECTION('',(0.,0.,1.));
#14=DIRECTION('',(1.,0.,0.));
#15=AXIS2_PLACEMENT_3D('TS3D_PRODUCT_CSYS',#12,#13,#14);
#27=CARTESIAN_POINT('',(157.000122711,39.099981872,0.000018128));
#28=DIRECTION('',(0.,1.,0.));
#29=DIRECTION('',(0.,0.,1.));
#30=AXIS2_PLACEMENT_3D('',#27,#28,#29);
#31=PLANE('',#30);
#32=CARTESIAN_POINT('',(116.797711896,39.099981872,2.39606569));
#33=VERTEX_POINT('',#32);
#34=CARTESIAN_POINT('',(116.98617375,39.099981872,0.000018128));
#35=VERTEX_POINT('',#34);
#36=CARTESIAN_POINT('',(157.000122711,39.099981872,4.352763072));
#37=DIRECTION('',(-0.,-1.,-0.));
#38=DIRECTION('',(0.,-0.,1.));
#39=AXIS2_PLACEMENT_3D('',#36,#37,#38);
#40=CIRCLE('',#39,40.25);
#41=EDGE_CURVE('',#33,#35,#40,.T.);
#42=ORIENTED_EDGE('',*,*,#41,.F.);
#43=CARTESIAN_POINT('',(116.797711896,39.099981872,3.000018128));
#44=VERTEX_POINT('',#43);
#45=CARTESIAN_POINT('',(116.797711896,39.099981872,2.39606569));
#46=DIRECTION('',(0.,0.,1.));
#47=VECTOR('',#46,0.603952438);
#48=LINE('',#45,#47);
#49=EDGE_CURVE('',#33,#44,#48,.T.);
#50=ORIENTED_EDGE('',*,*,#49,.T.);
#51=CARTESIAN_POINT('',(197.202533526,39.099981872,3.000018128));
#52=VERTEX_POINT('',#51);
#53=CARTESIAN_POINT('',(197.202533526,39.099981872,3.000018128));
#54=DIRECTION('',(-1.,0.,0.));
#55=VECTOR('',#54,80.40482163);
#56=LINE('',#53,#55);
#57=EDGE_CURVE('',#52,#44,#56,.T.);
#58=ORIENTED_EDGE('',*,*,#57,.F.);
#59=CARTESIAN_POINT('',(197.202533526,39.099981872,2.39606569));
#60=VERTEX_POINT('',#59);
#61=CARTESIAN_POINT('',(197.202533526,39.099981872,2.39606569));
#62=DIRECTION('',(0.,0.,1.));
#63=VECTOR('',#62,0.603952438);
#64=LINE('',#61,#63);
#65=EDGE_CURVE('',#60,#52,#64,.T.);
#66=ORIENTED_EDGE('',*,*,#65,.F.);
#67=CARTESIAN_POINT('',(197.014071672,39.099981872,0.000018128));
#68=VERTEX_POINT('',#67);
#69=CARTESIAN_POINT('',(157.000122711,39.099981872,4.352763072));
#70=DIRECTION('',(-0.,-1.,-0.));
#71=DIRECTION('',(0.,-0.,1.));
#72=AXIS2_PLACEMENT_3D('',#69,#70,#71);
#73=CIRCLE('',#72,40.25);
#74=EDGE_CURVE('',#68,#60,#73,.T.);
#75=ORIENTED_EDGE('',*,*,#74,.F.);
#76=CARTESIAN_POINT('',(197.014071672,39.099981872,0.000018128));
#77=DIRECTION('',(-1.,0.,0.));
#78=VECTOR('',#77,80.027897922);
#79=LINE('',#76,#78);
#80=EDGE_CURVE('',#68,#35,#79,.T.);
#81=ORIENTED_EDGE('',*,*,#80,.T.);
#82=EDGE_LOOP('',(#42,#50,#58,#66,#75,#81));
#83=FACE_BOUND('',#82,.T.);
#84=ADVANCED_FACE('',(#83),#31,.T.);
#85=CARTESIAN_POINT('',(157.000122711,-137.000018128,0.000018128));
#86=DIRECTION('',(0.,-1.,0.));
#87=DIRECTION('',(0.,0.,-1.));
#88=AXIS2_PLACEMENT_3D('',#85,#86,#87);
#89=PLANE('',#88);
#90=CARTESIAN_POINT('',(116.98617375,-137.000018128,0.000018128));
#91=VERTEX_POINT('',#90);
#92=CARTESIAN_POINT('',(116.797711896,-137.000018128,2.39606569));
#93=VERTEX_POINT('',#92);
#94=CARTESIAN_POINT('',(157.000122711,-137.000018128,4.352763072));
#95=DIRECTION('',(-0.,1.,-0.));
#96=DIRECTION('',(0.,0.,-1.));
#97=AXIS2_PLACEMENT_3D('',#94,#95,#96);
#98=CIRCLE('',#97,40.25);
#99=EDGE_CURVE('',#91,#93,#98,.T.);
#100=ORIENTED_EDGE('',*,*,#99,.F.);
#101=CARTESIAN_POINT('',(197.014071672,-137.000018128,0.000018128));
#102=VERTEX_POINT('',#101);
#103=CARTESIAN_POINT('',(116.98617375,-137.000018128,0.000018128));
#104=DIRECTION('',(1.,0.,-0.));
#105=VECTOR('',#104,80.027897922);
#106=LINE('',#103,#105);
#107=EDGE_CURVE('',#91,#102,#106,.T.);
#108=ORIENTED_EDGE('',*,*,#107,.T.);
#109=CARTESIAN_POINT('',(197.202533526,-137.000018128,2.39606569));
#110=VERTEX_POINT('',#109);
#111=CARTESIAN_POINT('',(157.000122711,-137.000018128,4.352763072));
#112=DIRECTION('',(-0.,1.,-0.));
#113=DIRECTION('',(0.,0.,-1.));
#114=AXIS2_PLACEMENT_3D('',#111,#112,#113);
#115=CIRCLE('',#114,40.25);
#116=EDGE_CURVE('',#110,#102,#115,.T.);
#117=ORIENTED_EDGE('',*,*,#116,.F.);
#118=CARTESIAN_POINT('',(197.202533526,-137.000018128,3.000018128));
#119=VERTEX_POINT('',#118);
#120=CARTESIAN_POINT('',(197.202533526,-137.000018128,2.39606569));
#121=DIRECTION('',(0.,0.,1.));
#122=VECTOR('',#121,0.603952438);
#123=LINE('',#120,#122);
#124=EDGE_CURVE('',#110,#119,#123,.T.);
#125=ORIENTED_EDGE('',*,*,#124,.T.);
#126=CARTESIAN_POINT('',(116.797711896,-137.000018128,3.000018128));
#127=VERTEX_POINT('',#126);
#128=CARTESIAN_POINT('',(116.797711896,-137.000018128,3.000018128));
#129=DIRECTION('',(1.,0.,-0.));
#130=VECTOR('',#129,80.40482163);
#131=LINE('',#128,#130);
#132=EDGE_CURVE('',#127,#119,#131,.T.);
#133=ORIENTED_EDGE('',*,*,#132,.F.);
#134=CARTESIAN_POINT('',(116.797711896,-137.000018128,2.39606569));
#135=DIRECTION('',(0.,0.,1.));
#136=VECTOR('',#135,0.603952438);
#137=LINE('',#134,#136);
#138=EDGE_CURVE('',#93,#127,#137,.T.);
#139=ORIENTED_EDGE('',*,*,#138,.F.);
#140=EDGE_LOOP('',(#100,#108,#117,#125,#133,#139));
#141=FACE_BOUND('',#140,.T.);
#142=ADVANCED_FACE('',(#141),#89,.T.);
#143=CARTESIAN_POINT('',(157.,-131.400000167,0.000018128));
#144=DIRECTION('',(0.,1.,0.));
#145=DIRECTION('',(0.,0.,1.));
#146=AXIS2_PLACEMENT_3D('',#143,#144,#145);
#147=PLANE('',#146);
#148=CARTESIAN_POINT('',(119.797711896,-131.400000167,2.000018128));
#149=VERTEX_POINT('',#148);
#150=CARTESIAN_POINT('',(120.797711896,-131.400000167,2.000018128));
#151=VERTEX_POINT('',#150);
#152=CARTESIAN_POINT('',(119.797711896,-131.400000167,2.000018128));
#153=DIRECTION('',(1.,0.,-0.));
#154=VECTOR('',#153,1.);
#155=LINE('',#152,#154);
#156=EDGE_CURVE('',#149,#151,#155,.T.);
#157=ORIENTED_EDGE('',*,*,#156,.F.);
#158=CARTESIAN_POINT('',(119.797711896,-131.400000167,2.292911347));
#159=VERTEX_POINT('',#158);
#160=CARTESIAN_POINT('',(119.797711896,-131.400000167,2.000018128));
#161=DIRECTION('',(0.,0.,1.));
#162=VECTOR('',#161,0.292893219);
#163=LINE('',#160,#162);
#164=EDGE_CURVE('',#149,#159,#163,.T.);
#165=ORIENTED_EDGE('',*,*,#164,.T.);
#166=CARTESIAN_POINT('',(119.090601415,-131.400000167,3.000018128));
#167=VERTEX_POINT('',#166);
#168=CARTESIAN_POINT('',(119.090605115,-131.400000167,2.292911347));
#169=DIRECTION('',(0.,1.,0.));
#170=DIRECTION('',(0.,-0.,1.));
#171=AXIS2_PLACEMENT_3D('',#168,#169,#170);
#172=CIRCLE('',#171,0.707106781);
#173=EDGE_CURVE('',#167,#159,#172,.T.);
#174=ORIENTED_EDGE('',*,*,#173,.F.);
#175=CARTESIAN_POINT('',(121.504818677,-131.400000167,3.000018128));
#176=VERTEX_POINT('',#175);
#177=CARTESIAN_POINT('',(121.504818677,-131.400000167,3.000018128));
#178=DIRECTION('',(-1.,0.,0.));
#179=VECTOR('',#178,2.414217261);
#180=LINE('',#177,#179);
#181=EDGE_CURVE('',#176,#167,#180,.T.);
#182=ORIENTED_EDGE('',*,*,#181,.F.);
#183=CARTESIAN_POINT('',(120.797711896,-131.400000167,2.292911347));
#184=VERTEX_POINT('',#183);
#185=CARTESIAN_POINT('',(121.504818677,-131.400000167,2.292911347));
#186=DIRECTION('',(-0.,-1.,-0.));
#187=DIRECTION('',(0.,-0.,1.));
#188=AXIS2_PLACEMENT_3D('',#185,#186,#187);
#189=CIRCLE('',#188,0.707106781);
#190=EDGE_CURVE('',#176,#184,#189,.T.);
#191=ORIENTED_EDGE('',*,*,#190,.T.);
#192=CARTESIAN_POINT('',(120.797711896,-131.400000167,2.000018128));
#193=DIRECTION('',(0.,0.,1.));
#194=VECTOR('',#193,0.292893219);
#195=LINE('',#192,#194);
#196=EDGE_CURVE('',#151,#184,#195,.T.);
#197=ORIENTED_EDGE('',*,*,#196,.F.);
#198=EDGE_LOOP('',(#157,#165,#174,#182,#191,#197));
#199=FACE_BOUND('',#198,.T.);
#200=ADVANCED_FACE('',(#199),#147,.T.);
#201=CARTESIAN_POINT('',(157.000731824,32.399999833,0.000018128));
#202=DIRECTION('',(0.,-1.,0.));
#203=DIRECTION('',(0.,0.,-1.));
#204=AXIS2_PLACEMENT_3D('',#201,#202,#203);
#205=PLANE('',#204);
#206=CARTESIAN_POINT('',(120.797711896,32.399999833,2.292911347));
#207=VERTEX_POINT('',#206);
#208=CARTESIAN_POINT('',(120.797711896,32.399999833,2.000018128));
#209=VERTEX_POINT('',#208);
#210=CARTESIAN_POINT('',(120.797711896,32.399999833,2.292911347));
#211=DIRECTION('',(0.,0.,-1.));
#212=VECTOR('',#211,0.292893219);
#213=LINE('',#210,#212);
#214=EDGE_CURVE('',#207,#209,#213,.T.);
#215=ORIENTED_EDGE('',*,*,#214,.F.);
#216=CARTESIAN_POINT('',(121.504818677,32.399999833,3.000018128));
#217=VERTEX_POINT('',#216);
#218=CARTESIAN_POINT('',(121.504818677,32.399999833,2.292911347));
#219=DIRECTION('',(-0.,1.,-0.));
#220=DIRECTION('',(0.,0.,-1.));
#221=AXIS2_PLACEMENT_3D('',#218,#219,#220);
#222=CIRCLE('',#221,0.707106781);
#223=EDGE_CURVE('',#207,#217,#222,.T.);
#224=ORIENTED_EDGE('',*,*,#223,.T.);
#225=CARTESIAN_POINT('',(119.09061,32.399999833,3.000018128));
#226=VERTEX_POINT('',#225);
#227=CARTESIAN_POINT('',(119.09061,32.399999833,3.000018128));
#228=DIRECTION('',(1.,0.,-0.));
#229=VECTOR('',#228,2.414208677);
#230=LINE('',#227,#229);
#231=EDGE_CURVE('',#226,#217,#230,.T.);
#232=ORIENTED_EDGE('',*,*,#231,.F.);
#233=CARTESIAN_POINT('',(119.797711896,32.399999833,2.292911347));
#234=VERTEX_POINT('',#233);
#235=CARTESIAN_POINT('',(119.090605115,32.399999833,2.292911347));
#236=DIRECTION('',(-0.,1.,-0.));
#237=DIRECTION('',(0.,0.,-1.));
#238=AXIS2_PLACEMENT_3D('',#235,#236,#237);
#239=CIRCLE('',#238,0.707106781);
#240=EDGE_CURVE('',#226,#234,#239,.T.);
#241=ORIENTED_EDGE('',*,*,#240,.T.);
#242=CARTESIAN_POINT('',(119.797711896,32.399999833,2.000018128));
#243=VERTEX_POINT('',#242);
#244=CARTESIAN_POINT('',(119.797711896,32.399999833,2.292911347));
#245=DIRECTION('',(0.,0.,-1.));
#246=VECTOR('',#245,0.292893219);
#247=LINE('',#244,#246);
#248=EDGE_CURVE('',#234,#243,#247,.T.);
#249=ORIENTED_EDGE('',*,*,#248,.T.);
#250=CARTESIAN_POINT('',(119.797711896,32.399999833,2.000018128));
#251=DIRECTION('',(1.,0.,-0.));
#252=VECTOR('',#251,1.);
#253=LINE('',#250,#252);
#254=EDGE_CURVE('',#243,#209,#253,.T.);
#255=ORIENTED_EDGE('',*,*,#254,.T.);
#256=EDGE_LOOP('',(#215,#224,#232,#241,#249,#255));
#257=FACE_BOUND('',#256,.T.);
#258=ADVANCED_FACE('',(#257),#205,.T.);
#259=CARTESIAN_POINT('',(10.5,226.999981872,3.000018128));
#260=DIRECTION('',(0.,0.,-1.));
#261=DIRECTION('',(0.,1.,0.));
#262=AXIS2_PLACEMENT_3D('',#259,#260,#261);
#263=PLANE('',#262);
#264=CARTESIAN_POINT('',(121.504818677,32.399999833,3.000018128));
#265=DIRECTION('',(-0.,-1.,0.));
#266=VECTOR('',#265,163.8);
#267=LINE('',#264,#266);
#268=EDGE_CURVE('',#217,#176,#267,.T.);
#269=ORIENTED_EDGE('',*,*,#268,.T.);
#270=ORIENTED_EDGE('',*,*,#181,.T.);
#271=CARTESIAN_POINT('',(119.090605115,-131.400000167,3.000018128));
#272=DIRECTION('',(0.,1.,-0.));
#273=VECTOR('',#272,163.8);
#274=LINE('',#271,#273);
#275=EDGE_CURVE('',#167,#226,#274,.T.);
#276=ORIENTED_EDGE('',*,*,#275,.T.);
#277=ORIENTED_EDGE('',*,*,#231,.T.);
#278=EDGE_LOOP('',(#269,#270,#276,#277));
#279=FACE_BOUND('',#278,.T.);
#280=CARTESIAN_POINT('',(194.909635422,32.499999833,3.000018128));
#281=VERTEX_POINT('',#280);
#282=CARTESIAN_POINT('',(194.909637398,-131.700000167,3.000018128));
#283=VERTEX_POINT('',#282);
#284=CARTESIAN_POINT('',(194.909640307,32.499999833,3.000018128));
#285=DIRECTION('',(0.,-1.,-0.));
#286=VECTOR('',#285,164.2);
#287=LINE('',#284,#286);
#288=EDGE_CURVE('',#281,#283,#287,.T.);
#289=ORIENTED_EDGE('',*,*,#288,.T.);
#290=CARTESIAN_POINT('',(192.495426745,-131.700000167,3.000018128));
#291=VERTEX_POINT('',#290);
#292=CARTESIAN_POINT('',(194.909637398,-131.700000167,3.000018128));
#293=DIRECTION('',(-1.,0.,0.));
#294=VECTOR('',#293,2.414210653);
#295=LINE('',#292,#294);
#296=EDGE_CURVE('',#283,#291,#295,.T.);
#297=ORIENTED_EDGE('',*,*,#296,.T.);
#298=CARTESIAN_POINT('',(192.495426745,32.499999833,3.000018128));
#299=VERTEX_POINT('',#298);
#300=CARTESIAN_POINT('',(192.495426745,-131.700000167,3.000018128));
#301=DIRECTION('',(-0.,1.,0.));
#302=VECTOR('',#301,164.2);
#303=LINE('',#300,#302);
#304=EDGE_CURVE('',#291,#299,#303,.T.);
#305=ORIENTED_EDGE('',*,*,#304,.T.);
#306=CARTESIAN_POINT('',(192.495426745,32.499999833,3.000018128));
#307=DIRECTION('',(1.,0.,-0.));
#308=VECTOR('',#307,2.414208677);
#309=LINE('',#306,#308);
#310=EDGE_CURVE('',#299,#281,#309,.T.);
#311=ORIENTED_EDGE('',*,*,#310,.T.);
#312=EDGE_LOOP('',(#289,#297,#305,#311));
#313=FACE_BOUND('',#312,.T.);
#314=ORIENTED_EDGE('',*,*,#57,.T.);
#315=CARTESIAN_POINT('',(116.797711896,39.099981872,3.000018128));
#316=DIRECTION('',(-0.,-1.,0.));
#317=VECTOR('',#316,176.1);
#318=LINE('',#315,#317);
#319=EDGE_CURVE('',#44,#127,#318,.T.);
#320=ORIENTED_EDGE('',*,*,#319,.T.);
#321=ORIENTED_EDGE('',*,*,#132,.T.);
#322=CARTESIAN_POINT('',(197.202533526,-137.000018128,3.000018128));
#323=DIRECTION('',(-0.,1.,0.));
#324=VECTOR('',#323,176.1);
#325=LINE('',#322,#324);
#326=EDGE_CURVE('',#119,#52,#325,.T.);
#327=ORIENTED_EDGE('',*,*,#326,.T.);
#328=EDGE_LOOP('',(#314,#320,#321,#327));
#329=FACE_BOUND('',#328,.T.);
#330=ADVANCED_FACE('',(#279,#313,#329),#263,.F.);
#331=CARTESIAN_POINT('',(157.,-131.700000167,0.000018128));
#332=DIRECTION('',(0.,1.,0.));
#333=DIRECTION('',(0.,0.,1.));
#334=AXIS2_PLACEMENT_3D('',#331,#332,#333);
#335=PLANE('',#334);
#336=CARTESIAN_POINT('',(194.202533526,-131.700000167,2.292911347));
#337=VERTEX_POINT('',#336);
#338=CARTESIAN_POINT('',(194.202533526,-131.700000167,2.000018128));
#339=VERTEX_POINT('',#338);
#340=CARTESIAN_POINT('',(194.202533526,-131.700000167,2.292911347));
#341=DIRECTION('',(0.,0.,-1.));
#342=VECTOR('',#341,0.292893219);
#343=LINE('',#340,#342);
#344=EDGE_CURVE('',#337,#339,#343,.T.);
#345=ORIENTED_EDGE('',*,*,#344,.T.);
#346=CARTESIAN_POINT('',(193.202533526,-131.700000167,2.000018128));
#347=VERTEX_POINT('',#346);
#348=CARTESIAN_POINT('',(194.202533526,-131.700000167,2.000018128));
#349=DIRECTION('',(-1.,0.,0.));
#350=VECTOR('',#349,1.);
#351=LINE('',#348,#350);
#352=EDGE_CURVE('',#339,#347,#351,.T.);
#353=ORIENTED_EDGE('',*,*,#352,.T.);
#354=CARTESIAN_POINT('',(193.202533526,-131.700000167,2.292911347));
#355=VERTEX_POINT('',#354);
#356=CARTESIAN_POINT('',(193.202533526,-131.700000167,2.292911347));
#357=DIRECTION('',(0.,0.,-1.));
#358=VECTOR('',#357,0.292893219);
#359=LINE('',#356,#358);
#360=EDGE_CURVE('',#355,#347,#359,.T.);
#361=ORIENTED_EDGE('',*,*,#360,.F.);
#362=CARTESIAN_POINT('',(192.495426745,-131.700000167,2.292911347));
#363=DIRECTION('',(0.,1.,0.));
#364=DIRECTION('',(0.,-0.,1.));
#365=AXIS2_PLACEMENT_3D('',#362,#363,#364);
#366=CIRCLE('',#365,0.707106781);
#367=EDGE_CURVE('',#291,#355,#366,.T.);
#368=ORIENTED_EDGE('',*,*,#367,.F.);
#369=ORIENTED_EDGE('',*,*,#296,.F.);
#370=CARTESIAN_POINT('',(194.909640307,-131.700000167,2.292911347));
#371=DIRECTION('',(-0.,-1.,-0.));
#372=DIRECTION('',(0.,-0.,1.));
#373=AXIS2_PLACEMENT_3D('',#370,#371,#372);
#374=CIRCLE('',#373,0.707106781);
#375=EDGE_CURVE('',#283,#337,#374,.T.);
#376=ORIENTED_EDGE('',*,*,#375,.T.);
#377=EDGE_LOOP('',(#345,#353,#361,#368,#369,#376));
#378=FACE_BOUND('',#377,.T.);
#379=ADVANCED_FACE('',(#378),#335,.T.);
#380=CARTESIAN_POINT('',(197.202533526,-49.000018128,0.000018128));
#381=DIRECTION('',(1.,0.,0.));
#382=DIRECTION('',(-0.,1.,0.));
#383=AXIS2_PLACEMENT_3D('',#380,#381,#382);
#384=PLANE('',#383);
#385=CARTESIAN_POINT('',(197.202533526,39.099981872,2.39606569));
#386=DIRECTION('',(-0.,-1.,-0.));
#387=VECTOR('',#386,176.1);
#388=LINE('',#385,#387);
#389=EDGE_CURVE('',#60,#110,#388,.T.);
#390=ORIENTED_EDGE('',*,*,#389,.F.);
#391=ORIENTED_EDGE('',*,*,#65,.T.);
#392=ORIENTED_EDGE('',*,*,#326,.F.);
#393=ORIENTED_EDGE('',*,*,#124,.F.);
#394=EDGE_LOOP('',(#390,#391,#392,#393));
#395=FACE_BOUND('',#394,.T.);
#396=ADVANCED_FACE('',(#395),#384,.T.);
#397=CARTESIAN_POINT('',(157.000731824,32.499999833,0.000018128));
#398=DIRECTION('',(0.,-1.,0.));
#399=DIRECTION('',(0.,0.,-1.));
#400=AXIS2_PLACEMENT_3D('',#397,#398,#399);
#401=PLANE('',#400);
#402=CARTESIAN_POINT('',(193.202533526,32.499999833,2.292911347));
#403=VERTEX_POINT('',#402);
#404=CARTESIAN_POINT('',(192.495426745,32.499999833,2.292911347));
#405=DIRECTION('',(0.,-1.,0.));
#406=DIRECTION('',(0.,0.,-1.));
#407=AXIS2_PLACEMENT_3D('',#404,#405,#406);
#408=CIRCLE('',#407,0.707106781);
#409=EDGE_CURVE('',#403,#299,#408,.T.);
#410=ORIENTED_EDGE('',*,*,#409,.F.);
#411=CARTESIAN_POINT('',(193.202533526,32.499999833,2.000018128));
#412=VERTEX_POINT('',#411);
#413=CARTESIAN_POINT('',(193.202533526,32.499999833,2.000018128));
#414=DIRECTION('',(0.,0.,1.));
#415=VECTOR('',#414,0.292893219);
#416=LINE('',#413,#415);
#417=EDGE_CURVE('',#412,#403,#416,.T.);
#418=ORIENTED_EDGE('',*,*,#417,.F.);
#419=CARTESIAN_POINT('',(194.202533526,32.499999833,2.000018128));
#420=VERTEX_POINT('',#419);
#421=CARTESIAN_POINT('',(193.202533526,32.499999833,2.000018128));
#422=DIRECTION('',(1.,0.,-0.));
#423=VECTOR('',#422,1.);
#424=LINE('',#421,#423);
#425=EDGE_CURVE('',#412,#420,#424,.T.);
#426=ORIENTED_EDGE('',*,*,#425,.T.);
#427=CARTESIAN_POINT('',(194.202533526,32.499999833,2.292911347));
#428=VERTEX_POINT('',#427);
#429=CARTESIAN_POINT('',(194.202533526,32.499999833,2.000018128));
#430=DIRECTION('',(0.,0.,1.));
#431=VECTOR('',#430,0.292893219);
#432=LINE('',#429,#431);
#433=EDGE_CURVE('',#420,#428,#432,.T.);
#434=ORIENTED_EDGE('',*,*,#433,.T.);
#435=CARTESIAN_POINT('',(194.909640307,32.499999833,2.292911347));
#436=DIRECTION('',(0.,-1.,0.));
#437=DIRECTION('',(0.,0.,-1.));
#438=AXIS2_PLACEMENT_3D('',#435,#436,#437);
#439=CIRCLE('',#438,0.707106781);
#440=EDGE_CURVE('',#281,#428,#439,.T.);
#441=ORIENTED_EDGE('',*,*,#440,.F.);
#442=ORIENTED_EDGE('',*,*,#310,.F.);
#443=EDGE_LOOP('',(#410,#418,#426,#434,#441,#442));
#444=FACE_BOUND('',#443,.T.);
#445=ADVANCED_FACE('',(#444),#401,.T.);
#446=CARTESIAN_POINT('',(116.797711896,-49.000018128,0.000018128));
#447=DIRECTION('',(-1.,0.,0.));
#448=DIRECTION('',(-0.,-1.,0.));
#449=AXIS2_PLACEMENT_3D('',#446,#447,#448);
#450=PLANE('',#449);
#451=CARTESIAN_POINT('',(116.797711896,-137.000018128,2.39606569));
#452=DIRECTION('',(0.,1.,0.));
#453=VECTOR('',#452,176.1);
#454=LINE('',#451,#453);
#455=EDGE_CURVE('',#93,#33,#454,.T.);
#456=ORIENTED_EDGE('',*,*,#455,.F.);
#457=ORIENTED_EDGE('',*,*,#138,.T.);
#458=ORIENTED_EDGE('',*,*,#319,.F.);
#459=ORIENTED_EDGE('',*,*,#49,.F.);
#460=EDGE_LOOP('',(#456,#457,#458,#459));
#461=FACE_BOUND('',#460,.T.);
#462=ADVANCED_FACE('',(#461),#450,.T.);
#463=CARTESIAN_POINT('',(10.5,226.999981872,0.000018128));
#464=DIRECTION('',(0.,0.,-1.));
#465=DIRECTION('',(0.,1.,0.));
#466=AXIS2_PLACEMENT_3D('',#463,#464,#465);
#467=PLANE('',#466);
#468=CARTESIAN_POINT('',(116.98617375,39.099981872,0.000018128));
#469=DIRECTION('',(-0.,-1.,-0.));
#470=VECTOR('',#469,176.1);
#471=LINE('',#468,#470);
#472=EDGE_CURVE('',#35,#91,#471,.T.);
#473=ORIENTED_EDGE('',*,*,#472,.F.);
#474=ORIENTED_EDGE('',*,*,#80,.F.);
#475=CARTESIAN_POINT('',(197.014071672,-137.000018128,0.000018128));
#476=DIRECTION('',(0.,1.,0.));
#477=VECTOR('',#476,176.1);
#478=LINE('',#475,#477);
#479=EDGE_CURVE('',#102,#68,#478,.T.);
#480=ORIENTED_EDGE('',*,*,#479,.F.);
#481=ORIENTED_EDGE('',*,*,#107,.F.);
#482=EDGE_LOOP('',(#473,#474,#480,#481));
#483=FACE_BOUND('',#482,.T.);
#484=ADVANCED_FACE('',(#483),#467,.T.);
#485=CARTESIAN_POINT('',(120.797711896,-49.000018128,2.000018128));
#486=DIRECTION('',(-1.,0.,0.));
#487=DIRECTION('',(-0.,-1.,0.));
#488=AXIS2_PLACEMENT_3D('',#485,#486,#487);
#489=PLANE('',#488);
#490=CARTESIAN_POINT('',(120.797711896,32.399999833,2.000018128));
#491=DIRECTION('',(-0.,-1.,0.));
#492=VECTOR('',#491,163.8);
#493=LINE('',#490,#492);
#494=EDGE_CURVE('',#209,#151,#493,.T.);
#495=ORIENTED_EDGE('',*,*,#494,.T.);
#496=ORIENTED_EDGE('',*,*,#196,.T.);
#497=CARTESIAN_POINT('',(120.797711896,-131.400000167,2.292911347));
#498=DIRECTION('',(0.,1.,-0.));
#499=VECTOR('',#498,163.8);
#500=LINE('',#497,#499);
#501=EDGE_CURVE('',#184,#207,#500,.T.);
#502=ORIENTED_EDGE('',*,*,#501,.T.);
#503=ORIENTED_EDGE('',*,*,#214,.T.);
#504=EDGE_LOOP('',(#495,#496,#502,#503));
#505=FACE_BOUND('',#504,.T.);
#506=ADVANCED_FACE('',(#505),#489,.T.);
#507=CARTESIAN_POINT('',(119.797711896,-49.000018128,2.000018128));
#508=DIRECTION('',(-1.,0.,0.));
#509=DIRECTION('',(-0.,-1.,0.));
#510=AXIS2_PLACEMENT_3D('',#507,#508,#509);
#511=PLANE('',#510);
#512=ORIENTED_EDGE('',*,*,#164,.F.);
#513=CARTESIAN_POINT('',(119.797711896,32.399999833,2.000018128));
#514=DIRECTION('',(-0.,-1.,0.));
#515=VECTOR('',#514,163.8);
#516=LINE('',#513,#515);
#517=EDGE_CURVE('',#243,#149,#516,.T.);
#518=ORIENTED_EDGE('',*,*,#517,.F.);
#519=ORIENTED_EDGE('',*,*,#248,.F.);
#520=CARTESIAN_POINT('',(119.797711896,32.399999833,2.292911347));
#521=DIRECTION('',(-0.,-1.,0.));
#522=VECTOR('',#521,163.8);
#523=LINE('',#520,#522);
#524=EDGE_CURVE('',#234,#159,#523,.T.);
#525=ORIENTED_EDGE('',*,*,#524,.T.);
#526=EDGE_LOOP('',(#512,#518,#519,#525));
#527=FACE_BOUND('',#526,.T.);
#528=ADVANCED_FACE('',(#527),#511,.F.);
#529=CARTESIAN_POINT('',(10.5,160.999981872,2.000018128));
#530=DIRECTION('',(0.,0.,-1.));
#531=DIRECTION('',(0.,1.,0.));
#532=AXIS2_PLACEMENT_3D('',#529,#530,#531);
#533=PLANE('',#532);
#534=ORIENTED_EDGE('',*,*,#517,.T.);
#535=ORIENTED_EDGE('',*,*,#156,.T.);
#536=ORIENTED_EDGE('',*,*,#494,.F.);
#537=ORIENTED_EDGE('',*,*,#254,.F.);
#538=EDGE_LOOP('',(#534,#535,#536,#537));
#539=FACE_BOUND('',#538,.T.);
#540=ADVANCED_FACE('',(#539),#533,.F.);
#541=CARTESIAN_POINT('',(121.504818677,226.999981872,2.292911347));
#542=DIRECTION('',(0.,1.,0.));
#543=DIRECTION('',(-1.,0.,0.));
#544=AXIS2_PLACEMENT_3D('',#541,#542,#543);
#545=CYLINDRICAL_SURFACE('',#544,0.707106781);
#546=ORIENTED_EDGE('',*,*,#190,.F.);
#547=ORIENTED_EDGE('',*,*,#268,.F.);
#548=ORIENTED_EDGE('',*,*,#223,.F.);
#549=ORIENTED_EDGE('',*,*,#501,.F.);
#550=EDGE_LOOP('',(#546,#547,#548,#549));
#551=FACE_BOUND('',#550,.T.);
#552=ADVANCED_FACE('',(#551),#545,.T.);
#553=CARTESIAN_POINT('',(119.090605115,-49.000018128,2.292911347));
#554=DIRECTION('',(-0.,-1.,0.));
#555=DIRECTION('',(1.,-0.,0.));
#556=AXIS2_PLACEMENT_3D('',#553,#554,#555);
#557=CYLINDRICAL_SURFACE('',#556,0.707106781);
#558=ORIENTED_EDGE('',*,*,#275,.F.);
#559=ORIENTED_EDGE('',*,*,#173,.T.);
#560=ORIENTED_EDGE('',*,*,#524,.F.);
#561=ORIENTED_EDGE('',*,*,#240,.F.);
#562=EDGE_LOOP('',(#558,#559,#560,#561));
#563=FACE_BOUND('',#562,.T.);
#564=ADVANCED_FACE('',(#563),#557,.T.);
#565=CARTESIAN_POINT('',(194.202533526,-49.000018128,2.000018128));
#566=DIRECTION('',(1.,0.,0.));
#567=DIRECTION('',(-0.,1.,0.));
#568=AXIS2_PLACEMENT_3D('',#565,#566,#567);
#569=PLANE('',#568);
#570=ORIENTED_EDGE('',*,*,#344,.F.);
#571=CARTESIAN_POINT('',(194.202533526,-131.700000167,2.292911347));
#572=DIRECTION('',(-0.,1.,0.));
#573=VECTOR('',#572,164.2);
#574=LINE('',#571,#573);
#575=EDGE_CURVE('',#337,#428,#574,.T.);
#576=ORIENTED_EDGE('',*,*,#575,.T.);
#577=ORIENTED_EDGE('',*,*,#433,.F.);
#578=CARTESIAN_POINT('',(194.202533526,-131.700000167,2.000018128));
#579=DIRECTION('',(-0.,1.,0.));
#580=VECTOR('',#579,164.2);
#581=LINE('',#578,#580);
#582=EDGE_CURVE('',#339,#420,#581,.T.);
#583=ORIENTED_EDGE('',*,*,#582,.F.);
#584=EDGE_LOOP('',(#570,#576,#577,#583));
#585=FACE_BOUND('',#584,.T.);
#586=ADVANCED_FACE('',(#585),#569,.F.);
#587=CARTESIAN_POINT('',(193.202533526,-49.000018128,2.000018128));
#588=DIRECTION('',(1.,0.,0.));
#589=DIRECTION('',(-0.,1.,0.));
#590=AXIS2_PLACEMENT_3D('',#587,#588,#589);
#591=PLANE('',#590);
#592=CARTESIAN_POINT('',(193.202533526,32.499999833,2.292911347));
#593=DIRECTION('',(0.,-1.,-0.));
#594=VECTOR('',#593,164.2);
#595=LINE('',#592,#594);
#596=EDGE_CURVE('',#403,#355,#595,.T.);
#597=ORIENTED_EDGE('',*,*,#596,.T.);
#598=ORIENTED_EDGE('',*,*,#360,.T.);
#599=CARTESIAN_POINT('',(193.202533526,-131.700000167,2.000018128));
#600=DIRECTION('',(-0.,1.,0.));
#601=VECTOR('',#600,164.2);
#602=LINE('',#599,#601);
#603=EDGE_CURVE('',#347,#412,#602,.T.);
#604=ORIENTED_EDGE('',*,*,#603,.T.);
#605=ORIENTED_EDGE('',*,*,#417,.T.);
#606=EDGE_LOOP('',(#597,#598,#604,#605));
#607=FACE_BOUND('',#606,.T.);
#608=ADVANCED_FACE('',(#607),#591,.T.);
#609=CARTESIAN_POINT('',(10.5,160.999981872,2.000018128));
#610=DIRECTION('',(0.,0.,-1.));
#611=DIRECTION('',(0.,1.,0.));
#612=AXIS2_PLACEMENT_3D('',#609,#610,#611);
#613=PLANE('',#612);
#614=ORIENTED_EDGE('',*,*,#352,.F.);
#615=ORIENTED_EDGE('',*,*,#582,.T.);
#616=ORIENTED_EDGE('',*,*,#425,.F.);
#617=ORIENTED_EDGE('',*,*,#603,.F.);
#618=EDGE_LOOP('',(#614,#615,#616,#617));
#619=FACE_BOUND('',#618,.T.);
#620=ADVANCED_FACE('',(#619),#613,.F.);
#621=CARTESIAN_POINT('',(194.909640307,-49.000018128,2.292911347));
#622=DIRECTION('',(-0.,1.,0.));
#623=DIRECTION('',(-1.,-0.,0.));
#624=AXIS2_PLACEMENT_3D('',#621,#622,#623);
#625=CYLINDRICAL_SURFACE('',#624,0.707106781);
#626=ORIENTED_EDGE('',*,*,#375,.F.);
#627=ORIENTED_EDGE('',*,*,#288,.F.);
#628=ORIENTED_EDGE('',*,*,#440,.T.);
#629=ORIENTED_EDGE('',*,*,#575,.F.);
#630=EDGE_LOOP('',(#626,#627,#628,#629));
#631=FACE_BOUND('',#630,.T.);
#632=ADVANCED_FACE('',(#631),#625,.T.);
#633=CARTESIAN_POINT('',(192.495426745,226.999981872,2.292911347));
#634=DIRECTION('',(0.,-1.,0.));
#635=DIRECTION('',(1.,0.,0.));
#636=AXIS2_PLACEMENT_3D('',#633,#634,#635);
#637=CYLINDRICAL_SURFACE('',#636,0.707106781);
#638=ORIENTED_EDGE('',*,*,#304,.F.);
#639=ORIENTED_EDGE('',*,*,#367,.T.);
#640=ORIENTED_EDGE('',*,*,#596,.F.);
#641=ORIENTED_EDGE('',*,*,#409,.T.);
#642=EDGE_LOOP('',(#638,#639,#640,#641));
#643=FACE_BOUND('',#642,.T.);
#644=ADVANCED_FACE('',(#643),#637,.T.);
#645=CARTESIAN_POINT('',(157.000122711,-253.000018128,4.352763072));
#646=DIRECTION('',(0.,1.,0.));
#647=DIRECTION('',(0.,-0.,1.));
#648=AXIS2_PLACEMENT_3D('',#645,#646,#647);
#649=CYLINDRICAL_SURFACE('',#648,40.25);
#650=ORIENTED_EDGE('',*,*,#74,.T.);
#651=ORIENTED_EDGE('',*,*,#389,.T.);
#652=ORIENTED_EDGE('',*,*,#116,.T.);
#653=ORIENTED_EDGE('',*,*,#479,.T.);
#654=EDGE_LOOP('',(#650,#651,#652,#653));
#655=FACE_BOUND('',#654,.T.);
#656=ADVANCED_FACE('',(#655),#649,.T.);
#657=CARTESIAN_POINT('',(157.000122711,-253.000018128,4.352763072));
#658=DIRECTION('',(0.,1.,0.));
#659=DIRECTION('',(0.,-0.,1.));
#660=AXIS2_PLACEMENT_3D('',#657,#658,#659);
#661=CYLINDRICAL_SURFACE('',#660,40.25);
#662=ORIENTED_EDGE('',*,*,#455,.T.);
#663=ORIENTED_EDGE('',*,*,#41,.T.);
#664=ORIENTED_EDGE('',*,*,#472,.T.);
#665=ORIENTED_EDGE('',*,*,#99,.T.);
#666=EDGE_LOOP('',(#662,#663,#664,#665));
#667=FACE_BOUND('',#666,.T.);
#668=ADVANCED_FACE('',(#667),#661,.T.);
#669=CLOSED_SHELL('',(#84,#142,#200,#258,#330,#379,#396,#445,#462,#484,#506,#528,#540,#552,#564,#586,#608,#620,#632,#644,#656,#668));
#670=MANIFOLD_SOLID_BREP('Body 10',#669);
#671=COLOUR_RGB('',0.627451003,0.627451003,0.643137276);
#672=FILL_AREA_STYLE_COLOUR('',#671);
#673=FILL_AREA_STYLE('',(#672));
#674=SURFACE_STYLE_FILL_AREA(#673);
#675=SURFACE_SIDE_STYLE('',(#674));
#676=SURFACE_STYLE_USAGE(.BOTH.,#675);
#677=PRESENTATION_STYLE_ASSIGNMENT((#676));
#26=STYLED_ITEM('',(#677),#670);
#678=(NAMED_UNIT(*)PLANE_ANGLE_UNIT()SI_UNIT($,.RADIAN.));
#679=PLANE_ANGLE_MEASURE_WITH_UNIT(PLANE_ANGLE_MEASURE(0.0174532925),#678);
#680=(CONVERSION_BASED_UNIT('DEGREE',#679)NAMED_UNIT(#681)PLANE_ANGLE_UNIT());
#681=DIMENSIONAL_EXPONENTS(0.,0.,0.,0.,0.,0.,0.);
#682=(NAMED_UNIT(*)SI_UNIT($,.STERADIAN.)SOLID_ANGLE_UNIT());
#683=(LENGTH_UNIT()NAMED_UNIT(*)SI_UNIT(.MILLI.,.METRE.));
#684=UNCERTAINTY_MEASURE_WITH_UNIT(LENGTH_MEASURE(1.000000E-03),#683,'DISTANCE_ACCURACY_VALUE','Maximum Tolerance applied to model');
#685=(GEOMETRIC_REPRESENTATION_CONTEXT(3)GLOBAL_UNCERTAINTY_ASSIGNED_CONTEXT((#684))GLOBAL_UNIT_ASSIGNED_CONTEXT((#683,#680,#682))REPRESENTATION_CONTEXT('','Act ii print plast.step'));
#697=CARTESIAN_POINT('',(0.,0.,0.));
#698=DIRECTION('',(0.,0.,1.));
#699=DIRECTION('',(1.,0.,-0.));
#700=AXIS2_PLACEMENT_3D('',#697,#698,#699);
#701=ITEM_DEFINED_TRANSFORMATION('','',#700,#15);
#702=(REPRESENTATION_RELATIONSHIP('','',#687,#16)REPRESENTATION_RELATIONSHIP_WITH_TRANSFORMATION(#701)SHAPE_REPRESENTATION_RELATIONSHIP());
#703=NEXT_ASSEMBLY_USAGE_OCCURRENCE('Act ii print plast.step_1','Act ii print plast.step','Act ii print plast.step',#25,#696,$);
#704=PRODUCT_DEFINITION_SHAPE('','',#703);
#705=CONTEXT_DEPENDENT_SHAPE_REPRESENTATION(#702,#704);
#706=(NAMED_UNIT(*)PLANE_ANGLE_UNIT()SI_UNIT($,.RADIAN.));
#707=PLANE_ANGLE_MEASURE_WITH_UNIT(PLANE_ANGLE_MEASURE(0.0174532925),#706);
#708=(CONVERSION_BASED_UNIT('DEGREE',#707)NAMED_UNIT(#709)PLANE_ANGLE_UNIT());
#709=DIMENSIONAL_EXPONENTS(0.,0.,0.,0.,0.,0.,0.);
#710=(NAMED_UNIT(*)SI_UNIT($,.STERADIAN.)SOLID_ANGLE_UNIT());
#711=(LENGTH_UNIT()NAMED_UNIT(*)SI_UNIT(.MILLI.,.METRE.));
#712=UNCERTAINTY_MEASURE_WITH_UNIT(LENGTH_MEASURE(1.000000E-05),#711,'DISTANCE_ACCURACY_VALUE','Maximum Tolerance applied to model');
#713=(GEOMETRIC_REPRESENTATION_CONTEXT(3)GLOBAL_UNCERTAINTY_ASSIGNED_CONTEXT((#712))GLOBAL_UNIT_ASSIGNED_CONTEXT((#711,#708,#710))REPRESENTATION_CONTEXT('','Folder 35'));
#725=CARTESIAN_POINT('',(0.,0.,0.));
#726=DIRECTION('',(0.,0.,1.));
#727=DIRECTION('',(1.,0.,-0.));
#728=AXIS2_PLACEMENT_3D('',#725,#726,#727);
#729=ITEM_DEFINED_TRANSFORMATION('','',#728,#15);
#730=(REPRESENTATION_RELATIONSHIP('','',#715,#687)REPRESENTATION_RELATIONSHIP_WITH_TRANSFORMATION(#729)SHAPE_REPRESENTATION_RELATIONSHIP());
#731=NEXT_ASSEMBLY_USAGE_OCCURRENCE('Folder 35_2','Folder 35','Folder 35',#696,#724,$);
#732=PRODUCT_DEFINITION_SHAPE('','',#731);
#733=CONTEXT_DEPENDENT_SHAPE_REPRESENTATION(#730,#732);
#735=CARTESIAN_POINT('',(-1950.,30.999981872,63.000018128));
#736=DIRECTION('',(0.,1.,0.));
#737=DIRECTION('',(1.,0.,0.));
#738=AXIS2_PLACEMENT_3D('',#735,#736,#737);
#739=PLANE('',#738);
#740=CARTESIAN_POINT('',(137.797711896,30.999981872,3.000018128));
#741=VERTEX_POINT('',#740);
#742=CARTESIAN_POINT('',(176.250122711,30.999981872,4.352763072));
#743=VERTEX_POINT('',#742);
#744=CARTESIAN_POINT('',(157.000122711,30.999981872,4.352763072));
#745=DIRECTION('',(0.,1.,0.));
#746=DIRECTION('',(0.,-0.,1.));
#747=AXIS2_PLACEMENT_3D('',#744,#745,#746);
#748=CIRCLE('',#747,19.25);
#749=EDGE_CURVE('',#741,#743,#748,.T.);
#750=ORIENTED_EDGE('',*,*,#749,.T.);
#751=CARTESIAN_POINT('',(176.202533526,30.999981872,3.000018128));
#752=VERTEX_POINT('',#751);
#753=CARTESIAN_POINT('',(157.000122711,30.999981872,4.352763072));
#754=DIRECTION('',(0.,1.,0.));
#755=DIRECTION('',(0.,-0.,1.));
#756=AXIS2_PLACEMENT_3D('',#753,#754,#755);
#757=CIRCLE('',#756,19.25);
#758=EDGE_CURVE('',#743,#752,#757,.T.);
#759=ORIENTED_EDGE('',*,*,#758,.T.);
#760=CARTESIAN_POINT('',(176.202533526,30.999981872,3.000018128));
#761=DIRECTION('',(-1.,-0.,0.));
#762=VECTOR('',#761,38.40482163);
#763=LINE('',#760,#762);
#764=EDGE_CURVE('',#752,#741,#763,.T.);
#765=ORIENTED_EDGE('',*,*,#764,.T.);
#766=EDGE_LOOP('',(#750,#759,#765));
#767=FACE_BOUND('',#766,.T.);
#768=ADVANCED_FACE('',(#767),#739,.T.);
#769=CARTESIAN_POINT('',(157.000122711,-49.000018128,4.352763072));
#770=DIRECTION('',(-0.,1.,0.));
#771=DIRECTION('',(1.,0.,0.));
#772=AXIS2_PLACEMENT_3D('',#769,#770,#771);
#773=CYLINDRICAL_SURFACE('',#772,19.25);
#774=CARTESIAN_POINT('',(176.250122711,-129.000018128,4.352763072));
#775=VERTEX_POINT('',#774);
#776=CARTESIAN_POINT('',(176.250122711,30.999981872,4.352763072));
#777=DIRECTION('',(-0.,-1.,-0.));
#778=VECTOR('',#777,160.);
#779=LINE('',#776,#778);
#780=EDGE_CURVE('',#743,#775,#779,.T.);
#781=ORIENTED_EDGE('',*,*,#780,.T.);
#782=CARTESIAN_POINT('',(176.202533526,-129.000018128,3.000018128));
#783=VERTEX_POINT('',#782);
#784=CARTESIAN_POINT('',(157.000122711,-129.000018128,4.352763072));
#785=DIRECTION('',(0.,1.,0.));
#786=DIRECTION('',(0.,-0.,1.));
#787=AXIS2_PLACEMENT_3D('',#784,#785,#786);
#788=CIRCLE('',#787,19.25);
#789=EDGE_CURVE('',#775,#783,#788,.T.);
#790=ORIENTED_EDGE('',*,*,#789,.T.);
#791=CARTESIAN_POINT('',(176.202533526,-129.000018128,3.000018128));
#792=DIRECTION('',(0.,1.,0.));
#793=VECTOR('',#792,160.);
#794=LINE('',#791,#793);
#795=EDGE_CURVE('',#783,#752,#794,.T.);
#796=ORIENTED_EDGE('',*,*,#795,.T.);
#797=ORIENTED_EDGE('',*,*,#758,.F.);
#798=EDGE_LOOP('',(#781,#790,#796,#797));
#799=FACE_BOUND('',#798,.T.);
#800=ADVANCED_FACE('',(#799),#773,.T.);
#801=CARTESIAN_POINT('',(10.5,160.999981872,3.000018128));
#802=DIRECTION('',(0.,0.,-1.));
#803=DIRECTION('',(0.,1.,0.));
#804=AXIS2_PLACEMENT_3D('',#801,#802,#803);
#805=PLANE('',#804);
#806=ORIENTED_EDGE('',*,*,#764,.F.);
#807=ORIENTED_EDGE('',*,*,#795,.F.);
#808=CARTESIAN_POINT('',(137.797711896,-129.000018128,3.000018128));
#809=VERTEX_POINT('',#808);
#810=CARTESIAN_POINT('',(176.202533526,-129.000018128,3.000018128));
#811=DIRECTION('',(-1.,-0.,0.));
#812=VECTOR('',#811,38.40482163);
#813=LINE('',#810,#812);
#814=EDGE_CURVE('',#783,#809,#813,.T.);
#815=ORIENTED_EDGE('',*,*,#814,.T.);
#816=CARTESIAN_POINT('',(137.797711896,30.999981872,3.000018128));
#817=DIRECTION('',(-0.,-1.,-0.));
#818=VECTOR('',#817,160.);
#819=LINE('',#816,#818);
#820=EDGE_CURVE('',#741,#809,#819,.T.);
#821=ORIENTED_EDGE('',*,*,#820,.F.);
#822=EDGE_LOOP('',(#806,#807,#815,#821));
#823=FACE_BOUND('',#822,.T.);
#824=ADVANCED_FACE('',(#823),#805,.T.);
#825=CARTESIAN_POINT('',(-1950.,-129.000018128,63.000018128));
#826=DIRECTION('',(0.,1.,0.));
#827=DIRECTION('',(1.,0.,0.));
#828=AXIS2_PLACEMENT_3D('',#825,#826,#827);
#829=PLANE('',#828);
#830=ORIENTED_EDGE('',*,*,#814,.F.);
#831=ORIENTED_EDGE('',*,*,#789,.F.);
#832=CARTESIAN_POINT('',(157.000122711,-129.000018128,4.352763072));
#833=DIRECTION('',(0.,1.,0.));
#834=DIRECTION('',(0.,-0.,1.));
#835=AXIS2_PLACEMENT_3D('',#832,#833,#834);
#836=CIRCLE('',#835,19.25);
#837=EDGE_CURVE('',#809,#775,#836,.T.);
#838=ORIENTED_EDGE('',*,*,#837,.F.);
#839=EDGE_LOOP('',(#830,#831,#838));
#840=FACE_BOUND('',#839,.T.);
#841=ADVANCED_FACE('',(#840),#829,.F.);
#842=CARTESIAN_POINT('',(157.000122711,-49.000018128,4.352763072));
#843=DIRECTION('',(-0.,1.,0.));
#844=DIRECTION('',(1.,0.,0.));
#845=AXIS2_PLACEMENT_3D('',#842,#843,#844);
#846=CYLINDRICAL_SURFACE('',#845,19.25);
#847=ORIENTED_EDGE('',*,*,#780,.F.);
#848=ORIENTED_EDGE('',*,*,#749,.F.);
#849=ORIENTED_EDGE('',*,*,#820,.T.);
#850=ORIENTED_EDGE('',*,*,#837,.T.);
#851=EDGE_LOOP('',(#847,#848,#849,#850));
#852=FACE_BOUND('',#851,.T.);
#853=ADVANCED_FACE('',(#852),#846,.T.);
#854=CLOSED_SHELL('',(#768,#800,#824,#841,#853));
#855=MANIFOLD_SOLID_BREP('Body 121 (2)',#854);
#734=STYLED_ITEM('',(#677),#855);
#857=CARTESIAN_POINT('',(179.500915115,-129.000000167,48.000018128));
#858=DIRECTION('',(0.,1.,0.));
#859=DIRECTION('',(1.,0.,0.));
#860=AXIS2_PLACEMENT_3D('',#857,#858,#859);
#861=PLANE('',#860);
#862=CARTESIAN_POINT('',(145.755027041,-129.000000167,43.000018128));
#863=VERTEX_POINT('',#862);
#864=CARTESIAN_POINT('',(117.001463313,-129.000000167,8.84383715));
#865=VERTEX_POINT('',#864);
#866=CARTESIAN_POINT('',(157.000122711,-129.000000167,4.352763072));
#867=DIRECTION('',(-0.,-1.,-0.));
#868=DIRECTION('',(0.,-0.,1.));
#869=AXIS2_PLACEMENT_3D('',#866,#867,#868);
#870=CIRCLE('',#869,40.25);
#871=EDGE_CURVE('',#863,#865,#870,.T.);
#872=ORIENTED_EDGE('',*,*,#871,.F.);
#873=CARTESIAN_POINT('',(168.245218381,-129.000000167,43.000018128));
#874=VERTEX_POINT('',#873);
#875=CARTESIAN_POINT('',(145.755027041,-129.000000167,43.000018128));
#876=DIRECTION('',(1.,0.,-0.));
#877=VECTOR('',#876,22.490191341);
#878=LINE('',#875,#877);
#879=EDGE_CURVE('',#863,#874,#878,.T.);
#880=ORIENTED_EDGE('',*,*,#879,.T.);
#881=CARTESIAN_POINT('',(197.000000335,-129.000000167,8.832974012));
#882=VERTEX_POINT('',#881);
#883=CARTESIAN_POINT('',(157.000122711,-129.000000167,4.352763072));
#884=DIRECTION('',(-0.,-1.,-0.));
#885=DIRECTION('',(0.,-0.,1.));
#886=AXIS2_PLACEMENT_3D('',#883,#884,#885);
#887=CIRCLE('',#886,40.25);
#888=EDGE_CURVE('',#882,#874,#887,.T.);
#889=ORIENTED_EDGE('',*,*,#888,.F.);
#890=CARTESIAN_POINT('',(197.000000335,-129.000000167,3.000018128));
#891=VERTEX_POINT('',#890);
#892=CARTESIAN_POINT('',(197.000000335,-129.000000167,8.832974012));
#893=DIRECTION('',(0.,0.,-1.));
#894=VECTOR('',#893,5.832955884);
#895=LINE('',#892,#894);
#896=EDGE_CURVE('',#882,#891,#895,.T.);
#897=ORIENTED_EDGE('',*,*,#896,.T.);
#898=CARTESIAN_POINT('',(194.933116744,-129.000000167,3.000018128));
#899=VERTEX_POINT('',#898);
#900=CARTESIAN_POINT('',(194.933116744,-129.000000167,3.000018128));
#901=DIRECTION('',(1.,0.,-0.));
#902=VECTOR('',#901,2.066883591);
#903=LINE('',#900,#902);
#904=EDGE_CURVE('',#899,#891,#903,.T.);
#905=ORIENTED_EDGE('',*,*,#904,.F.);
#906=CARTESIAN_POINT('',(157.000122711,-129.000000167,42.309869853));
#907=VERTEX_POINT('',#906);
#908=CARTESIAN_POINT('',(157.000122711,-129.000000167,4.352763072));
#909=DIRECTION('',(-0.,-1.,-0.));
#910=DIRECTION('',(0.,-0.,1.));
#911=AXIS2_PLACEMENT_3D('',#908,#909,#910);
#912=CIRCLE('',#911,37.957106781);
#913=EDGE_CURVE('',#899,#907,#912,.T.);
#914=ORIENTED_EDGE('',*,*,#913,.T.);
#915=CARTESIAN_POINT('',(119.067128678,-129.000000167,3.000018128));
#916=VERTEX_POINT('',#915);
#917=CARTESIAN_POINT('',(157.000122711,-129.000000167,4.352763072));
#918=DIRECTION('',(-0.,-1.,-0.));
#919=DIRECTION('',(0.,-0.,1.));
#920=AXIS2_PLACEMENT_3D('',#917,#918,#919);
#921=CIRCLE('',#920,37.957106781);
#922=EDGE_CURVE('',#907,#916,#921,.T.);
#923=ORIENTED_EDGE('',*,*,#922,.T.);
#924=CARTESIAN_POINT('',(117.001463313,-129.000000167,3.000018128));
#925=VERTEX_POINT('',#924);
#926=CARTESIAN_POINT('',(117.001463313,-129.000000167,3.000018128));
#927=DIRECTION('',(1.,0.,-0.));
#928=VECTOR('',#927,2.065665365);
#929=LINE('',#926,#928);
#930=EDGE_CURVE('',#925,#916,#929,.T.);
#931=ORIENTED_EDGE('',*,*,#930,.F.);
#932=CARTESIAN_POINT('',(117.001463313,-129.000000167,8.84383715));
#933=DIRECTION('',(0.,0.,-1.));
#934=VECTOR('',#933,5.843819022);
#935=LINE('',#932,#934);
#936=EDGE_CURVE('',#865,#925,#935,.T.);
#937=ORIENTED_EDGE('',*,*,#936,.F.);
#938=EDGE_LOOP('',(#872,#880,#889,#897,#905,#914,#923,#931,#937));
#939=FACE_BOUND('',#938,.T.);
#940=ADVANCED_FACE('',(#939),#861,.T.);
#941=CARTESIAN_POINT('',(176.999991187,-137.000000167,48.000018128));
#942=DIRECTION('',(0.,-1.,0.));
#943=DIRECTION('',(-1.,0.,0.));
#944=AXIS2_PLACEMENT_3D('',#941,#942,#943);
#945=PLANE('',#944);
#946=CARTESIAN_POINT('',(116.999999665,-137.000000167,8.830782311));
#947=VERTEX_POINT('',#946);
#948=CARTESIAN_POINT('',(145.755027041,-137.000000167,43.000018128));
#949=VERTEX_POINT('',#948);
#950=CARTESIAN_POINT('',(157.000122711,-137.000000167,4.352763072));
#951=DIRECTION('',(-0.,1.,-0.));
#952=DIRECTION('',(0.,0.,-1.));
#953=AXIS2_PLACEMENT_3D('',#950,#951,#952);
#954=CIRCLE('',#953,40.25);
#955=EDGE_CURVE('',#947,#949,#954,.T.);
#956=ORIENTED_EDGE('',*,*,#955,.F.);
#957=CARTESIAN_POINT('',(116.999999665,-137.000000167,3.000018128));
#958=VERTEX_POINT('',#957);
#959=CARTESIAN_POINT('',(116.999999665,-137.000000167,8.830782311));
#960=DIRECTION('',(0.,0.,-1.));
#961=VECTOR('',#960,5.830764183);
#962=LINE('',#959,#961);
#963=EDGE_CURVE('',#947,#958,#962,.T.);
#964=ORIENTED_EDGE('',*,*,#963,.T.);
#965=CARTESIAN_POINT('',(197.000000335,-137.000000167,3.000018128));
#966=VERTEX_POINT('',#965);
#967=CARTESIAN_POINT('',(197.000000335,-137.000000167,3.000018128));
#968=DIRECTION('',(-1.,-0.,0.));
#969=VECTOR('',#968,80.00000067);
#970=LINE('',#967,#969);
#971=EDGE_CURVE('',#966,#958,#970,.T.);
#972=ORIENTED_EDGE('',*,*,#971,.F.);
#973=CARTESIAN_POINT('',(197.000000335,-137.000000167,8.832974012));
#974=VERTEX_POINT('',#973);
#975=CARTESIAN_POINT('',(197.000000335,-137.000000167,8.832974012));
#976=DIRECTION('',(0.,0.,-1.));
#977=VECTOR('',#976,5.832955884);
#978=LINE('',#975,#977);
#979=EDGE_CURVE('',#974,#966,#978,.T.);
#980=ORIENTED_EDGE('',*,*,#979,.F.);
#981=CARTESIAN_POINT('',(168.245218381,-137.000000167,43.000018128));
#982=VERTEX_POINT('',#981);
#983=CARTESIAN_POINT('',(157.000122711,-137.000000167,4.352763072));
#984=DIRECTION('',(-0.,1.,-0.));
#985=DIRECTION('',(0.,0.,-1.));
#986=AXIS2_PLACEMENT_3D('',#983,#984,#985);
#987=CIRCLE('',#986,40.25);
#988=EDGE_CURVE('',#982,#974,#987,.T.);
#989=ORIENTED_EDGE('',*,*,#988,.F.);
#990=CARTESIAN_POINT('',(168.245218381,-137.000000167,43.000018128));
#991=DIRECTION('',(-1.,0.,0.));
#992=VECTOR('',#991,22.490191341);
#993=LINE('',#990,#992);
#994=EDGE_CURVE('',#982,#949,#993,.T.);
#995=ORIENTED_EDGE('',*,*,#994,.T.);
#996=EDGE_LOOP('',(#956,#964,#972,#980,#989,#995));
#997=FACE_BOUND('',#996,.T.);
#998=ADVANCED_FACE('',(#997),#945,.T.);
#999=CARTESIAN_POINT('',(197.000000335,-132.000000167,48.000018128));
#1000=DIRECTION('',(1.,0.,0.));
#1001=DIRECTION('',(0.,-1.,0.));
#1002=AXIS2_PLACEMENT_3D('',#999,#1000,#1001);
#1003=PLANE('',#1002);
#1004=CARTESIAN_POINT('',(197.000000335,-137.000000167,8.832974012));
#1005=DIRECTION('',(0.,1.,0.));
#1006=VECTOR('',#1005,8.);
#1007=LINE('',#1004,#1006);
#1008=EDGE_CURVE('',#974,#882,#1007,.T.);
#1009=ORIENTED_EDGE('',*,*,#1008,.F.);
#1010=ORIENTED_EDGE('',*,*,#979,.T.);
#1011=CARTESIAN_POINT('',(197.000000335,-129.000000167,3.000018128));
#1012=DIRECTION('',(0.,-1.,0.));
#1013=VECTOR('',#1012,8.);
#1014=LINE('',#1011,#1013);
#1015=EDGE_CURVE('',#891,#966,#1014,.T.);
#1016=ORIENTED_EDGE('',*,*,#1015,.F.);
#1017=ORIENTED_EDGE('',*,*,#896,.F.);
#1018=EDGE_LOOP('',(#1009,#1010,#1016,#1017));
#1019=FACE_BOUND('',#1018,.T.);
#1020=ADVANCED_FACE('',(#1019),#1003,.T.);
#1021=CARTESIAN_POINT('',(179.500915115,-129.000000167,48.000018128));
#1022=DIRECTION('',(0.,1.,0.));
#1023=DIRECTION('',(1.,0.,0.));
#1024=AXIS2_PLACEMENT_3D('',#1021,#1022,#1023);
#1025=PLANE('',#1024);
#1026=CARTESIAN_POINT('',(121.482981223,-129.000000167,3.000018128));
#1027=VERTEX_POINT('',#1026);
#1028=CARTESIAN_POINT('',(192.517264199,-129.000000167,3.000018128));
#1029=VERTEX_POINT('',#1028);
#1030=CARTESIAN_POINT('',(121.482981223,-129.000000167,3.000018128));
#1031=DIRECTION('',(1.,0.,-0.));
#1032=VECTOR('',#1031,71.034282976);
#1033=LINE('',#1030,#1032);
#1034=EDGE_CURVE('',#1027,#1029,#1033,.T.);
#1035=ORIENTED_EDGE('',*,*,#1034,.F.);
#1036=CARTESIAN_POINT('',(157.000122711,-129.000000167,39.895656291));
#1037=VERTEX_POINT('',#1036);
#1038=CARTESIAN_POINT('',(157.000122711,-129.000000167,4.352763072));
#1039=DIRECTION('',(0.,1.,0.));
#1040=DIRECTION('',(0.,-0.,1.));
#1041=AXIS2_PLACEMENT_3D('',#1038,#1039,#1040);
#1042=CIRCLE('',#1041,35.542893219);
#1043=EDGE_CURVE('',#1027,#1037,#1042,.T.);
#1044=ORIENTED_EDGE('',*,*,#1043,.T.);
#1045=CARTESIAN_POINT('',(157.000122711,-129.000000167,4.352763072));
#1046=DIRECTION('',(0.,1.,0.));
#1047=DIRECTION('',(0.,-0.,1.));
#1048=AXIS2_PLACEMENT_3D('',#1045,#1046,#1047);
#1049=CIRCLE('',#1048,35.542893219);
#1050=EDGE_CURVE('',#1037,#1029,#1049,.T.);
#1051=ORIENTED_EDGE('',*,*,#1050,.T.);
#1052=EDGE_LOOP('',(#1035,#1044,#1051));
#1053=FACE_BOUND('',#1052,.T.);
#1054=ADVANCED_FACE('',(#1053),#1025,.T.);
#1055=CARTESIAN_POINT('',(117.000915784,-131.992681926,48.000018128));
#1056=DIRECTION('',(0.999999983,-0.000182956,0.));
#1057=DIRECTION('',(-0.000182956,-0.999999983,0.));
#1058=AXIS2_PLACEMENT_3D('',#1055,#1056,#1057);
#1059=PLANE('',#1058);
#1060=ORIENTED_EDGE('',*,*,#963,.F.);
#1061=CARTESIAN_POINT('',(116.999999665,-137.000000167,8.830782312));
#1062=CARTESIAN_POINT('',(117.000487548,-134.333333511,8.835140347));
#1063=CARTESIAN_POINT('',(117.00097543,-131.666666844,8.839491941));
#1064=CARTESIAN_POINT('',(117.001463313,-129.000000167,8.84383715));
#1065=B_SPLINE_CURVE_WITH_KNOTS('',3,(#1061,#1062,#1063,#1064),.UNSPECIFIED.,.F.,.F.,(4,4),(0.0000002,0.008000211),.UNSPECIFIED.);
#1066=EDGE_CURVE('',#947,#865,#1065,.T.);
#1067=ORIENTED_EDGE('',*,*,#1066,.T.);
#1068=ORIENTED_EDGE('',*,*,#936,.T.);
#1069=CARTESIAN_POINT('',(117.001463313,-129.000000167,3.000018128));
#1070=DIRECTION('',(-0.000182956,-0.999999983,0.));
#1071=VECTOR('',#1070,8.000000134);
#1072=LINE('',#1069,#1071);
#1073=EDGE_CURVE('',#925,#958,#1072,.T.);
#1074=ORIENTED_EDGE('',*,*,#1073,.T.);
#1075=EDGE_LOOP('',(#1060,#1067,#1068,#1074));
#1076=FACE_BOUND('',#1075,.T.);
#1077=ADVANCED_FACE('',(#1076),#1059,.F.);
#1078=CARTESIAN_POINT('',(-403.000017961,1612.999999833,43.000018128));
#1079=DIRECTION('',(0.,0.,1.));
#1080=DIRECTION('',(0.,-1.,0.));
#1081=AXIS2_PLACEMENT_3D('',#1078,#1079,#1080);
#1082=PLANE('',#1081);
#1083=CARTESIAN_POINT('',(168.245218381,-129.000000167,43.000018128));
#1084=DIRECTION('',(-0.,-1.,-0.));
#1085=VECTOR('',#1084,8.);
#1086=LINE('',#1083,#1085);
#1087=EDGE_CURVE('',#874,#982,#1086,.T.);
#1088=ORIENTED_EDGE('',*,*,#1087,.F.);
#1089=ORIENTED_EDGE('',*,*,#879,.F.);
#1090=CARTESIAN_POINT('',(145.755027041,-137.000000167,43.000018128));
#1091=DIRECTION('',(0.,1.,0.));
#1092=VECTOR('',#1091,8.);
#1093=LINE('',#1090,#1092);
#1094=EDGE_CURVE('',#949,#863,#1093,.T.);
#1095=ORIENTED_EDGE('',*,*,#1094,.F.);
#1096=ORIENTED_EDGE('',*,*,#994,.F.);
#1097=EDGE_LOOP('',(#1088,#1089,#1095,#1096));
#1098=FACE_BOUND('',#1097,.T.);
#1099=ADVANCED_FACE('',(#1098),#1082,.T.);
#1100=CARTESIAN_POINT('',(-403.000017961,1612.999999833,3.000018128));
#1101=DIRECTION('',(0.,0.,1.));
#1102=DIRECTION('',(0.,-1.,0.));
#1103=AXIS2_PLACEMENT_3D('',#1100,#1101,#1102);
#1104=PLANE('',#1103);
#1105=ORIENTED_EDGE('',*,*,#930,.T.);
#1106=CARTESIAN_POINT('',(119.774693484,-129.707106948,3.000018128));
#1107=VERTEX_POINT('',#1106);
#1108=CARTESIAN_POINT('',(119.067128678,-129.000000167,3.000018128));
#1109=CARTESIAN_POINT('',(119.160534994,-129.000000167,3.000018128));
#1110=CARTESIAN_POINT('',(119.252186644,-129.018356561,3.000018128));
#1111=CARTESIAN_POINT('',(119.337822804,-129.053793527,3.000018128));
#1112=CARTESIAN_POINT('',(119.380640884,-129.071512009,3.000018128));
#1113=CARTESIAN_POINT('',(119.421260002,-129.093198333,3.000018128));
#1114=CARTESIAN_POINT('',(119.45970004,-129.118816619,3.000018128));
#1115=CARTESIAN_POINT('',(119.498140078,-129.144434905,3.000018128));
#1116=CARTESIAN_POINT('',(119.534552222,-129.174263763,3.000018128));
#1117=CARTESIAN_POINT('',(119.567191658,-129.206848151,3.000018128));
#1118=CARTESIAN_POINT('',(119.632470531,-129.272016926,3.000018128));
#1119=CARTESIAN_POINT('',(119.685218689,-129.350827169,3.000018128));
#1120=CARTESIAN_POINT('',(119.720561547,-129.435855611,3.000018128));
#1121=CARTESIAN_POINT('',(119.755904406,-129.520884052,3.000018128));
#1122=CARTESIAN_POINT('',(119.774693484,-129.613698938,3.000018128));
#1123=CARTESIAN_POINT('',(119.774693484,-129.707106948,3.000018128));
#1124=B_SPLINE_CURVE_WITH_KNOTS('',3,(#1108,#1109,#1110,#1111,#1112,#1113,#1114,#1115,#1116,#1117,#1118,#1119,#1120,#1121,#1122,#1123),.UNSPECIFIED.,.F.,.F.,(4,3,3,3,3,4),(0.,0.000276243,0.000414364,0.000552485,0.000828728,0.00110497),.UNSPECIFIED.);
#1125=EDGE_CURVE('',#916,#1107,#1124,.T.);
#1126=ORIENTED_EDGE('',*,*,#1125,.T.);
#1127=CARTESIAN_POINT('',(119.774693484,-131.000018128,3.000018128));
#1128=VERTEX_POINT('',#1127);
#1129=CARTESIAN_POINT('',(119.774693484,-131.000018128,3.000018128));
#1130=DIRECTION('',(0.,1.,0.));
#1131=VECTOR('',#1130,1.29291118);
#1132=LINE('',#1129,#1131);
#1133=EDGE_CURVE('',#1128,#1107,#1132,.T.);
#1134=ORIENTED_EDGE('',*,*,#1133,.F.);
#1135=CARTESIAN_POINT('',(120.775371765,-131.000018128,3.000018128));
#1136=VERTEX_POINT('',#1135);
#1137=CARTESIAN_POINT('',(119.774693484,-131.000018128,3.000018128));
#1138=DIRECTION('',(1.,0.,-0.));
#1139=VECTOR('',#1138,1.000678281);
#1140=LINE('',#1137,#1139);
#1141=EDGE_CURVE('',#1128,#1136,#1140,.T.);
#1142=ORIENTED_EDGE('',*,*,#1141,.T.);
#1143=CARTESIAN_POINT('',(120.775371765,-129.707106948,3.000018128));
#1144=VERTEX_POINT('',#1143);
#1145=CARTESIAN_POINT('',(120.775371765,-131.000018128,3.000018128));
#1146=DIRECTION('',(0.,1.,0.));
#1147=VECTOR('',#1146,1.29291118);
#1148=LINE('',#1145,#1147);
#1149=EDGE_CURVE('',#1136,#1144,#1148,.T.);
#1150=ORIENTED_EDGE('',*,*,#1149,.T.);
#1151=CARTESIAN_POINT('',(120.775371765,-129.707106948,3.000018128));
#1152=CARTESIAN_POINT('',(120.775371765,-129.613696845,3.000018128));
#1153=CARTESIAN_POINT('',(120.793770612,-129.522037359,3.000018128));
#1154=CARTESIAN_POINT('',(120.829267593,-129.436429401,3.000018128));
#1155=CARTESIAN_POINT('',(120.847016084,-129.393625423,3.000018128));
#1156=CARTESIAN_POINT('',(120.868737415,-129.353023117,3.000018128));
#1157=CARTESIAN_POINT('',(120.894395038,-129.314602232,3.000018128));
#1158=CARTESIAN_POINT('',(120.920052661,-129.276181346,3.000018128));
#1159=CARTESIAN_POINT('',(120.949918027,-129.239801196,3.000018128));
#1160=CARTESIAN_POINT('',(120.982534947,-129.207195687,3.000018128));
#1161=CARTESIAN_POINT('',(121.047768787,-129.141984667,3.000018128));
#1162=CARTESIAN_POINT('',(121.126636111,-129.089312754,3.000018128));
#1163=CARTESIAN_POINT('',(121.2116936,-129.054030516,3.000018128));
#1164=CARTESIAN_POINT('',(121.296751089,-129.018748279,3.000018128));
#1165=CARTESIAN_POINT('',(121.389572992,-129.000000167,3.000018128));
#1166=CARTESIAN_POINT('',(121.482981223,-129.000000167,3.000018128));
#1167=B_SPLINE_CURVE_WITH_KNOTS('',3,(#1151,#1152,#1153,#1154,#1155,#1156,#1157,#1158,#1159,#1160,#1161,#1162,#1163,#1164,#1165,#1166),.UNSPECIFIED.,.F.,.F.,(4,3,3,3,3,4),(0.,0.000276252,0.000414378,0.000552504,0.000828755,0.001105007),.UNSPECIFIED.);
#1168=EDGE_CURVE('',#1144,#1027,#1167,.T.);
#1169=ORIENTED_EDGE('',*,*,#1168,.T.);
#1170=ORIENTED_EDGE('',*,*,#1034,.T.);
#1171=CARTESIAN_POINT('',(193.224873657,-129.707106948,3.000018128));
#1172=VERTEX_POINT('',#1171);
#1173=CARTESIAN_POINT('',(192.517264199,-129.000000167,3.000018128));
#1174=CARTESIAN_POINT('',(192.610673569,-129.000000167,3.000018128));
#1175=CARTESIAN_POINT('',(192.70232821,-129.018354294,3.000018128));
#1176=CARTESIAN_POINT('',(192.787968974,-129.053789053,3.000018128));
#1177=CARTESIAN_POINT('',(192.830789355,-129.071506432,3.000018128));
#1178=CARTESIAN_POINT('',(192.871410796,-129.093191604,3.000018128));
#1179=CARTESIAN_POINT('',(192.909853137,-129.118808772,3.000018128));
#1180=CARTESIAN_POINT('',(192.948295478,-129.14442594,3.000018128));
#1181=CARTESIAN_POINT('',(192.984710467,-129.174254115,3.000018128));
#1182=CARTESIAN_POINT('',(193.017352599,-129.206838191,3.000018128));
#1183=CARTESIAN_POINT('',(193.082636862,-129.272006343,3.000018128));
#1184=CARTESIAN_POINT('',(193.135389855,-129.350817056,3.000018128));
#1185=CARTESIAN_POINT('',(193.170736217,-129.435847441,3.000018128));
#1186=CARTESIAN_POINT('',(193.206082578,-129.520877826,3.000018128));
#1187=CARTESIAN_POINT('',(193.224873657,-129.61369569,3.000018128));
#1188=CARTESIAN_POINT('',(193.224873657,-129.707106948,3.000018128));
#1189=B_SPLINE_CURVE_WITH_KNOTS('',3,(#1173,#1174,#1175,#1176,#1177,#1178,#1179,#1180,#1181,#1182,#1183,#1184,#1185,#1186,#1187,#1188),.UNSPECIFIED.,.F.,.F.,(4,3,3,3,3,4),(0.,0.000276252,0.000414378,0.000552504,0.000828756,0.001105008),.UNSPECIFIED.);
#1190=EDGE_CURVE('',#1029,#1172,#1189,.T.);
#1191=ORIENTED_EDGE('',*,*,#1190,.T.);
#1192=CARTESIAN_POINT('',(193.224873657,-131.000018128,3.000018128));
#1193=VERTEX_POINT('',#1192);
#1194=CARTESIAN_POINT('',(193.224873657,-129.707106948,3.000018128));
#1195=DIRECTION('',(-0.,-1.,-0.));
#1196=VECTOR('',#1195,1.29291118);
#1197=LINE('',#1194,#1196);
#1198=EDGE_CURVE('',#1172,#1193,#1197,.T.);
#1199=ORIENTED_EDGE('',*,*,#1198,.T.);
#1200=CARTESIAN_POINT('',(194.225551938,-131.000018128,3.000018128));
#1201=VERTEX_POINT('',#1200);
#1202=CARTESIAN_POINT('',(193.224873657,-131.000018128,3.000018128));
#1203=DIRECTION('',(1.,0.,-0.));
#1204=VECTOR('',#1203,1.000678281);
#1205=LINE('',#1202,#1204);
#1206=EDGE_CURVE('',#1193,#1201,#1205,.T.);
#1207=ORIENTED_EDGE('',*,*,#1206,.T.);
#1208=CARTESIAN_POINT('',(194.225551938,-129.707106948,3.000018128));
#1209=VERTEX_POINT('',#1208);
#1210=CARTESIAN_POINT('',(194.225551938,-129.707106948,3.000018128));
#1211=DIRECTION('',(-0.,-1.,-0.));
#1212=VECTOR('',#1211,1.29291118);
#1213=LINE('',#1210,#1212);
#1214=EDGE_CURVE('',#1209,#1201,#1213,.T.);
#1215=ORIENTED_EDGE('',*,*,#1214,.F.);
#1216=CARTESIAN_POINT('',(194.225551938,-129.707106948,3.000018128));
#1217=CARTESIAN_POINT('',(194.225551938,-129.61369999,3.000018128));
#1218=CARTESIAN_POINT('',(194.243948711,-129.522043819,3.000018128));
#1219=CARTESIAN_POINT('',(194.279442296,-129.436437537,3.000018128));
#1220=CARTESIAN_POINT('',(194.297189088,-129.393634396,3.000018128));
#1221=CARTESIAN_POINT('',(194.31890837,-129.353032736,3.000018128));
#1222=CARTESIAN_POINT('',(194.344563575,-129.314612291,3.000018128));
#1223=CARTESIAN_POINT('',(194.37021878,-129.276191847,3.000018128));
#1224=CARTESIAN_POINT('',(194.40008162,-129.239811527,3.000018128));
#1225=CARTESIAN_POINT('',(194.432696027,-129.20720554,3.000018128));
#1226=CARTESIAN_POINT('',(194.497924843,-129.141993566,3.000018128));
#1227=CARTESIAN_POINT('',(194.576786767,-129.089319474,3.000018128));
#1228=CARTESIAN_POINT('',(194.661839885,-129.054034971,3.000018128));
#1229=CARTESIAN_POINT('',(194.746893003,-129.018750467,3.000018128));
#1230=CARTESIAN_POINT('',(194.839711488,-129.000000167,3.000018128));
#1231=CARTESIAN_POINT('',(194.933116744,-129.000000167,3.000018128));
#1232=B_SPLINE_CURVE_WITH_KNOTS('',3,(#1216,#1217,#1218,#1219,#1220,#1221,#1222,#1223,#1224,#1225,#1226,#1227,#1228,#1229,#1230,#1231),.UNSPECIFIED.,.F.,.F.,(4,3,3,3,3,4),(0.,0.000276242,0.000414364,0.000552485,0.000828727,0.00110497),.UNSPECIFIED.);
#1233=EDGE_CURVE('',#1209,#899,#1232,.T.);
#1234=ORIENTED_EDGE('',*,*,#1233,.T.);
#1235=ORIENTED_EDGE('',*,*,#904,.T.);
#1236=ORIENTED_EDGE('',*,*,#1015,.T.);
#1237=ORIENTED_EDGE('',*,*,#971,.T.);
#1238=ORIENTED_EDGE('',*,*,#1073,.F.);
#1239=EDGE_LOOP('',(#1105,#1126,#1134,#1142,#1150,#1169,#1170,#1191,#1199,#1207,#1215,#1234,#1235,#1236,#1237,#1238));
#1240=FACE_BOUND('',#1239,.T.);
#1241=ADVANCED_FACE('',(#1240),#1104,.F.);
#1242=CARTESIAN_POINT('',(157.000122711,-131.000018128,4.352763072));
#1243=DIRECTION('',(0.,1.,0.));
#1244=DIRECTION('',(0.,-0.,1.));
#1245=AXIS2_PLACEMENT_3D('',#1242,#1243,#1244);
#1246=CYLINDRICAL_SURFACE('',#1245,36.25);
#1247=CARTESIAN_POINT('',(157.000122711,-129.707106948,40.602763072));
#1248=VERTEX_POINT('',#1247);
#1249=CARTESIAN_POINT('',(157.000122711,-131.000018128,40.602763072));
#1250=VERTEX_POINT('',#1249);
#1251=CARTESIAN_POINT('',(157.000122711,-129.707106948,40.602763072));
#1252=DIRECTION('',(-0.,-1.,-0.));
#1253=VECTOR('',#1252,1.29291118);
#1254=LINE('',#1251,#1253);
#1255=EDGE_CURVE('',#1248,#1250,#1254,.T.);
#1256=ORIENTED_EDGE('',*,*,#1255,.T.);
#1257=CARTESIAN_POINT('',(157.000122711,-131.000018128,4.352763072));
#1258=DIRECTION('',(0.,-1.,0.));
#1259=DIRECTION('',(0.,0.,-1.));
#1260=AXIS2_PLACEMENT_3D('',#1257,#1258,#1259);
#1261=CIRCLE('',#1260,36.25);
#1262=EDGE_CURVE('',#1193,#1250,#1261,.T.);
#1263=ORIENTED_EDGE('',*,*,#1262,.F.);
#1264=ORIENTED_EDGE('',*,*,#1198,.F.);
#1265=CARTESIAN_POINT('',(157.000122711,-129.707106948,4.352763072));
#1266=DIRECTION('',(-0.,-1.,-0.));
#1267=DIRECTION('',(0.,-0.,1.));
#1268=AXIS2_PLACEMENT_3D('',#1265,#1266,#1267);
#1269=CIRCLE('',#1268,36.25);
#1270=EDGE_CURVE('',#1172,#1248,#1269,.T.);
#1271=ORIENTED_EDGE('',*,*,#1270,.T.);
#1272=EDGE_LOOP('',(#1256,#1263,#1264,#1271));
#1273=FACE_BOUND('',#1272,.T.);
#1274=ADVANCED_FACE('',(#1273),#1246,.T.);
#1275=CARTESIAN_POINT('',(157.000122711,-131.000018128,4.352763072));
#1276=DIRECTION('',(0.,1.,0.));
#1277=DIRECTION('',(0.,-0.,1.));
#1278=AXIS2_PLACEMENT_3D('',#1275,#1276,#1277);
#1279=CYLINDRICAL_SURFACE('',#1278,37.25);
#1280=CARTESIAN_POINT('',(157.000122711,-129.707106948,41.602763072));
#1281=VERTEX_POINT('',#1280);
#1282=CARTESIAN_POINT('',(157.000122711,-131.000018128,41.602763072));
#1283=VERTEX_POINT('',#1282);
#1284=CARTESIAN_POINT('',(157.000122711,-129.707106948,41.602763072));
#1285=DIRECTION('',(-0.,-1.,-0.));
#1286=VECTOR('',#1285,1.29291118);
#1287=LINE('',#1284,#1286);
#1288=EDGE_CURVE('',#1281,#1283,#1287,.T.);
#1289=ORIENTED_EDGE('',*,*,#1288,.F.);
#1290=CARTESIAN_POINT('',(157.000122711,-129.707106948,4.352763072));
#1291=DIRECTION('',(0.,1.,0.));
#1292=DIRECTION('',(0.,-0.,1.));
#1293=AXIS2_PLACEMENT_3D('',#1290,#1291,#1292);
#1294=CIRCLE('',#1293,37.25);
#1295=EDGE_CURVE('',#1281,#1209,#1294,.T.);
#1296=ORIENTED_EDGE('',*,*,#1295,.T.);
#1297=ORIENTED_EDGE('',*,*,#1214,.T.);
#1298=CARTESIAN_POINT('',(157.000122711,-131.000018128,4.352763072));
#1299=DIRECTION('',(0.,-1.,0.));
#1300=DIRECTION('',(0.,0.,-1.));
#1301=AXIS2_PLACEMENT_3D('',#1298,#1299,#1300);
#1302=CIRCLE('',#1301,37.25);
#1303=EDGE_CURVE('',#1201,#1283,#1302,.T.);
#1304=ORIENTED_EDGE('',*,*,#1303,.T.);
#1305=EDGE_LOOP('',(#1289,#1296,#1297,#1304));
#1306=FACE_BOUND('',#1305,.T.);
#1307=ADVANCED_FACE('',(#1306),#1279,.F.);
#1308=CARTESIAN_POINT('',(-1950.,-131.000018128,63.000018128));
#1309=DIRECTION('',(0.,-1.,0.));
#1310=DIRECTION('',(-1.,0.,0.));
#1311=AXIS2_PLACEMENT_3D('',#1308,#1309,#1310);
#1312=PLANE('',#1311);
#1313=CARTESIAN_POINT('',(157.000122711,-131.000018128,4.352763072));
#1314=DIRECTION('',(0.,-1.,0.));
#1315=DIRECTION('',(0.,0.,-1.));
#1316=AXIS2_PLACEMENT_3D('',#1313,#1314,#1315);
#1317=CIRCLE('',#1316,37.25);
#1318=EDGE_CURVE('',#1283,#1128,#1317,.T.);
#1319=ORIENTED_EDGE('',*,*,#1318,.F.);
#1320=ORIENTED_EDGE('',*,*,#1303,.F.);
#1321=ORIENTED_EDGE('',*,*,#1206,.F.);
#1322=ORIENTED_EDGE('',*,*,#1262,.T.);
#1323=CARTESIAN_POINT('',(157.000122711,-131.000018128,4.352763072));
#1324=DIRECTION('',(0.,-1.,0.));
#1325=DIRECTION('',(0.,0.,-1.));
#1326=AXIS2_PLACEMENT_3D('',#1323,#1324,#1325);
#1327=CIRCLE('',#1326,36.25);
#1328=EDGE_CURVE('',#1250,#1136,#1327,.T.);
#1329=ORIENTED_EDGE('',*,*,#1328,.T.);
#1330=ORIENTED_EDGE('',*,*,#1141,.F.);
#1331=EDGE_LOOP('',(#1319,#1320,#1321,#1322,#1329,#1330));
#1332=FACE_BOUND('',#1331,.T.);
#1333=ADVANCED_FACE('',(#1332),#1312,.F.);
#1334=CARTESIAN_POINT('',(157.000122711,-129.707106948,4.352763072));
#1335=DIRECTION('',(0.,1.,0.));
#1336=DIRECTION('',(0.,-0.,1.));
#1337=AXIS2_PLACEMENT_3D('',#1334,#1335,#1336);
#1338=TOROIDAL_SURFACE('',#1337,35.542893219,0.707106781);
#1339=CARTESIAN_POINT('',(157.000122711,-129.707106948,39.895656291));
#1340=DIRECTION('',(1.,-0.,-0.));
#1341=DIRECTION('',(0.,0.,1.));
#1342=AXIS2_PLACEMENT_3D('',#1339,#1340,#1341);
#1343=CIRCLE('',#1342,0.707106781);
#1344=EDGE_CURVE('',#1037,#1248,#1343,.T.);
#1345=ORIENTED_EDGE('',*,*,#1344,.T.);
#1346=ORIENTED_EDGE('',*,*,#1270,.F.);
#1347=ORIENTED_EDGE('',*,*,#1190,.F.);
#1348=ORIENTED_EDGE('',*,*,#1050,.F.);
#1349=EDGE_LOOP('',(#1345,#1346,#1347,#1348));
#1350=FACE_BOUND('',#1349,.T.);
#1351=ADVANCED_FACE('',(#1350),#1338,.T.);
#1352=CARTESIAN_POINT('',(157.000122711,-129.707106948,4.352763072));
#1353=DIRECTION('',(0.,1.,0.));
#1354=DIRECTION('',(0.,-0.,1.));
#1355=AXIS2_PLACEMENT_3D('',#1352,#1353,#1354);
#1356=TOROIDAL_SURFACE('',#1355,37.957106781,0.707106781);
#1357=CARTESIAN_POINT('',(157.000122711,-129.707106948,42.309869853));
#1358=DIRECTION('',(1.,-0.,-0.));
#1359=DIRECTION('',(0.,0.,1.));
#1360=AXIS2_PLACEMENT_3D('',#1357,#1358,#1359);
#1361=CIRCLE('',#1360,0.707106781);
#1362=EDGE_CURVE('',#1281,#907,#1361,.T.);
#1363=ORIENTED_EDGE('',*,*,#1362,.T.);
#1364=ORIENTED_EDGE('',*,*,#913,.F.);
#1365=ORIENTED_EDGE('',*,*,#1233,.F.);
#1366=ORIENTED_EDGE('',*,*,#1295,.F.);
#1367=EDGE_LOOP('',(#1363,#1364,#1365,#1366));
#1368=FACE_BOUND('',#1367,.T.);
#1369=ADVANCED_FACE('',(#1368),#1356,.T.);
#1370=CARTESIAN_POINT('',(157.000122711,-253.000018128,4.352763072));
#1371=DIRECTION('',(0.,1.,0.));
#1372=DIRECTION('',(0.,-0.,1.));
#1373=AXIS2_PLACEMENT_3D('',#1370,#1371,#1372);
#1374=CYLINDRICAL_SURFACE('',#1373,40.25);
#1375=ORIENTED_EDGE('',*,*,#955,.T.);
#1376=ORIENTED_EDGE('',*,*,#1094,.T.);
#1377=ORIENTED_EDGE('',*,*,#871,.T.);
#1378=ORIENTED_EDGE('',*,*,#1066,.F.);
#1379=EDGE_LOOP('',(#1375,#1376,#1377,#1378));
#1380=FACE_BOUND('',#1379,.T.);
#1381=ADVANCED_FACE('',(#1380),#1374,.T.);
#1382=CARTESIAN_POINT('',(157.000122711,-253.000018128,4.352763072));
#1383=DIRECTION('',(0.,1.,0.));
#1384=DIRECTION('',(0.,-0.,1.));
#1385=AXIS2_PLACEMENT_3D('',#1382,#1383,#1384);
#1386=CYLINDRICAL_SURFACE('',#1385,40.25);
#1387=ORIENTED_EDGE('',*,*,#1008,.T.);
#1388=ORIENTED_EDGE('',*,*,#888,.T.);
#1389=ORIENTED_EDGE('',*,*,#1087,.T.);
#1390=ORIENTED_EDGE('',*,*,#988,.T.);
#1391=EDGE_LOOP('',(#1387,#1388,#1389,#1390));
#1392=FACE_BOUND('',#1391,.T.);
#1393=ADVANCED_FACE('',(#1392),#1386,.T.);
#1394=CARTESIAN_POINT('',(157.000122711,-131.000018128,4.352763072));
#1395=DIRECTION('',(0.,1.,0.));
#1396=DIRECTION('',(0.,-0.,1.));
#1397=AXIS2_PLACEMENT_3D('',#1394,#1395,#1396);
#1398=CYLINDRICAL_SURFACE('',#1397,36.25);
#1399=ORIENTED_EDGE('',*,*,#1255,.F.);
#1400=CARTESIAN_POINT('',(157.000122711,-129.707106948,4.352763072));
#1401=DIRECTION('',(-0.,-1.,-0.));
#1402=DIRECTION('',(0.,-0.,1.));
#1403=AXIS2_PLACEMENT_3D('',#1400,#1401,#1402);
#1404=CIRCLE('',#1403,36.25);
#1405=EDGE_CURVE('',#1248,#1144,#1404,.T.);
#1406=ORIENTED_EDGE('',*,*,#1405,.T.);
#1407=ORIENTED_EDGE('',*,*,#1149,.F.);
#1408=ORIENTED_EDGE('',*,*,#1328,.F.);
#1409=EDGE_LOOP('',(#1399,#1406,#1407,#1408));
#1410=FACE_BOUND('',#1409,.T.);
#1411=ADVANCED_FACE('',(#1410),#1398,.T.);
#1412=CARTESIAN_POINT('',(157.000122711,-131.000018128,4.352763072));
#1413=DIRECTION('',(0.,1.,0.));
#1414=DIRECTION('',(0.,-0.,1.));
#1415=AXIS2_PLACEMENT_3D('',#1412,#1413,#1414);
#1416=CYLINDRICAL_SURFACE('',#1415,37.25);
#1417=ORIENTED_EDGE('',*,*,#1288,.T.);
#1418=ORIENTED_EDGE('',*,*,#1318,.T.);
#1419=ORIENTED_EDGE('',*,*,#1133,.T.);
#1420=CARTESIAN_POINT('',(157.000122711,-129.707106948,4.352763072));
#1421=DIRECTION('',(0.,1.,0.));
#1422=DIRECTION('',(0.,-0.,1.));
#1423=AXIS2_PLACEMENT_3D('',#1420,#1421,#1422);
#1424=CIRCLE('',#1423,37.25);
#1425=EDGE_CURVE('',#1107,#1281,#1424,.T.);
#1426=ORIENTED_EDGE('',*,*,#1425,.T.);
#1427=EDGE_LOOP('',(#1417,#1418,#1419,#1426));
#1428=FACE_BOUND('',#1427,.T.);
#1429=ADVANCED_FACE('',(#1428),#1416,.F.);
#1430=CARTESIAN_POINT('',(157.000122711,-129.707106948,4.352763072));
#1431=DIRECTION('',(0.,1.,0.));
#1432=DIRECTION('',(0.,-0.,1.));
#1433=AXIS2_PLACEMENT_3D('',#1430,#1431,#1432);
#1434=TOROIDAL_SURFACE('',#1433,35.542893219,0.707106781);
#1435=ORIENTED_EDGE('',*,*,#1344,.F.);
#1436=ORIENTED_EDGE('',*,*,#1043,.F.);
#1437=ORIENTED_EDGE('',*,*,#1168,.F.);
#1438=ORIENTED_EDGE('',*,*,#1405,.F.);
#1439=EDGE_LOOP('',(#1435,#1436,#1437,#1438));
#1440=FACE_BOUND('',#1439,.T.);
#1441=ADVANCED_FACE('',(#1440),#1434,.T.);
#1442=CARTESIAN_POINT('',(157.000122711,-129.707106948,4.352763072));
#1443=DIRECTION('',(0.,1.,0.));
#1444=DIRECTION('',(0.,-0.,1.));
#1445=AXIS2_PLACEMENT_3D('',#1442,#1443,#1444);
#1446=TOROIDAL_SURFACE('',#1445,37.957106781,0.707106781);
#1447=ORIENTED_EDGE('',*,*,#1362,.F.);
#1448=ORIENTED_EDGE('',*,*,#1425,.F.);
#1449=ORIENTED_EDGE('',*,*,#1125,.F.);
#1450=ORIENTED_EDGE('',*,*,#922,.F.);
#1451=EDGE_LOOP('',(#1447,#1448,#1449,#1450));
#1452=FACE_BOUND('',#1451,.T.);
#1453=ADVANCED_FACE('',(#1452),#1446,.T.);
#1454=CLOSED_SHELL('',(#940,#998,#1020,#1054,#1077,#1099,#1241,#1274,#1307,#1333,#1351,#1369,#1381,#1393,#1411,#1429,#1441,#1453));
#1455=MANIFOLD_SOLID_BREP('Body 120 (6)',#1454);
#856=STYLED_ITEM('',(#677),#1455);
#1457=CARTESIAN_POINT('',(176.999991187,30.999999833,48.000018128));
#1458=DIRECTION('',(0.,-1.,0.));
#1459=DIRECTION('',(-1.,0.,0.));
#1460=AXIS2_PLACEMENT_3D('',#1457,#1458,#1459);
#1461=PLANE('',#1460);
#1462=CARTESIAN_POINT('',(116.999999665,30.999999833,8.830782311));
#1463=VERTEX_POINT('',#1462);
#1464=CARTESIAN_POINT('',(145.755027041,30.999999833,43.000018128));
#1465=VERTEX_POINT('',#1464);
#1466=CARTESIAN_POINT('',(157.000122711,30.999999833,4.352763072));
#1467=DIRECTION('',(-0.,1.,-0.));
#1468=DIRECTION('',(0.,0.,-1.));
#1469=AXIS2_PLACEMENT_3D('',#1466,#1467,#1468);
#1470=CIRCLE('',#1469,40.25);
#1471=EDGE_CURVE('',#1463,#1465,#1470,.T.);
#1472=ORIENTED_EDGE('',*,*,#1471,.F.);
#1473=CARTESIAN_POINT('',(116.999999665,30.999999833,3.000018128));
#1474=VERTEX_POINT('',#1473);
#1475=CARTESIAN_POINT('',(116.999999665,30.999999833,8.830782311));
#1476=DIRECTION('',(0.,0.,-1.));
#1477=VECTOR('',#1476,5.830764183);
#1478=LINE('',#1475,#1477);
#1479=EDGE_CURVE('',#1463,#1474,#1478,.T.);
#1480=ORIENTED_EDGE('',*,*,#1479,.T.);
#1481=CARTESIAN_POINT('',(119.067128678,30.999999833,3.000018128));
#1482=VERTEX_POINT('',#1481);
#1483=CARTESIAN_POINT('',(119.067128678,30.999999833,3.000018128));
#1484=DIRECTION('',(-1.,-0.,0.));
#1485=VECTOR('',#1484,2.067129013);
#1486=LINE('',#1483,#1485);
#1487=EDGE_CURVE('',#1482,#1474,#1486,.T.);
#1488=ORIENTED_EDGE('',*,*,#1487,.F.);
#1489=CARTESIAN_POINT('',(194.933116744,30.999999833,3.000018128));
#1490=VERTEX_POINT('',#1489);
#1491=CARTESIAN_POINT('',(157.000122711,30.999999833,4.352763072));
#1492=DIRECTION('',(-0.,1.,-0.));
#1493=DIRECTION('',(0.,0.,-1.));
#1494=AXIS2_PLACEMENT_3D('',#1491,#1492,#1493);
#1495=CIRCLE('',#1494,37.957106781);
#1496=EDGE_CURVE('',#1482,#1490,#1495,.T.);
#1497=ORIENTED_EDGE('',*,*,#1496,.T.);
#1498=CARTESIAN_POINT('',(197.000000335,30.999999833,3.000018128));
#1499=VERTEX_POINT('',#1498);
#1500=CARTESIAN_POINT('',(197.000000335,30.999999833,3.000018128));
#1501=DIRECTION('',(-1.,-0.,0.));
#1502=VECTOR('',#1501,2.066883591);
#1503=LINE('',#1500,#1502);
#1504=EDGE_CURVE('',#1499,#1490,#1503,.T.);
#1505=ORIENTED_EDGE('',*,*,#1504,.F.);
#1506=CARTESIAN_POINT('',(197.000000335,30.999999833,8.832974012));
#1507=VERTEX_POINT('',#1506);
#1508=CARTESIAN_POINT('',(197.000000335,30.999999833,8.832974012));
#1509=DIRECTION('',(0.,0.,-1.));
#1510=VECTOR('',#1509,5.832955884);
#1511=LINE('',#1508,#1510);
#1512=EDGE_CURVE('',#1507,#1499,#1511,.T.);
#1513=ORIENTED_EDGE('',*,*,#1512,.F.);
#1514=CARTESIAN_POINT('',(168.245218381,30.999999833,43.000018128));
#1515=VERTEX_POINT('',#1514);
#1516=CARTESIAN_POINT('',(157.000122711,30.999999833,4.352763072));
#1517=DIRECTION('',(-0.,1.,-0.));
#1518=DIRECTION('',(0.,0.,-1.));
#1519=AXIS2_PLACEMENT_3D('',#1516,#1517,#1518);
#1520=CIRCLE('',#1519,40.25);
#1521=EDGE_CURVE('',#1515,#1507,#1520,.T.);
#1522=ORIENTED_EDGE('',*,*,#1521,.F.);
#1523=CARTESIAN_POINT('',(168.245218381,30.999999833,43.000018128));
#1524=DIRECTION('',(-1.,0.,0.));
#1525=VECTOR('',#1524,22.490191341);
#1526=LINE('',#1523,#1525);
#1527=EDGE_CURVE('',#1515,#1465,#1526,.T.);
#1528=ORIENTED_EDGE('',*,*,#1527,.T.);
#1529=EDGE_LOOP('',(#1472,#1480,#1488,#1497,#1505,#1513,#1522,#1528));
#1530=FACE_BOUND('',#1529,.T.);
#1531=ADVANCED_FACE('',(#1530),#1461,.T.);
#1532=CARTESIAN_POINT('',(179.500915115,38.999999833,48.000018128));
#1533=DIRECTION('',(0.,1.,0.));
#1534=DIRECTION('',(1.,0.,0.));
#1535=AXIS2_PLACEMENT_3D('',#1532,#1533,#1534);
#1536=PLANE('',#1535);
#1537=CARTESIAN_POINT('',(145.755027041,38.999999833,43.000018128));
#1538=VERTEX_POINT('',#1537);
#1539=CARTESIAN_POINT('',(117.001463313,38.999999833,8.84383715));
#1540=VERTEX_POINT('',#1539);
#1541=CARTESIAN_POINT('',(157.000122711,38.999999833,4.352763072));
#1542=DIRECTION('',(-0.,-1.,-0.));
#1543=DIRECTION('',(0.,-0.,1.));
#1544=AXIS2_PLACEMENT_3D('',#1541,#1542,#1543);
#1545=CIRCLE('',#1544,40.25);
#1546=EDGE_CURVE('',#1538,#1540,#1545,.T.);
#1547=ORIENTED_EDGE('',*,*,#1546,.F.);
#1548=CARTESIAN_POINT('',(168.245218381,38.999999833,43.000018128));
#1549=VERTEX_POINT('',#1548);
#1550=CARTESIAN_POINT('',(145.755027041,38.999999833,43.000018128));
#1551=DIRECTION('',(1.,0.,-0.));
#1552=VECTOR('',#1551,22.490191341);
#1553=LINE('',#1550,#1552);
#1554=EDGE_CURVE('',#1538,#1549,#1553,.T.);
#1555=ORIENTED_EDGE('',*,*,#1554,.T.);
#1556=CARTESIAN_POINT('',(197.000000335,38.999999833,8.832974012));
#1557=VERTEX_POINT('',#1556);
#1558=CARTESIAN_POINT('',(157.000122711,38.999999833,4.352763072));
#1559=DIRECTION('',(-0.,-1.,-0.));
#1560=DIRECTION('',(0.,-0.,1.));
#1561=AXIS2_PLACEMENT_3D('',#1558,#1559,#1560);
#1562=CIRCLE('',#1561,40.25);
#1563=EDGE_CURVE('',#1557,#1549,#1562,.T.);
#1564=ORIENTED_EDGE('',*,*,#1563,.F.);
#1565=CARTESIAN_POINT('',(197.000000335,38.999999833,3.000018128));
#1566=VERTEX_POINT('',#1565);
#1567=CARTESIAN_POINT('',(197.000000335,38.999999833,8.832974012));
#1568=DIRECTION('',(0.,0.,-1.));
#1569=VECTOR('',#1568,5.832955884);
#1570=LINE('',#1567,#1569);
#1571=EDGE_CURVE('',#1557,#1566,#1570,.T.);
#1572=ORIENTED_EDGE('',*,*,#1571,.T.);
#1573=CARTESIAN_POINT('',(117.001463313,38.999999833,3.000018128));
#1574=VERTEX_POINT('',#1573);
#1575=CARTESIAN_POINT('',(117.001463313,38.999999833,3.000018128));
#1576=DIRECTION('',(1.,0.,-0.));
#1577=VECTOR('',#1576,79.998537022);
#1578=LINE('',#1575,#1577);
#1579=EDGE_CURVE('',#1574,#1566,#1578,.T.);
#1580=ORIENTED_EDGE('',*,*,#1579,.F.);
#1581=CARTESIAN_POINT('',(117.001463313,38.999999833,8.84383715));
#1582=DIRECTION('',(0.,0.,-1.));
#1583=VECTOR('',#1582,5.843819022);
#1584=LINE('',#1581,#1583);
#1585=EDGE_CURVE('',#1540,#1574,#1584,.T.);
#1586=ORIENTED_EDGE('',*,*,#1585,.F.);
#1587=EDGE_LOOP('',(#1547,#1555,#1564,#1572,#1580,#1586));
#1588=FACE_BOUND('',#1587,.T.);
#1589=ADVANCED_FACE('',(#1588),#1536,.T.);
#1590=CARTESIAN_POINT('',(176.999991187,30.999999833,48.000018128));
#1591=DIRECTION('',(0.,-1.,0.));
#1592=DIRECTION('',(-1.,0.,0.));
#1593=AXIS2_PLACEMENT_3D('',#1590,#1591,#1592);
#1594=PLANE('',#1593);
#1595=CARTESIAN_POINT('',(192.517264199,30.999999833,3.000018128));
#1596=VERTEX_POINT('',#1595);
#1597=CARTESIAN_POINT('',(121.482981223,30.999999833,3.000018128));
#1598=VERTEX_POINT('',#1597);
#1599=CARTESIAN_POINT('',(192.517264199,30.999999833,3.000018128));
#1600=DIRECTION('',(-1.,-0.,0.));
#1601=VECTOR('',#1600,71.034282976);
#1602=LINE('',#1599,#1601);
#1603=EDGE_CURVE('',#1596,#1598,#1602,.T.);
#1604=ORIENTED_EDGE('',*,*,#1603,.F.);
#1605=CARTESIAN_POINT('',(157.000122711,30.999999833,4.352763072));
#1606=DIRECTION('',(0.,-1.,0.));
#1607=DIRECTION('',(0.,0.,-1.));
#1608=AXIS2_PLACEMENT_3D('',#1605,#1606,#1607);
#1609=CIRCLE('',#1608,35.542893219);
#1610=EDGE_CURVE('',#1596,#1598,#1609,.T.);
#1611=ORIENTED_EDGE('',*,*,#1610,.T.);
#1612=EDGE_LOOP('',(#1604,#1611));
#1613=FACE_BOUND('',#1612,.T.);
#1614=ADVANCED_FACE('',(#1613),#1594,.T.);
#1615=CARTESIAN_POINT('',(197.000000335,35.999999833,48.000018128));
#1616=DIRECTION('',(1.,0.,0.));
#1617=DIRECTION('',(0.,-1.,0.));
#1618=AXIS2_PLACEMENT_3D('',#1615,#1616,#1617);
#1619=PLANE('',#1618);
#1620=CARTESIAN_POINT('',(197.000000335,30.999999833,8.832974012));
#1621=DIRECTION('',(0.,1.,0.));
#1622=VECTOR('',#1621,8.);
#1623=LINE('',#1620,#1622);
#1624=EDGE_CURVE('',#1507,#1557,#1623,.T.);
#1625=ORIENTED_EDGE('',*,*,#1624,.F.);
#1626=ORIENTED_EDGE('',*,*,#1512,.T.);
#1627=CARTESIAN_POINT('',(197.000000335,38.999999833,3.000018128));
#1628=DIRECTION('',(0.,-1.,0.));
#1629=VECTOR('',#1628,8.);
#1630=LINE('',#1627,#1629);
#1631=EDGE_CURVE('',#1566,#1499,#1630,.T.);
#1632=ORIENTED_EDGE('',*,*,#1631,.F.);
#1633=ORIENTED_EDGE('',*,*,#1571,.F.);
#1634=EDGE_LOOP('',(#1625,#1626,#1632,#1633));
#1635=FACE_BOUND('',#1634,.T.);
#1636=ADVANCED_FACE('',(#1635),#1619,.T.);
#1637=CARTESIAN_POINT('',(117.000915784,36.007318074,48.000018128));
#1638=DIRECTION('',(0.999999983,-0.000182956,0.));
#1639=DIRECTION('',(-0.000182956,-0.999999983,0.));
#1640=AXIS2_PLACEMENT_3D('',#1637,#1638,#1639);
#1641=PLANE('',#1640);
#1642=ORIENTED_EDGE('',*,*,#1479,.F.);
#1643=CARTESIAN_POINT('',(116.999999665,30.999999833,8.830782312));
#1644=CARTESIAN_POINT('',(117.000487548,33.666666489,8.835140347));
#1645=CARTESIAN_POINT('',(117.00097543,36.333333156,8.839491941));
#1646=CARTESIAN_POINT('',(117.001463313,38.999999833,8.84383715));
#1647=B_SPLINE_CURVE_WITH_KNOTS('',3,(#1643,#1644,#1645,#1646),.UNSPECIFIED.,.F.,.F.,(4,4),(0.0000002,0.008000211),.UNSPECIFIED.);
#1648=EDGE_CURVE('',#1463,#1540,#1647,.T.);
#1649=ORIENTED_EDGE('',*,*,#1648,.T.);
#1650=ORIENTED_EDGE('',*,*,#1585,.T.);
#1651=CARTESIAN_POINT('',(117.001463313,38.999999833,3.000018128));
#1652=DIRECTION('',(-0.000182956,-0.999999983,0.));
#1653=VECTOR('',#1652,8.000000134);
#1654=LINE('',#1651,#1653);
#1655=EDGE_CURVE('',#1574,#1474,#1654,.T.);
#1656=ORIENTED_EDGE('',*,*,#1655,.T.);
#1657=EDGE_LOOP('',(#1642,#1649,#1650,#1656));
#1658=FACE_BOUND('',#1657,.T.);
#1659=ADVANCED_FACE('',(#1658),#1641,.F.);
#1660=CARTESIAN_POINT('',(-403.000017961,1780.999999833,43.000018128));
#1661=DIRECTION('',(0.,0.,1.));
#1662=DIRECTION('',(0.,-1.,0.));
#1663=AXIS2_PLACEMENT_3D('',#1660,#1661,#1662);
#1664=PLANE('',#1663);
#1665=CARTESIAN_POINT('',(168.245218381,38.999999833,43.000018128));
#1666=DIRECTION('',(-0.,-1.,-0.));
#1667=VECTOR('',#1666,8.);
#1668=LINE('',#1665,#1667);
#1669=EDGE_CURVE('',#1549,#1515,#1668,.T.);
#1670=ORIENTED_EDGE('',*,*,#1669,.F.);
#1671=ORIENTED_EDGE('',*,*,#1554,.F.);
#1672=CARTESIAN_POINT('',(145.755027041,30.999999833,43.000018128));
#1673=DIRECTION('',(0.,1.,0.));
#1674=VECTOR('',#1673,8.);
#1675=LINE('',#1672,#1674);
#1676=EDGE_CURVE('',#1465,#1538,#1675,.T.);
#1677=ORIENTED_EDGE('',*,*,#1676,.F.);
#1678=ORIENTED_EDGE('',*,*,#1527,.F.);
#1679=EDGE_LOOP('',(#1670,#1671,#1677,#1678));
#1680=FACE_BOUND('',#1679,.T.);
#1681=ADVANCED_FACE('',(#1680),#1664,.T.);
#1682=CARTESIAN_POINT('',(-403.000017961,1780.999999833,3.000018128));
#1683=DIRECTION('',(0.,0.,1.));
#1684=DIRECTION('',(0.,-1.,0.));
#1685=AXIS2_PLACEMENT_3D('',#1682,#1683,#1684);
#1686=PLANE('',#1685);
#1687=ORIENTED_EDGE('',*,*,#1504,.T.);
#1688=CARTESIAN_POINT('',(194.225551938,31.707106614,3.000018128));
#1689=VERTEX_POINT('',#1688);
#1690=CARTESIAN_POINT('',(194.933116744,30.999999833,3.000018128));
#1691=CARTESIAN_POINT('',(194.839710428,30.999999833,3.000018128));
#1692=CARTESIAN_POINT('',(194.748058778,31.018356227,3.000018128));
#1693=CARTESIAN_POINT('',(194.662422618,31.053793193,3.000018128));
#1694=CARTESIAN_POINT('',(194.619604538,31.071511675,3.000018128));
#1695=CARTESIAN_POINT('',(194.57898542,31.093197999,3.000018128));
#1696=CARTESIAN_POINT('',(194.540545382,31.118816285,3.000018128));
#1697=CARTESIAN_POINT('',(194.502105344,31.144434571,3.000018128));
#1698=CARTESIAN_POINT('',(194.4656932,31.174263429,3.000018128));
#1699=CARTESIAN_POINT('',(194.433053764,31.206847817,3.000018128));
#1700=CARTESIAN_POINT('',(194.367774891,31.272016592,3.000018128));
#1701=CARTESIAN_POINT('',(194.315026733,31.350826835,3.000018128));
#1702=CARTESIAN_POINT('',(194.279683875,31.435855277,3.000018128));
#1703=CARTESIAN_POINT('',(194.244341016,31.520883718,3.000018128));
#1704=CARTESIAN_POINT('',(194.225551938,31.613698604,3.000018128));
#1705=CARTESIAN_POINT('',(194.225551938,31.707106614,3.000018128));
#1706=B_SPLINE_CURVE_WITH_KNOTS('',3,(#1690,#1691,#1692,#1693,#1694,#1695,#1696,#1697,#1698,#1699,#1700,#1701,#1702,#1703,#1704,#1705),.UNSPECIFIED.,.F.,.F.,(4,3,3,3,3,4),(0.,0.000276243,0.000414364,0.000552485,0.000828728,0.00110497),.UNSPECIFIED.);
#1707=EDGE_CURVE('',#1490,#1689,#1706,.T.);
#1708=ORIENTED_EDGE('',*,*,#1707,.T.);
#1709=CARTESIAN_POINT('',(194.225551938,31.999981872,3.000018128));
#1710=VERTEX_POINT('',#1709);
#1711=CARTESIAN_POINT('',(194.225551938,31.999981872,3.000018128));
#1712=DIRECTION('',(0.,-1.,0.));
#1713=VECTOR('',#1712,0.292875258);
#1714=LINE('',#1711,#1713);
#1715=EDGE_CURVE('',#1710,#1689,#1714,.T.);
#1716=ORIENTED_EDGE('',*,*,#1715,.F.);
#1717=CARTESIAN_POINT('',(193.224873657,31.999981872,3.000018128));
#1718=VERTEX_POINT('',#1717);
#1719=CARTESIAN_POINT('',(194.225551938,31.999981872,3.000018128));
#1720=DIRECTION('',(-1.,0.,0.));
#1721=VECTOR('',#1720,1.000678281);
#1722=LINE('',#1719,#1721);
#1723=EDGE_CURVE('',#1710,#1718,#1722,.T.);
#1724=ORIENTED_EDGE('',*,*,#1723,.T.);
#1725=CARTESIAN_POINT('',(193.224873657,31.707106614,3.000018128));
#1726=VERTEX_POINT('',#1725);
#1727=CARTESIAN_POINT('',(193.224873657,31.999981872,3.000018128));
#1728=DIRECTION('',(0.,-1.,0.));
#1729=VECTOR('',#1728,0.292875258);
#1730=LINE('',#1727,#1729);
#1731=EDGE_CURVE('',#1718,#1726,#1730,.T.);
#1732=ORIENTED_EDGE('',*,*,#1731,.T.);
#1733=CARTESIAN_POINT('',(193.224873657,31.707106614,3.000018128));
#1734=CARTESIAN_POINT('',(193.224873657,31.613696511,3.000018128));
#1735=CARTESIAN_POINT('',(193.20647481,31.522037025,3.000018128));
#1736=CARTESIAN_POINT('',(193.170977829,31.436429067,3.000018128));
#1737=CARTESIAN_POINT('',(193.153229338,31.393625089,3.000018128));
#1738=CARTESIAN_POINT('',(193.131508007,31.353022783,3.000018128));
#1739=CARTESIAN_POINT('',(193.105850384,31.314601898,3.000018128));
#1740=CARTESIAN_POINT('',(193.080192761,31.276181012,3.000018128));
#1741=CARTESIAN_POINT('',(193.050327395,31.239800862,3.000018128));
#1742=CARTESIAN_POINT('',(193.017710475,31.207195353,3.000018128));
#1743=CARTESIAN_POINT('',(192.952476635,31.141984333,3.000018128));
#1744=CARTESIAN_POINT('',(192.873609311,31.08931242,3.000018128));
#1745=CARTESIAN_POINT('',(192.788551822,31.054030182,3.000018128));
#1746=CARTESIAN_POINT('',(192.703494333,31.018747945,3.000018128));
#1747=CARTESIAN_POINT('',(192.61067243,30.999999833,3.000018128));
#1748=CARTESIAN_POINT('',(192.517264199,30.999999833,3.000018128));
#1749=B_SPLINE_CURVE_WITH_KNOTS('',3,(#1733,#1734,#1735,#1736,#1737,#1738,#1739,#1740,#1741,#1742,#1743,#1744,#1745,#1746,#1747,#1748),.UNSPECIFIED.,.F.,.F.,(4,3,3,3,3,4),(0.,0.000276252,0.000414378,0.000552504,0.000828755,0.001105007),.UNSPECIFIED.);
#1750=EDGE_CURVE('',#1726,#1596,#1749,.T.);
#1751=ORIENTED_EDGE('',*,*,#1750,.T.);
#1752=ORIENTED_EDGE('',*,*,#1603,.T.);
#1753=CARTESIAN_POINT('',(120.775371765,31.707106614,3.000018128));
#1754=VERTEX_POINT('',#1753);
#1755=CARTESIAN_POINT('',(121.482981223,30.999999833,3.000018128));
#1756=CARTESIAN_POINT('',(121.389571853,30.999999833,3.000018128));
#1757=CARTESIAN_POINT('',(121.297917212,31.01835396,3.000018128));
#1758=CARTESIAN_POINT('',(121.212276448,31.053788719,3.000018128));
#1759=CARTESIAN_POINT('',(121.169456067,31.071506098,3.000018128));
#1760=CARTESIAN_POINT('',(121.128834626,31.09319127,3.000018128));
#1761=CARTESIAN_POINT('',(121.090392285,31.118808438,3.000018128));
#1762=CARTESIAN_POINT('',(121.051949944,31.144425606,3.000018128));
#1763=CARTESIAN_POINT('',(121.015534955,31.174253781,3.000018128));
#1764=CARTESIAN_POINT('',(120.982892823,31.206837857,3.000018128));
#1765=CARTESIAN_POINT('',(120.91760856,31.272006009,3.000018128));
#1766=CARTESIAN_POINT('',(120.864855567,31.350816722,3.000018128));
#1767=CARTESIAN_POINT('',(120.829509205,31.435847107,3.000018128));
#1768=CARTESIAN_POINT('',(120.794162844,31.520877492,3.000018128));
#1769=CARTESIAN_POINT('',(120.775371765,31.613695356,3.000018128));
#1770=CARTESIAN_POINT('',(120.775371765,31.707106614,3.000018128));
#1771=B_SPLINE_CURVE_WITH_KNOTS('',3,(#1755,#1756,#1757,#1758,#1759,#1760,#1761,#1762,#1763,#1764,#1765,#1766,#1767,#1768,#1769,#1770),.UNSPECIFIED.,.F.,.F.,(4,3,3,3,3,4),(0.,0.000276252,0.000414378,0.000552504,0.000828756,0.001105008),.UNSPECIFIED.);
#1772=EDGE_CURVE('',#1598,#1754,#1771,.T.);
#1773=ORIENTED_EDGE('',*,*,#1772,.T.);
#1774=CARTESIAN_POINT('',(120.775371765,31.999981872,3.000018128));
#1775=VERTEX_POINT('',#1774);
#1776=CARTESIAN_POINT('',(120.775371765,31.707106614,3.000018128));
#1777=DIRECTION('',(-0.,1.,-0.));
#1778=VECTOR('',#1777,0.292875258);
#1779=LINE('',#1776,#1778);
#1780=EDGE_CURVE('',#1754,#1775,#1779,.T.);
#1781=ORIENTED_EDGE('',*,*,#1780,.T.);
#1782=CARTESIAN_POINT('',(119.774693484,31.999981872,3.000018128));
#1783=VERTEX_POINT('',#1782);
#1784=CARTESIAN_POINT('',(120.775371765,31.999981872,3.000018128));
#1785=DIRECTION('',(-1.,0.,0.));
#1786=VECTOR('',#1785,1.000678281);
#1787=LINE('',#1784,#1786);
#1788=EDGE_CURVE('',#1775,#1783,#1787,.T.);
#1789=ORIENTED_EDGE('',*,*,#1788,.T.);
#1790=CARTESIAN_POINT('',(119.774693484,31.707106614,3.000018128));
#1791=VERTEX_POINT('',#1790);
#1792=CARTESIAN_POINT('',(119.774693484,31.707106614,3.000018128));
#1793=DIRECTION('',(-0.,1.,-0.));
#1794=VECTOR('',#1793,0.292875258);
#1795=LINE('',#1792,#1794);
#1796=EDGE_CURVE('',#1791,#1783,#1795,.T.);
#1797=ORIENTED_EDGE('',*,*,#1796,.F.);
#1798=CARTESIAN_POINT('',(119.774693484,31.707106614,3.000018128));
#1799=CARTESIAN_POINT('',(119.774693484,31.613699656,3.000018128));
#1800=CARTESIAN_POINT('',(119.756296711,31.522043485,3.000018128));
#1801=CARTESIAN_POINT('',(119.720803126,31.436437203,3.000018128));
#1802=CARTESIAN_POINT('',(119.703056334,31.393634062,3.000018128));
#1803=CARTESIAN_POINT('',(119.681337052,31.353032402,3.000018128));
#1804=CARTESIAN_POINT('',(119.655681847,31.314611957,3.000018128));
#1805=CARTESIAN_POINT('',(119.630026642,31.276191513,3.000018128));
#1806=CARTESIAN_POINT('',(119.600163802,31.239811193,3.000018128));
#1807=CARTESIAN_POINT('',(119.567549395,31.207205206,3.000018128));
#1808=CARTESIAN_POINT('',(119.502320579,31.141993232,3.000018128));
#1809=CARTESIAN_POINT('',(119.423458655,31.08931914,3.000018128));
#1810=CARTESIAN_POINT('',(119.338405537,31.054034637,3.000018128));
#1811=CARTESIAN_POINT('',(119.253352419,31.018750133,3.000018128));
#1812=CARTESIAN_POINT('',(119.160533934,30.999999833,3.000018128));
#1813=CARTESIAN_POINT('',(119.067128678,30.999999833,3.000018128));
#1814=B_SPLINE_CURVE_WITH_KNOTS('',3,(#1798,#1799,#1800,#1801,#1802,#1803,#1804,#1805,#1806,#1807,#1808,#1809,#1810,#1811,#1812,#1813),.UNSPECIFIED.,.F.,.F.,(4,3,3,3,3,4),(0.,0.000276242,0.000414364,0.000552485,0.000828727,0.00110497),.UNSPECIFIED.);
#1815=EDGE_CURVE('',#1791,#1482,#1814,.T.);
#1816=ORIENTED_EDGE('',*,*,#1815,.T.);
#1817=ORIENTED_EDGE('',*,*,#1487,.T.);
#1818=ORIENTED_EDGE('',*,*,#1655,.F.);
#1819=ORIENTED_EDGE('',*,*,#1579,.T.);
#1820=ORIENTED_EDGE('',*,*,#1631,.T.);
#1821=EDGE_LOOP('',(#1687,#1708,#1716,#1724,#1732,#1751,#1752,#1773,#1781,#1789,#1797,#1816,#1817,#1818,#1819,#1820));
#1822=FACE_BOUND('',#1821,.T.);
#1823=ADVANCED_FACE('',(#1822),#1686,.F.);
#1824=CARTESIAN_POINT('',(157.000122711,31.999981872,4.352763072));
#1825=DIRECTION('',(0.,-1.,0.));
#1826=DIRECTION('',(0.,0.,-1.));
#1827=AXIS2_PLACEMENT_3D('',#1824,#1825,#1826);
#1828=CYLINDRICAL_SURFACE('',#1827,36.25);
#1829=ORIENTED_EDGE('',*,*,#1780,.F.);
#1830=CARTESIAN_POINT('',(157.000122711,31.707106614,4.352763072));
#1831=DIRECTION('',(-0.,1.,-0.));
#1832=DIRECTION('',(0.,0.,-1.));
#1833=AXIS2_PLACEMENT_3D('',#1830,#1831,#1832);
#1834=CIRCLE('',#1833,36.25);
#1835=EDGE_CURVE('',#1754,#1726,#1834,.T.);
#1836=ORIENTED_EDGE('',*,*,#1835,.T.);
#1837=ORIENTED_EDGE('',*,*,#1731,.F.);
#1838=CARTESIAN_POINT('',(157.000122711,31.999981872,4.352763072));
#1839=DIRECTION('',(0.,1.,0.));
#1840=DIRECTION('',(0.,-0.,1.));
#1841=AXIS2_PLACEMENT_3D('',#1838,#1839,#1840);
#1842=CIRCLE('',#1841,36.25);
#1843=EDGE_CURVE('',#1775,#1718,#1842,.T.);
#1844=ORIENTED_EDGE('',*,*,#1843,.F.);
#1845=EDGE_LOOP('',(#1829,#1836,#1837,#1844));
#1846=FACE_BOUND('',#1845,.T.);
#1847=ADVANCED_FACE('',(#1846),#1828,.T.);
#1848=CARTESIAN_POINT('',(157.000122711,31.999981872,4.352763072));
#1849=DIRECTION('',(0.,-1.,0.));
#1850=DIRECTION('',(0.,0.,-1.));
#1851=AXIS2_PLACEMENT_3D('',#1848,#1849,#1850);
#1852=CYLINDRICAL_SURFACE('',#1851,37.25);
#1853=ORIENTED_EDGE('',*,*,#1715,.T.);
#1854=CARTESIAN_POINT('',(157.000122711,31.707106614,4.352763072));
#1855=DIRECTION('',(0.,-1.,0.));
#1856=DIRECTION('',(0.,0.,-1.));
#1857=AXIS2_PLACEMENT_3D('',#1854,#1855,#1856);
#1858=CIRCLE('',#1857,37.25);
#1859=EDGE_CURVE('',#1689,#1791,#1858,.T.);
#1860=ORIENTED_EDGE('',*,*,#1859,.T.);
#1861=ORIENTED_EDGE('',*,*,#1796,.T.);
#1862=CARTESIAN_POINT('',(157.000122711,31.999981872,4.352763072));
#1863=DIRECTION('',(0.,1.,0.));
#1864=DIRECTION('',(0.,-0.,1.));
#1865=AXIS2_PLACEMENT_3D('',#1862,#1863,#1864);
#1866=CIRCLE('',#1865,37.25);
#1867=EDGE_CURVE('',#1783,#1710,#1866,.T.);
#1868=ORIENTED_EDGE('',*,*,#1867,.T.);
#1869=EDGE_LOOP('',(#1853,#1860,#1861,#1868));
#1870=FACE_BOUND('',#1869,.T.);
#1871=ADVANCED_FACE('',(#1870),#1852,.F.);
#1872=CARTESIAN_POINT('',(-1950.,31.999981872,63.000018128));
#1873=DIRECTION('',(0.,1.,0.));
#1874=DIRECTION('',(1.,0.,0.));
#1875=AXIS2_PLACEMENT_3D('',#1872,#1873,#1874);
#1876=PLANE('',#1875);
#1877=ORIENTED_EDGE('',*,*,#1867,.F.);
#1878=ORIENTED_EDGE('',*,*,#1788,.F.);
#1879=ORIENTED_EDGE('',*,*,#1843,.T.);
#1880=ORIENTED_EDGE('',*,*,#1723,.F.);
#1881=EDGE_LOOP('',(#1877,#1878,#1879,#1880));
#1882=FACE_BOUND('',#1881,.T.);
#1883=ADVANCED_FACE('',(#1882),#1876,.F.);
#1884=CARTESIAN_POINT('',(157.000122711,31.707106614,4.352763072));
#1885=DIRECTION('',(0.,-1.,0.));
#1886=DIRECTION('',(0.,0.,-1.));
#1887=AXIS2_PLACEMENT_3D('',#1884,#1885,#1886);
#1888=TOROIDAL_SURFACE('',#1887,35.542893219,0.707106781);
#1889=ORIENTED_EDGE('',*,*,#1772,.F.);
#1890=ORIENTED_EDGE('',*,*,#1610,.F.);
#1891=ORIENTED_EDGE('',*,*,#1750,.F.);
#1892=ORIENTED_EDGE('',*,*,#1835,.F.);
#1893=EDGE_LOOP('',(#1889,#1890,#1891,#1892));
#1894=FACE_BOUND('',#1893,.T.);
#1895=ADVANCED_FACE('',(#1894),#1888,.T.);
#1896=CARTESIAN_POINT('',(157.000122711,31.707106614,4.352763072));
#1897=DIRECTION('',(0.,-1.,0.));
#1898=DIRECTION('',(0.,0.,-1.));
#1899=AXIS2_PLACEMENT_3D('',#1896,#1897,#1898);
#1900=TOROIDAL_SURFACE('',#1899,37.957106781,0.707106781);
#1901=ORIENTED_EDGE('',*,*,#1815,.F.);
#1902=ORIENTED_EDGE('',*,*,#1859,.F.);
#1903=ORIENTED_EDGE('',*,*,#1707,.F.);
#1904=ORIENTED_EDGE('',*,*,#1496,.F.);
#1905=EDGE_LOOP('',(#1901,#1902,#1903,#1904));
#1906=FACE_BOUND('',#1905,.T.);
#1907=ADVANCED_FACE('',(#1906),#1900,.T.);
#1908=CARTESIAN_POINT('',(157.000122711,-253.000018128,4.352763072));
#1909=DIRECTION('',(0.,1.,0.));
#1910=DIRECTION('',(0.,-0.,1.));
#1911=AXIS2_PLACEMENT_3D('',#1908,#1909,#1910);
#1912=CYLINDRICAL_SURFACE('',#1911,40.25);
#1913=ORIENTED_EDGE('',*,*,#1471,.T.);
#1914=ORIENTED_EDGE('',*,*,#1676,.T.);
#1915=ORIENTED_EDGE('',*,*,#1546,.T.);
#1916=ORIENTED_EDGE('',*,*,#1648,.F.);
#1917=EDGE_LOOP('',(#1913,#1914,#1915,#1916));
#1918=FACE_BOUND('',#1917,.T.);
#1919=ADVANCED_FACE('',(#1918),#1912,.T.);
#1920=CARTESIAN_POINT('',(157.000122711,-253.000018128,4.352763072));
#1921=DIRECTION('',(0.,1.,0.));
#1922=DIRECTION('',(0.,-0.,1.));
#1923=AXIS2_PLACEMENT_3D('',#1920,#1921,#1922);
#1924=CYLINDRICAL_SURFACE('',#1923,40.25);
#1925=ORIENTED_EDGE('',*,*,#1521,.T.);
#1926=ORIENTED_EDGE('',*,*,#1624,.T.);
#1927=ORIENTED_EDGE('',*,*,#1563,.T.);
#1928=ORIENTED_EDGE('',*,*,#1669,.T.);
#1929=EDGE_LOOP('',(#1925,#1926,#1927,#1928));
#1930=FACE_BOUND('',#1929,.T.);
#1931=ADVANCED_FACE('',(#1930),#1924,.T.);
#1932=CLOSED_SHELL('',(#1531,#1589,#1614,#1636,#1659,#1681,#1823,#1847,#1871,#1883,#1895,#1907,#1919,#1931));
#1933=MANIFOLD_SOLID_BREP('Body 120 (5)',#1932);
#1456=STYLED_ITEM('',(#677),#1933);
#715=SHAPE_REPRESENTATION('Folder 35',(#15),#713);
#716=ADVANCED_BREP_SHAPE_REPRESENTATION('Folder 35',(#855,#1455,#1933),#713);
#1941=SHAPE_REPRESENTATION_RELATIONSHIP('','',#715,#716);
#1942=CARTESIAN_POINT('',(0.,0.,0.));
#1943=DIRECTION('',(0.,0.,1.));
#1944=DIRECTION('',(1.,0.,0.));
#1945=AXIS2_PLACEMENT_3D('',#1942,#1943,#1944);
#1947=MAPPED_ITEM('',#1946,#1945);
#1946=REPRESENTATION_MAP(#1945,#715);
#1948=APPLICATION_CONTEXT('Managed model based 3d engineering');
#1949=APPLICATION_PROTOCOL_DEFINITION('international standard','ap242_managed_model_based_3d_engineering',2014,#1948);
#1950=PRODUCT_CONTEXT('',#1948,'mechanical');
#1951=PRODUCT_DEFINITION_CONTEXT('part definition',#1948,'design');
#723=PRODUCT('Folder 35','Folder 35','',(#1950));
#1952=PRODUCT_RELATED_PRODUCT_CATEGORY('part','',(#723));
#1953=PRODUCT_DEFINITION_FORMATION_WITH_SPECIFIED_SOURCE('','',#723,.NOT_KNOWN.);
#724=PRODUCT_DEFINITION('design','',#1953,#1951);
#722=PRODUCT_DEFINITION_SHAPE('','',#724);
#1954=SHAPE_DEFINITION_REPRESENTATION(#722,#715);
#714=DRAUGHTING_MODEL('',(#1947),#713);
#687=SHAPE_REPRESENTATION('Act ii print plast.step',(#15,#728),#685);
#1955=CARTESIAN_POINT('',(0.,0.,0.));
#1956=DIRECTION('',(0.,0.,1.));
#1957=DIRECTION('',(1.,0.,0.));
#1958=AXIS2_PLACEMENT_3D('',#1955,#1956,#1957);
#1960=MAPPED_ITEM('',#1959,#1958);
#1959=REPRESENTATION_MAP(#1958,#687);
#695=PRODUCT('Act ii print plast.step','Act ii print plast.step','',(#1950));
#1961=PRODUCT_RELATED_PRODUCT_CATEGORY('part','',(#695));
#1962=PRODUCT_DEFINITION_FORMATION_WITH_SPECIFIED_SOURCE('','',#695,.NOT_KNOWN.);
#696=PRODUCT_DEFINITION('design','',#1962,#1951);
#694=PRODUCT_DEFINITION_SHAPE('','',#696);
#1963=SHAPE_DEFINITION_REPRESENTATION(#694,#687);
#686=DRAUGHTING_MODEL('',(#1960),#685);
#16=SHAPE_REPRESENTATION('root',(#15,#700),#10);
#17=ADVANCED_BREP_SHAPE_REPRESENTATION('root',(#670),#10);
#1971=SHAPE_REPRESENTATION_RELATIONSHIP('','',#16,#17);
#1972=CARTESIAN_POINT('',(0.,0.,0.));
#1973=DIRECTION('',(0.,0.,1.));
#1974=DIRECTION('',(1.,0.,0.));
#1975=AXIS2_PLACEMENT_3D('',#1972,#1973,#1974);
#1977=MAPPED_ITEM('',#1976,#1975);
#1976=REPRESENTATION_MAP(#1975,#16);
#24=PRODUCT('root','root','',(#1950));
#1978=PRODUCT_RELATED_PRODUCT_CATEGORY('part','',(#24));
#1979=PRODUCT_DEFINITION_FORMATION_WITH_SPECIFIED_SOURCE('','',#24,.NOT_KNOWN.);
#25=PRODUCT_DEFINITION('design','',#1979,#1951);
#23=PRODUCT_DEFINITION_SHAPE('','',#25);
#1980=SHAPE_DEFINITION_REPRESENTATION(#23,#16);
#11=DRAUGHTING_MODEL('',(#1977),#10);
#1981=DESCRIPTIVE_REPRESENTATION_ITEM('KEY','/private/var/mobile/Containers/Data/Application/5F2095C5-6E5A-4F28-9900-660682EC0850/tmp/17625A11-B132-454C-B0D0-BB4393F2F801.tmp');
#1982=PROPERTY_DEFINITION('KEY','',#25);
#1983=REPRESENTATION('',(#1981),#10);
#1984=PROPERTY_DEFINITION_REPRESENTATION(#1982,#1983);
#1985=GENERAL_PROPERTY('','KEY','');
#1986=GENERAL_PROPERTY_ASSOCIATION('','',#1985,#1982);
#1=MECHANICAL_DESIGN_GEOMETRIC_PRESENTATION_REPRESENTATION('',(#26,#734,#856,#1456),#10);
ENDSEC;
END-ISO-10303-21;
