ISO-10303-21;
HEADER;

/* File generated by Shapr3D Version 26.50.0.10685 */

FILE_DESCRIPTION(('HOOPS Exchange Step'),'2;1');

FILE_NAME('/private/var/mobile/Containers/Data/Application/5F2095C5-6E5A-4F28-9900-660682EC0850/tmp/export/temp_export',
'2026-05-03T21:46:23+02:00',
('mobile'),
('Shapr3D Limited'),
'HOOPS Exchange 2025.9',
'Shapr3D',
'Authorized');

FILE_SCHEMA( ('AP242_MANAGED_MODEL_BASED_3D_ENGINEERING_MIM_LF {1 0 10303 442 1 1 4}') );

ENDSEC;

DATA;
#3=(NAMED_UNIT(*)PLANE_ANGLE_UNIT()SI_UNIT($,.RADIAN.));
#4=PLANE_ANGLE_MEASURE_WITH_UNIT(PLANE_ANGLE_MEASURE(0.0174532925),#3);
#5=(CONVERSION_BASED_UNIT('DEGREE',#4)NAMED_UNIT(#6)PLANE_ANGLE_UNIT());
#6=DIMENSIONAL_EXPONENTS(0.,0.,0.,0.,0.,0.,0.);
#7=(NAMED_UNIT(*)SI_UNIT($,.STERADIAN.)SOLID_ANGLE_UNIT());
#8=(LENGTH_UNIT()NAMED_UNIT(*)SI_UNIT(.MILLI.,.METRE.));
#9=UNCERTAINTY_MEASURE_WITH_UNIT(LENGTH_MEASURE(1.000000E-05),#8,'DISTANCE_ACCURACY_VALUE','Maximum Tolerance applied to model');
#10=(GEOMETRIC_REPRESENTATION_CONTEXT(3)GLOBAL_UNCERTAINTY_ASSIGNED_CONTEXT((#9))GLOBAL_UNIT_ASSIGNED_CONTEXT((#8,#5,#7))REPRESENTATION_CONTEXT('','root'));
#12=CARTESIAN_POINT('',(0.,0.,0.));
#13=DIRECTION('',(0.,0.,1.));
#14=DIRECTION('',(1.,0.,0.));
#15=AXIS2_PLACEMENT_3D('TS3D_PRODUCT_CSYS',#12,#13,#14);
#27=CARTESIAN_POINT('',(-280.,154.499084718,48.000018128));
#28=DIRECTION('',(1.,0.,0.));
#29=DIRECTION('',(0.,-1.,0.));
#30=AXIS2_PLACEMENT_3D('',#27,#28,#29);
#31=PLANE('',#30);
#32=CARTESIAN_POINT('',(-280.,136.999999498,43.000018128));
#33=VERTEX_POINT('',#32);
#34=CARTESIAN_POINT('',(-280.,136.999999498,3.000018128));
#35=VERTEX_POINT('',#34);
#36=CARTESIAN_POINT('',(-280.,136.999999498,43.000018128));
#37=DIRECTION('',(0.,0.,-1.));
#38=VECTOR('',#37,40.);
#39=LINE('',#36,#38);
#40=EDGE_CURVE('',#33,#35,#39,.T.);
#41=ORIENTED_EDGE('',*,*,#40,.T.);
#42=CARTESIAN_POINT('',(-280.,139.066883089,3.000018128));
#43=VERTEX_POINT('',#42);
#44=CARTESIAN_POINT('',(-280.,136.999999498,3.000018128));
#45=DIRECTION('',(-0.,1.,0.));
#46=VECTOR('',#45,2.066883591);
#47=LINE('',#44,#46);
#48=EDGE_CURVE('',#35,#43,#47,.T.);
#49=ORIENTED_EDGE('',*,*,#48,.T.);
#50=CARTESIAN_POINT('',(-280.,176.999877122,42.309869853));
#51=VERTEX_POINT('',#50);
#52=CARTESIAN_POINT('',(-280.,176.999877122,4.352763072));
#53=DIRECTION('',(-1.,-0.,0.));
#54=DIRECTION('',(0.,0.,1.));
#55=AXIS2_PLACEMENT_3D('',#52,#53,#54);
#56=CIRCLE('',#55,37.957106781);
#57=EDGE_CURVE('',#43,#51,#56,.T.);
#58=ORIENTED_EDGE('',*,*,#57,.T.);
#59=CARTESIAN_POINT('',(-280.,214.932853241,2.999515889));
#60=VERTEX_POINT('',#59);
#61=CARTESIAN_POINT('',(-280.,176.999877122,4.352763072));
#62=DIRECTION('',(-1.,-0.,0.));
#63=DIRECTION('',(0.,0.,1.));
#64=AXIS2_PLACEMENT_3D('',#61,#62,#63);
#65=CIRCLE('',#64,37.957106781);
#66=EDGE_CURVE('',#51,#60,#65,.T.);
#67=ORIENTED_EDGE('',*,*,#66,.T.);
#68=CARTESIAN_POINT('',(-280.,214.959499468,3.000018128));
#69=VERTEX_POINT('',#68);
#70=CARTESIAN_POINT('',(-280.,214.959499468,2.292911347));
#71=DIRECTION('',(1.,0.,0.));
#72=DIRECTION('',(-0.,1.,0.));
#73=AXIS2_PLACEMENT_3D('',#70,#71,#72);
#74=CIRCLE('',#73,0.707106781);
#75=EDGE_CURVE('',#69,#60,#74,.T.);
#76=ORIENTED_EDGE('',*,*,#75,.F.);
#77=CARTESIAN_POINT('',(-280.,216.952392687,3.000018128));
#78=VERTEX_POINT('',#77);
#79=CARTESIAN_POINT('',(-280.,214.959499468,3.000018128));
#80=DIRECTION('',(-0.,1.,0.));
#81=VECTOR('',#80,1.992893219);
#82=LINE('',#79,#81);
#83=EDGE_CURVE('',#69,#78,#82,.T.);
#84=ORIENTED_EDGE('',*,*,#83,.T.);
#85=CARTESIAN_POINT('',(-280.,216.952392687,0.000018128));
#86=VERTEX_POINT('',#85);
#87=CARTESIAN_POINT('',(-280.,216.952392687,0.000018128));
#88=DIRECTION('',(0.,0.,1.));
#89=VECTOR('',#88,3.);
#90=LINE('',#87,#89);
#91=EDGE_CURVE('',#86,#78,#90,.T.);
#92=ORIENTED_EDGE('',*,*,#91,.F.);
#93=CARTESIAN_POINT('',(-280.,216.99853652,0.000018128));
#94=VERTEX_POINT('',#93);
#95=CARTESIAN_POINT('',(-280.,216.99853652,0.000018128));
#96=DIRECTION('',(0.,-1.,0.));
#97=VECTOR('',#96,0.046143833);
#98=LINE('',#95,#97);
#99=EDGE_CURVE('',#94,#86,#98,.T.);
#100=ORIENTED_EDGE('',*,*,#99,.F.);
#101=CARTESIAN_POINT('',(-280.,216.998536519,43.000018128));
#102=VERTEX_POINT('',#101);
#103=CARTESIAN_POINT('',(-280.,216.99853652,43.000018128));
#104=DIRECTION('',(0.,0.,-1.));
#105=VECTOR('',#104,43.);
#106=LINE('',#103,#105);
#107=EDGE_CURVE('',#102,#94,#106,.T.);
#108=ORIENTED_EDGE('',*,*,#107,.F.);
#109=CARTESIAN_POINT('',(-280.,216.998536519,43.000018128));
#110=DIRECTION('',(0.,-1.,0.));
#111=VECTOR('',#110,79.998537021);
#112=LINE('',#109,#111);
#113=EDGE_CURVE('',#102,#33,#112,.T.);
#114=ORIENTED_EDGE('',*,*,#113,.T.);
#115=EDGE_LOOP('',(#41,#49,#58,#67,#76,#84,#92,#100,#108,#114));
#116=FACE_BOUND('',#115,.T.);
#117=ADVANCED_FACE('',(#116),#31,.T.);
#118=CARTESIAN_POINT('',(-283.,136.999999498,48.000018128));
#119=DIRECTION('',(0.,-1.,0.));
#120=DIRECTION('',(-1.,-0.,0.));
#121=AXIS2_PLACEMENT_3D('',#118,#119,#120);
#122=PLANE('',#121);
#123=CARTESIAN_POINT('',(-288.,136.999999498,43.000018128));
#124=VERTEX_POINT('',#123);
#125=CARTESIAN_POINT('',(-288.,136.999999498,3.000018128));
#126=VERTEX_POINT('',#125);
#127=CARTESIAN_POINT('',(-288.,136.999999498,43.000018128));
#128=DIRECTION('',(0.,0.,-1.));
#129=VECTOR('',#128,40.);
#130=LINE('',#127,#129);
#131=EDGE_CURVE('',#124,#126,#130,.T.);
#132=ORIENTED_EDGE('',*,*,#131,.T.);
#133=CARTESIAN_POINT('',(-288.,136.999999498,3.000018128));
#134=DIRECTION('',(1.,0.,0.));
#135=VECTOR('',#134,8.);
#136=LINE('',#133,#135);
#137=EDGE_CURVE('',#126,#35,#136,.T.);
#138=ORIENTED_EDGE('',*,*,#137,.T.);
#139=ORIENTED_EDGE('',*,*,#40,.F.);
#140=CARTESIAN_POINT('',(-280.,136.999999498,43.000018128));
#141=DIRECTION('',(-1.,-0.,0.));
#142=VECTOR('',#141,8.);
#143=LINE('',#140,#142);
#144=EDGE_CURVE('',#33,#124,#143,.T.);
#145=ORIENTED_EDGE('',*,*,#144,.T.);
#146=EDGE_LOOP('',(#132,#138,#139,#145));
#147=FACE_BOUND('',#146,.T.);
#148=ADVANCED_FACE('',(#147),#122,.T.);
#149=CARTESIAN_POINT('',(-280.,154.499084718,48.000018128));
#150=DIRECTION('',(1.,0.,0.));
#151=DIRECTION('',(0.,-1.,0.));
#152=AXIS2_PLACEMENT_3D('',#149,#150,#151);
#153=PLANE('',#152);
#154=CARTESIAN_POINT('',(-280.,141.554677838,3.000018128));
#155=VERTEX_POINT('',#154);
#156=CARTESIAN_POINT('',(-280.,141.482875032,2.996363091));
#157=VERTEX_POINT('',#156);
#158=CARTESIAN_POINT('',(-280.,141.554677838,2.292911347));
#159=DIRECTION('',(1.,0.,0.));
#160=DIRECTION('',(-0.,1.,0.));
#161=AXIS2_PLACEMENT_3D('',#158,#159,#160);
#162=CIRCLE('',#161,0.707106781);
#163=EDGE_CURVE('',#155,#157,#162,.T.);
#164=ORIENTED_EDGE('',*,*,#163,.F.);
#165=CARTESIAN_POINT('',(-280.,212.51701861,3.000018128));
#166=VERTEX_POINT('',#165);
#167=CARTESIAN_POINT('',(-280.,141.554677838,3.000018128));
#168=DIRECTION('',(-0.,1.,0.));
#169=VECTOR('',#168,70.962340772);
#170=LINE('',#167,#169);
#171=EDGE_CURVE('',#155,#166,#170,.T.);
#172=ORIENTED_EDGE('',*,*,#171,.T.);
#173=CARTESIAN_POINT('',(-280.,176.999877122,39.895656291));
#174=VERTEX_POINT('',#173);
#175=CARTESIAN_POINT('',(-280.,176.999877122,4.352763072));
#176=DIRECTION('',(1.,0.,-0.));
#177=DIRECTION('',(0.,0.,1.));
#178=AXIS2_PLACEMENT_3D('',#175,#176,#177);
#179=CIRCLE('',#178,35.542893219);
#180=EDGE_CURVE('',#166,#174,#179,.T.);
#181=ORIENTED_EDGE('',*,*,#180,.T.);
#182=CARTESIAN_POINT('',(-280.,176.999877122,4.352763072));
#183=DIRECTION('',(1.,0.,-0.));
#184=DIRECTION('',(0.,0.,1.));
#185=AXIS2_PLACEMENT_3D('',#182,#183,#184);
#186=CIRCLE('',#185,35.542893219);
#187=EDGE_CURVE('',#174,#157,#186,.T.);
#188=ORIENTED_EDGE('',*,*,#187,.T.);
#189=EDGE_LOOP('',(#164,#172,#181,#188));
#190=FACE_BOUND('',#189,.T.);
#191=ADVANCED_FACE('',(#190),#153,.T.);
#192=CARTESIAN_POINT('',(-282.000017961,176.999877122,4.352763072));
#193=DIRECTION('',(1.,0.,-0.));
#194=DIRECTION('',(0.,0.,1.));
#195=AXIS2_PLACEMENT_3D('',#192,#193,#194);
#196=CYLINDRICAL_SURFACE('',#195,36.25);
#197=CARTESIAN_POINT('',(-280.707106781,176.999877122,40.602763072));
#198=VERTEX_POINT('',#197);
#199=CARTESIAN_POINT('',(-282.000017961,176.999877122,40.602763072));
#200=VERTEX_POINT('',#199);
#201=CARTESIAN_POINT('',(-280.707106781,176.999877122,40.602763072));
#202=DIRECTION('',(-1.,-0.,-0.));
#203=VECTOR('',#202,1.29291118);
#204=LINE('',#201,#203);
#205=EDGE_CURVE('',#198,#200,#204,.T.);
#206=ORIENTED_EDGE('',*,*,#205,.T.);
#207=CARTESIAN_POINT('',(-282.000017961,140.826308163,2.000018128));
#208=VERTEX_POINT('',#207);
#209=CARTESIAN_POINT('',(-282.000017961,176.999877122,4.352763072));
#210=DIRECTION('',(-1.,-0.,-0.));
#211=DIRECTION('',(0.,0.,-1.));
#212=AXIS2_PLACEMENT_3D('',#209,#210,#211);
#213=CIRCLE('',#212,36.25);
#214=EDGE_CURVE('',#208,#200,#213,.T.);
#215=ORIENTED_EDGE('',*,*,#214,.F.);
#216=CARTESIAN_POINT('',(-280.707106781,140.826308163,2.000018128));
#217=VERTEX_POINT('',#216);
#218=CARTESIAN_POINT('',(-280.707106781,140.826308163,2.000018128));
#219=DIRECTION('',(-1.,-0.,-0.));
#220=VECTOR('',#219,1.29291118);
#221=LINE('',#218,#220);
#222=EDGE_CURVE('',#217,#208,#221,.T.);
#223=ORIENTED_EDGE('',*,*,#222,.F.);
#224=CARTESIAN_POINT('',(-280.707106781,176.999877122,4.352763072));
#225=DIRECTION('',(-1.,-0.,0.));
#226=DIRECTION('',(0.,0.,1.));
#227=AXIS2_PLACEMENT_3D('',#224,#225,#226);
#228=CIRCLE('',#227,36.25);
#229=EDGE_CURVE('',#217,#198,#228,.T.);
#230=ORIENTED_EDGE('',*,*,#229,.T.);
#231=EDGE_LOOP('',(#206,#215,#223,#230));
#232=FACE_BOUND('',#231,.T.);
#233=ADVANCED_FACE('',(#232),#196,.T.);
#234=CARTESIAN_POINT('',(-282.000017961,176.999877122,4.352763072));
#235=DIRECTION('',(1.,0.,-0.));
#236=DIRECTION('',(0.,0.,1.));
#237=AXIS2_PLACEMENT_3D('',#234,#235,#236);
#238=CYLINDRICAL_SURFACE('',#237,37.25);
#239=CARTESIAN_POINT('',(-280.707106781,176.999877122,41.602763072));
#240=VERTEX_POINT('',#239);
#241=CARTESIAN_POINT('',(-282.000017961,176.999877122,41.602763072));
#242=VERTEX_POINT('',#241);
#243=CARTESIAN_POINT('',(-280.707106781,176.999877122,41.602763072));
#244=DIRECTION('',(-1.,-0.,-0.));
#245=VECTOR('',#244,1.29291118);
#246=LINE('',#243,#245);
#247=EDGE_CURVE('',#240,#242,#246,.T.);
#248=ORIENTED_EDGE('',*,*,#247,.F.);
#249=CARTESIAN_POINT('',(-280.707106781,139.792760396,2.565876127));
#250=VERTEX_POINT('',#249);
#251=CARTESIAN_POINT('',(-280.707106781,176.999877122,4.352763072));
#252=DIRECTION('',(1.,0.,-0.));
#253=DIRECTION('',(0.,0.,1.));
#254=AXIS2_PLACEMENT_3D('',#251,#252,#253);
#255=CIRCLE('',#254,37.25);
#256=EDGE_CURVE('',#240,#250,#255,.T.);
#257=ORIENTED_EDGE('',*,*,#256,.T.);
#258=CARTESIAN_POINT('',(-282.000017961,139.792760396,2.565876127));
#259=VERTEX_POINT('',#258);
#260=CARTESIAN_POINT('',(-282.000017961,139.792760396,2.565876127));
#261=DIRECTION('',(1.,0.,0.));
#262=VECTOR('',#261,1.29291118);
#263=LINE('',#260,#262);
#264=EDGE_CURVE('',#259,#250,#263,.T.);
#265=ORIENTED_EDGE('',*,*,#264,.F.);
#266=CARTESIAN_POINT('',(-282.000017961,176.999877122,4.352763072));
#267=DIRECTION('',(-1.,-0.,-0.));
#268=DIRECTION('',(0.,0.,-1.));
#269=AXIS2_PLACEMENT_3D('',#266,#267,#268);
#270=CIRCLE('',#269,37.25);
#271=EDGE_CURVE('',#259,#242,#270,.T.);
#272=ORIENTED_EDGE('',*,*,#271,.T.);
#273=EDGE_LOOP('',(#248,#257,#265,#272));
#274=FACE_BOUND('',#273,.T.);
#275=ADVANCED_FACE('',(#274),#238,.F.);
#276=CARTESIAN_POINT('',(-282.000017961,2283.999999833,63.000018128));
#277=DIRECTION('',(-1.,-0.,0.));
#278=DIRECTION('',(-0.,1.,0.));
#279=AXIS2_PLACEMENT_3D('',#276,#277,#278);
#280=PLANE('',#279);
#281=CARTESIAN_POINT('',(-282.000017961,214.175502083,2.000018128));
#282=VERTEX_POINT('',#281);
#283=CARTESIAN_POINT('',(-282.000017961,213.252392687,2.000018128));
#284=VERTEX_POINT('',#283);
#285=CARTESIAN_POINT('',(-282.000017961,214.175502083,2.000018128));
#286=DIRECTION('',(0.,-1.,0.));
#287=VECTOR('',#286,0.923109396);
#288=LINE('',#285,#287);
#289=EDGE_CURVE('',#282,#284,#288,.T.);
#290=ORIENTED_EDGE('',*,*,#289,.F.);
#291=CARTESIAN_POINT('',(-282.000017961,176.999877122,4.352763072));
#292=DIRECTION('',(-1.,-0.,-0.));
#293=DIRECTION('',(0.,0.,-1.));
#294=AXIS2_PLACEMENT_3D('',#291,#292,#293);
#295=CIRCLE('',#294,37.25);
#296=EDGE_CURVE('',#242,#282,#295,.T.);
#297=ORIENTED_EDGE('',*,*,#296,.F.);
#298=ORIENTED_EDGE('',*,*,#271,.F.);
#299=CARTESIAN_POINT('',(-282.000017961,139.847571057,2.292911347));
#300=VERTEX_POINT('',#299);
#301=CARTESIAN_POINT('',(-282.000017961,139.140464276,2.292911347));
#302=DIRECTION('',(-1.,-0.,0.));
#303=DIRECTION('',(0.,-1.,0.));
#304=AXIS2_PLACEMENT_3D('',#301,#302,#303);
#305=CIRCLE('',#304,0.707106781);
#306=EDGE_CURVE('',#259,#300,#305,.T.);
#307=ORIENTED_EDGE('',*,*,#306,.T.);
#308=CARTESIAN_POINT('',(-282.000017961,139.847571057,2.000018128));
#309=VERTEX_POINT('',#308);
#310=CARTESIAN_POINT('',(-282.000017961,139.847571057,2.000018128));
#311=DIRECTION('',(0.,0.,1.));
#312=VECTOR('',#311,0.292893219);
#313=LINE('',#310,#312);
#314=EDGE_CURVE('',#309,#300,#313,.T.);
#315=ORIENTED_EDGE('',*,*,#314,.F.);
#316=CARTESIAN_POINT('',(-282.000017961,140.826308163,2.000018128));
#317=DIRECTION('',(0.,-1.,0.));
#318=VECTOR('',#317,0.978737106);
#319=LINE('',#316,#318);
#320=EDGE_CURVE('',#208,#309,#319,.T.);
#321=ORIENTED_EDGE('',*,*,#320,.F.);
#322=ORIENTED_EDGE('',*,*,#214,.T.);
#323=CARTESIAN_POINT('',(-282.000017961,213.204906225,2.547668161));
#324=VERTEX_POINT('',#323);
#325=CARTESIAN_POINT('',(-282.000017961,176.999877122,4.352763072));
#326=DIRECTION('',(-1.,-0.,-0.));
#327=DIRECTION('',(0.,0.,-1.));
#328=AXIS2_PLACEMENT_3D('',#325,#326,#327);
#329=CIRCLE('',#328,36.25);
#330=EDGE_CURVE('',#200,#324,#329,.T.);
#331=ORIENTED_EDGE('',*,*,#330,.T.);
#332=CARTESIAN_POINT('',(-282.000017961,213.252392687,2.292911347));
#333=VERTEX_POINT('',#332);
#334=CARTESIAN_POINT('',(-282.000017961,212.545285906,2.292911347));
#335=DIRECTION('',(-1.,-0.,0.));
#336=DIRECTION('',(0.,-1.,0.));
#337=AXIS2_PLACEMENT_3D('',#334,#335,#336);
#338=CIRCLE('',#337,0.707106781);
#339=EDGE_CURVE('',#324,#333,#338,.T.);
#340=ORIENTED_EDGE('',*,*,#339,.T.);
#341=CARTESIAN_POINT('',(-282.000017961,213.252392687,2.292911347));
#342=DIRECTION('',(0.,0.,-1.));
#343=VECTOR('',#342,0.292893219);
#344=LINE('',#341,#343);
#345=EDGE_CURVE('',#333,#284,#344,.T.);
#346=ORIENTED_EDGE('',*,*,#345,.T.);
#347=EDGE_LOOP('',(#290,#297,#298,#307,#315,#321,#322,#331,#340,#346));
#348=FACE_BOUND('',#347,.T.);
#349=ADVANCED_FACE('',(#348),#280,.F.);
#350=CARTESIAN_POINT('',(-280.707106781,176.999877122,4.352763072));
#351=DIRECTION('',(1.,0.,-0.));
#352=DIRECTION('',(0.,0.,1.));
#353=AXIS2_PLACEMENT_3D('',#350,#351,#352);
#354=TOROIDAL_SURFACE('',#353,35.542893219,0.707106781);
#355=CARTESIAN_POINT('',(-280.707106781,176.999877122,39.895656291));
#356=DIRECTION('',(0.,-1.,-0.));
#357=DIRECTION('',(0.,0.,1.));
#358=AXIS2_PLACEMENT_3D('',#355,#356,#357);
#359=CIRCLE('',#358,0.707106781);
#360=EDGE_CURVE('',#174,#198,#359,.T.);
#361=ORIENTED_EDGE('',*,*,#360,.T.);
#362=ORIENTED_EDGE('',*,*,#229,.F.);
#363=CARTESIAN_POINT('',(-280.535186366,140.847571057,2.000018128));
#364=VERTEX_POINT('',#363);
#365=CARTESIAN_POINT('',(-280.707106781,140.826308163,2.000018128));
#366=CARTESIAN_POINT('',(-280.648834688,140.826308163,2.000018128));
#367=CARTESIAN_POINT('',(-280.591530937,140.833418218,2.000018128));
#368=CARTESIAN_POINT('',(-280.535186366,140.847571057,2.000018128));
#369=B_SPLINE_CURVE_WITH_KNOTS('',3,(#365,#366,#367,#368),.UNSPECIFIED.,.F.,.F.,(4,4),(0.001213542,0.001386751),.UNSPECIFIED.);
#370=EDGE_CURVE('',#217,#364,#369,.T.);
#371=ORIENTED_EDGE('',*,*,#370,.T.);
#372=CARTESIAN_POINT('',(-280.475346936,140.847571057,2.292911347));
#373=VERTEX_POINT('',#372);
#374=CARTESIAN_POINT('',(-280.475346936,140.847571057,2.292911347));
#375=CARTESIAN_POINT('',(-280.491493526,140.847571057,2.194437827));
#376=CARTESIAN_POINT('',(-280.51019461,140.847571057,2.096530647));
#377=CARTESIAN_POINT('',(-280.535186343,140.847571057,2.000018123));
#378=B_SPLINE_CURVE_WITH_KNOTS('',3,(#374,#375,#376,#377),.UNSPECIFIED.,.F.,.F.,(4,4),(0.000845882,0.00114487),.UNSPECIFIED.);
#379=EDGE_CURVE('',#373,#364,#378,.T.);
#380=ORIENTED_EDGE('',*,*,#379,.F.);
#381=CARTESIAN_POINT('',(-280.,141.482875032,2.996363091));
#382=CARTESIAN_POINT('',(-279.999999971,141.435011559,2.991477565));
#383=CARTESIAN_POINT('',(-280.005003991,141.387238968,2.981549477));
#384=CARTESIAN_POINT('',(-280.014398867,141.341920275,2.967251187));
#385=CARTESIAN_POINT('',(-280.023793744,141.296601583,2.952952896));
#386=CARTESIAN_POINT('',(-280.037328242,141.254105027,2.934583344));
#387=CARTESIAN_POINT('',(-280.054358256,141.214070848,2.912578094));
#388=CARTESIAN_POINT('',(-280.088418283,141.134002489,2.868567596));
#389=CARTESIAN_POINT('',(-280.134357538,141.068411989,2.81278463));
#390=CARTESIAN_POINT('',(-280.185361444,141.015383852,2.750253666));
#391=CARTESIAN_POINT('',(-280.23636535,140.962355716,2.687722702));
#392=CARTESIAN_POINT('',(-280.291876515,140.922649553,2.61999457));
#393=CARTESIAN_POINT('',(-280.346386757,140.894033051,2.544999556));
#394=CARTESIAN_POINT('',(-280.373641879,140.8797248,2.507502049));
#395=CARTESIAN_POINT('',(-280.400256819,140.868474354,2.468763241));
#396=CARTESIAN_POINT('',(-280.423695559,140.860424495,2.427121244));
#397=CARTESIAN_POINT('',(-280.447134299,140.852374637,2.385479246));
#398=CARTESIAN_POINT('',(-280.467414281,140.847570235,2.341311935));
#399=CARTESIAN_POINT('',(-280.475346934,140.847571057,2.292911346));
#400=B_SPLINE_CURVE_WITH_KNOTS('',3,(#381,#382,#383,#384,#385,#386,#387,#388,#389,#390,#391,#392,#393,#394,#395,#396,#397,#398,#399),.UNSPECIFIED.,.F.,.F.,(4,3,3,3,3,3,4),(0.000071757,0.000215993,0.000360229,0.0006487,0.000937172,0.001081407,0.001225643),.UNSPECIFIED.);
#401=EDGE_CURVE('',#157,#373,#400,.T.);
#402=ORIENTED_EDGE('',*,*,#401,.F.);
#403=ORIENTED_EDGE('',*,*,#187,.F.);
#404=EDGE_LOOP('',(#361,#362,#371,#380,#402,#403));
#405=FACE_BOUND('',#404,.T.);
#406=ADVANCED_FACE('',(#405),#354,.T.);
#407=CARTESIAN_POINT('',(-280.707106781,176.999877122,4.352763072));
#408=DIRECTION('',(1.,0.,-0.));
#409=DIRECTION('',(0.,0.,1.));
#410=AXIS2_PLACEMENT_3D('',#407,#408,#409);
#411=TOROIDAL_SURFACE('',#410,37.957106781,0.707106781);
#412=CARTESIAN_POINT('',(-280.707106781,176.999877122,42.309869853));
#413=DIRECTION('',(0.,-1.,-0.));
#414=DIRECTION('',(0.,0.,1.));
#415=AXIS2_PLACEMENT_3D('',#412,#413,#414);
#416=CIRCLE('',#415,0.707106781);
#417=EDGE_CURVE('',#240,#51,#416,.T.);
#418=ORIENTED_EDGE('',*,*,#417,.T.);
#419=ORIENTED_EDGE('',*,*,#57,.F.);
#420=CARTESIAN_POINT('',(-280.003833933,139.140464276,3.000018128));
#421=VERTEX_POINT('',#420);
#422=CARTESIAN_POINT('',(-280.,139.066883089,3.000018128));
#423=CARTESIAN_POINT('',(-280.,139.091511775,3.000018128));
#424=CARTESIAN_POINT('',(-280.001281603,139.116038549,3.000018128));
#425=CARTESIAN_POINT('',(-280.003833933,139.140464276,3.000018128));
#426=B_SPLINE_CURVE_WITH_KNOTS('',3,(#422,#423,#424,#425),.UNSPECIFIED.,.F.,.F.,(4,4),(0.004099722,0.004173376),.UNSPECIFIED.);
#427=EDGE_CURVE('',#43,#421,#426,.T.);
#428=ORIENTED_EDGE('',*,*,#427,.T.);
#429=CARTESIAN_POINT('',(-280.707106781,139.792760396,2.565876129));
#430=CARTESIAN_POINT('',(-280.659262902,139.792760451,2.565875999));
#431=CARTESIAN_POINT('',(-280.612029807,139.787011975,2.580056128));
#432=CARTESIAN_POINT('',(-280.5691543,139.77754859,2.599707007));
#433=CARTESIAN_POINT('',(-280.526278793,139.768085204,2.619357886));
#434=CARTESIAN_POINT('',(-280.48671298,139.755024523,2.643907884));
#435=CARTESIAN_POINT('',(-280.449310134,139.739230582,2.669048172));
#436=CARTESIAN_POINT('',(-280.374504444,139.707642699,2.719328747));
#437=CARTESIAN_POINT('',(-280.306376169,139.664268373,2.773507936));
#438=CARTESIAN_POINT('',(-280.245305953,139.609573028,2.822002056));
#439=CARTESIAN_POINT('',(-280.184235737,139.554877683,2.870496176));
#440=CARTESIAN_POINT('',(-280.129211282,139.487345549,2.91500486));
#441=CARTESIAN_POINT('',(-280.086606125,139.408116062,2.947405443));
#442=CARTESIAN_POINT('',(-280.044000967,139.328886574,2.979806025));
#443=CARTESIAN_POINT('',(-280.013902635,139.236822039,3.000018243));
#444=CARTESIAN_POINT('',(-280.003833933,139.140464276,3.000018128));
#445=B_SPLINE_CURVE_WITH_KNOTS('',3,(#429,#430,#431,#432,#433,#434,#435,#436,#437,#438,#439,#440,#441,#442,#443,#444),.UNSPECIFIED.,.F.,.F.,(4,3,3,3,3,4),(0.000040651,0.000184153,0.000327655,0.000614659,0.000901663,0.001188666),.UNSPECIFIED.);
#446=EDGE_CURVE('',#250,#421,#445,.T.);
#447=ORIENTED_EDGE('',*,*,#446,.F.);
#448=ORIENTED_EDGE('',*,*,#256,.F.);
#449=EDGE_LOOP('',(#418,#419,#428,#447,#448));
#450=FACE_BOUND('',#449,.T.);
#451=ADVANCED_FACE('',(#450),#411,.T.);
#452=CARTESIAN_POINT('',(-288.,157.000008646,48.000018128));
#453=DIRECTION('',(-1.,-0.,0.));
#454=DIRECTION('',(-0.,1.,0.));
#455=AXIS2_PLACEMENT_3D('',#452,#453,#454);
#456=PLANE('',#455);
#457=CARTESIAN_POINT('',(-288.,136.847571057,0.000018128));
#458=VERTEX_POINT('',#457);
#459=CARTESIAN_POINT('',(-288.,217.000000168,0.000018128));
#460=VERTEX_POINT('',#459);
#461=CARTESIAN_POINT('',(-288.,136.847571057,0.000018128));
#462=DIRECTION('',(-0.,1.,0.));
#463=VECTOR('',#462,80.152429111);
#464=LINE('',#461,#463);
#465=EDGE_CURVE('',#458,#460,#464,.T.);
#466=ORIENTED_EDGE('',*,*,#465,.F.);
#467=CARTESIAN_POINT('',(-288.,136.847571057,3.000018128));
#468=VERTEX_POINT('',#467);
#469=CARTESIAN_POINT('',(-288.,136.847571057,3.000018128));
#470=DIRECTION('',(0.,0.,-1.));
#471=VECTOR('',#470,3.);
#472=LINE('',#469,#471);
#473=EDGE_CURVE('',#468,#458,#472,.T.);
#474=ORIENTED_EDGE('',*,*,#473,.F.);
#475=CARTESIAN_POINT('',(-288.,136.847571057,3.000018128));
#476=DIRECTION('',(0.,1.,0.));
#477=VECTOR('',#476,0.152428441);
#478=LINE('',#475,#477);
#479=EDGE_CURVE('',#468,#126,#478,.T.);
#480=ORIENTED_EDGE('',*,*,#479,.T.);
#481=ORIENTED_EDGE('',*,*,#131,.F.);
#482=CARTESIAN_POINT('',(-288.,217.000000168,43.000018128));
#483=VERTEX_POINT('',#482);
#484=CARTESIAN_POINT('',(-288.,136.999999498,43.000018128));
#485=DIRECTION('',(-0.,1.,0.));
#486=VECTOR('',#485,80.00000067);
#487=LINE('',#484,#486);
#488=EDGE_CURVE('',#124,#483,#487,.T.);
#489=ORIENTED_EDGE('',*,*,#488,.T.);
#490=CARTESIAN_POINT('',(-288.,217.000000168,43.000018128));
#491=DIRECTION('',(0.,0.,-1.));
#492=VECTOR('',#491,43.);
#493=LINE('',#490,#492);
#494=EDGE_CURVE('',#483,#460,#493,.T.);
#495=ORIENTED_EDGE('',*,*,#494,.T.);
#496=EDGE_LOOP('',(#466,#474,#480,#481,#489,#495));
#497=FACE_BOUND('',#496,.T.);
#498=ADVANCED_FACE('',(#497),#456,.T.);
#499=CARTESIAN_POINT('',(-282.992681759,216.999084049,48.000018128));
#500=DIRECTION('',(-0.000182956,-0.999999983,0.));
#501=DIRECTION('',(-0.999999983,0.000182956,0.));
#502=AXIS2_PLACEMENT_3D('',#499,#500,#501);
#503=PLANE('',#502);
#504=CARTESIAN_POINT('',(-280.,216.99853652,0.000018128));
#505=DIRECTION('',(-0.999999983,0.000182956,0.));
#506=VECTOR('',#505,8.000000134);
#507=LINE('',#504,#506);
#508=EDGE_CURVE('',#94,#460,#507,.T.);
#509=ORIENTED_EDGE('',*,*,#508,.T.);
#510=ORIENTED_EDGE('',*,*,#494,.F.);
#511=CARTESIAN_POINT('',(-280.,216.998536519,43.000018128));
#512=DIRECTION('',(-0.999999983,0.000182956,0.));
#513=VECTOR('',#512,8.000000134);
#514=LINE('',#511,#513);
#515=EDGE_CURVE('',#102,#483,#514,.T.);
#516=ORIENTED_EDGE('',*,*,#515,.F.);
#517=ORIENTED_EDGE('',*,*,#107,.T.);
#518=EDGE_LOOP('',(#509,#510,#516,#517));
#519=FACE_BOUND('',#518,.T.);
#520=ADVANCED_FACE('',(#519),#503,.F.);
#521=CARTESIAN_POINT('',(1462.,737.000017794,43.000018128));
#522=DIRECTION('',(0.,0.,1.));
#523=DIRECTION('',(-1.,-0.,0.));
#524=AXIS2_PLACEMENT_3D('',#521,#522,#523);
#525=PLANE('',#524);
#526=ORIENTED_EDGE('',*,*,#488,.F.);
#527=ORIENTED_EDGE('',*,*,#144,.F.);
#528=ORIENTED_EDGE('',*,*,#113,.F.);
#529=ORIENTED_EDGE('',*,*,#515,.T.);
#530=EDGE_LOOP('',(#526,#527,#528,#529));
#531=FACE_BOUND('',#530,.T.);
#532=ADVANCED_FACE('',(#531),#525,.T.);
#533=CARTESIAN_POINT('',(1462.,737.000017794,0.000018128));
#534=DIRECTION('',(0.,0.,1.));
#535=DIRECTION('',(-1.,-0.,0.));
#536=AXIS2_PLACEMENT_3D('',#533,#534,#535);
#537=PLANE('',#536);
#538=CARTESIAN_POINT('',(-12.949877289,136.847571057,0.000018128));
#539=VERTEX_POINT('',#538);
#540=CARTESIAN_POINT('',(-288.,136.847571057,0.000018128));
#541=DIRECTION('',(1.,0.,0.));
#542=VECTOR('',#541,275.050122711);
#543=LINE('',#540,#542);
#544=EDGE_CURVE('',#458,#539,#543,.T.);
#545=ORIENTED_EDGE('',*,*,#544,.F.);
#546=ORIENTED_EDGE('',*,*,#465,.T.);
#547=ORIENTED_EDGE('',*,*,#508,.F.);
#548=ORIENTED_EDGE('',*,*,#99,.T.);
#549=CARTESIAN_POINT('',(-20.,216.952392687,0.000018128));
#550=VERTEX_POINT('',#549);
#551=CARTESIAN_POINT('',(-20.,216.952392687,0.000018128));
#552=DIRECTION('',(-1.,0.,0.));
#553=VECTOR('',#552,260.);
#554=LINE('',#551,#553);
#555=EDGE_CURVE('',#550,#86,#554,.T.);
#556=ORIENTED_EDGE('',*,*,#555,.F.);
#557=CARTESIAN_POINT('',(-20.,217.000000168,0.000018128));
#558=VERTEX_POINT('',#557);
#559=CARTESIAN_POINT('',(-20.,216.952392687,0.000018128));
#560=DIRECTION('',(-0.,1.,0.));
#561=VECTOR('',#560,0.047607481);
#562=LINE('',#559,#561);
#563=EDGE_CURVE('',#550,#558,#562,.T.);
#564=ORIENTED_EDGE('',*,*,#563,.T.);
#565=CARTESIAN_POINT('',(-12.,216.99853652,0.000018128));
#566=VERTEX_POINT('',#565);
#567=CARTESIAN_POINT('',(-12.,216.99853652,0.000018128));
#568=DIRECTION('',(-0.999999983,0.000182956,0.));
#569=VECTOR('',#568,8.000000134);
#570=LINE('',#567,#569);
#571=EDGE_CURVE('',#566,#558,#570,.T.);
#572=ORIENTED_EDGE('',*,*,#571,.F.);
#573=CARTESIAN_POINT('',(-12.,136.999999498,0.000018128));
#574=VERTEX_POINT('',#573);
#575=CARTESIAN_POINT('',(-12.,216.99853652,0.000018128));
#576=DIRECTION('',(0.,-1.,0.));
#577=VECTOR('',#576,79.998537022);
#578=LINE('',#575,#577);
#579=EDGE_CURVE('',#566,#574,#578,.T.);
#580=ORIENTED_EDGE('',*,*,#579,.T.);
#581=CARTESIAN_POINT('',(-12.949877289,136.999999498,0.000018128));
#582=VERTEX_POINT('',#581);
#583=CARTESIAN_POINT('',(-12.,136.999999498,0.000018128));
#584=DIRECTION('',(-1.,-0.,0.));
#585=VECTOR('',#584,0.949877289);
#586=LINE('',#583,#585);
#587=EDGE_CURVE('',#574,#582,#586,.T.);
#588=ORIENTED_EDGE('',*,*,#587,.T.);
#589=CARTESIAN_POINT('',(-12.949877289,136.847571057,0.000018128));
#590=DIRECTION('',(-0.,1.,0.));
#591=VECTOR('',#590,0.152428441);
#592=LINE('',#589,#591);
#593=EDGE_CURVE('',#539,#582,#592,.T.);
#594=ORIENTED_EDGE('',*,*,#593,.F.);
#595=EDGE_LOOP('',(#545,#546,#547,#548,#556,#564,#572,#580,#588,#594));
#596=FACE_BOUND('',#595,.T.);
#597=ADVANCED_FACE('',(#596),#537,.F.);
#598=CARTESIAN_POINT('',(-100.049877289,213.252392687,2.000018128));
#599=DIRECTION('',(0.,1.,0.));
#600=DIRECTION('',(-1.,0.,0.));
#601=AXIS2_PLACEMENT_3D('',#598,#599,#600);
#602=PLANE('',#601);
#603=ORIENTED_EDGE('',*,*,#345,.F.);
#604=CARTESIAN_POINT('',(-21.049859328,213.252392687,2.292911347));
#605=VERTEX_POINT('',#604);
#606=CARTESIAN_POINT('',(-282.000017961,213.252392687,2.292911347));
#607=DIRECTION('',(1.,-0.,-0.));
#608=VECTOR('',#607,260.950158633);
#609=LINE('',#606,#608);
#610=EDGE_CURVE('',#333,#605,#609,.T.);
#611=ORIENTED_EDGE('',*,*,#610,.T.);
#612=CARTESIAN_POINT('',(-21.049859328,213.252392687,2.000018128));
#613=VERTEX_POINT('',#612);
#614=CARTESIAN_POINT('',(-21.049859328,213.252392687,2.292911347));
#615=DIRECTION('',(0.,0.,-1.));
#616=VECTOR('',#615,0.292893219);
#617=LINE('',#614,#616);
#618=EDGE_CURVE('',#605,#613,#617,.T.);
#619=ORIENTED_EDGE('',*,*,#618,.T.);
#620=CARTESIAN_POINT('',(-21.049859328,213.252392687,2.000018128));
#621=DIRECTION('',(-1.,0.,0.));
#622=VECTOR('',#621,260.950158633);
#623=LINE('',#620,#622);
#624=EDGE_CURVE('',#613,#284,#623,.T.);
#625=ORIENTED_EDGE('',*,*,#624,.T.);
#626=EDGE_LOOP('',(#603,#611,#619,#625));
#627=FACE_BOUND('',#626,.T.);
#628=ADVANCED_FACE('',(#627),#602,.T.);
#629=CARTESIAN_POINT('',(-100.049877289,139.847571057,2.000018128));
#630=DIRECTION('',(0.,-1.,0.));
#631=DIRECTION('',(1.,0.,0.));
#632=AXIS2_PLACEMENT_3D('',#629,#630,#631);
#633=PLANE('',#632);
#634=CARTESIAN_POINT('',(-21.049859328,139.847571057,2.000018128));
#635=VERTEX_POINT('',#634);
#636=CARTESIAN_POINT('',(-282.000017961,139.847571057,2.000018128));
#637=DIRECTION('',(1.,0.,0.));
#638=VECTOR('',#637,260.950158633);
#639=LINE('',#636,#638);
#640=EDGE_CURVE('',#309,#635,#639,.T.);
#641=ORIENTED_EDGE('',*,*,#640,.F.);
#642=ORIENTED_EDGE('',*,*,#314,.T.);
#643=CARTESIAN_POINT('',(-21.049859328,139.847571057,2.292911347));
#644=VERTEX_POINT('',#643);
#645=CARTESIAN_POINT('',(-282.000017961,139.847571057,2.292911347));
#646=DIRECTION('',(1.,0.,0.));
#647=VECTOR('',#646,260.950158633);
#648=LINE('',#645,#647);
#649=EDGE_CURVE('',#300,#644,#648,.T.);
#650=ORIENTED_EDGE('',*,*,#649,.T.);
#651=CARTESIAN_POINT('',(-21.049859328,139.847571057,2.000018128));
#652=DIRECTION('',(0.,0.,1.));
#653=VECTOR('',#652,0.292893219);
#654=LINE('',#651,#653);
#655=EDGE_CURVE('',#635,#644,#654,.T.);
#656=ORIENTED_EDGE('',*,*,#655,.F.);
#657=EDGE_LOOP('',(#641,#642,#650,#656));
#658=FACE_BOUND('',#657,.T.);
#659=ADVANCED_FACE('',(#658),#633,.F.);
#660=CARTESIAN_POINT('',(175.950122711,212.545285906,2.292911347));
#661=DIRECTION('',(1.,-0.,0.));
#662=DIRECTION('',(0.,1.,0.));
#663=AXIS2_PLACEMENT_3D('',#660,#661,#662);
#664=CYLINDRICAL_SURFACE('',#663,0.707106781);
#665=ORIENTED_EDGE('',*,*,#339,.F.);
#666=CARTESIAN_POINT('',(-280.707106781,213.204906225,2.547668161));
#667=VERTEX_POINT('',#666);
#668=CARTESIAN_POINT('',(-280.707106781,213.204906225,2.547668161));
#669=DIRECTION('',(-1.,0.,-0.));
#670=VECTOR('',#669,1.29291118);
#671=LINE('',#668,#670);
#672=EDGE_CURVE('',#667,#324,#671,.T.);
#673=ORIENTED_EDGE('',*,*,#672,.F.);
#674=CARTESIAN_POINT('',(-280.000564414,212.545285906,3.000018128));
#675=VERTEX_POINT('',#674);
#676=CARTESIAN_POINT('',(-280.707106781,213.204906225,2.547668163));
#677=CARTESIAN_POINT('',(-280.657945093,213.204906308,2.547667949));
#678=CARTESIAN_POINT('',(-280.608971118,213.200177569,2.560379174));
#679=CARTESIAN_POINT('',(-280.564277387,213.191869064,2.579145902));
#680=CARTESIAN_POINT('',(-280.519583656,213.183560559,2.597912629));
#681=CARTESIAN_POINT('',(-280.477682118,213.171601898,2.622462844));
#682=CARTESIAN_POINT('',(-280.438601082,213.156749506,2.648034237));
#683=CARTESIAN_POINT('',(-280.360439009,213.127044722,2.699177021));
#684=CARTESIAN_POINT('',(-280.289994232,213.084674334,2.756324608));
#685=CARTESIAN_POINT('',(-280.227994346,213.029719656,2.808007398));
#686=CARTESIAN_POINT('',(-280.196994403,213.002242317,2.833848793));
#687=CARTESIAN_POINT('',(-280.168119407,212.971599892,2.858575701));
#688=CARTESIAN_POINT('',(-280.141529796,212.937077123,2.881553549));
#689=CARTESIAN_POINT('',(-280.114940185,212.902554353,2.904531398));
#690=CARTESIAN_POINT('',(-280.090927849,212.864349874,2.925520607));
#691=CARTESIAN_POINT('',(-280.07071113,212.823266768,2.943085662));
#692=CARTESIAN_POINT('',(-280.030277691,212.741100556,2.978215773));
#693=CARTESIAN_POINT('',(-280.004538562,212.644763724,3.000018174));
#694=CARTESIAN_POINT('',(-280.000564414,212.545285906,3.000018128));
#695=B_SPLINE_CURVE_WITH_KNOTS('',3,(#676,#677,#678,#679,#680,#681,#682,#683,#684,#685,#686,#687,#688,#689,#690,#691,#692,#693,#694),.UNSPECIFIED.,.F.,.F.,(4,3,3,3,3,3,4),(0.000040632,0.000187989,0.000335345,0.000630058,0.000777415,0.000924771,0.001219484),.UNSPECIFIED.);
#696=EDGE_CURVE('',#667,#675,#695,.T.);
#697=ORIENTED_EDGE('',*,*,#696,.T.);
#698=CARTESIAN_POINT('',(-21.049859328,212.545285906,3.000018128));
#699=VERTEX_POINT('',#698);
#700=CARTESIAN_POINT('',(-21.049859328,212.545285906,3.000018128));
#701=DIRECTION('',(-1.,0.,0.));
#702=VECTOR('',#701,258.950705086);
#703=LINE('',#700,#702);
#704=EDGE_CURVE('',#699,#675,#703,.T.);
#705=ORIENTED_EDGE('',*,*,#704,.F.);
#706=CARTESIAN_POINT('',(-21.049859328,212.545285906,2.292911347));
#707=DIRECTION('',(-1.,-0.,0.));
#708=DIRECTION('',(0.,-1.,0.));
#709=AXIS2_PLACEMENT_3D('',#706,#707,#708);
#710=CIRCLE('',#709,0.707106781);
#711=EDGE_CURVE('',#699,#605,#710,.T.);
#712=ORIENTED_EDGE('',*,*,#711,.T.);
#713=ORIENTED_EDGE('',*,*,#610,.F.);
#714=EDGE_LOOP('',(#665,#673,#697,#705,#712,#713));
#715=FACE_BOUND('',#714,.T.);
#716=ADVANCED_FACE('',(#715),#664,.T.);
#717=CARTESIAN_POINT('',(109.950122711,323.550104583,2.000018128));
#718=DIRECTION('',(0.,0.,-1.));
#719=DIRECTION('',(1.,0.,0.));
#720=AXIS2_PLACEMENT_3D('',#717,#718,#719);
#721=PLANE('',#720);
#722=ORIENTED_EDGE('',*,*,#222,.T.);
#723=ORIENTED_EDGE('',*,*,#320,.T.);
#724=ORIENTED_EDGE('',*,*,#640,.T.);
#725=CARTESIAN_POINT('',(-21.049859328,140.847571057,2.000018128));
#726=VERTEX_POINT('',#725);
#727=CARTESIAN_POINT('',(-21.049859328,140.847571057,2.000018128));
#728=DIRECTION('',(0.,-1.,0.));
#729=VECTOR('',#728,1.);
#730=LINE('',#727,#729);
#731=EDGE_CURVE('',#726,#635,#730,.T.);
#732=ORIENTED_EDGE('',*,*,#731,.F.);
#733=CARTESIAN_POINT('',(-280.535186366,140.847571057,2.000018128));
#734=DIRECTION('',(1.,0.,0.));
#735=VECTOR('',#734,259.485327038);
#736=LINE('',#733,#735);
#737=EDGE_CURVE('',#364,#726,#736,.T.);
#738=ORIENTED_EDGE('',*,*,#737,.F.);
#739=ORIENTED_EDGE('',*,*,#370,.F.);
#740=EDGE_LOOP('',(#722,#723,#724,#732,#738,#739));
#741=FACE_BOUND('',#740,.T.);
#742=ADVANCED_FACE('',(#741),#721,.F.);
#743=CARTESIAN_POINT('',(109.950122711,323.550104583,2.000018128));
#744=DIRECTION('',(0.,0.,-1.));
#745=DIRECTION('',(1.,0.,0.));
#746=AXIS2_PLACEMENT_3D('',#743,#744,#745);
#747=PLANE('',#746);
#748=CARTESIAN_POINT('',(-280.707106781,214.175502083,2.000018128));
#749=VERTEX_POINT('',#748);
#750=CARTESIAN_POINT('',(-282.000017961,214.175502083,2.000018128));
#751=DIRECTION('',(1.,0.,0.));
#752=VECTOR('',#751,1.29291118);
#753=LINE('',#750,#752);
#754=EDGE_CURVE('',#282,#749,#753,.T.);
#755=ORIENTED_EDGE('',*,*,#754,.F.);
#756=ORIENTED_EDGE('',*,*,#289,.T.);
#757=ORIENTED_EDGE('',*,*,#624,.F.);
#758=CARTESIAN_POINT('',(-21.049859328,214.252392687,2.000018128));
#759=VERTEX_POINT('',#758);
#760=CARTESIAN_POINT('',(-21.049859328,213.252392687,2.000018128));
#761=DIRECTION('',(-0.,1.,0.));
#762=VECTOR('',#761,1.);
#763=LINE('',#760,#762);
#764=EDGE_CURVE('',#613,#759,#763,.T.);
#765=ORIENTED_EDGE('',*,*,#764,.T.);
#766=CARTESIAN_POINT('',(-280.386740679,214.252392687,2.000018128));
#767=VERTEX_POINT('',#766);
#768=CARTESIAN_POINT('',(-21.049859328,214.252392687,2.000018128));
#769=DIRECTION('',(-1.,0.,0.));
#770=VECTOR('',#769,259.336881351);
#771=LINE('',#768,#770);
#772=EDGE_CURVE('',#759,#767,#771,.T.);
#773=ORIENTED_EDGE('',*,*,#772,.T.);
#774=CARTESIAN_POINT('',(-280.707106781,214.175502083,2.000018128));
#775=CARTESIAN_POINT('',(-280.651203301,214.175502083,2.000018128));
#776=CARTESIAN_POINT('',(-280.596388933,214.182052767,2.000018128));
#777=CARTESIAN_POINT('',(-280.542627499,214.194936541,2.000018128));
#778=CARTESIAN_POINT('',(-280.488866066,214.207820315,2.000018128));
#779=CARTESIAN_POINT('',(-280.435907171,214.227355526,2.000018128));
#780=CARTESIAN_POINT('',(-280.386740679,214.252392687,2.000018128));
#781=B_SPLINE_CURVE_WITH_KNOTS('',3,(#774,#775,#776,#777,#778,#779,#780),.UNSPECIFIED.,.F.,.F.,(4,3,4),(0.001905436,0.00207087,0.002236305),.UNSPECIFIED.);
#782=EDGE_CURVE('',#749,#767,#781,.T.);
#783=ORIENTED_EDGE('',*,*,#782,.F.);
#784=EDGE_LOOP('',(#755,#756,#757,#765,#773,#783));
#785=FACE_BOUND('',#784,.T.);
#786=ADVANCED_FACE('',(#785),#747,.F.);
#787=CARTESIAN_POINT('',(-100.049877289,139.140464276,2.292911347));
#788=DIRECTION('',(1.,0.,0.));
#789=DIRECTION('',(-0.,1.,0.));
#790=AXIS2_PLACEMENT_3D('',#787,#788,#789);
#791=CYLINDRICAL_SURFACE('',#790,0.707106781);
#792=ORIENTED_EDGE('',*,*,#306,.F.);
#793=ORIENTED_EDGE('',*,*,#264,.T.);
#794=ORIENTED_EDGE('',*,*,#446,.T.);
#795=CARTESIAN_POINT('',(-21.049859328,139.140464276,3.000018128));
#796=VERTEX_POINT('',#795);
#797=CARTESIAN_POINT('',(-21.049859328,139.140464276,3.000018128));
#798=DIRECTION('',(-1.,-0.,-0.));
#799=VECTOR('',#798,258.953974605);
#800=LINE('',#797,#799);
#801=EDGE_CURVE('',#796,#421,#800,.T.);
#802=ORIENTED_EDGE('',*,*,#801,.F.);
#803=CARTESIAN_POINT('',(-21.049859328,139.140464276,2.292911347));
#804=DIRECTION('',(-1.,-0.,0.));
#805=DIRECTION('',(0.,-1.,0.));
#806=AXIS2_PLACEMENT_3D('',#803,#804,#805);
#807=CIRCLE('',#806,0.707106781);
#808=EDGE_CURVE('',#796,#644,#807,.T.);
#809=ORIENTED_EDGE('',*,*,#808,.T.);
#810=ORIENTED_EDGE('',*,*,#649,.F.);
#811=EDGE_LOOP('',(#792,#793,#794,#802,#809,#810));
#812=FACE_BOUND('',#811,.T.);
#813=ADVANCED_FACE('',(#812),#791,.T.);
#814=CARTESIAN_POINT('',(-100.049877289,216.952392687,0.000018128));
#815=DIRECTION('',(0.,1.,0.));
#816=DIRECTION('',(-1.,0.,0.));
#817=AXIS2_PLACEMENT_3D('',#814,#815,#816);
#818=PLANE('',#817);
#819=ORIENTED_EDGE('',*,*,#555,.T.);
#820=ORIENTED_EDGE('',*,*,#91,.T.);
#821=CARTESIAN_POINT('',(-20.,216.952392687,3.000018128));
#822=VERTEX_POINT('',#821);
#823=CARTESIAN_POINT('',(-20.,216.952392687,3.000018128));
#824=DIRECTION('',(-1.,0.,0.));
#825=VECTOR('',#824,260.);
#826=LINE('',#823,#825);
#827=EDGE_CURVE('',#822,#78,#826,.T.);
#828=ORIENTED_EDGE('',*,*,#827,.F.);
#829=CARTESIAN_POINT('',(-20.,216.952392687,0.000018128));
#830=DIRECTION('',(0.,0.,1.));
#831=VECTOR('',#830,3.);
#832=LINE('',#829,#831);
#833=EDGE_CURVE('',#550,#822,#832,.T.);
#834=ORIENTED_EDGE('',*,*,#833,.F.);
#835=EDGE_LOOP('',(#819,#820,#828,#834));
#836=FACE_BOUND('',#835,.T.);
#837=ADVANCED_FACE('',(#836),#818,.T.);
#838=CARTESIAN_POINT('',(-21.049859328,177.049372759,0.000018128));
#839=DIRECTION('',(-1.,-0.,0.));
#840=DIRECTION('',(0.,0.,-1.));
#841=AXIS2_PLACEMENT_3D('',#838,#839,#840);
#842=PLANE('',#841);
#843=ORIENTED_EDGE('',*,*,#618,.F.);
#844=ORIENTED_EDGE('',*,*,#711,.F.);
#845=CARTESIAN_POINT('',(-21.049859328,214.959499468,3.000018128));
#846=VERTEX_POINT('',#845);
#847=CARTESIAN_POINT('',(-21.049859328,214.959499468,3.000018128));
#848=DIRECTION('',(0.,-1.,0.));
#849=VECTOR('',#848,2.414213562);
#850=LINE('',#847,#849);
#851=EDGE_CURVE('',#846,#699,#850,.T.);
#852=ORIENTED_EDGE('',*,*,#851,.F.);
#853=CARTESIAN_POINT('',(-21.049859328,214.252392687,2.292911347));
#854=VERTEX_POINT('',#853);
#855=CARTESIAN_POINT('',(-21.049859328,214.959499468,2.292911347));
#856=DIRECTION('',(-1.,-0.,0.));
#857=DIRECTION('',(0.,-1.,0.));
#858=AXIS2_PLACEMENT_3D('',#855,#856,#857);
#859=CIRCLE('',#858,0.707106781);
#860=EDGE_CURVE('',#854,#846,#859,.T.);
#861=ORIENTED_EDGE('',*,*,#860,.F.);
#862=CARTESIAN_POINT('',(-21.049859328,214.252392687,2.292911347));
#863=DIRECTION('',(0.,0.,-1.));
#864=VECTOR('',#863,0.292893219);
#865=LINE('',#862,#864);
#866=EDGE_CURVE('',#854,#759,#865,.T.);
#867=ORIENTED_EDGE('',*,*,#866,.T.);
#868=ORIENTED_EDGE('',*,*,#764,.F.);
#869=EDGE_LOOP('',(#843,#844,#852,#861,#867,#868));
#870=FACE_BOUND('',#869,.T.);
#871=ADVANCED_FACE('',(#870),#842,.T.);
#872=CARTESIAN_POINT('',(175.950122711,323.550104583,3.000018128));
#873=DIRECTION('',(0.,0.,-1.));
#874=DIRECTION('',(1.,0.,0.));
#875=AXIS2_PLACEMENT_3D('',#872,#873,#874);
#876=PLANE('',#875);
#877=ORIENTED_EDGE('',*,*,#83,.F.);
#878=CARTESIAN_POINT('',(-280.,214.959499468,3.000018128));
#879=DIRECTION('',(1.,-0.,-0.));
#880=VECTOR('',#879,258.950140672);
#881=LINE('',#878,#880);
#882=EDGE_CURVE('',#69,#846,#881,.T.);
#883=ORIENTED_EDGE('',*,*,#882,.T.);
#884=ORIENTED_EDGE('',*,*,#851,.T.);
#885=ORIENTED_EDGE('',*,*,#704,.T.);
#886=CARTESIAN_POINT('',(-280.,212.51701861,3.000018128));
#887=CARTESIAN_POINT('',(-280.,212.526462517,3.000018128));
#888=CARTESIAN_POINT('',(-280.000189266,212.535895487,3.000018128));
#889=CARTESIAN_POINT('',(-280.000564414,212.545285906,3.000018128));
#890=B_SPLINE_CURVE_WITH_KNOTS('',3,(#886,#887,#888,#889),.UNSPECIFIED.,.F.,.F.,(4,4),(0.000947304,0.000975251),.UNSPECIFIED.);
#891=EDGE_CURVE('',#166,#675,#890,.T.);
#892=ORIENTED_EDGE('',*,*,#891,.F.);
#893=ORIENTED_EDGE('',*,*,#171,.F.);
#894=CARTESIAN_POINT('',(-21.049859328,141.554677838,3.000018128));
#895=VERTEX_POINT('',#894);
#896=CARTESIAN_POINT('',(-280.,141.554677838,3.000018128));
#897=DIRECTION('',(1.,0.,0.));
#898=VECTOR('',#897,258.950140672);
#899=LINE('',#896,#898);
#900=EDGE_CURVE('',#155,#895,#899,.T.);
#901=ORIENTED_EDGE('',*,*,#900,.T.);
#902=CARTESIAN_POINT('',(-21.049859328,141.554677838,3.000018128));
#903=DIRECTION('',(0.,-1.,0.));
#904=VECTOR('',#903,2.414213562);
#905=LINE('',#902,#904);
#906=EDGE_CURVE('',#895,#796,#905,.T.);
#907=ORIENTED_EDGE('',*,*,#906,.T.);
#908=ORIENTED_EDGE('',*,*,#801,.T.);
#909=ORIENTED_EDGE('',*,*,#427,.F.);
#910=ORIENTED_EDGE('',*,*,#48,.F.);
#911=ORIENTED_EDGE('',*,*,#137,.F.);
#912=ORIENTED_EDGE('',*,*,#479,.F.);
#913=CARTESIAN_POINT('',(-12.949877289,136.847571057,3.000018128));
#914=VERTEX_POINT('',#913);
#915=CARTESIAN_POINT('',(-288.,136.847571057,3.000018128));
#916=DIRECTION('',(1.,0.,0.));
#917=VECTOR('',#916,275.050122711);
#918=LINE('',#915,#917);
#919=EDGE_CURVE('',#468,#914,#918,.T.);
#920=ORIENTED_EDGE('',*,*,#919,.T.);
#921=CARTESIAN_POINT('',(-12.949877289,136.999999498,3.000018128));
#922=VERTEX_POINT('',#921);
#923=CARTESIAN_POINT('',(-12.949877289,136.847571057,3.000018128));
#924=DIRECTION('',(-0.,1.,0.));
#925=VECTOR('',#924,0.152428441);
#926=LINE('',#923,#925);
#927=EDGE_CURVE('',#914,#922,#926,.T.);
#928=ORIENTED_EDGE('',*,*,#927,.T.);
#929=CARTESIAN_POINT('',(-20.,136.999999498,3.000018128));
#930=VERTEX_POINT('',#929);
#931=CARTESIAN_POINT('',(-12.949877289,136.999999498,3.000018128));
#932=DIRECTION('',(-1.,-0.,0.));
#933=VECTOR('',#932,7.050122711);
#934=LINE('',#931,#933);
#935=EDGE_CURVE('',#922,#930,#934,.T.);
#936=ORIENTED_EDGE('',*,*,#935,.T.);
#937=CARTESIAN_POINT('',(-20.,139.066883089,3.000018128));
#938=VERTEX_POINT('',#937);
#939=CARTESIAN_POINT('',(-20.,136.999999498,3.000018128));
#940=DIRECTION('',(-0.,1.,0.));
#941=VECTOR('',#940,2.066883591);
#942=LINE('',#939,#941);
#943=EDGE_CURVE('',#930,#938,#942,.T.);
#944=ORIENTED_EDGE('',*,*,#943,.T.);
#945=CARTESIAN_POINT('',(-19.292893219,139.774447895,3.000018128));
#946=VERTEX_POINT('',#945);
#947=CARTESIAN_POINT('',(-20.,139.066883089,3.000018128));
#948=CARTESIAN_POINT('',(-20.,139.15925432,3.000018128));
#949=CARTESIAN_POINT('',(-19.981715838,139.251812127,3.000018128));
#950=CARTESIAN_POINT('',(-19.946155796,139.337700051,3.000018128));
#951=CARTESIAN_POINT('',(-19.910595755,139.423587974,3.000018128));
#952=CARTESIAN_POINT('',(-19.858767843,139.501297367,3.000018128));
#953=CARTESIAN_POINT('',(-19.792855971,139.567242439,3.000018128));
#954=CARTESIAN_POINT('',(-19.726944099,139.63318751,3.000018128));
#955=CARTESIAN_POINT('',(-19.649104137,139.685120147,3.000018128));
#956=CARTESIAN_POINT('',(-19.563371731,139.720636654,3.000018128));
#957=CARTESIAN_POINT('',(-19.520505528,139.738394908,3.000018128));
#958=CARTESIAN_POINT('',(-19.476430475,139.751756205,3.000018128));
#959=CARTESIAN_POINT('',(-19.431165082,139.760787868,3.000018128));
#960=CARTESIAN_POINT('',(-19.385899689,139.76981953,3.000018128));
#961=CARTESIAN_POINT('',(-19.339044368,139.774447895,3.000018128));
#962=CARTESIAN_POINT('',(-19.292893219,139.774447895,3.000018128));
#963=B_SPLINE_CURVE_WITH_KNOTS('',3,(#947,#948,#949,#950,#951,#952,#953,#954,#955,#956,#957,#958,#959,#960,#961,#962),.UNSPECIFIED.,.F.,.F.,(4,3,3,3,3,4),(0.004099722,0.004375965,0.004652209,0.004928452,0.005066574,0.005204696),.UNSPECIFIED.);
#964=EDGE_CURVE('',#938,#946,#963,.T.);
#965=ORIENTED_EDGE('',*,*,#964,.T.);
#966=CARTESIAN_POINT('',(-19.000017961,139.774447895,3.000018128));
#967=VERTEX_POINT('',#966);
#968=CARTESIAN_POINT('',(-19.292893219,139.774447895,3.000018128));
#969=DIRECTION('',(1.,0.,-0.));
#970=VECTOR('',#969,0.292875258);
#971=LINE('',#968,#970);
#972=EDGE_CURVE('',#946,#967,#971,.T.);
#973=ORIENTED_EDGE('',*,*,#972,.T.);
#974=CARTESIAN_POINT('',(-19.000017961,140.775126176,3.000018128));
#975=VERTEX_POINT('',#974);
#976=CARTESIAN_POINT('',(-19.000017961,140.775126176,3.000018128));
#977=DIRECTION('',(0.,-1.,0.));
#978=VECTOR('',#977,1.000678281);
#979=LINE('',#976,#978);
#980=EDGE_CURVE('',#975,#967,#979,.T.);
#981=ORIENTED_EDGE('',*,*,#980,.F.);
#982=CARTESIAN_POINT('',(-19.292893219,140.775126176,3.000018128));
#983=VERTEX_POINT('',#982);
#984=CARTESIAN_POINT('',(-19.292893219,140.775126176,3.000018128));
#985=DIRECTION('',(1.,0.,-0.));
#986=VECTOR('',#985,0.292875258);
#987=LINE('',#984,#986);
#988=EDGE_CURVE('',#983,#975,#987,.T.);
#989=ORIENTED_EDGE('',*,*,#988,.F.);
#990=CARTESIAN_POINT('',(-20.,141.482735634,3.000018128));
#991=VERTEX_POINT('',#990);
#992=CARTESIAN_POINT('',(-19.292893219,140.775126176,3.000018128));
#993=CARTESIAN_POINT('',(-19.386264057,140.775126176,3.000018128));
#994=CARTESIAN_POINT('',(-19.477940029,140.793516958,3.000018128));
#995=CARTESIAN_POINT('',(-19.563561783,140.82901828,3.000018128));
#996=CARTESIAN_POINT('',(-19.649183536,140.864519601,3.000018128));
#997=CARTESIAN_POINT('',(-19.727331063,140.916747326,3.000018128));
#998=CARTESIAN_POINT('',(-19.792978635,140.982463634,3.000018128));
#999=CARTESIAN_POINT('',(-19.92427378,141.113896251,3.000018128));
#1000=CARTESIAN_POINT('',(-20.,141.296224861,3.000018128));
#1001=CARTESIAN_POINT('',(-20.,141.482735634,3.000018128));
#1002=B_SPLINE_CURVE_WITH_KNOTS('',3,(#992,#993,#994,#995,#996,#997,#998,#999,#1000,#1001),.UNSPECIFIED.,.F.,.F.,(4,3,3,4),(0.003799567,0.004075794,0.00435202,0.004904473),.UNSPECIFIED.);
#1003=EDGE_CURVE('',#983,#991,#1002,.T.);
#1004=ORIENTED_EDGE('',*,*,#1003,.T.);
#1005=CARTESIAN_POINT('',(-20.,212.51701861,3.000018128));
#1006=VERTEX_POINT('',#1005);
#1007=CARTESIAN_POINT('',(-20.,141.482735634,3.000018128));
#1008=DIRECTION('',(-0.,1.,0.));
#1009=VECTOR('',#1008,71.034282976);
#1010=LINE('',#1007,#1009);
#1011=EDGE_CURVE('',#991,#1006,#1010,.T.);
#1012=ORIENTED_EDGE('',*,*,#1011,.T.);
#1013=CARTESIAN_POINT('',(-19.292893219,213.224628068,3.000018128));
#1014=VERTEX_POINT('',#1013);
#1015=CARTESIAN_POINT('',(-20.,212.51701861,3.000018128));
#1016=CARTESIAN_POINT('',(-20.,212.56313643,3.000018128));
#1017=CARTESIAN_POINT('',(-19.995395486,212.609970253,3.000018128));
#1018=CARTESIAN_POINT('',(-19.986359348,212.655338291,3.000018128));
#1019=CARTESIAN_POINT('',(-19.97732321,212.700706329,3.000018128));
#1020=CARTESIAN_POINT('',(-19.963964557,212.744790297,3.000018128));
#1021=CARTESIAN_POINT('',(-19.946268087,212.787585649,3.000018128));
#1022=CARTESIAN_POINT('',(-19.928571618,212.830381001,3.000018128));
#1023=CARTESIAN_POINT('',(-19.906416099,212.871832533,3.000018128));
#1024=CARTESIAN_POINT('',(-19.880818416,212.910166682,3.000018128));
#1025=CARTESIAN_POINT('',(-19.855220733,212.948500832,3.000018128));
#1026=CARTESIAN_POINT('',(-19.826006934,212.984219095,3.000018128));
#1027=CARTESIAN_POINT('',(-19.793043954,213.017225214,3.000018128));
#1028=CARTESIAN_POINT('',(-19.727117993,213.083237452,3.000018128));
#1029=CARTESIAN_POINT('',(-19.649254892,213.135215164,3.000018128));
#1030=CARTESIAN_POINT('',(-19.563496097,213.170763196,3.000018128));
#1031=CARTESIAN_POINT('',(-19.520616699,213.188537212,3.000018128));
#1032=CARTESIAN_POINT('',(-19.476522933,213.201912473,3.000018128));
#1033=CARTESIAN_POINT('',(-19.431232757,213.210954022,3.000018128));
#1034=CARTESIAN_POINT('',(-19.38594258,213.219995572,3.000018128));
#1035=CARTESIAN_POINT('',(-19.339064094,213.224628068,3.000018128));
#1036=CARTESIAN_POINT('',(-19.292893219,213.224628068,3.000018128));
#1037=B_SPLINE_CURVE_WITH_KNOTS('',3,(#1015,#1016,#1017,#1018,#1019,#1020,#1021,#1022,#1023,#1024,#1025,#1026,#1027,#1028,#1029,#1030,#1031,#1032,#1033,#1034,#1035,#1036),.UNSPECIFIED.,.F.,.F.,(4,3,3,3,3,3,3,4),(0.000628412,0.000766601,0.000904791,0.00104298,0.00118117,0.001457549,0.001595738,0.001733928),.UNSPECIFIED.);
#1038=EDGE_CURVE('',#1006,#1014,#1037,.T.);
#1039=ORIENTED_EDGE('',*,*,#1038,.T.);
#1040=CARTESIAN_POINT('',(-19.000017961,213.224628068,3.000018128));
#1041=VERTEX_POINT('',#1040);
#1042=CARTESIAN_POINT('',(-19.000017961,213.224628068,3.000018128));
#1043=DIRECTION('',(-1.,-0.,0.));
#1044=VECTOR('',#1043,0.292875258);
#1045=LINE('',#1042,#1044);
#1046=EDGE_CURVE('',#1041,#1014,#1045,.T.);
#1047=ORIENTED_EDGE('',*,*,#1046,.F.);
#1048=CARTESIAN_POINT('',(-19.000017961,214.225306349,3.000018128));
#1049=VERTEX_POINT('',#1048);
#1050=CARTESIAN_POINT('',(-19.000017961,214.225306349,3.000018128));
#1051=DIRECTION('',(0.,-1.,0.));
#1052=VECTOR('',#1051,1.000678281);
#1053=LINE('',#1050,#1052);
#1054=EDGE_CURVE('',#1049,#1041,#1053,.T.);
#1055=ORIENTED_EDGE('',*,*,#1054,.F.);
#1056=CARTESIAN_POINT('',(-19.292893219,214.225306349,3.000018128));
#1057=VERTEX_POINT('',#1056);
#1058=CARTESIAN_POINT('',(-19.000017961,214.225306349,3.000018128));
#1059=DIRECTION('',(-1.,-0.,0.));
#1060=VECTOR('',#1059,0.292875258);
#1061=LINE('',#1058,#1060);
#1062=EDGE_CURVE('',#1049,#1057,#1061,.T.);
#1063=ORIENTED_EDGE('',*,*,#1062,.T.);
#1064=CARTESIAN_POINT('',(-20.,214.932871155,3.000018128));
#1065=VERTEX_POINT('',#1064);
#1066=CARTESIAN_POINT('',(-19.292893219,214.225306349,3.000018128));
#1067=CARTESIAN_POINT('',(-19.386003773,214.225306349,3.000018128));
#1068=CARTESIAN_POINT('',(-19.477637926,214.243559247,3.000018128));
#1069=CARTESIAN_POINT('',(-19.563639453,214.279228564,3.000018128));
#1070=CARTESIAN_POINT('',(-19.64964098,214.314897881,3.000018128));
#1071=CARTESIAN_POINT('',(-19.728101768,214.367628463,3.000018128));
#1072=CARTESIAN_POINT('',(-19.793226988,214.432883285,3.000018128));
#1073=CARTESIAN_POINT('',(-19.825789598,214.465510696,3.000018128));
#1074=CARTESIAN_POINT('',(-19.855599611,214.501901472,3.000018128));
#1075=CARTESIAN_POINT('',(-19.881229838,214.54036926,3.000018128));
#1076=CARTESIAN_POINT('',(-19.906860065,214.578837048,3.000018128));
#1077=CARTESIAN_POINT('',(-19.928532651,214.61945579,3.000018128));
#1078=CARTESIAN_POINT('',(-19.946230527,214.66223476,3.000018128));
#1079=CARTESIAN_POINT('',(-19.98162628,214.747792701,3.000018128));
#1080=CARTESIAN_POINT('',(-20.,214.839595975,3.000018128));
#1081=CARTESIAN_POINT('',(-20.,214.932871155,3.000018128));
#1082=B_SPLINE_CURVE_WITH_KNOTS('',3,(#1066,#1067,#1068,#1069,#1070,#1071,#1072,#1073,#1074,#1075,#1076,#1077,#1078,#1079,#1080,#1081),.UNSPECIFIED.,.F.,.F.,(4,3,3,3,3,4),(0.004024561,0.004300783,0.004577005,0.004715116,0.004853227,0.005129449),.UNSPECIFIED.);
#1083=EDGE_CURVE('',#1057,#1065,#1082,.T.);
#1084=ORIENTED_EDGE('',*,*,#1083,.T.);
#1085=CARTESIAN_POINT('',(-20.,214.932871155,3.000018128));
#1086=DIRECTION('',(-0.,1.,0.));
#1087=VECTOR('',#1086,2.019521532);
#1088=LINE('',#1085,#1087);
#1089=EDGE_CURVE('',#1065,#822,#1088,.T.);
#1090=ORIENTED_EDGE('',*,*,#1089,.T.);
#1091=ORIENTED_EDGE('',*,*,#827,.T.);
#1092=EDGE_LOOP('',(#877,#883,#884,#885,#892,#893,#901,#907,#908,#909,#910,#911,#912,#920,#928,#936,#944,#965,#973,#981,#989,#1004,#1012,#1039,#1047,#1055,
#1063,#1084,#1090,#1091));
#1093=FACE_BOUND('',#1092,.T.);
#1094=ADVANCED_FACE('',(#1093),#876,.F.);
#1095=CARTESIAN_POINT('',(-100.049877289,136.847571057,0.000018128));
#1096=DIRECTION('',(0.,-1.,0.));
#1097=DIRECTION('',(1.,0.,0.));
#1098=AXIS2_PLACEMENT_3D('',#1095,#1096,#1097);
#1099=PLANE('',#1098);
#1100=ORIENTED_EDGE('',*,*,#919,.F.);
#1101=ORIENTED_EDGE('',*,*,#473,.T.);
#1102=ORIENTED_EDGE('',*,*,#544,.T.);
#1103=CARTESIAN_POINT('',(-12.949877289,136.847571057,0.000018128));
#1104=DIRECTION('',(0.,0.,1.));
#1105=VECTOR('',#1104,3.);
#1106=LINE('',#1103,#1105);
#1107=EDGE_CURVE('',#539,#914,#1106,.T.);
#1108=ORIENTED_EDGE('',*,*,#1107,.T.);
#1109=EDGE_LOOP('',(#1100,#1101,#1102,#1108));
#1110=FACE_BOUND('',#1109,.T.);
#1111=ADVANCED_FACE('',(#1110),#1099,.T.);
#1112=CARTESIAN_POINT('',(-100.049877289,214.252392687,2.000018128));
#1113=DIRECTION('',(0.,1.,0.));
#1114=DIRECTION('',(-1.,0.,0.));
#1115=AXIS2_PLACEMENT_3D('',#1112,#1113,#1114);
#1116=PLANE('',#1115);
#1117=CARTESIAN_POINT('',(-280.423375751,214.252392687,2.292911347));
#1118=VERTEX_POINT('',#1117);
#1119=CARTESIAN_POINT('',(-280.386740679,214.252392687,2.000018128));
#1120=CARTESIAN_POINT('',(-280.398850661,214.252392687,2.097661642));
#1121=CARTESIAN_POINT('',(-280.411072739,214.252392687,2.195291444));
#1122=CARTESIAN_POINT('',(-280.423375751,214.252392687,2.292911347));
#1123=B_SPLINE_CURVE_WITH_KNOTS('',3,(#1119,#1120,#1121,#1122),.UNSPECIFIED.,.F.,.F.,(4,4),(0.000847053,0.001142227),.UNSPECIFIED.);
#1124=EDGE_CURVE('',#767,#1118,#1123,.T.);
#1125=ORIENTED_EDGE('',*,*,#1124,.F.);
#1126=ORIENTED_EDGE('',*,*,#772,.F.);
#1127=ORIENTED_EDGE('',*,*,#866,.F.);
#1128=CARTESIAN_POINT('',(-21.049859328,214.252392687,2.292911347));
#1129=DIRECTION('',(-1.,0.,0.));
#1130=VECTOR('',#1129,259.373516423);
#1131=LINE('',#1128,#1130);
#1132=EDGE_CURVE('',#854,#1118,#1131,.T.);
#1133=ORIENTED_EDGE('',*,*,#1132,.T.);
#1134=EDGE_LOOP('',(#1125,#1126,#1127,#1133));
#1135=FACE_BOUND('',#1134,.T.);
#1136=ADVANCED_FACE('',(#1135),#1116,.F.);
#1137=CARTESIAN_POINT('',(-100.049877289,214.959499468,2.292911347));
#1138=DIRECTION('',(-1.,0.,0.));
#1139=DIRECTION('',(-0.,-1.,0.));
#1140=AXIS2_PLACEMENT_3D('',#1137,#1138,#1139);
#1141=CYLINDRICAL_SURFACE('',#1140,0.707106781);
#1142=ORIENTED_EDGE('',*,*,#882,.F.);
#1143=ORIENTED_EDGE('',*,*,#75,.T.);
#1144=CARTESIAN_POINT('',(-280.,214.932853241,2.999515889));
#1145=CARTESIAN_POINT('',(-280.000000019,214.833980964,2.995787387));
#1146=CARTESIAN_POINT('',(-280.02135013,214.737784847,2.970670058));
#1147=CARTESIAN_POINT('',(-280.055924703,214.654535424,2.930874458));
#1148=CARTESIAN_POINT('',(-280.073211989,214.612910712,2.910976658));
#1149=CARTESIAN_POINT('',(-280.093907055,214.573961828,2.887273471));
#1150=CARTESIAN_POINT('',(-280.116281541,214.538875901,2.861308932));
#1151=CARTESIAN_POINT('',(-280.138656027,214.503789974,2.835344393));
#1152=CARTESIAN_POINT('',(-280.162917679,214.472059554,2.806903044));
#1153=CARTESIAN_POINT('',(-280.188441183,214.443191549,2.776053284));
#1154=CARTESIAN_POINT('',(-280.239488192,214.385455537,2.714353765));
#1155=CARTESIAN_POINT('',(-280.294973217,214.340630439,2.6456254));
#1156=CARTESIAN_POINT('',(-280.344191626,214.307362948,2.566257205));
#1157=CARTESIAN_POINT('',(-280.368800831,214.290729202,2.526573108));
#1158=CARTESIAN_POINT('',(-280.391548482,214.277198336,2.484447082));
#1159=CARTESIAN_POINT('',(-280.40715957,214.267507046,2.438329667));
#1160=CARTESIAN_POINT('',(-280.422770657,214.257815757,2.392212252));
#1161=CARTESIAN_POINT('',(-280.429620654,214.25239273,2.342466494));
#1162=CARTESIAN_POINT('',(-280.42337575,214.252392687,2.292911347));
#1163=B_SPLINE_CURVE_WITH_KNOTS('',3,(#1144,#1145,#1146,#1147,#1148,#1149,#1150,#1151,#1152,#1153,#1154,#1155,#1156,#1157,#1158,#1159,#1160,#1161,#1162),.UNSPECIFIED.,.F.,.F.,(4,3,3,3,3,3,4),(0.000024021,0.000318037,0.000465046,0.000612054,0.000906071,0.001053079,0.001200087),.UNSPECIFIED.);
#1164=EDGE_CURVE('',#60,#1118,#1163,.T.);
#1165=ORIENTED_EDGE('',*,*,#1164,.T.);
#1166=ORIENTED_EDGE('',*,*,#1132,.F.);
#1167=ORIENTED_EDGE('',*,*,#860,.T.);
#1168=EDGE_LOOP('',(#1142,#1143,#1165,#1166,#1167));
#1169=FACE_BOUND('',#1168,.T.);
#1170=ADVANCED_FACE('',(#1169),#1141,.T.);
#1171=CARTESIAN_POINT('',(-100.049877289,140.847571057,2.000018128));
#1172=DIRECTION('',(0.,-1.,0.));
#1173=DIRECTION('',(1.,0.,0.));
#1174=AXIS2_PLACEMENT_3D('',#1171,#1172,#1173);
#1175=PLANE('',#1174);
#1176=CARTESIAN_POINT('',(-21.049859328,140.847571057,2.292911347));
#1177=VERTEX_POINT('',#1176);
#1178=CARTESIAN_POINT('',(-21.049859328,140.847571057,2.292911347));
#1179=DIRECTION('',(-1.,-0.,-0.));
#1180=VECTOR('',#1179,259.425487608);
#1181=LINE('',#1178,#1180);
#1182=EDGE_CURVE('',#1177,#373,#1181,.T.);
#1183=ORIENTED_EDGE('',*,*,#1182,.T.);
#1184=ORIENTED_EDGE('',*,*,#379,.T.);
#1185=ORIENTED_EDGE('',*,*,#737,.T.);
#1186=CARTESIAN_POINT('',(-21.049859328,140.847571057,2.000018128));
#1187=DIRECTION('',(0.,0.,1.));
#1188=VECTOR('',#1187,0.292893219);
#1189=LINE('',#1186,#1188);
#1190=EDGE_CURVE('',#726,#1177,#1189,.T.);
#1191=ORIENTED_EDGE('',*,*,#1190,.T.);
#1192=EDGE_LOOP('',(#1183,#1184,#1185,#1191));
#1193=FACE_BOUND('',#1192,.T.);
#1194=ADVANCED_FACE('',(#1193),#1175,.T.);
#1195=CARTESIAN_POINT('',(175.950122711,141.554677838,2.292911347));
#1196=DIRECTION('',(-1.,-0.,0.));
#1197=DIRECTION('',(0.,-1.,0.));
#1198=AXIS2_PLACEMENT_3D('',#1195,#1196,#1197);
#1199=CYLINDRICAL_SURFACE('',#1198,0.707106781);
#1200=ORIENTED_EDGE('',*,*,#900,.F.);
#1201=ORIENTED_EDGE('',*,*,#163,.T.);
#1202=ORIENTED_EDGE('',*,*,#401,.T.);
#1203=ORIENTED_EDGE('',*,*,#1182,.F.);
#1204=CARTESIAN_POINT('',(-21.049859328,141.554677838,2.292911347));
#1205=DIRECTION('',(-1.,-0.,0.));
#1206=DIRECTION('',(0.,-1.,0.));
#1207=AXIS2_PLACEMENT_3D('',#1204,#1205,#1206);
#1208=CIRCLE('',#1207,0.707106781);
#1209=EDGE_CURVE('',#1177,#895,#1208,.T.);
#1210=ORIENTED_EDGE('',*,*,#1209,.T.);
#1211=EDGE_LOOP('',(#1200,#1201,#1202,#1203,#1210));
#1212=FACE_BOUND('',#1211,.T.);
#1213=ADVANCED_FACE('',(#1212),#1199,.T.);
#1214=CARTESIAN_POINT('',(-12.949877289,177.049981872,0.000018128));
#1215=DIRECTION('',(1.,0.,0.));
#1216=DIRECTION('',(0.,0.,1.));
#1217=AXIS2_PLACEMENT_3D('',#1214,#1215,#1216);
#1218=PLANE('',#1217);
#1219=ORIENTED_EDGE('',*,*,#593,.T.);
#1220=CARTESIAN_POINT('',(-12.949877289,136.999999498,3.000018128));
#1221=DIRECTION('',(0.,0.,-1.));
#1222=VECTOR('',#1221,3.);
#1223=LINE('',#1220,#1222);
#1224=EDGE_CURVE('',#922,#582,#1223,.T.);
#1225=ORIENTED_EDGE('',*,*,#1224,.F.);
#1226=ORIENTED_EDGE('',*,*,#927,.F.);
#1227=ORIENTED_EDGE('',*,*,#1107,.F.);
#1228=EDGE_LOOP('',(#1219,#1225,#1226,#1227));
#1229=FACE_BOUND('',#1228,.T.);
#1230=ADVANCED_FACE('',(#1229),#1218,.T.);
#1231=CARTESIAN_POINT('',(-21.049859328,177.049372759,0.000018128));
#1232=DIRECTION('',(-1.,-0.,0.));
#1233=DIRECTION('',(0.,0.,-1.));
#1234=AXIS2_PLACEMENT_3D('',#1231,#1232,#1233);
#1235=PLANE('',#1234);
#1236=ORIENTED_EDGE('',*,*,#1209,.F.);
#1237=ORIENTED_EDGE('',*,*,#1190,.F.);
#1238=ORIENTED_EDGE('',*,*,#731,.T.);
#1239=ORIENTED_EDGE('',*,*,#655,.T.);
#1240=ORIENTED_EDGE('',*,*,#808,.F.);
#1241=ORIENTED_EDGE('',*,*,#906,.F.);
#1242=EDGE_LOOP('',(#1236,#1237,#1238,#1239,#1240,#1241));
#1243=FACE_BOUND('',#1242,.T.);
#1244=ADVANCED_FACE('',(#1243),#1235,.T.);
#1245=CARTESIAN_POINT('',(-12.,154.499084718,48.000018128));
#1246=DIRECTION('',(1.,0.,0.));
#1247=DIRECTION('',(0.,-1.,0.));
#1248=AXIS2_PLACEMENT_3D('',#1245,#1246,#1247);
#1249=PLANE('',#1248);
#1250=CARTESIAN_POINT('',(-12.,136.999999498,43.000018128));
#1251=VERTEX_POINT('',#1250);
#1252=CARTESIAN_POINT('',(-12.,136.999999498,43.000018128));
#1253=DIRECTION('',(0.,0.,-1.));
#1254=VECTOR('',#1253,43.);
#1255=LINE('',#1252,#1254);
#1256=EDGE_CURVE('',#1251,#574,#1255,.T.);
#1257=ORIENTED_EDGE('',*,*,#1256,.T.);
#1258=ORIENTED_EDGE('',*,*,#579,.F.);
#1259=CARTESIAN_POINT('',(-12.,216.998536519,43.000018128));
#1260=VERTEX_POINT('',#1259);
#1261=CARTESIAN_POINT('',(-12.,216.99853652,43.000018128));
#1262=DIRECTION('',(0.,0.,-1.));
#1263=VECTOR('',#1262,43.);
#1264=LINE('',#1261,#1263);
#1265=EDGE_CURVE('',#1260,#566,#1264,.T.);
#1266=ORIENTED_EDGE('',*,*,#1265,.F.);
#1267=CARTESIAN_POINT('',(-12.,216.998536519,43.000018128));
#1268=DIRECTION('',(0.,-1.,0.));
#1269=VECTOR('',#1268,79.998537021);
#1270=LINE('',#1267,#1269);
#1271=EDGE_CURVE('',#1260,#1251,#1270,.T.);
#1272=ORIENTED_EDGE('',*,*,#1271,.T.);
#1273=EDGE_LOOP('',(#1257,#1258,#1266,#1272));
#1274=FACE_BOUND('',#1273,.T.);
#1275=ADVANCED_FACE('',(#1274),#1249,.T.);
#1276=CARTESIAN_POINT('',(-20.,157.000008646,48.000018128));
#1277=DIRECTION('',(-1.,-0.,0.));
#1278=DIRECTION('',(-0.,1.,0.));
#1279=AXIS2_PLACEMENT_3D('',#1276,#1277,#1278);
#1280=PLANE('',#1279);
#1281=ORIENTED_EDGE('',*,*,#1011,.F.);
#1282=CARTESIAN_POINT('',(-20.,176.999877122,4.352763072));
#1283=DIRECTION('',(-1.,-0.,-0.));
#1284=DIRECTION('',(0.,0.,-1.));
#1285=AXIS2_PLACEMENT_3D('',#1282,#1283,#1284);
#1286=CIRCLE('',#1285,35.542893219);
#1287=EDGE_CURVE('',#991,#1006,#1286,.T.);
#1288=ORIENTED_EDGE('',*,*,#1287,.T.);
#1289=EDGE_LOOP('',(#1281,#1288));
#1290=FACE_BOUND('',#1289,.T.);
#1291=ADVANCED_FACE('',(#1290),#1280,.T.);
#1292=CARTESIAN_POINT('',(-20.,157.000008646,48.000018128));
#1293=DIRECTION('',(-1.,-0.,0.));
#1294=DIRECTION('',(-0.,1.,0.));
#1295=AXIS2_PLACEMENT_3D('',#1292,#1293,#1294);
#1296=PLANE('',#1295);
#1297=ORIENTED_EDGE('',*,*,#943,.F.);
#1298=CARTESIAN_POINT('',(-20.,136.999999498,43.000018128));
#1299=VERTEX_POINT('',#1298);
#1300=CARTESIAN_POINT('',(-20.,136.999999498,43.000018128));
#1301=DIRECTION('',(0.,0.,-1.));
#1302=VECTOR('',#1301,40.);
#1303=LINE('',#1300,#1302);
#1304=EDGE_CURVE('',#1299,#930,#1303,.T.);
#1305=ORIENTED_EDGE('',*,*,#1304,.F.);
#1306=CARTESIAN_POINT('',(-20.,217.000000168,43.000018128));
#1307=VERTEX_POINT('',#1306);
#1308=CARTESIAN_POINT('',(-20.,136.999999498,43.000018128));
#1309=DIRECTION('',(-0.,1.,0.));
#1310=VECTOR('',#1309,80.00000067);
#1311=LINE('',#1308,#1310);
#1312=EDGE_CURVE('',#1299,#1307,#1311,.T.);
#1313=ORIENTED_EDGE('',*,*,#1312,.T.);
#1314=CARTESIAN_POINT('',(-20.,217.000000168,43.000018128));
#1315=DIRECTION('',(0.,0.,-1.));
#1316=VECTOR('',#1315,43.);
#1317=LINE('',#1314,#1316);
#1318=EDGE_CURVE('',#1307,#558,#1317,.T.);
#1319=ORIENTED_EDGE('',*,*,#1318,.T.);
#1320=ORIENTED_EDGE('',*,*,#563,.F.);
#1321=ORIENTED_EDGE('',*,*,#833,.T.);
#1322=ORIENTED_EDGE('',*,*,#1089,.F.);
#1323=CARTESIAN_POINT('',(-20.,176.999877122,4.352763072));
#1324=DIRECTION('',(1.,0.,0.));
#1325=DIRECTION('',(0.,0.,-1.));
#1326=AXIS2_PLACEMENT_3D('',#1323,#1324,#1325);
#1327=CIRCLE('',#1326,37.957106781);
#1328=EDGE_CURVE('',#1065,#938,#1327,.T.);
#1329=ORIENTED_EDGE('',*,*,#1328,.T.);
#1330=EDGE_LOOP('',(#1297,#1305,#1313,#1319,#1320,#1321,#1322,#1329));
#1331=FACE_BOUND('',#1330,.T.);
#1332=ADVANCED_FACE('',(#1331),#1296,.T.);
#1333=CARTESIAN_POINT('',(-15.,136.999999498,48.000018128));
#1334=DIRECTION('',(0.,-1.,0.));
#1335=DIRECTION('',(-1.,-0.,0.));
#1336=AXIS2_PLACEMENT_3D('',#1333,#1334,#1335);
#1337=PLANE('',#1336);
#1338=CARTESIAN_POINT('',(-12.,136.999999498,43.000018128));
#1339=DIRECTION('',(-1.,-0.,0.));
#1340=VECTOR('',#1339,8.);
#1341=LINE('',#1338,#1340);
#1342=EDGE_CURVE('',#1251,#1299,#1341,.T.);
#1343=ORIENTED_EDGE('',*,*,#1342,.T.);
#1344=ORIENTED_EDGE('',*,*,#1304,.T.);
#1345=ORIENTED_EDGE('',*,*,#935,.F.);
#1346=ORIENTED_EDGE('',*,*,#1224,.T.);
#1347=ORIENTED_EDGE('',*,*,#587,.F.);
#1348=ORIENTED_EDGE('',*,*,#1256,.F.);
#1349=EDGE_LOOP('',(#1343,#1344,#1345,#1346,#1347,#1348));
#1350=FACE_BOUND('',#1349,.T.);
#1351=ADVANCED_FACE('',(#1350),#1337,.T.);
#1352=CARTESIAN_POINT('',(-19.000017961,176.999877122,4.352763072));
#1353=DIRECTION('',(-1.,-0.,-0.));
#1354=DIRECTION('',(0.,0.,-1.));
#1355=AXIS2_PLACEMENT_3D('',#1352,#1353,#1354);
#1356=CYLINDRICAL_SURFACE('',#1355,36.25);
#1357=CARTESIAN_POINT('',(-19.292893219,176.999877122,4.352763072));
#1358=DIRECTION('',(1.,0.,0.));
#1359=DIRECTION('',(0.,0.,-1.));
#1360=AXIS2_PLACEMENT_3D('',#1357,#1358,#1359);
#1361=CIRCLE('',#1360,36.25);
#1362=EDGE_CURVE('',#1014,#983,#1361,.T.);
#1363=ORIENTED_EDGE('',*,*,#1362,.T.);
#1364=ORIENTED_EDGE('',*,*,#988,.T.);
#1365=CARTESIAN_POINT('',(-19.000017961,176.999877122,4.352763072));
#1366=DIRECTION('',(1.,0.,-0.));
#1367=DIRECTION('',(0.,0.,1.));
#1368=AXIS2_PLACEMENT_3D('',#1365,#1366,#1367);
#1369=CIRCLE('',#1368,36.25);
#1370=EDGE_CURVE('',#1041,#975,#1369,.T.);
#1371=ORIENTED_EDGE('',*,*,#1370,.F.);
#1372=ORIENTED_EDGE('',*,*,#1046,.T.);
#1373=EDGE_LOOP('',(#1363,#1364,#1371,#1372));
#1374=FACE_BOUND('',#1373,.T.);
#1375=ADVANCED_FACE('',(#1374),#1356,.T.);
#1376=CARTESIAN_POINT('',(-19.000017961,176.999877122,4.352763072));
#1377=DIRECTION('',(-1.,-0.,-0.));
#1378=DIRECTION('',(0.,0.,-1.));
#1379=AXIS2_PLACEMENT_3D('',#1376,#1377,#1378);
#1380=CYLINDRICAL_SURFACE('',#1379,37.25);
#1381=ORIENTED_EDGE('',*,*,#972,.F.);
#1382=CARTESIAN_POINT('',(-19.292893219,176.999877122,4.352763072));
#1383=DIRECTION('',(-1.,-0.,-0.));
#1384=DIRECTION('',(0.,0.,-1.));
#1385=AXIS2_PLACEMENT_3D('',#1382,#1383,#1384);
#1386=CIRCLE('',#1385,37.25);
#1387=EDGE_CURVE('',#946,#1057,#1386,.T.);
#1388=ORIENTED_EDGE('',*,*,#1387,.T.);
#1389=ORIENTED_EDGE('',*,*,#1062,.F.);
#1390=CARTESIAN_POINT('',(-19.000017961,176.999877122,4.352763072));
#1391=DIRECTION('',(1.,0.,-0.));
#1392=DIRECTION('',(0.,0.,1.));
#1393=AXIS2_PLACEMENT_3D('',#1390,#1391,#1392);
#1394=CIRCLE('',#1393,37.25);
#1395=EDGE_CURVE('',#1049,#967,#1394,.T.);
#1396=ORIENTED_EDGE('',*,*,#1395,.T.);
#1397=EDGE_LOOP('',(#1381,#1388,#1389,#1396));
#1398=FACE_BOUND('',#1397,.T.);
#1399=ADVANCED_FACE('',(#1398),#1380,.F.);
#1400=CARTESIAN_POINT('',(-19.000017961,2283.999999833,63.000018128));
#1401=DIRECTION('',(1.,0.,0.));
#1402=DIRECTION('',(0.,-1.,0.));
#1403=AXIS2_PLACEMENT_3D('',#1400,#1401,#1402);
#1404=PLANE('',#1403);
#1405=ORIENTED_EDGE('',*,*,#1395,.F.);
#1406=ORIENTED_EDGE('',*,*,#1054,.T.);
#1407=ORIENTED_EDGE('',*,*,#1370,.T.);
#1408=ORIENTED_EDGE('',*,*,#980,.T.);
#1409=EDGE_LOOP('',(#1405,#1406,#1407,#1408));
#1410=FACE_BOUND('',#1409,.T.);
#1411=ADVANCED_FACE('',(#1410),#1404,.F.);
#1412=CARTESIAN_POINT('',(-19.292893219,176.999877122,4.352763072));
#1413=DIRECTION('',(-1.,-0.,-0.));
#1414=DIRECTION('',(0.,0.,-1.));
#1415=AXIS2_PLACEMENT_3D('',#1412,#1413,#1414);
#1416=TOROIDAL_SURFACE('',#1415,35.542893219,0.707106781);
#1417=ORIENTED_EDGE('',*,*,#1003,.F.);
#1418=ORIENTED_EDGE('',*,*,#1362,.F.);
#1419=ORIENTED_EDGE('',*,*,#1038,.F.);
#1420=ORIENTED_EDGE('',*,*,#1287,.F.);
#1421=EDGE_LOOP('',(#1417,#1418,#1419,#1420));
#1422=FACE_BOUND('',#1421,.T.);
#1423=ADVANCED_FACE('',(#1422),#1416,.T.);
#1424=CARTESIAN_POINT('',(-19.292893219,176.999877122,4.352763072));
#1425=DIRECTION('',(-1.,-0.,-0.));
#1426=DIRECTION('',(0.,0.,-1.));
#1427=AXIS2_PLACEMENT_3D('',#1424,#1425,#1426);
#1428=TOROIDAL_SURFACE('',#1427,37.957106781,0.707106781);
#1429=ORIENTED_EDGE('',*,*,#964,.F.);
#1430=ORIENTED_EDGE('',*,*,#1328,.F.);
#1431=ORIENTED_EDGE('',*,*,#1083,.F.);
#1432=ORIENTED_EDGE('',*,*,#1387,.F.);
#1433=EDGE_LOOP('',(#1429,#1430,#1431,#1432));
#1434=FACE_BOUND('',#1433,.T.);
#1435=ADVANCED_FACE('',(#1434),#1428,.T.);
#1436=CARTESIAN_POINT('',(-14.992681759,216.999084049,48.000018128));
#1437=DIRECTION('',(-0.000182956,-0.999999983,0.));
#1438=DIRECTION('',(-0.999999983,0.000182956,0.));
#1439=AXIS2_PLACEMENT_3D('',#1436,#1437,#1438);
#1440=PLANE('',#1439);
#1441=ORIENTED_EDGE('',*,*,#571,.T.);
#1442=ORIENTED_EDGE('',*,*,#1318,.F.);
#1443=CARTESIAN_POINT('',(-12.,216.998536519,43.000018128));
#1444=DIRECTION('',(-0.999999983,0.000182956,0.));
#1445=VECTOR('',#1444,8.000000134);
#1446=LINE('',#1443,#1445);
#1447=EDGE_CURVE('',#1260,#1307,#1446,.T.);
#1448=ORIENTED_EDGE('',*,*,#1447,.F.);
#1449=ORIENTED_EDGE('',*,*,#1265,.T.);
#1450=EDGE_LOOP('',(#1441,#1442,#1448,#1449));
#1451=FACE_BOUND('',#1450,.T.);
#1452=ADVANCED_FACE('',(#1451),#1440,.F.);
#1453=CARTESIAN_POINT('',(1730.,737.000017794,43.000018128));
#1454=DIRECTION('',(0.,0.,1.));
#1455=DIRECTION('',(-1.,-0.,0.));
#1456=AXIS2_PLACEMENT_3D('',#1453,#1454,#1455);
#1457=PLANE('',#1456);
#1458=ORIENTED_EDGE('',*,*,#1447,.T.);
#1459=ORIENTED_EDGE('',*,*,#1312,.F.);
#1460=ORIENTED_EDGE('',*,*,#1342,.F.);
#1461=ORIENTED_EDGE('',*,*,#1271,.F.);
#1462=EDGE_LOOP('',(#1458,#1459,#1460,#1461));
#1463=FACE_BOUND('',#1462,.T.);
#1464=ADVANCED_FACE('',(#1463),#1457,.T.);
#1465=CARTESIAN_POINT('',(-282.000017961,176.999877122,4.352763072));
#1466=DIRECTION('',(1.,0.,-0.));
#1467=DIRECTION('',(0.,0.,1.));
#1468=AXIS2_PLACEMENT_3D('',#1465,#1466,#1467);
#1469=CYLINDRICAL_SURFACE('',#1468,36.25);
#1470=ORIENTED_EDGE('',*,*,#205,.F.);
#1471=CARTESIAN_POINT('',(-280.707106781,176.999877122,4.352763072));
#1472=DIRECTION('',(-1.,-0.,0.));
#1473=DIRECTION('',(0.,0.,1.));
#1474=AXIS2_PLACEMENT_3D('',#1471,#1472,#1473);
#1475=CIRCLE('',#1474,36.25);
#1476=EDGE_CURVE('',#198,#667,#1475,.T.);
#1477=ORIENTED_EDGE('',*,*,#1476,.T.);
#1478=ORIENTED_EDGE('',*,*,#672,.T.);
#1479=ORIENTED_EDGE('',*,*,#330,.F.);
#1480=EDGE_LOOP('',(#1470,#1477,#1478,#1479));
#1481=FACE_BOUND('',#1480,.T.);
#1482=ADVANCED_FACE('',(#1481),#1469,.T.);
#1483=CARTESIAN_POINT('',(-282.000017961,176.999877122,4.352763072));
#1484=DIRECTION('',(1.,0.,-0.));
#1485=DIRECTION('',(0.,0.,1.));
#1486=AXIS2_PLACEMENT_3D('',#1483,#1484,#1485);
#1487=CYLINDRICAL_SURFACE('',#1486,37.25);
#1488=ORIENTED_EDGE('',*,*,#247,.T.);
#1489=ORIENTED_EDGE('',*,*,#296,.T.);
#1490=ORIENTED_EDGE('',*,*,#754,.T.);
#1491=CARTESIAN_POINT('',(-280.707106781,176.999877122,4.352763072));
#1492=DIRECTION('',(1.,0.,-0.));
#1493=DIRECTION('',(0.,0.,1.));
#1494=AXIS2_PLACEMENT_3D('',#1491,#1492,#1493);
#1495=CIRCLE('',#1494,37.25);
#1496=EDGE_CURVE('',#749,#240,#1495,.T.);
#1497=ORIENTED_EDGE('',*,*,#1496,.T.);
#1498=EDGE_LOOP('',(#1488,#1489,#1490,#1497));
#1499=FACE_BOUND('',#1498,.T.);
#1500=ADVANCED_FACE('',(#1499),#1487,.F.);
#1501=CARTESIAN_POINT('',(-280.707106781,176.999877122,4.352763072));
#1502=DIRECTION('',(1.,0.,-0.));
#1503=DIRECTION('',(0.,0.,1.));
#1504=AXIS2_PLACEMENT_3D('',#1501,#1502,#1503);
#1505=TOROIDAL_SURFACE('',#1504,35.542893219,0.707106781);
#1506=ORIENTED_EDGE('',*,*,#360,.F.);
#1507=ORIENTED_EDGE('',*,*,#180,.F.);
#1508=ORIENTED_EDGE('',*,*,#891,.T.);
#1509=ORIENTED_EDGE('',*,*,#696,.F.);
#1510=ORIENTED_EDGE('',*,*,#1476,.F.);
#1511=EDGE_LOOP('',(#1506,#1507,#1508,#1509,#1510));
#1512=FACE_BOUND('',#1511,.T.);
#1513=ADVANCED_FACE('',(#1512),#1505,.T.);
#1514=CARTESIAN_POINT('',(-280.707106781,176.999877122,4.352763072));
#1515=DIRECTION('',(1.,0.,-0.));
#1516=DIRECTION('',(0.,0.,1.));
#1517=AXIS2_PLACEMENT_3D('',#1514,#1515,#1516);
#1518=TOROIDAL_SURFACE('',#1517,37.957106781,0.707106781);
#1519=ORIENTED_EDGE('',*,*,#417,.F.);
#1520=ORIENTED_EDGE('',*,*,#1496,.F.);
#1521=ORIENTED_EDGE('',*,*,#782,.T.);
#1522=ORIENTED_EDGE('',*,*,#1124,.T.);
#1523=ORIENTED_EDGE('',*,*,#1164,.F.);
#1524=ORIENTED_EDGE('',*,*,#66,.F.);
#1525=EDGE_LOOP('',(#1519,#1520,#1521,#1522,#1523,#1524));
#1526=FACE_BOUND('',#1525,.T.);
#1527=ADVANCED_FACE('',(#1526),#1518,.T.);
#1528=CLOSED_SHELL('',(#117,#148,#191,#233,#275,#349,#406,#451,#498,#520,#532,#597,#628,#659,#716,#742,#786,#813,#837,#871,#1094,#1111,#1136,#1170,#1194,#1213,
#1230,#1244,#1275,#1291,#1332,#1351,#1375,#1399,#1411,#1423,#1435,#1452,#1464,#1482,#1500,#1513,#1527));
#1529=MANIFOLD_SOLID_BREP('Body 10 (1)',#1528);
#1530=COLOUR_RGB('',0.627451003,0.627451003,0.643137276);
#1531=FILL_AREA_STYLE_COLOUR('',#1530);
#1532=FILL_AREA_STYLE('',(#1531));
#1533=SURFACE_STYLE_FILL_AREA(#1532);
#1534=SURFACE_SIDE_STYLE('',(#1533));
#1535=SURFACE_STYLE_USAGE(.BOTH.,#1534);
#1536=PRESENTATION_STYLE_ASSIGNMENT((#1535));
#26=STYLED_ITEM('',(#1536),#1529);
#1537=(NAMED_UNIT(*)PLANE_ANGLE_UNIT()SI_UNIT($,.RADIAN.));
#1538=PLANE_ANGLE_MEASURE_WITH_UNIT(PLANE_ANGLE_MEASURE(0.0174532925),#1537);
#1539=(CONVERSION_BASED_UNIT('DEGREE',#1538)NAMED_UNIT(#1540)PLANE_ANGLE_UNIT());
#1540=DIMENSIONAL_EXPONENTS(0.,0.,0.,0.,0.,0.,0.);
#1541=(NAMED_UNIT(*)SI_UNIT($,.STERADIAN.)SOLID_ANGLE_UNIT());
#1542=(LENGTH_UNIT()NAMED_UNIT(*)SI_UNIT(.MILLI.,.METRE.));
#1543=UNCERTAINTY_MEASURE_WITH_UNIT(LENGTH_MEASURE(1.000000E-03),#1542,'DISTANCE_ACCURACY_VALUE','Maximum Tolerance applied to model');
#1544=(GEOMETRIC_REPRESENTATION_CONTEXT(3)GLOBAL_UNCERTAINTY_ASSIGNED_CONTEXT((#1543))GLOBAL_UNIT_ASSIGNED_CONTEXT((#1542,#1539,#1541))REPRESENTATION_CONTEXT('','Act ii print plast.step'));
#1556=CARTESIAN_POINT('',(0.,0.,0.));
#1557=DIRECTION('',(0.,0.,1.));
#1558=DIRECTION('',(1.,0.,-0.));
#1559=AXIS2_PLACEMENT_3D('',#1556,#1557,#1558);
#1560=ITEM_DEFINED_TRANSFORMATION('','',#1559,#15);
#1561=(REPRESENTATION_RELATIONSHIP('','',#1546,#16)REPRESENTATION_RELATIONSHIP_WITH_TRANSFORMATION(#1560)SHAPE_REPRESENTATION_RELATIONSHIP());
#1562=NEXT_ASSEMBLY_USAGE_OCCURRENCE('Act ii print plast.step_1','Act ii print plast.step','Act ii print plast.step',#25,#1555,$);
#1563=PRODUCT_DEFINITION_SHAPE('','',#1562);
#1564=CONTEXT_DEPENDENT_SHAPE_REPRESENTATION(#1561,#1563);
#1565=(NAMED_UNIT(*)PLANE_ANGLE_UNIT()SI_UNIT($,.RADIAN.));
#1566=PLANE_ANGLE_MEASURE_WITH_UNIT(PLANE_ANGLE_MEASURE(0.0174532925),#1565);
#1567=(CONVERSION_BASED_UNIT('DEGREE',#1566)NAMED_UNIT(#1568)PLANE_ANGLE_UNIT());
#1568=DIMENSIONAL_EXPONENTS(0.,0.,0.,0.,0.,0.,0.);
#1569=(NAMED_UNIT(*)SI_UNIT($,.STERADIAN.)SOLID_ANGLE_UNIT());
#1570=(LENGTH_UNIT()NAMED_UNIT(*)SI_UNIT(.MILLI.,.METRE.));
#1571=UNCERTAINTY_MEASURE_WITH_UNIT(LENGTH_MEASURE(1.000000E-05),#1570,'DISTANCE_ACCURACY_VALUE','Maximum Tolerance applied to model');
#1572=(GEOMETRIC_REPRESENTATION_CONTEXT(3)GLOBAL_UNCERTAINTY_ASSIGNED_CONTEXT((#1571))GLOBAL_UNIT_ASSIGNED_CONTEXT((#1570,#1567,#1569))REPRESENTATION_CONTEXT('','Folder 33'));
#1584=CARTESIAN_POINT('',(0.,0.,0.));
#1585=DIRECTION('',(0.,0.,1.));
#1586=DIRECTION('',(1.,0.,-0.));
#1587=AXIS2_PLACEMENT_3D('',#1584,#1585,#1586);
#1588=ITEM_DEFINED_TRANSFORMATION('','',#1587,#15);
#1589=(REPRESENTATION_RELATIONSHIP('','',#1574,#1546)REPRESENTATION_RELATIONSHIP_WITH_TRANSFORMATION(#1588)SHAPE_REPRESENTATION_RELATIONSHIP());
#1590=NEXT_ASSEMBLY_USAGE_OCCURRENCE('Folder 33_2','Folder 33','Folder 33',#1555,#1583,$);
#1591=PRODUCT_DEFINITION_SHAPE('','',#1590);
#1592=CONTEXT_DEPENDENT_SHAPE_REPRESENTATION(#1589,#1591);
#1594=CARTESIAN_POINT('',(-20.000012968,177.082119626,4.352763072));
#1595=DIRECTION('',(-0.99999995,-0.000315372,0.));
#1596=DIRECTION('',(-0.000315372,0.99999995,0.));
#1597=AXIS2_PLACEMENT_3D('',#1594,#1595,#1596);
#1598=CYLINDRICAL_SURFACE('',#1597,19.25);
#1599=CARTESIAN_POINT('',(-280.006070951,196.250121949,4.352763072));
#1600=VERTEX_POINT('',#1599);
#1601=CARTESIAN_POINT('',(-20.00608388,196.332118669,4.352763072));
#1602=VERTEX_POINT('',#1601);
#1603=CARTESIAN_POINT('',(-280.006070951,196.250121949,4.352763072));
#1604=DIRECTION('',(0.99999995,0.000315372,-0.));
#1605=VECTOR('',#1604,260.000000001);
#1606=LINE('',#1603,#1605);
#1607=EDGE_CURVE('',#1600,#1602,#1606,.T.);
#1608=ORIENTED_EDGE('',*,*,#1607,.T.);
#1609=CARTESIAN_POINT('',(-20.005973583,195.982382027,0.700018128));
#1610=VERTEX_POINT('',#1609);
#1611=CARTESIAN_POINT('',(-20.000012969,177.082119626,4.352763072));
#1612=DIRECTION('',(-0.99999995,-0.000315372,0.));
#1613=DIRECTION('',(0.000315372,-0.99999995,0.));
#1614=AXIS2_PLACEMENT_3D('',#1611,#1612,#1613);
#1615=CIRCLE('',#1614,19.25);
#1616=EDGE_CURVE('',#1602,#1610,#1615,.T.);
#1617=ORIENTED_EDGE('',*,*,#1616,.T.);
#1618=CARTESIAN_POINT('',(-280.005960654,195.900385307,0.700018128));
#1619=VERTEX_POINT('',#1618);
#1620=CARTESIAN_POINT('',(-20.005973583,195.982382027,0.700018128));
#1621=DIRECTION('',(-0.99999995,-0.000315372,0.));
#1622=VECTOR('',#1621,260.000000001);
#1623=LINE('',#1620,#1622);
#1624=EDGE_CURVE('',#1610,#1619,#1623,.T.);
#1625=ORIENTED_EDGE('',*,*,#1624,.T.);
#1626=CARTESIAN_POINT('',(-280.00000004,177.000122906,4.352763072));
#1627=DIRECTION('',(-0.99999995,-0.000315372,0.));
#1628=DIRECTION('',(0.000315372,-0.99999995,0.));
#1629=AXIS2_PLACEMENT_3D('',#1626,#1627,#1628);
#1630=CIRCLE('',#1629,19.25);
#1631=EDGE_CURVE('',#1600,#1619,#1630,.T.);
#1632=ORIENTED_EDGE('',*,*,#1631,.F.);
#1633=EDGE_LOOP('',(#1608,#1617,#1625,#1632));
#1634=FACE_BOUND('',#1633,.T.);
#1635=ADVANCED_FACE('',(#1634),#1598,.T.);
#1636=CARTESIAN_POINT('',(-69.5,236.999981872,0.700018128));
#1637=DIRECTION('',(0.,0.,-1.));
#1638=DIRECTION('',(0.,1.,0.));
#1639=AXIS2_PLACEMENT_3D('',#1636,#1637,#1638);
#1640=PLANE('',#1639);
#1641=CARTESIAN_POINT('',(-19.994052355,158.181857225,0.700018128));
#1642=VERTEX_POINT('',#1641);
#1643=CARTESIAN_POINT('',(-20.005973364,195.982382028,0.700018128));
#1644=DIRECTION('',(0.000315372,-0.99999995,0.));
#1645=VECTOR('',#1644,37.800526683);
#1646=LINE('',#1643,#1645);
#1647=EDGE_CURVE('',#1610,#1642,#1646,.T.);
#1648=ORIENTED_EDGE('',*,*,#1647,.T.);
#1649=CARTESIAN_POINT('',(-279.994039426,158.099860504,0.700018128));
#1650=VERTEX_POINT('',#1649);
#1651=CARTESIAN_POINT('',(-279.994039426,158.099860504,0.700018128));
#1652=DIRECTION('',(0.99999995,0.000315372,-0.));
#1653=VECTOR('',#1652,260.000000001);
#1654=LINE('',#1651,#1653);
#1655=EDGE_CURVE('',#1650,#1642,#1654,.T.);
#1656=ORIENTED_EDGE('',*,*,#1655,.F.);
#1657=CARTESIAN_POINT('',(-280.005960434,195.900385308,0.700018128));
#1658=DIRECTION('',(0.000315372,-0.99999995,0.));
#1659=VECTOR('',#1658,37.800526683);
#1660=LINE('',#1657,#1659);
#1661=EDGE_CURVE('',#1619,#1650,#1660,.T.);
#1662=ORIENTED_EDGE('',*,*,#1661,.F.);
#1663=ORIENTED_EDGE('',*,*,#1624,.F.);
#1664=EDGE_LOOP('',(#1648,#1656,#1662,#1663));
#1665=FACE_BOUND('',#1664,.T.);
#1666=ADVANCED_FACE('',(#1665),#1640,.T.);
#1667=CARTESIAN_POINT('',(-19.335523907,-1929.917898305,63.000018128));
#1668=DIRECTION('',(-0.99999995,-0.000315372,0.));
#1669=DIRECTION('',(-0.000315372,0.99999995,0.));
#1670=AXIS2_PLACEMENT_3D('',#1667,#1668,#1669);
#1671=PLANE('',#1670);
#1672=ORIENTED_EDGE('',*,*,#1647,.F.);
#1673=ORIENTED_EDGE('',*,*,#1616,.F.);
#1674=CARTESIAN_POINT('',(-20.000012969,177.082119626,4.352763072));
#1675=DIRECTION('',(-0.99999995,-0.000315372,0.));
#1676=DIRECTION('',(0.000315372,-0.99999995,0.));
#1677=AXIS2_PLACEMENT_3D('',#1674,#1675,#1676);
#1678=CIRCLE('',#1677,19.25);
#1679=EDGE_CURVE('',#1642,#1602,#1678,.T.);
#1680=ORIENTED_EDGE('',*,*,#1679,.F.);
#1681=EDGE_LOOP('',(#1672,#1673,#1680));
#1682=FACE_BOUND('',#1681,.T.);
#1683=ADVANCED_FACE('',(#1682),#1671,.F.);
#1684=CARTESIAN_POINT('',(-279.335510977,-1929.999895052,63.000018128));
#1685=DIRECTION('',(-0.99999995,-0.000315372,0.));
#1686=DIRECTION('',(-0.000315372,0.99999995,0.));
#1687=AXIS2_PLACEMENT_3D('',#1684,#1685,#1686);
#1688=PLANE('',#1687);
#1689=CARTESIAN_POINT('',(-280.00000004,177.000122906,4.352763072));
#1690=DIRECTION('',(-0.99999995,-0.000315372,0.));
#1691=DIRECTION('',(0.000315372,-0.99999995,0.));
#1692=AXIS2_PLACEMENT_3D('',#1689,#1690,#1691);
#1693=CIRCLE('',#1692,19.25);
#1694=EDGE_CURVE('',#1650,#1600,#1693,.T.);
#1695=ORIENTED_EDGE('',*,*,#1694,.T.);
#1696=ORIENTED_EDGE('',*,*,#1631,.T.);
#1697=ORIENTED_EDGE('',*,*,#1661,.T.);
#1698=EDGE_LOOP('',(#1695,#1696,#1697));
#1699=FACE_BOUND('',#1698,.T.);
#1700=ADVANCED_FACE('',(#1699),#1688,.T.);
#1701=CARTESIAN_POINT('',(-20.000012968,177.082119626,4.352763072));
#1702=DIRECTION('',(-0.99999995,-0.000315372,0.));
#1703=DIRECTION('',(-0.000315372,0.99999995,0.));
#1704=AXIS2_PLACEMENT_3D('',#1701,#1702,#1703);
#1705=CYLINDRICAL_SURFACE('',#1704,19.25);
#1706=ORIENTED_EDGE('',*,*,#1607,.F.);
#1707=ORIENTED_EDGE('',*,*,#1694,.F.);
#1708=ORIENTED_EDGE('',*,*,#1655,.T.);
#1709=ORIENTED_EDGE('',*,*,#1679,.T.);
#1710=EDGE_LOOP('',(#1706,#1707,#1708,#1709));
#1711=FACE_BOUND('',#1710,.T.);
#1712=ADVANCED_FACE('',(#1711),#1705,.T.);
#1713=CLOSED_SHELL('',(#1635,#1666,#1683,#1700,#1712));
#1714=MANIFOLD_SOLID_BREP('Body 123 (1)',#1713);
#1593=STYLED_ITEM('',(#1536),#1714);
#1574=SHAPE_REPRESENTATION('Folder 33',(#15),#1572);
#1575=ADVANCED_BREP_SHAPE_REPRESENTATION('Folder 33',(#1714),#1572);
#1722=SHAPE_REPRESENTATION_RELATIONSHIP('','',#1574,#1575);
#1723=CARTESIAN_POINT('',(0.,0.,0.));
#1724=DIRECTION('',(0.,0.,1.));
#1725=DIRECTION('',(1.,0.,0.));
#1726=AXIS2_PLACEMENT_3D('',#1723,#1724,#1725);
#1728=MAPPED_ITEM('',#1727,#1726);
#1727=REPRESENTATION_MAP(#1726,#1574);
#1729=APPLICATION_CONTEXT('Managed model based 3d engineering');
#1730=APPLICATION_PROTOCOL_DEFINITION('international standard','ap242_managed_model_based_3d_engineering',2014,#1729);
#1731=PRODUCT_CONTEXT('',#1729,'mechanical');
#1732=PRODUCT_DEFINITION_CONTEXT('part definition',#1729,'design');
#1582=PRODUCT('Folder 33','Folder 33','',(#1731));
#1733=PRODUCT_RELATED_PRODUCT_CATEGORY('part','',(#1582));
#1734=PRODUCT_DEFINITION_FORMATION_WITH_SPECIFIED_SOURCE('','',#1582,.NOT_KNOWN.);
#1583=PRODUCT_DEFINITION('design','',#1734,#1732);
#1581=PRODUCT_DEFINITION_SHAPE('','',#1583);
#1735=SHAPE_DEFINITION_REPRESENTATION(#1581,#1574);
#1573=DRAUGHTING_MODEL('',(#1728),#1572);
#1546=SHAPE_REPRESENTATION('Act ii print plast.step',(#15,#1587),#1544);
#1736=CARTESIAN_POINT('',(0.,0.,0.));
#1737=DIRECTION('',(0.,0.,1.));
#1738=DIRECTION('',(1.,0.,0.));
#1739=AXIS2_PLACEMENT_3D('',#1736,#1737,#1738);
#1741=MAPPED_ITEM('',#1740,#1739);
#1740=REPRESENTATION_MAP(#1739,#1546);
#1554=PRODUCT('Act ii print plast.step','Act ii print plast.step','',(#1731));
#1742=PRODUCT_RELATED_PRODUCT_CATEGORY('part','',(#1554));
#1743=PRODUCT_DEFINITION_FORMATION_WITH_SPECIFIED_SOURCE('','',#1554,.NOT_KNOWN.);
#1555=PRODUCT_DEFINITION('design','',#1743,#1732);
#1553=PRODUCT_DEFINITION_SHAPE('','',#1555);
#1744=SHAPE_DEFINITION_REPRESENTATION(#1553,#1546);
#1545=DRAUGHTING_MODEL('',(#1741),#1544);
#16=SHAPE_REPRESENTATION('root',(#15,#1559),#10);
#17=ADVANCED_BREP_SHAPE_REPRESENTATION('root',(#1529),#10);
#1752=SHAPE_REPRESENTATION_RELATIONSHIP('','',#16,#17);
#1753=CARTESIAN_POINT('',(0.,0.,0.));
#1754=DIRECTION('',(0.,0.,1.));
#1755=DIRECTION('',(1.,0.,0.));
#1756=AXIS2_PLACEMENT_3D('',#1753,#1754,#1755);
#1758=MAPPED_ITEM('',#1757,#1756);
#1757=REPRESENTATION_MAP(#1756,#16);
#24=PRODUCT('root','root','',(#1731));
#1759=PRODUCT_RELATED_PRODUCT_CATEGORY('part','',(#24));
#1760=PRODUCT_DEFINITION_FORMATION_WITH_SPECIFIED_SOURCE('','',#24,.NOT_KNOWN.);
#25=PRODUCT_DEFINITION('design','',#1760,#1732);
#23=PRODUCT_DEFINITION_SHAPE('','',#25);
#1761=SHAPE_DEFINITION_REPRESENTATION(#23,#16);
#11=DRAUGHTING_MODEL('',(#1758),#10);
#1762=DESCRIPTIVE_REPRESENTATION_ITEM('KEY','/private/var/mobile/Containers/Data/Application/5F2095C5-6E5A-4F28-9900-660682EC0850/tmp/CD60D234-F58A-4C39-922C-58EF9E240781.tmp');
#1763=PROPERTY_DEFINITION('KEY','',#25);
#1764=REPRESENTATION('',(#1762),#10);
#1765=PROPERTY_DEFINITION_REPRESENTATION(#1763,#1764);
#1766=GENERAL_PROPERTY('','KEY','');
#1767=GENERAL_PROPERTY_ASSOCIATION('','',#1766,#1763);
#1=MECHANICAL_DESIGN_GEOMETRIC_PRESENTATION_REPRESENTATION('',(#26,#1593),#10);
ENDSEC;
END-ISO-10303-21;
