ISO-10303-21;
HEADER;

/* File generated by Shapr3D Version 26.50.0.10685 */

FILE_DESCRIPTION(('HOOPS Exchange Step'),'2;1');

FILE_NAME('/private/var/mobile/Containers/Data/Application/5F2095C5-6E5A-4F28-9900-660682EC0850/tmp/export/temp_export',
'2026-05-03T22:09:28+02:00',
('mobile'),
('Shapr3D Limited'),
'HOOPS Exchange 2025.9',
'Shapr3D',
'Authorized');

FILE_SCHEMA( ('AP242_MANAGED_MODEL_BASED_3D_ENGINEERING_MIM_LF {1 0 10303 442 1 1 4}') );

ENDSEC;

DATA;
#3=(NAMED_UNIT(*)PLANE_ANGLE_UNIT()SI_UNIT($,.RADIAN.));
#4=PLANE_ANGLE_MEASURE_WITH_UNIT(PLANE_ANGLE_MEASURE(0.0174532925),#3);
#5=(CONVERSION_BASED_UNIT('DEGREE',#4)NAMED_UNIT(#6)PLANE_ANGLE_UNIT());
#6=DIMENSIONAL_EXPONENTS(0.,0.,0.,0.,0.,0.,0.);
#7=(NAMED_UNIT(*)SI_UNIT($,.STERADIAN.)SOLID_ANGLE_UNIT());
#8=(LENGTH_UNIT()NAMED_UNIT(*)SI_UNIT(.MILLI.,.METRE.));
#9=UNCERTAINTY_MEASURE_WITH_UNIT(LENGTH_MEASURE(1.000000E-05),#8,'DISTANCE_ACCURACY_VALUE','Maximum Tolerance applied to model');
#10=(GEOMETRIC_REPRESENTATION_CONTEXT(3)GLOBAL_UNCERTAINTY_ASSIGNED_CONTEXT((#9))GLOBAL_UNIT_ASSIGNED_CONTEXT((#8,#5,#7))REPRESENTATION_CONTEXT('','root'));
#12=CARTESIAN_POINT('',(0.,0.,0.));
#13=DIRECTION('',(0.,0.,1.));
#14=DIRECTION('',(1.,0.,0.));
#15=AXIS2_PLACEMENT_3D('TS3D_PRODUCT_CSYS',#12,#13,#14);
#27=CARTESIAN_POINT('',(0.833122014,137.214685985,-1.316263573));
#28=CARTESIAN_POINT('',(-49.599947964,137.22809841,-1.522343123));
#29=CARTESIAN_POINT('',(-100.030749569,137.240197879,-1.708082757));
#30=CARTESIAN_POINT('',(-200.892461231,137.262835304,-2.055348113));
#31=CARTESIAN_POINT('',(-251.323210001,137.273354385,-2.216582047));
#32=CARTESIAN_POINT('',(-301.753803216,137.283328534,-2.369358571));
#33=CARTESIAN_POINT('',(0.829311508,136.970146602,0.402646284));
#34=CARTESIAN_POINT('',(-49.609761001,136.974640344,0.195486773));
#35=CARTESIAN_POINT('',(-100.04001438,136.978695994,0.008744626));
#36=CARTESIAN_POINT('',(-200.901526421,136.986287606,-0.340480956));
#37=CARTESIAN_POINT('',(-251.331912045,136.989817095,-0.502663289));
#38=CARTESIAN_POINT('',(-301.756992536,136.993164954,-0.656355539));
#39=CARTESIAN_POINT('',(0.824274343,136.809326133,2.674898523));
#40=CARTESIAN_POINT('',(-49.614611593,136.807924037,2.467600427));
#41=CARTESIAN_POINT('',(-100.044714808,136.806658628,2.280726018));
#42=CARTESIAN_POINT('',(-200.905965532,136.804289961,1.93124279));
#43=CARTESIAN_POINT('',(-251.336240418,136.803188731,1.768935253));
#44=CARTESIAN_POINT('',(-301.761221636,136.802144153,1.615120397));
#45=CARTESIAN_POINT('',(0.818031573,136.871352303,5.490996448));
#46=CARTESIAN_POINT('',(-49.60755521,136.872217758,5.283836509));
#47=CARTESIAN_POINT('',(-100.038394758,136.872998102,5.097030581));
#48=CARTESIAN_POINT('',(-200.899322841,136.874457272,4.747703928));
#49=CARTESIAN_POINT('',(-251.330053057,136.875134907,4.585465759));
#50=CARTESIAN_POINT('',(-301.766465609,136.875777189,4.431690173));
#51=CARTESIAN_POINT('',(0.815642015,136.918914795,6.568920368));
#52=CARTESIAN_POINT('',(-49.61042133,136.921511161,6.361487167));
#53=CARTESIAN_POINT('',(-100.040369357,136.923852192,6.174426491));
#54=CARTESIAN_POINT('',(-200.901493069,136.928229703,5.824595011));
#55=CARTESIAN_POINT('',(-251.332060532,136.930262618,5.662113552));
#56=CARTESIAN_POINT('',(-301.768469697,136.932189453,5.508098429));
#57=CARTESIAN_POINT('',(0.804784126,137.13503348,11.466887044));
#58=CARTESIAN_POINT('',(-49.623444661,137.145494916,11.258212171));
#59=CARTESIAN_POINT('',(-100.049341712,137.154927534,11.069993948));
#60=CARTESIAN_POINT('',(-200.911354341,137.172565661,10.717868589));
#61=CARTESIAN_POINT('',(-251.341182275,137.180756817,10.55428165));
#62=CARTESIAN_POINT('',(-301.777576053,137.188520521,10.399178095));
#63=CARTESIAN_POINT('',(0.795121016,137.327370919,15.825891759));
#64=CARTESIAN_POINT('',(-49.635034931,137.34483197,15.616111845));
#65=CARTESIAN_POINT('',(-100.057326768,137.360575831,15.42686345));
#66=CARTESIAN_POINT('',(-200.9201305,137.390015404,15.072696625));
#67=CARTESIAN_POINT('',(-251.34930028,137.403687161,14.90812585));
#68=CARTESIAN_POINT('',(-301.785680365,137.416645457,14.752053632));
#69=CARTESIAN_POINT('',(0.785457906,137.519708358,20.184896474));
#70=CARTESIAN_POINT('',(-49.646625202,137.544169023,19.97401152));
#71=CARTESIAN_POINT('',(-100.065311824,137.566224127,19.783732951));
#72=CARTESIAN_POINT('',(-200.928906658,137.607465147,19.427524662));
#73=CARTESIAN_POINT('',(-251.357418285,137.626617505,19.261970051));
#74=CARTESIAN_POINT('',(-301.793784677,137.644770392,19.10492917));
#75=CARTESIAN_POINT('',(0.784873933,137.531331931,20.448325203));
#76=CARTESIAN_POINT('',(-49.647325639,137.556215605,20.237373468));
#77=CARTESIAN_POINT('',(-100.065794387,137.578652118,20.047032643));
#78=CARTESIAN_POINT('',(-200.92943703,137.620606337,19.690700981));
#79=CARTESIAN_POINT('',(-251.357908882,137.640089906,19.525086913));
#80=CARTESIAN_POINT('',(-301.794274447,137.658556719,19.367987493));
#81=CARTESIAN_POINT('',(0.78428996,137.542955503,20.711753932));
#82=CARTESIAN_POINT('',(-49.648026077,137.568262187,20.500735416));
#83=CARTESIAN_POINT('',(-100.06627695,137.591080109,20.310332334));
#84=CARTESIAN_POINT('',(-200.929967402,137.633747528,19.9538773));
#85=CARTESIAN_POINT('',(-251.35839948,137.653562306,19.788203776));
#86=CARTESIAN_POINT('',(-301.794764216,137.672343045,19.631045817));
#87=CARTESIAN_POINT('',(0.783705987,137.554579075,20.975182662));
#88=CARTESIAN_POINT('',(-49.648726514,137.580308768,20.764097364));
#89=CARTESIAN_POINT('',(-100.066759512,137.603508099,20.573632025));
#90=CARTESIAN_POINT('',(-200.930497773,137.646888718,20.217053619));
#91=CARTESIAN_POINT('',(-251.358890077,137.667034707,20.051320639));
#92=CARTESIAN_POINT('',(-301.795253986,137.686129372,19.89410414));
#93=(BOUNDED_SURFACE()
B_SPLINE_SURFACE(3,3,((#27,#28,#29,#30,#31,#32),(#33,#34,#35,#36,#37,#38),(#39,#40,#41,#42,#43,#44),(#45,#46,#47,#48,#49,#50),(#51,#52,#53,#54,#55,#56),(#57,#58,#59,#60,#61,#62),(#63,#64,#65,#66,#67,#68),(#69,#70,#71,#72,#73,#74),(#75,#76,#77,#78,#79,#80),(#81,#82,#83,#84,#85,#86),(#87,#88,#89,#90,#91,#92)),.UNSPECIFIED.,.F.,.F.,.U.)
B_SPLINE_SURFACE_WITH_KNOTS((4,1,1,2,3,4),(4,2,4),(0.,1.,1.312011047,1.624022093,4.147498192,4.3),(0.015420345,0.473762236,0.932104127),.UNSPECIFIED.)
GEOMETRIC_REPRESENTATION_ITEM()
RATIONAL_B_SPLINE_SURFACE(((1.,1.,1.,1.,1.,1.),(0.998336517,0.998214875,0.998098534,0.9978724,0.997762646,0.99765509),(0.998336517,0.998214875,0.998098534,0.9978724,0.997762646,0.99765509),(1.001880958,1.002018504,1.002150054,1.002405752,1.002529854,1.002651472),(1.001880958,1.002018504,1.002150054,1.002405752,1.002529854,1.002651472),(1.001880958,1.002018504,1.002150054,1.002405752,1.002529854,1.002651472),(1.001880958,1.002018504,1.002150054,1.002405752,1.002529854,1.002651472),(1.001880958,1.002018504,1.002150054,1.002405752,1.002529854,1.002651472),(1.001880958,1.002018504,1.002150054,1.002405752,1.002529854,1.002651472),(1.001880958,1.002018504,1.002150054,1.002405752,1.002529854,1.002651472),(1.001880958,1.002018504,1.002150054,1.002405752,1.002529854,1.002651472)))
REPRESENTATION_ITEM('')
SURFACE()
);
#94=OFFSET_SURFACE('',#93,-2.3,.F.);
#95=CARTESIAN_POINT('',(-241.554710182,139.147571057,3.000000273));
#96=VERTEX_POINT('',#95);
#97=CARTESIAN_POINT('',(-21.049859328,139.156584268,2.999834359));
#98=VERTEX_POINT('',#97);
#99=CARTESIAN_POINT('',(-241.554710182,139.147571057,2.999982414));
#100=CARTESIAN_POINT('',(-168.053093137,139.14757134,2.999982411));
#101=CARTESIAN_POINT('',(-94.551476214,139.150311001,2.999977409));
#102=CARTESIAN_POINT('',(-21.049859328,139.156584268,2.999834359));
#103=B_SPLINE_CURVE_WITH_KNOTS('',3,(#99,#100,#101,#102),.UNSPECIFIED.,.F.,.F.,(4,4),(0.040445308,0.260950159),.UNSPECIFIED.);
#104=EDGE_CURVE('',#96,#98,#103,.T.);
#105=ORIENTED_EDGE('',*,*,#104,.F.);
#106=CARTESIAN_POINT('',(-288.,139.147571057,2.854480087));
#107=VERTEX_POINT('',#106);
#108=CARTESIAN_POINT('',(-288.,139.147571057,2.854480087));
#109=CARTESIAN_POINT('',(-241.554710182,139.147571057,3.000018128));
#110=B_SPLINE_CURVE_WITH_KNOTS('',1,(#108,#109),.UNSPECIFIED.,.F.,.F.,(2,2),(0.,1.),.UNSPECIFIED.);
#111=EDGE_CURVE('',#107,#96,#110,.T.);
#112=ORIENTED_EDGE('',*,*,#111,.F.);
#113=CARTESIAN_POINT('',(-288.,139.288773564,0.000018128));
#114=VERTEX_POINT('',#113);
#115=CARTESIAN_POINT('',(-288.,139.288773564,0.000018128));
#116=CARTESIAN_POINT('',(-288.,139.194638436,0.94917714));
#117=CARTESIAN_POINT('',(-288.,139.147571058,1.900664465));
#118=CARTESIAN_POINT('',(-288.,139.147571057,2.854480087));
#119=B_SPLINE_CURVE_WITH_KNOTS('',3,(#115,#116,#117,#118),.UNSPECIFIED.,.F.,.F.,(4,4),(0.,0.002857952),.UNSPECIFIED.);
#120=EDGE_CURVE('',#114,#107,#119,.T.);
#121=ORIENTED_EDGE('',*,*,#120,.F.);
#122=CARTESIAN_POINT('',(-12.,139.361466596,0.000018128));
#123=VERTEX_POINT('',#122);
#124=CARTESIAN_POINT('',(-288.,139.288773564,0.000018128));
#125=CARTESIAN_POINT('',(-195.999999327,139.310349745,0.000018128));
#126=CARTESIAN_POINT('',(-103.999999294,139.334642733,0.000018128));
#127=CARTESIAN_POINT('',(-12.,139.361466596,0.000018128));
#128=B_SPLINE_CURVE_WITH_KNOTS('',3,(#124,#125,#126,#127),.UNSPECIFIED.,.F.,.F.,(4,4),(1.22409279,1.500092801),.UNSPECIFIED.);
#129=EDGE_CURVE('',#114,#123,#128,.T.);
#130=ORIENTED_EDGE('',*,*,#129,.T.);
#131=CARTESIAN_POINT('',(-12.,139.803885017,19.587207079));
#132=VERTEX_POINT('',#131);
#133=CARTESIAN_POINT('',(-12.,139.803885017,19.587207079));
#134=CARTESIAN_POINT('',(-12.,139.658431945,16.320753801));
#135=CARTESIAN_POINT('',(-12.,139.512976589,13.054300625));
#136=CARTESIAN_POINT('',(-12.,139.367518948,9.787847551));
#137=CARTESIAN_POINT('',(-12.,139.331154538,8.971234282));
#138=CARTESIAN_POINT('',(-12.,139.294789985,8.15462102));
#139=CARTESIAN_POINT('',(-12.,139.258425289,7.338007764));
#140=CARTESIAN_POINT('',(-12.,139.222060593,6.521394508));
#141=CARTESIAN_POINT('',(-12.,139.183125771,5.704474888));
#142=CARTESIAN_POINT('',(-12.,139.162247822,4.887979324));
#143=CARTESIAN_POINT('',(-12.,139.151808847,4.479731543));
#144=CARTESIAN_POINT('',(-12.,139.146075518,4.071643457));
#145=CARTESIAN_POINT('',(-12.,139.147921191,3.663812583));
#146=CARTESIAN_POINT('',(-12.,139.149766864,3.255981708));
#147=CARTESIAN_POINT('',(-12.,139.158906014,2.848398355));
#148=CARTESIAN_POINT('',(-12.,139.175329692,2.441062218));
#149=CARTESIAN_POINT('',(-12.,139.20817705,1.626389945));
#150=CARTESIAN_POINT('',(-12.,139.270134136,0.812705576));
#151=CARTESIAN_POINT('',(-12.,139.361466596,0.000018128));
#152=B_SPLINE_CURVE_WITH_KNOTS('',3,(#133,#134,#135,#136,#137,#138,#139,#140,#141,#142,#143,#144,#145,#146,#147,#148,#149,#150,#151),.UNSPECIFIED.,.F.,.F.,(4,3,3,3,3,3,4),(0.090450199,0.100259269,0.102711537,0.105163805,0.106389938,0.107616072,0.11006834),.UNSPECIFIED.);
#153=EDGE_CURVE('',#132,#123,#152,.T.);
#154=ORIENTED_EDGE('',*,*,#153,.F.);
#155=CARTESIAN_POINT('',(-20.,139.809981122,19.608267871));
#156=VERTEX_POINT('',#155);
#157=CARTESIAN_POINT('',(-12.,139.803885017,19.587207079));
#158=CARTESIAN_POINT('',(-14.666666616,139.805922021,19.594245158));
#159=CARTESIAN_POINT('',(-17.333333283,139.807954029,19.601265328));
#160=CARTESIAN_POINT('',(-20.,139.809981122,19.608267871));
#161=B_SPLINE_CURVE_WITH_KNOTS('',3,(#157,#158,#159,#160),.UNSPECIFIED.,.F.,.F.,(4,4),(0.044520137,0.052520167),.UNSPECIFIED.);
#162=EDGE_CURVE('',#132,#156,#161,.T.);
#163=ORIENTED_EDGE('',*,*,#162,.T.);
#164=CARTESIAN_POINT('',(-20.,139.338636464,9.082763847));
#165=VERTEX_POINT('',#164);
#166=CARTESIAN_POINT('',(-20.,139.338636464,9.082763847));
#167=CARTESIAN_POINT('',(-20.,139.495753994,12.59126507));
#168=CARTESIAN_POINT('',(-20.,139.65286888,16.099766411));
#169=CARTESIAN_POINT('',(-20.,139.809981122,19.608267871));
#170=B_SPLINE_CURVE_WITH_KNOTS('',3,(#166,#167,#168,#169),.UNSPECIFIED.,.F.,.F.,(4,4),(0.036629104,0.047217135),.UNSPECIFIED.);
#171=EDGE_CURVE('',#165,#156,#170,.T.);
#172=ORIENTED_EDGE('',*,*,#171,.F.);
#173=CARTESIAN_POINT('',(-19.994283638,139.156670305,3.000018128));
#174=VERTEX_POINT('',#173);
#175=CARTESIAN_POINT('',(-20.,139.338636464,9.082763847));
#176=CARTESIAN_POINT('',(-20.,139.315944841,8.576050252));
#177=CARTESIAN_POINT('',(-19.996710261,139.293252747,8.069349039));
#178=CARTESIAN_POINT('',(-19.994055753,139.27056086,7.562645733));
#179=CARTESIAN_POINT('',(-19.991401244,139.247868974,7.055942427));
#180=CARTESIAN_POINT('',(-19.989524269,139.224452853,6.549257472));
#181=CARTESIAN_POINT('',(-19.989230038,139.203466102,6.042510654));
#182=CARTESIAN_POINT('',(-19.988935807,139.182479351,5.535763836));
#183=CARTESIAN_POINT('',(-19.989950372,139.16443648,5.028942099));
#184=CARTESIAN_POINT('',(-19.991120926,139.154853595,4.521905321));
#185=CARTESIAN_POINT('',(-19.99229148,139.145270709,4.014868543));
#186=CARTESIAN_POINT('',(-19.993465843,139.14492288,3.507597036));
#187=CARTESIAN_POINT('',(-19.994283638,139.156670305,3.000018128));
#188=B_SPLINE_CURVE_WITH_KNOTS('',3,(#175,#176,#177,#178,#179,#180,#181,#182,#183,#184,#185,#186,#187),.UNSPECIFIED.,.F.,.F.,(4,3,3,3,4),(0.,0.001521653,0.003043307,0.00456496,0.006086613),.UNSPECIFIED.);
#189=EDGE_CURVE('',#165,#174,#188,.T.);
#190=ORIENTED_EDGE('',*,*,#189,.T.);
#191=CARTESIAN_POINT('',(-21.049859328,139.156580033,3.000018128));
#192=VERTEX_POINT('',#191);
#193=CARTESIAN_POINT('',(-21.049859328,139.156580033,3.000018128));
#194=CARTESIAN_POINT('',(-20.698000765,139.156610042,3.000018128));
#195=CARTESIAN_POINT('',(-20.346142201,139.156640132,3.000018128));
#196=CARTESIAN_POINT('',(-19.994283638,139.156670305,3.000018128));
#197=B_SPLINE_CURVE_WITH_KNOTS('',3,(#193,#194,#195,#196),.UNSPECIFIED.,.F.,.F.,(4,4),(1.231224488,1.232280064),.UNSPECIFIED.);
#198=EDGE_CURVE('',#192,#174,#197,.T.);
#199=ORIENTED_EDGE('',*,*,#198,.F.);
#200=CARTESIAN_POINT('',(-21.049859328,139.156580033,3.000018128));
#201=CARTESIAN_POINT('',(-21.049859328,139.156581445,2.999956872));
#202=CARTESIAN_POINT('',(-21.049859328,139.156582856,2.999895616));
#203=CARTESIAN_POINT('',(-21.049859328,139.156584268,2.999834359));
#204=B_SPLINE_CURVE_WITH_KNOTS('',3,(#200,#201,#202,#203),.UNSPECIFIED.,.F.,.F.,(4,4),(0.001512505,0.001512689),.UNSPECIFIED.);
#205=EDGE_CURVE('',#192,#98,#204,.T.);
#206=ORIENTED_EDGE('',*,*,#205,.T.);
#207=EDGE_LOOP('',(#105,#112,#121,#130,#154,#163,#172,#190,#199,#206));
#208=FACE_BOUND('',#207,.T.);
#209=ADVANCED_FACE('',(#208),#94,.T.);
#210=CARTESIAN_POINT('',(-309.99999435,176.965431988,4.352763072));
#211=DIRECTION('',(0.99999995,0.000315372,0.));
#212=DIRECTION('',(-0.000315372,0.99999995,0.));
#213=AXIS2_PLACEMENT_3D('',#210,#211,#212);
#214=CYLINDRICAL_SURFACE('',#213,40.25);
#215=CARTESIAN_POINT('',(-280.,139.147571057,18.106175224));
#216=VERTEX_POINT('',#215);
#217=CARTESIAN_POINT('',(-288.,139.147571057,18.113112424));
#218=VERTEX_POINT('',#217);
#219=CARTESIAN_POINT('',(-120225.08136036,139.147571057,4.352763072));
#220=DIRECTION('',(0.,-1.,0.));
#221=DIRECTION('',(1.,0.,0.));
#222=AXIS2_PLACEMENT_3D('',#219,#220,#221);
#223=ELLIPSE('',#222,127627.056267944,40.25);
#224=EDGE_CURVE('',#216,#218,#223,.T.);
#225=ORIENTED_EDGE('',*,*,#224,.F.);
#226=CARTESIAN_POINT('',(-280.,165.729796917,43.000018128));
#227=VERTEX_POINT('',#226);
#228=CARTESIAN_POINT('',(-280.,176.974893147,4.352763072));
#229=DIRECTION('',(-1.,-0.,-0.));
#230=DIRECTION('',(-0.,1.,0.));
#231=AXIS2_PLACEMENT_3D('',#228,#229,#230);
#232=ELLIPSE('',#231,40.250002002,40.25);
#233=EDGE_CURVE('',#216,#227,#232,.T.);
#234=ORIENTED_EDGE('',*,*,#233,.T.);
#235=CARTESIAN_POINT('',(-288.,165.727273941,43.000018128));
#236=VERTEX_POINT('',#235);
#237=CARTESIAN_POINT('',(-280.,165.729796917,43.000018128));
#238=DIRECTION('',(-0.99999995,-0.000315372,-0.));
#239=VECTOR('',#238,8.000000398);
#240=LINE('',#237,#239);
#241=EDGE_CURVE('',#227,#236,#240,.T.);
#242=ORIENTED_EDGE('',*,*,#241,.T.);
#243=CARTESIAN_POINT('',(-288.,176.972370171,4.352763072));
#244=DIRECTION('',(1.,0.,-0.));
#245=DIRECTION('',(-0.,1.,0.));
#246=AXIS2_PLACEMENT_3D('',#243,#244,#245);
#247=ELLIPSE('',#246,40.250002002,40.25);
#248=EDGE_CURVE('',#236,#218,#247,.T.);
#249=ORIENTED_EDGE('',*,*,#248,.T.);
#250=EDGE_LOOP('',(#225,#234,#242,#249));
#251=FACE_BOUND('',#250,.T.);
#252=ADVANCED_FACE('',(#251),#214,.T.);
#253=CARTESIAN_POINT('',(-280.,154.499084718,48.000018128));
#254=DIRECTION('',(1.,0.,0.));
#255=DIRECTION('',(0.,-1.,0.));
#256=AXIS2_PLACEMENT_3D('',#253,#254,#255);
#257=PLANE('',#256);
#258=ORIENTED_EDGE('',*,*,#233,.F.);
#259=CARTESIAN_POINT('',(-280.,139.147571057,7.171429555));
#260=VERTEX_POINT('',#259);
#261=CARTESIAN_POINT('',(-280.,139.147571057,18.106175224));
#262=DIRECTION('',(0.,0.,-1.));
#263=VECTOR('',#262,10.934745669);
#264=LINE('',#261,#263);
#265=EDGE_CURVE('',#216,#260,#264,.T.);
#266=ORIENTED_EDGE('',*,*,#265,.T.);
#267=CARTESIAN_POINT('',(-280.,176.999877122,42.309869853));
#268=VERTEX_POINT('',#267);
#269=CARTESIAN_POINT('',(-280.,176.999877122,4.352763072));
#270=DIRECTION('',(-1.,-0.,0.));
#271=DIRECTION('',(0.,0.,1.));
#272=AXIS2_PLACEMENT_3D('',#269,#270,#271);
#273=CIRCLE('',#272,37.957106781);
#274=EDGE_CURVE('',#260,#268,#273,.T.);
#275=ORIENTED_EDGE('',*,*,#274,.T.);
#276=CARTESIAN_POINT('',(-280.,214.932853241,2.999515889));
#277=VERTEX_POINT('',#276);
#278=CARTESIAN_POINT('',(-280.,176.999877122,4.352763072));
#279=DIRECTION('',(-1.,-0.,0.));
#280=DIRECTION('',(0.,0.,1.));
#281=AXIS2_PLACEMENT_3D('',#278,#279,#280);
#282=CIRCLE('',#281,37.957106781);
#283=EDGE_CURVE('',#268,#277,#282,.T.);
#284=ORIENTED_EDGE('',*,*,#283,.T.);
#285=CARTESIAN_POINT('',(-280.,214.952392687,2.999982414));
#286=VERTEX_POINT('',#285);
#287=CARTESIAN_POINT('',(-280.,214.959499468,2.292911347));
#288=DIRECTION('',(1.,0.,0.));
#289=DIRECTION('',(-0.,1.,0.));
#290=AXIS2_PLACEMENT_3D('',#287,#288,#289);
#291=CIRCLE('',#290,0.707106781);
#292=EDGE_CURVE('',#286,#277,#291,.T.);
#293=ORIENTED_EDGE('',*,*,#292,.F.);
#294=CARTESIAN_POINT('',(-280.,214.952392687,0.000018128));
#295=VERTEX_POINT('',#294);
#296=CARTESIAN_POINT('',(-280.,214.952392687,0.000018128));
#297=DIRECTION('',(0.,0.,1.));
#298=VECTOR('',#297,2.999964286);
#299=LINE('',#296,#298);
#300=EDGE_CURVE('',#295,#286,#299,.T.);
#301=ORIENTED_EDGE('',*,*,#300,.F.);
#302=CARTESIAN_POINT('',(-280.,216.988844098,0.000018128));
#303=VERTEX_POINT('',#302);
#304=CARTESIAN_POINT('',(-280.,216.988844098,0.000018128));
#305=DIRECTION('',(0.,-1.,0.));
#306=VECTOR('',#305,2.03645141);
#307=LINE('',#304,#306);
#308=EDGE_CURVE('',#303,#295,#307,.T.);
#309=ORIENTED_EDGE('',*,*,#308,.F.);
#310=CARTESIAN_POINT('',(-280.,216.99853652,0.090060823));
#311=VERTEX_POINT('',#310);
#312=CARTESIAN_POINT('',(-280.,176.974893147,4.352763072));
#313=DIRECTION('',(-1.,-0.,-0.));
#314=DIRECTION('',(-0.,1.,0.));
#315=AXIS2_PLACEMENT_3D('',#312,#313,#314);
#316=ELLIPSE('',#315,40.250002002,40.25);
#317=EDGE_CURVE('',#311,#303,#316,.T.);
#318=ORIENTED_EDGE('',*,*,#317,.F.);
#319=CARTESIAN_POINT('',(-280.,216.99853652,8.615465321));
#320=VERTEX_POINT('',#319);
#321=CARTESIAN_POINT('',(-280.,216.99853652,8.615465321));
#322=DIRECTION('',(0.,0.,-1.));
#323=VECTOR('',#322,8.525404497);
#324=LINE('',#321,#323);
#325=EDGE_CURVE('',#320,#311,#324,.T.);
#326=ORIENTED_EDGE('',*,*,#325,.F.);
#327=CARTESIAN_POINT('',(-280.,188.219989376,43.000018128));
#328=VERTEX_POINT('',#327);
#329=CARTESIAN_POINT('',(-280.,176.974893147,4.352763072));
#330=DIRECTION('',(-1.,-0.,-0.));
#331=DIRECTION('',(-0.,1.,0.));
#332=AXIS2_PLACEMENT_3D('',#329,#330,#331);
#333=ELLIPSE('',#332,40.250002002,40.25);
#334=EDGE_CURVE('',#328,#320,#333,.T.);
#335=ORIENTED_EDGE('',*,*,#334,.F.);
#336=CARTESIAN_POINT('',(-280.,188.219989376,43.000018128));
#337=DIRECTION('',(0.,-1.,0.));
#338=VECTOR('',#337,22.490192459);
#339=LINE('',#336,#338);
#340=EDGE_CURVE('',#328,#227,#339,.T.);
#341=ORIENTED_EDGE('',*,*,#340,.T.);
#342=EDGE_LOOP('',(#258,#266,#275,#284,#293,#301,#309,#318,#326,#335,#341));
#343=FACE_BOUND('',#342,.T.);
#344=ADVANCED_FACE('',(#343),#257,.T.);
#345=CARTESIAN_POINT('',(-288.,157.000008646,48.000018128));
#346=DIRECTION('',(-1.,-0.,0.));
#347=DIRECTION('',(-0.,1.,0.));
#348=AXIS2_PLACEMENT_3D('',#345,#346,#347);
#349=PLANE('',#348);
#350=CARTESIAN_POINT('',(-288.,139.147571057,18.113112424));
#351=DIRECTION('',(0.,0.,-1.));
#352=VECTOR('',#351,15.258632337);
#353=LINE('',#350,#352);
#354=EDGE_CURVE('',#218,#107,#353,.T.);
#355=ORIENTED_EDGE('',*,*,#354,.F.);
#356=ORIENTED_EDGE('',*,*,#248,.F.);
#357=CARTESIAN_POINT('',(-288.,188.2174664,43.000018128));
#358=VERTEX_POINT('',#357);
#359=CARTESIAN_POINT('',(-288.,165.727273941,43.000018128));
#360=DIRECTION('',(-0.,1.,0.));
#361=VECTOR('',#360,22.490192459);
#362=LINE('',#359,#361);
#363=EDGE_CURVE('',#236,#358,#362,.T.);
#364=ORIENTED_EDGE('',*,*,#363,.T.);
#365=CARTESIAN_POINT('',(-288.,217.000000168,8.577866165));
#366=VERTEX_POINT('',#365);
#367=CARTESIAN_POINT('',(-288.,176.972370171,4.352763072));
#368=DIRECTION('',(1.,0.,-0.));
#369=DIRECTION('',(-0.,1.,0.));
#370=AXIS2_PLACEMENT_3D('',#367,#368,#369);
#371=ELLIPSE('',#370,40.250002002,40.25);
#372=EDGE_CURVE('',#366,#358,#371,.T.);
#373=ORIENTED_EDGE('',*,*,#372,.F.);
#374=CARTESIAN_POINT('',(-288.,217.000000168,0.127659979));
#375=VERTEX_POINT('',#374);
#376=CARTESIAN_POINT('',(-288.,217.000000168,8.577866165));
#377=DIRECTION('',(0.,0.,-1.));
#378=VECTOR('',#377,8.450206186);
#379=LINE('',#376,#378);
#380=EDGE_CURVE('',#366,#375,#379,.T.);
#381=ORIENTED_EDGE('',*,*,#380,.T.);
#382=CARTESIAN_POINT('',(-288.,216.986321121,0.000018128));
#383=VERTEX_POINT('',#382);
#384=CARTESIAN_POINT('',(-288.,176.972370171,4.352763072));
#385=DIRECTION('',(1.,0.,-0.));
#386=DIRECTION('',(-0.,1.,0.));
#387=AXIS2_PLACEMENT_3D('',#384,#385,#386);
#388=ELLIPSE('',#387,40.250002002,40.25);
#389=EDGE_CURVE('',#383,#375,#388,.T.);
#390=ORIENTED_EDGE('',*,*,#389,.F.);
#391=CARTESIAN_POINT('',(-288.,139.288773564,0.000018128));
#392=DIRECTION('',(-0.,1.,0.));
#393=VECTOR('',#392,77.697547557);
#394=LINE('',#391,#393);
#395=EDGE_CURVE('',#114,#383,#394,.T.);
#396=ORIENTED_EDGE('',*,*,#395,.F.);
#397=ORIENTED_EDGE('',*,*,#120,.T.);
#398=EDGE_LOOP('',(#355,#356,#364,#373,#381,#390,#396,#397));
#399=FACE_BOUND('',#398,.T.);
#400=ADVANCED_FACE('',(#399),#349,.T.);
#401=CARTESIAN_POINT('',(-309.99999435,176.965431988,4.352763072));
#402=DIRECTION('',(0.99999995,0.000315372,0.));
#403=DIRECTION('',(-0.000315372,0.99999995,0.));
#404=AXIS2_PLACEMENT_3D('',#401,#402,#403);
#405=CYLINDRICAL_SURFACE('',#404,40.25);
#406=ORIENTED_EDGE('',*,*,#162,.F.);
#407=CARTESIAN_POINT('',(-12.,165.814316617,43.000018128));
#408=VERTEX_POINT('',#407);
#409=CARTESIAN_POINT('',(-12.,177.059412847,4.352763072));
#410=DIRECTION('',(-1.,-0.,-0.));
#411=DIRECTION('',(-0.,1.,0.));
#412=AXIS2_PLACEMENT_3D('',#409,#410,#411);
#413=ELLIPSE('',#412,40.250002002,40.25);
#414=EDGE_CURVE('',#132,#408,#413,.T.);
#415=ORIENTED_EDGE('',*,*,#414,.T.);
#416=CARTESIAN_POINT('',(-20.,165.811793641,43.000018128));
#417=VERTEX_POINT('',#416);
#418=CARTESIAN_POINT('',(-12.,165.814316617,43.000018128));
#419=DIRECTION('',(-0.99999995,-0.000315372,-0.));
#420=VECTOR('',#419,8.000000398);
#421=LINE('',#418,#420);
#422=EDGE_CURVE('',#408,#417,#421,.T.);
#423=ORIENTED_EDGE('',*,*,#422,.T.);
#424=CARTESIAN_POINT('',(-20.,177.056889871,4.352763072));
#425=DIRECTION('',(1.,0.,-0.));
#426=DIRECTION('',(-0.,1.,0.));
#427=AXIS2_PLACEMENT_3D('',#424,#425,#426);
#428=ELLIPSE('',#427,40.250002002,40.25);
#429=EDGE_CURVE('',#417,#156,#428,.T.);
#430=ORIENTED_EDGE('',*,*,#429,.T.);
#431=EDGE_LOOP('',(#406,#415,#423,#430));
#432=FACE_BOUND('',#431,.T.);
#433=ADVANCED_FACE('',(#432),#405,.T.);
#434=CARTESIAN_POINT('',(-12.,154.499084718,48.000018128));
#435=DIRECTION('',(1.,0.,0.));
#436=DIRECTION('',(0.,-1.,0.));
#437=AXIS2_PLACEMENT_3D('',#434,#435,#436);
#438=PLANE('',#437);
#439=ORIENTED_EDGE('',*,*,#414,.F.);
#440=ORIENTED_EDGE('',*,*,#153,.T.);
#441=CARTESIAN_POINT('',(-12.,214.998536486,0.000018128));
#442=VERTEX_POINT('',#441);
#443=CARTESIAN_POINT('',(-12.,214.998536486,0.000018128));
#444=DIRECTION('',(0.,-1.,0.));
#445=VECTOR('',#444,75.637069891);
#446=LINE('',#443,#445);
#447=EDGE_CURVE('',#442,#123,#446,.T.);
#448=ORIENTED_EDGE('',*,*,#447,.F.);
#449=CARTESIAN_POINT('',(-12.,214.998536486,17.794695248));
#450=VERTEX_POINT('',#449);
#451=CARTESIAN_POINT('',(-12.,214.998536486,17.794695248));
#452=DIRECTION('',(0.,0.,-1.));
#453=VECTOR('',#452,17.79467712);
#454=LINE('',#451,#453);
#455=EDGE_CURVE('',#450,#442,#454,.T.);
#456=ORIENTED_EDGE('',*,*,#455,.F.);
#457=CARTESIAN_POINT('',(-12.,188.304509077,43.000018128));
#458=VERTEX_POINT('',#457);
#459=CARTESIAN_POINT('',(-12.,177.059412847,4.352763072));
#460=DIRECTION('',(-1.,-0.,-0.));
#461=DIRECTION('',(-0.,1.,0.));
#462=AXIS2_PLACEMENT_3D('',#459,#460,#461);
#463=ELLIPSE('',#462,40.250002002,40.25);
#464=EDGE_CURVE('',#458,#450,#463,.T.);
#465=ORIENTED_EDGE('',*,*,#464,.F.);
#466=CARTESIAN_POINT('',(-12.,188.304509077,43.000018128));
#467=DIRECTION('',(0.,-1.,0.));
#468=VECTOR('',#467,22.490192459);
#469=LINE('',#466,#468);
#470=EDGE_CURVE('',#458,#408,#469,.T.);
#471=ORIENTED_EDGE('',*,*,#470,.T.);
#472=EDGE_LOOP('',(#439,#440,#448,#456,#465,#471));
#473=FACE_BOUND('',#472,.T.);
#474=ADVANCED_FACE('',(#473),#438,.T.);
#475=CARTESIAN_POINT('',(1462.,737.000017794,0.000018128));
#476=DIRECTION('',(0.,0.,1.));
#477=DIRECTION('',(-1.,-0.,0.));
#478=AXIS2_PLACEMENT_3D('',#475,#476,#477);
#479=PLANE('',#478);
#480=ORIENTED_EDGE('',*,*,#129,.F.);
#481=ORIENTED_EDGE('',*,*,#395,.T.);
#482=CARTESIAN_POINT('',(-288.,216.986321121,0.000018128));
#483=DIRECTION('',(0.99999995,0.000315372,0.));
#484=VECTOR('',#483,8.000000398);
#485=LINE('',#482,#484);
#486=EDGE_CURVE('',#383,#303,#485,.T.);
#487=ORIENTED_EDGE('',*,*,#486,.T.);
#488=ORIENTED_EDGE('',*,*,#308,.T.);
#489=CARTESIAN_POINT('',(-20.,214.952392687,0.000018128));
#490=VERTEX_POINT('',#489);
#491=CARTESIAN_POINT('',(-20.,214.952392687,0.000018128));
#492=DIRECTION('',(-1.,0.,0.));
#493=VECTOR('',#492,260.);
#494=LINE('',#491,#493);
#495=EDGE_CURVE('',#490,#295,#494,.T.);
#496=ORIENTED_EDGE('',*,*,#495,.F.);
#497=CARTESIAN_POINT('',(-20.,215.000000134,0.000018128));
#498=VERTEX_POINT('',#497);
#499=CARTESIAN_POINT('',(-20.,214.952392687,0.000018128));
#500=DIRECTION('',(-0.,1.,0.));
#501=VECTOR('',#500,0.047607447);
#502=LINE('',#499,#501);
#503=EDGE_CURVE('',#490,#498,#502,.T.);
#504=ORIENTED_EDGE('',*,*,#503,.T.);
#505=CARTESIAN_POINT('',(-12.,214.998536486,0.000018128));
#506=DIRECTION('',(-0.999999983,0.000182956,0.));
#507=VECTOR('',#506,8.000000134);
#508=LINE('',#505,#507);
#509=EDGE_CURVE('',#442,#498,#508,.T.);
#510=ORIENTED_EDGE('',*,*,#509,.F.);
#511=ORIENTED_EDGE('',*,*,#447,.T.);
#512=EDGE_LOOP('',(#480,#481,#487,#488,#496,#504,#510,#511));
#513=FACE_BOUND('',#512,.T.);
#514=ADVANCED_FACE('',(#513),#479,.F.);
#515=CARTESIAN_POINT('',(-20.,157.000008646,48.000018128));
#516=DIRECTION('',(-1.,-0.,0.));
#517=DIRECTION('',(-0.,1.,0.));
#518=AXIS2_PLACEMENT_3D('',#515,#516,#517);
#519=PLANE('',#518);
#520=CARTESIAN_POINT('',(-20.,214.932871155,3.000018128));
#521=VERTEX_POINT('',#520);
#522=CARTESIAN_POINT('',(-20.,176.999877122,4.352763072));
#523=DIRECTION('',(1.,0.,0.));
#524=DIRECTION('',(0.,0.,-1.));
#525=AXIS2_PLACEMENT_3D('',#522,#523,#524);
#526=CIRCLE('',#525,37.957106781);
#527=EDGE_CURVE('',#521,#165,#526,.T.);
#528=ORIENTED_EDGE('',*,*,#527,.T.);
#529=ORIENTED_EDGE('',*,*,#171,.T.);
#530=ORIENTED_EDGE('',*,*,#429,.F.);
#531=CARTESIAN_POINT('',(-20.,188.3019861,43.000018128));
#532=VERTEX_POINT('',#531);
#533=CARTESIAN_POINT('',(-20.,165.811793641,43.000018128));
#534=DIRECTION('',(-0.,1.,0.));
#535=VECTOR('',#534,22.490192459);
#536=LINE('',#533,#535);
#537=EDGE_CURVE('',#417,#532,#536,.T.);
#538=ORIENTED_EDGE('',*,*,#537,.T.);
#539=CARTESIAN_POINT('',(-20.,215.000000134,17.783437914));
#540=VERTEX_POINT('',#539);
#541=CARTESIAN_POINT('',(-20.,177.056889871,4.352763072));
#542=DIRECTION('',(1.,0.,-0.));
#543=DIRECTION('',(-0.,1.,0.));
#544=AXIS2_PLACEMENT_3D('',#541,#542,#543);
#545=ELLIPSE('',#544,40.250002002,40.25);
#546=EDGE_CURVE('',#540,#532,#545,.T.);
#547=ORIENTED_EDGE('',*,*,#546,.F.);
#548=CARTESIAN_POINT('',(-20.,215.000000134,17.783437914));
#549=DIRECTION('',(0.,0.,-1.));
#550=VECTOR('',#549,17.783419786);
#551=LINE('',#548,#550);
#552=EDGE_CURVE('',#540,#498,#551,.T.);
#553=ORIENTED_EDGE('',*,*,#552,.T.);
#554=ORIENTED_EDGE('',*,*,#503,.F.);
#555=CARTESIAN_POINT('',(-20.,214.952392687,3.000018128));
#556=VERTEX_POINT('',#555);
#557=CARTESIAN_POINT('',(-20.,214.952392687,0.000018128));
#558=DIRECTION('',(0.,0.,1.));
#559=VECTOR('',#558,3.);
#560=LINE('',#557,#559);
#561=EDGE_CURVE('',#490,#556,#560,.T.);
#562=ORIENTED_EDGE('',*,*,#561,.T.);
#563=CARTESIAN_POINT('',(-20.,214.932871155,3.000018128));
#564=DIRECTION('',(-0.,1.,0.));
#565=VECTOR('',#564,0.019521532);
#566=LINE('',#563,#565);
#567=EDGE_CURVE('',#521,#556,#566,.T.);
#568=ORIENTED_EDGE('',*,*,#567,.F.);
#569=EDGE_LOOP('',(#528,#529,#530,#538,#547,#553,#554,#562,#568));
#570=FACE_BOUND('',#569,.T.);
#571=ADVANCED_FACE('',(#570),#519,.T.);
#572=CARTESIAN_POINT('',(-100.049877289,214.959499468,2.292911347));
#573=DIRECTION('',(-1.,0.,0.));
#574=DIRECTION('',(-0.,-1.,0.));
#575=AXIS2_PLACEMENT_3D('',#572,#573,#574);
#576=CYLINDRICAL_SURFACE('',#575,0.707106781);
#577=CARTESIAN_POINT('',(-21.049859328,214.252392687,2.292911347));
#578=VERTEX_POINT('',#577);
#579=CARTESIAN_POINT('',(-21.049859328,214.952392687,2.999982414));
#580=VERTEX_POINT('',#579);
#581=CARTESIAN_POINT('',(-21.049859328,214.959499468,2.292911347));
#582=DIRECTION('',(-1.,-0.,0.));
#583=DIRECTION('',(0.,-1.,0.));
#584=AXIS2_PLACEMENT_3D('',#581,#582,#583);
#585=CIRCLE('',#584,0.707106781);
#586=EDGE_CURVE('',#578,#580,#585,.T.);
#587=ORIENTED_EDGE('',*,*,#586,.T.);
#588=CARTESIAN_POINT('',(-21.049859328,214.952392687,2.999982414));
#589=DIRECTION('',(-1.,0.,0.));
#590=VECTOR('',#589,258.950140672);
#591=LINE('',#588,#590);
#592=EDGE_CURVE('',#580,#286,#591,.T.);
#593=ORIENTED_EDGE('',*,*,#592,.T.);
#594=ORIENTED_EDGE('',*,*,#292,.T.);
#595=CARTESIAN_POINT('',(-280.423375751,214.252392687,2.292911347));
#596=VERTEX_POINT('',#595);
#597=CARTESIAN_POINT('',(-280.,214.932853241,2.999515889));
#598=CARTESIAN_POINT('',(-280.000000019,214.833980964,2.995787387));
#599=CARTESIAN_POINT('',(-280.02135013,214.737784847,2.970670058));
#600=CARTESIAN_POINT('',(-280.055924703,214.654535424,2.930874458));
#601=CARTESIAN_POINT('',(-280.073211989,214.612910712,2.910976658));
#602=CARTESIAN_POINT('',(-280.093907055,214.573961828,2.887273471));
#603=CARTESIAN_POINT('',(-280.116281541,214.538875901,2.861308932));
#604=CARTESIAN_POINT('',(-280.138656027,214.503789974,2.835344393));
#605=CARTESIAN_POINT('',(-280.162917679,214.472059554,2.806903044));
#606=CARTESIAN_POINT('',(-280.188441183,214.443191549,2.776053284));
#607=CARTESIAN_POINT('',(-280.239488192,214.385455537,2.714353765));
#608=CARTESIAN_POINT('',(-280.294973217,214.340630439,2.6456254));
#609=CARTESIAN_POINT('',(-280.344191626,214.307362948,2.566257205));
#610=CARTESIAN_POINT('',(-280.368800831,214.290729202,2.526573108));
#611=CARTESIAN_POINT('',(-280.391548482,214.277198336,2.484447082));
#612=CARTESIAN_POINT('',(-280.40715957,214.267507046,2.438329667));
#613=CARTESIAN_POINT('',(-280.422770657,214.257815757,2.392212252));
#614=CARTESIAN_POINT('',(-280.429620654,214.25239273,2.342466494));
#615=CARTESIAN_POINT('',(-280.42337575,214.252392687,2.292911347));
#616=B_SPLINE_CURVE_WITH_KNOTS('',3,(#597,#598,#599,#600,#601,#602,#603,#604,#605,#606,#607,#608,#609,#610,#611,#612,#613,#614,#615),.UNSPECIFIED.,.F.,.F.,(4,3,3,3,3,3,4),(0.000024021,0.000318037,0.000465046,0.000612054,0.000906071,0.001053079,0.001200087),.UNSPECIFIED.);
#617=EDGE_CURVE('',#277,#596,#616,.T.);
#618=ORIENTED_EDGE('',*,*,#617,.T.);
#619=CARTESIAN_POINT('',(-21.049859328,214.252392687,2.292911347));
#620=DIRECTION('',(-1.,0.,0.));
#621=VECTOR('',#620,259.373516423);
#622=LINE('',#619,#621);
#623=EDGE_CURVE('',#578,#596,#622,.T.);
#624=ORIENTED_EDGE('',*,*,#623,.F.);
#625=EDGE_LOOP('',(#587,#593,#594,#618,#624));
#626=FACE_BOUND('',#625,.T.);
#627=ADVANCED_FACE('',(#626),#576,.T.);
#628=CARTESIAN_POINT('',(-282.992681759,216.999084049,48.000018128));
#629=DIRECTION('',(-0.000182956,-0.999999983,0.));
#630=DIRECTION('',(-0.999999983,0.000182956,0.));
#631=AXIS2_PLACEMENT_3D('',#628,#629,#630);
#632=PLANE('',#631);
#633=ORIENTED_EDGE('',*,*,#325,.T.);
#634=CARTESIAN_POINT('',(80035.859949499,202.304267797,4.352763072));
#635=DIRECTION('',(0.000182956,0.999999983,-0.));
#636=DIRECTION('',(0.999999983,-0.000182956,0.));
#637=AXIS2_PLACEMENT_3D('',#634,#635,#636);
#638=ELLIPSE('',#637,80770.097506907,40.25);
#639=EDGE_CURVE('',#311,#375,#638,.T.);
#640=ORIENTED_EDGE('',*,*,#639,.T.);
#641=ORIENTED_EDGE('',*,*,#380,.F.);
#642=CARTESIAN_POINT('',(80035.859949499,202.304267797,4.352763072));
#643=DIRECTION('',(0.000182956,0.999999983,-0.));
#644=DIRECTION('',(0.999999983,-0.000182956,0.));
#645=AXIS2_PLACEMENT_3D('',#642,#643,#644);
#646=ELLIPSE('',#645,80770.097506907,40.25);
#647=EDGE_CURVE('',#366,#320,#646,.T.);
#648=ORIENTED_EDGE('',*,*,#647,.T.);
#649=EDGE_LOOP('',(#633,#640,#641,#648));
#650=FACE_BOUND('',#649,.T.);
#651=ADVANCED_FACE('',(#650),#632,.F.);
#652=CARTESIAN_POINT('',(-100.049877289,139.147571057,0.000018128));
#653=DIRECTION('',(0.,-1.,0.));
#654=DIRECTION('',(1.,0.,0.));
#655=AXIS2_PLACEMENT_3D('',#652,#653,#654);
#656=PLANE('',#655);
#657=ORIENTED_EDGE('',*,*,#111,.T.);
#658=CARTESIAN_POINT('',(-280.004612693,139.147571057,2.999982414));
#659=VERTEX_POINT('',#658);
#660=CARTESIAN_POINT('',(-241.554710182,139.147571057,2.999982414));
#661=DIRECTION('',(-1.,-0.,-0.));
#662=VECTOR('',#661,38.449902511);
#663=LINE('',#660,#662);
#664=EDGE_CURVE('',#96,#659,#663,.T.);
#665=ORIENTED_EDGE('',*,*,#664,.T.);
#666=CARTESIAN_POINT('',(-280.,139.147571057,7.171429555));
#667=CARTESIAN_POINT('',(-280.,139.147571057,6.476183348));
#668=CARTESIAN_POINT('',(-280.004904979,139.147571057,5.780950684));
#669=CARTESIAN_POINT('',(-280.006782794,139.147571057,5.085709662));
#670=CARTESIAN_POINT('',(-280.00866061,139.147571057,4.39046864));
#671=CARTESIAN_POINT('',(-280.007462886,139.147571057,3.695220901));
#672=CARTESIAN_POINT('',(-280.004612693,139.147571057,2.999982414));
#673=B_SPLINE_CURVE_WITH_KNOTS('',3,(#666,#667,#668,#669,#670,#671,#672),.UNSPECIFIED.,.F.,.F.,(4,3,4),(0.002899648,0.004985307,0.007070966),.UNSPECIFIED.);
#674=EDGE_CURVE('',#260,#659,#673,.T.);
#675=ORIENTED_EDGE('',*,*,#674,.F.);
#676=ORIENTED_EDGE('',*,*,#265,.F.);
#677=ORIENTED_EDGE('',*,*,#224,.T.);
#678=ORIENTED_EDGE('',*,*,#354,.T.);
#679=EDGE_LOOP('',(#657,#665,#675,#676,#677,#678));
#680=FACE_BOUND('',#679,.T.);
#681=ADVANCED_FACE('',(#680),#656,.T.);
#682=CARTESIAN_POINT('',(-14.993047671,214.999084082,48.000018128));
#683=DIRECTION('',(-0.000182956,-0.999999983,0.));
#684=DIRECTION('',(-0.999999983,0.000182956,0.));
#685=AXIS2_PLACEMENT_3D('',#682,#683,#684);
#686=PLANE('',#685);
#687=ORIENTED_EDGE('',*,*,#552,.F.);
#688=CARTESIAN_POINT('',(76120.832596574,201.069577729,4.352763072));
#689=DIRECTION('',(0.000182956,0.999999983,-0.));
#690=DIRECTION('',(0.999999983,-0.000182956,0.));
#691=AXIS2_PLACEMENT_3D('',#688,#689,#690);
#692=ELLIPSE('',#691,80770.097506907,40.25);
#693=EDGE_CURVE('',#540,#450,#692,.T.);
#694=ORIENTED_EDGE('',*,*,#693,.T.);
#695=ORIENTED_EDGE('',*,*,#455,.T.);
#696=ORIENTED_EDGE('',*,*,#509,.T.);
#697=EDGE_LOOP('',(#687,#694,#695,#696));
#698=FACE_BOUND('',#697,.T.);
#699=ADVANCED_FACE('',(#698),#686,.F.);
#700=CARTESIAN_POINT('',(-280.,154.499084718,48.000018128));
#701=DIRECTION('',(1.,0.,0.));
#702=DIRECTION('',(0.,-1.,0.));
#703=AXIS2_PLACEMENT_3D('',#700,#701,#702);
#704=PLANE('',#703);
#705=CARTESIAN_POINT('',(-280.,141.554677838,3.000018128));
#706=VERTEX_POINT('',#705);
#707=CARTESIAN_POINT('',(-280.,141.482875032,2.996363091));
#708=VERTEX_POINT('',#707);
#709=CARTESIAN_POINT('',(-280.,141.554677838,2.292911347));
#710=DIRECTION('',(1.,0.,0.));
#711=DIRECTION('',(-0.,1.,0.));
#712=AXIS2_PLACEMENT_3D('',#709,#710,#711);
#713=CIRCLE('',#712,0.707106781);
#714=EDGE_CURVE('',#706,#708,#713,.T.);
#715=ORIENTED_EDGE('',*,*,#714,.F.);
#716=CARTESIAN_POINT('',(-280.,212.51701861,3.000018128));
#717=VERTEX_POINT('',#716);
#718=CARTESIAN_POINT('',(-280.,141.554677838,3.000018128));
#719=DIRECTION('',(-0.,1.,0.));
#720=VECTOR('',#719,70.962340772);
#721=LINE('',#718,#720);
#722=EDGE_CURVE('',#706,#717,#721,.T.);
#723=ORIENTED_EDGE('',*,*,#722,.T.);
#724=CARTESIAN_POINT('',(-280.,176.999877122,39.895656291));
#725=VERTEX_POINT('',#724);
#726=CARTESIAN_POINT('',(-280.,176.999877122,4.352763072));
#727=DIRECTION('',(1.,0.,-0.));
#728=DIRECTION('',(0.,0.,1.));
#729=AXIS2_PLACEMENT_3D('',#726,#727,#728);
#730=CIRCLE('',#729,35.542893219);
#731=EDGE_CURVE('',#717,#725,#730,.T.);
#732=ORIENTED_EDGE('',*,*,#731,.T.);
#733=CARTESIAN_POINT('',(-280.,176.999877122,4.352763072));
#734=DIRECTION('',(1.,0.,-0.));
#735=DIRECTION('',(0.,0.,1.));
#736=AXIS2_PLACEMENT_3D('',#733,#734,#735);
#737=CIRCLE('',#736,35.542893219);
#738=EDGE_CURVE('',#725,#708,#737,.T.);
#739=ORIENTED_EDGE('',*,*,#738,.T.);
#740=EDGE_LOOP('',(#715,#723,#732,#739));
#741=FACE_BOUND('',#740,.T.);
#742=ADVANCED_FACE('',(#741),#704,.T.);
#743=CARTESIAN_POINT('',(-282.000017961,176.999877122,4.352763072));
#744=DIRECTION('',(1.,0.,-0.));
#745=DIRECTION('',(0.,0.,1.));
#746=AXIS2_PLACEMENT_3D('',#743,#744,#745);
#747=CYLINDRICAL_SURFACE('',#746,36.25);
#748=CARTESIAN_POINT('',(-280.707106781,176.999877122,40.602763072));
#749=VERTEX_POINT('',#748);
#750=CARTESIAN_POINT('',(-282.000017961,176.999877122,40.602763072));
#751=VERTEX_POINT('',#750);
#752=CARTESIAN_POINT('',(-280.707106781,176.999877122,40.602763072));
#753=DIRECTION('',(-1.,-0.,-0.));
#754=VECTOR('',#753,1.29291118);
#755=LINE('',#752,#754);
#756=EDGE_CURVE('',#749,#751,#755,.T.);
#757=ORIENTED_EDGE('',*,*,#756,.T.);
#758=CARTESIAN_POINT('',(-282.000017961,140.826308163,2.000018128));
#759=VERTEX_POINT('',#758);
#760=CARTESIAN_POINT('',(-282.000017961,176.999877122,4.352763072));
#761=DIRECTION('',(-1.,-0.,-0.));
#762=DIRECTION('',(0.,0.,-1.));
#763=AXIS2_PLACEMENT_3D('',#760,#761,#762);
#764=CIRCLE('',#763,36.25);
#765=EDGE_CURVE('',#759,#751,#764,.T.);
#766=ORIENTED_EDGE('',*,*,#765,.F.);
#767=CARTESIAN_POINT('',(-280.707106781,140.826308163,2.000018128));
#768=VERTEX_POINT('',#767);
#769=CARTESIAN_POINT('',(-280.707106781,140.826308163,2.000018128));
#770=DIRECTION('',(-1.,-0.,-0.));
#771=VECTOR('',#770,1.29291118);
#772=LINE('',#769,#771);
#773=EDGE_CURVE('',#768,#759,#772,.T.);
#774=ORIENTED_EDGE('',*,*,#773,.F.);
#775=CARTESIAN_POINT('',(-280.707106781,176.999877122,4.352763072));
#776=DIRECTION('',(-1.,-0.,0.));
#777=DIRECTION('',(0.,0.,1.));
#778=AXIS2_PLACEMENT_3D('',#775,#776,#777);
#779=CIRCLE('',#778,36.25);
#780=EDGE_CURVE('',#768,#749,#779,.T.);
#781=ORIENTED_EDGE('',*,*,#780,.T.);
#782=EDGE_LOOP('',(#757,#766,#774,#781));
#783=FACE_BOUND('',#782,.T.);
#784=ADVANCED_FACE('',(#783),#747,.T.);
#785=CARTESIAN_POINT('',(-282.000017961,176.999877122,4.352763072));
#786=DIRECTION('',(1.,0.,-0.));
#787=DIRECTION('',(0.,0.,1.));
#788=AXIS2_PLACEMENT_3D('',#785,#786,#787);
#789=CYLINDRICAL_SURFACE('',#788,37.25);
#790=CARTESIAN_POINT('',(-280.707106781,176.999877122,41.602763072));
#791=VERTEX_POINT('',#790);
#792=CARTESIAN_POINT('',(-282.000017961,176.999877122,41.602763072));
#793=VERTEX_POINT('',#792);
#794=CARTESIAN_POINT('',(-280.707106781,176.999877122,41.602763072));
#795=DIRECTION('',(-1.,-0.,-0.));
#796=VECTOR('',#795,1.29291118);
#797=LINE('',#794,#796);
#798=EDGE_CURVE('',#791,#793,#797,.T.);
#799=ORIENTED_EDGE('',*,*,#798,.F.);
#800=CARTESIAN_POINT('',(-280.707106781,139.792760396,2.565876127));
#801=VERTEX_POINT('',#800);
#802=CARTESIAN_POINT('',(-280.707106781,176.999877122,4.352763072));
#803=DIRECTION('',(1.,0.,-0.));
#804=DIRECTION('',(0.,0.,1.));
#805=AXIS2_PLACEMENT_3D('',#802,#803,#804);
#806=CIRCLE('',#805,37.25);
#807=EDGE_CURVE('',#791,#801,#806,.T.);
#808=ORIENTED_EDGE('',*,*,#807,.T.);
#809=CARTESIAN_POINT('',(-282.000017961,139.792760396,2.565876127));
#810=VERTEX_POINT('',#809);
#811=CARTESIAN_POINT('',(-282.000017961,139.792760396,2.565876127));
#812=DIRECTION('',(1.,0.,0.));
#813=VECTOR('',#812,1.29291118);
#814=LINE('',#811,#813);
#815=EDGE_CURVE('',#810,#801,#814,.T.);
#816=ORIENTED_EDGE('',*,*,#815,.F.);
#817=CARTESIAN_POINT('',(-282.000017961,176.999877122,4.352763072));
#818=DIRECTION('',(-1.,-0.,-0.));
#819=DIRECTION('',(0.,0.,-1.));
#820=AXIS2_PLACEMENT_3D('',#817,#818,#819);
#821=CIRCLE('',#820,37.25);
#822=EDGE_CURVE('',#810,#793,#821,.T.);
#823=ORIENTED_EDGE('',*,*,#822,.T.);
#824=EDGE_LOOP('',(#799,#808,#816,#823));
#825=FACE_BOUND('',#824,.T.);
#826=ADVANCED_FACE('',(#825),#789,.F.);
#827=CARTESIAN_POINT('',(-282.000017961,2283.999999833,63.000018128));
#828=DIRECTION('',(-1.,-0.,0.));
#829=DIRECTION('',(-0.,1.,0.));
#830=AXIS2_PLACEMENT_3D('',#827,#828,#829);
#831=PLANE('',#830);
#832=CARTESIAN_POINT('',(-282.000017961,214.175502083,2.000018128));
#833=VERTEX_POINT('',#832);
#834=CARTESIAN_POINT('',(-282.000017961,213.252392687,2.000018128));
#835=VERTEX_POINT('',#834);
#836=CARTESIAN_POINT('',(-282.000017961,214.175502083,2.000018128));
#837=DIRECTION('',(0.,-1.,0.));
#838=VECTOR('',#837,0.923109396);
#839=LINE('',#836,#838);
#840=EDGE_CURVE('',#833,#835,#839,.T.);
#841=ORIENTED_EDGE('',*,*,#840,.F.);
#842=CARTESIAN_POINT('',(-282.000017961,176.999877122,4.352763072));
#843=DIRECTION('',(-1.,-0.,-0.));
#844=DIRECTION('',(0.,0.,-1.));
#845=AXIS2_PLACEMENT_3D('',#842,#843,#844);
#846=CIRCLE('',#845,37.25);
#847=EDGE_CURVE('',#793,#833,#846,.T.);
#848=ORIENTED_EDGE('',*,*,#847,.F.);
#849=ORIENTED_EDGE('',*,*,#822,.F.);
#850=CARTESIAN_POINT('',(-282.000017961,139.847571057,2.292911347));
#851=VERTEX_POINT('',#850);
#852=CARTESIAN_POINT('',(-282.000017961,139.140464276,2.292911347));
#853=DIRECTION('',(-1.,-0.,0.));
#854=DIRECTION('',(0.,-1.,0.));
#855=AXIS2_PLACEMENT_3D('',#852,#853,#854);
#856=CIRCLE('',#855,0.707106781);
#857=EDGE_CURVE('',#810,#851,#856,.T.);
#858=ORIENTED_EDGE('',*,*,#857,.T.);
#859=CARTESIAN_POINT('',(-282.000017961,139.847571057,2.000018128));
#860=VERTEX_POINT('',#859);
#861=CARTESIAN_POINT('',(-282.000017961,139.847571057,2.000018128));
#862=DIRECTION('',(0.,0.,1.));
#863=VECTOR('',#862,0.292893219);
#864=LINE('',#861,#863);
#865=EDGE_CURVE('',#860,#851,#864,.T.);
#866=ORIENTED_EDGE('',*,*,#865,.F.);
#867=CARTESIAN_POINT('',(-282.000017961,140.826308163,2.000018128));
#868=DIRECTION('',(0.,-1.,0.));
#869=VECTOR('',#868,0.978737106);
#870=LINE('',#867,#869);
#871=EDGE_CURVE('',#759,#860,#870,.T.);
#872=ORIENTED_EDGE('',*,*,#871,.F.);
#873=ORIENTED_EDGE('',*,*,#765,.T.);
#874=CARTESIAN_POINT('',(-282.000017961,213.204906225,2.547668161));
#875=VERTEX_POINT('',#874);
#876=CARTESIAN_POINT('',(-282.000017961,176.999877122,4.352763072));
#877=DIRECTION('',(-1.,-0.,-0.));
#878=DIRECTION('',(0.,0.,-1.));
#879=AXIS2_PLACEMENT_3D('',#876,#877,#878);
#880=CIRCLE('',#879,36.25);
#881=EDGE_CURVE('',#751,#875,#880,.T.);
#882=ORIENTED_EDGE('',*,*,#881,.T.);
#883=CARTESIAN_POINT('',(-282.000017961,213.252392687,2.292911347));
#884=VERTEX_POINT('',#883);
#885=CARTESIAN_POINT('',(-282.000017961,212.545285906,2.292911347));
#886=DIRECTION('',(-1.,-0.,0.));
#887=DIRECTION('',(0.,-1.,0.));
#888=AXIS2_PLACEMENT_3D('',#885,#886,#887);
#889=CIRCLE('',#888,0.707106781);
#890=EDGE_CURVE('',#875,#884,#889,.T.);
#891=ORIENTED_EDGE('',*,*,#890,.T.);
#892=CARTESIAN_POINT('',(-282.000017961,213.252392687,2.292911347));
#893=DIRECTION('',(0.,0.,-1.));
#894=VECTOR('',#893,0.292893219);
#895=LINE('',#892,#894);
#896=EDGE_CURVE('',#884,#835,#895,.T.);
#897=ORIENTED_EDGE('',*,*,#896,.T.);
#898=EDGE_LOOP('',(#841,#848,#849,#858,#866,#872,#873,#882,#891,#897));
#899=FACE_BOUND('',#898,.T.);
#900=ADVANCED_FACE('',(#899),#831,.F.);
#901=CARTESIAN_POINT('',(-280.707106781,176.999877122,4.352763072));
#902=DIRECTION('',(1.,0.,-0.));
#903=DIRECTION('',(0.,0.,1.));
#904=AXIS2_PLACEMENT_3D('',#901,#902,#903);
#905=TOROIDAL_SURFACE('',#904,35.542893219,0.707106781);
#906=CARTESIAN_POINT('',(-280.707106781,176.999877122,39.895656291));
#907=DIRECTION('',(0.,-1.,-0.));
#908=DIRECTION('',(0.,0.,1.));
#909=AXIS2_PLACEMENT_3D('',#906,#907,#908);
#910=CIRCLE('',#909,0.707106781);
#911=EDGE_CURVE('',#725,#749,#910,.T.);
#912=ORIENTED_EDGE('',*,*,#911,.T.);
#913=ORIENTED_EDGE('',*,*,#780,.F.);
#914=CARTESIAN_POINT('',(-280.535186366,140.847571057,2.000018128));
#915=VERTEX_POINT('',#914);
#916=CARTESIAN_POINT('',(-280.707106781,140.826308163,2.000018128));
#917=CARTESIAN_POINT('',(-280.648834688,140.826308163,2.000018128));
#918=CARTESIAN_POINT('',(-280.591530937,140.833418218,2.000018128));
#919=CARTESIAN_POINT('',(-280.535186366,140.847571057,2.000018128));
#920=B_SPLINE_CURVE_WITH_KNOTS('',3,(#916,#917,#918,#919),.UNSPECIFIED.,.F.,.F.,(4,4),(0.001213542,0.001386751),.UNSPECIFIED.);
#921=EDGE_CURVE('',#768,#915,#920,.T.);
#922=ORIENTED_EDGE('',*,*,#921,.T.);
#923=CARTESIAN_POINT('',(-280.475346936,140.847571057,2.292911347));
#924=VERTEX_POINT('',#923);
#925=CARTESIAN_POINT('',(-280.475346936,140.847571057,2.292911347));
#926=CARTESIAN_POINT('',(-280.491493526,140.847571057,2.194437827));
#927=CARTESIAN_POINT('',(-280.51019461,140.847571057,2.096530647));
#928=CARTESIAN_POINT('',(-280.535186343,140.847571057,2.000018123));
#929=B_SPLINE_CURVE_WITH_KNOTS('',3,(#925,#926,#927,#928),.UNSPECIFIED.,.F.,.F.,(4,4),(0.000845882,0.00114487),.UNSPECIFIED.);
#930=EDGE_CURVE('',#924,#915,#929,.T.);
#931=ORIENTED_EDGE('',*,*,#930,.F.);
#932=CARTESIAN_POINT('',(-280.,141.482875032,2.996363091));
#933=CARTESIAN_POINT('',(-279.999999971,141.435011559,2.991477565));
#934=CARTESIAN_POINT('',(-280.005003991,141.387238968,2.981549477));
#935=CARTESIAN_POINT('',(-280.014398867,141.341920275,2.967251187));
#936=CARTESIAN_POINT('',(-280.023793744,141.296601583,2.952952896));
#937=CARTESIAN_POINT('',(-280.037328242,141.254105027,2.934583344));
#938=CARTESIAN_POINT('',(-280.054358256,141.214070848,2.912578094));
#939=CARTESIAN_POINT('',(-280.088418283,141.134002489,2.868567596));
#940=CARTESIAN_POINT('',(-280.134357538,141.068411989,2.81278463));
#941=CARTESIAN_POINT('',(-280.185361444,141.015383852,2.750253666));
#942=CARTESIAN_POINT('',(-280.23636535,140.962355716,2.687722702));
#943=CARTESIAN_POINT('',(-280.291876515,140.922649553,2.61999457));
#944=CARTESIAN_POINT('',(-280.346386757,140.894033051,2.544999556));
#945=CARTESIAN_POINT('',(-280.373641879,140.8797248,2.507502049));
#946=CARTESIAN_POINT('',(-280.400256819,140.868474354,2.468763241));
#947=CARTESIAN_POINT('',(-280.423695559,140.860424495,2.427121244));
#948=CARTESIAN_POINT('',(-280.447134299,140.852374637,2.385479246));
#949=CARTESIAN_POINT('',(-280.467414281,140.847570235,2.341311935));
#950=CARTESIAN_POINT('',(-280.475346934,140.847571057,2.292911346));
#951=B_SPLINE_CURVE_WITH_KNOTS('',3,(#932,#933,#934,#935,#936,#937,#938,#939,#940,#941,#942,#943,#944,#945,#946,#947,#948,#949,#950),.UNSPECIFIED.,.F.,.F.,(4,3,3,3,3,3,4),(0.000071757,0.000215993,0.000360229,0.0006487,0.000937172,0.001081407,0.001225643),.UNSPECIFIED.);
#952=EDGE_CURVE('',#708,#924,#951,.T.);
#953=ORIENTED_EDGE('',*,*,#952,.F.);
#954=ORIENTED_EDGE('',*,*,#738,.F.);
#955=EDGE_LOOP('',(#912,#913,#922,#931,#953,#954));
#956=FACE_BOUND('',#955,.T.);
#957=ADVANCED_FACE('',(#956),#905,.T.);
#958=CARTESIAN_POINT('',(-280.707106781,176.999877122,4.352763072));
#959=DIRECTION('',(1.,0.,-0.));
#960=DIRECTION('',(0.,0.,1.));
#961=AXIS2_PLACEMENT_3D('',#958,#959,#960);
#962=TOROIDAL_SURFACE('',#961,37.957106781,0.707106781);
#963=CARTESIAN_POINT('',(-280.707106781,176.999877122,42.309869853));
#964=DIRECTION('',(0.,-1.,-0.));
#965=DIRECTION('',(0.,0.,1.));
#966=AXIS2_PLACEMENT_3D('',#963,#964,#965);
#967=CIRCLE('',#966,0.707106781);
#968=EDGE_CURVE('',#791,#268,#967,.T.);
#969=ORIENTED_EDGE('',*,*,#968,.T.);
#970=ORIENTED_EDGE('',*,*,#274,.F.);
#971=ORIENTED_EDGE('',*,*,#674,.T.);
#972=CARTESIAN_POINT('',(-280.707106781,139.792760396,2.565876129));
#973=CARTESIAN_POINT('',(-280.6595572,139.79276045,2.565876));
#974=CARTESIAN_POINT('',(-280.612590619,139.787080811,2.579884675));
#975=CARTESIAN_POINT('',(-280.569945809,139.777722789,2.599345005));
#976=CARTESIAN_POINT('',(-280.527300999,139.768364768,2.618805334));
#977=CARTESIAN_POINT('',(-280.487912957,139.755437439,2.643163274));
#978=CARTESIAN_POINT('',(-280.4506914,139.739812187,2.668120731));
#979=CARTESIAN_POINT('',(-280.376248286,139.708561682,2.718035643));
#980=CARTESIAN_POINT('',(-280.308425969,139.665652269,2.77190476));
#981=CARTESIAN_POINT('',(-280.247562977,139.611586259,2.820210197));
#982=CARTESIAN_POINT('',(-280.186699986,139.557520248,2.868515633));
#983=CARTESIAN_POINT('',(-280.131753071,139.49076516,2.912976302));
#984=CARTESIAN_POINT('',(-280.088976853,139.412489285,2.945599936));
#985=CARTESIAN_POINT('',(-280.046200636,139.33421341,2.97822357));
#986=CARTESIAN_POINT('',(-280.015576077,139.243179265,2.999021454));
#987=CARTESIAN_POINT('',(-280.004612693,139.147571057,2.999982414));
#988=B_SPLINE_CURVE_WITH_KNOTS('',3,(#972,#973,#974,#975,#976,#977,#978,#979,#980,#981,#982,#983,#984,#985,#986,#987),.UNSPECIFIED.,.F.,.F.,(4,3,3,3,3,4),(0.000040651,0.00018327,0.000325889,0.000611128,0.000896366,0.001181605),.UNSPECIFIED.);
#989=EDGE_CURVE('',#801,#659,#988,.T.);
#990=ORIENTED_EDGE('',*,*,#989,.F.);
#991=ORIENTED_EDGE('',*,*,#807,.F.);
#992=EDGE_LOOP('',(#969,#970,#971,#990,#991));
#993=FACE_BOUND('',#992,.T.);
#994=ADVANCED_FACE('',(#993),#962,.T.);
#995=CARTESIAN_POINT('',(1462.,737.000017794,43.000018128));
#996=DIRECTION('',(0.,0.,1.));
#997=DIRECTION('',(-1.,-0.,0.));
#998=AXIS2_PLACEMENT_3D('',#995,#996,#997);
#999=PLANE('',#998);
#1000=ORIENTED_EDGE('',*,*,#241,.F.);
#1001=ORIENTED_EDGE('',*,*,#340,.F.);
#1002=CARTESIAN_POINT('',(-288.,188.2174664,43.000018128));
#1003=DIRECTION('',(0.99999995,0.000315372,0.));
#1004=VECTOR('',#1003,8.000000398);
#1005=LINE('',#1002,#1004);
#1006=EDGE_CURVE('',#358,#328,#1005,.T.);
#1007=ORIENTED_EDGE('',*,*,#1006,.F.);
#1008=ORIENTED_EDGE('',*,*,#363,.F.);
#1009=EDGE_LOOP('',(#1000,#1001,#1007,#1008));
#1010=FACE_BOUND('',#1009,.T.);
#1011=ADVANCED_FACE('',(#1010),#999,.T.);
#1012=CARTESIAN_POINT('',(-100.049877289,213.252392687,2.000018128));
#1013=DIRECTION('',(0.,1.,0.));
#1014=DIRECTION('',(-1.,0.,0.));
#1015=AXIS2_PLACEMENT_3D('',#1012,#1013,#1014);
#1016=PLANE('',#1015);
#1017=ORIENTED_EDGE('',*,*,#896,.F.);
#1018=CARTESIAN_POINT('',(-21.049859328,213.252392687,2.292911347));
#1019=VERTEX_POINT('',#1018);
#1020=CARTESIAN_POINT('',(-282.000017961,213.252392687,2.292911347));
#1021=DIRECTION('',(1.,-0.,-0.));
#1022=VECTOR('',#1021,260.950158633);
#1023=LINE('',#1020,#1022);
#1024=EDGE_CURVE('',#884,#1019,#1023,.T.);
#1025=ORIENTED_EDGE('',*,*,#1024,.T.);
#1026=CARTESIAN_POINT('',(-21.049859328,213.252392687,2.000018128));
#1027=VERTEX_POINT('',#1026);
#1028=CARTESIAN_POINT('',(-21.049859328,213.252392687,2.292911347));
#1029=DIRECTION('',(0.,0.,-1.));
#1030=VECTOR('',#1029,0.292893219);
#1031=LINE('',#1028,#1030);
#1032=EDGE_CURVE('',#1019,#1027,#1031,.T.);
#1033=ORIENTED_EDGE('',*,*,#1032,.T.);
#1034=CARTESIAN_POINT('',(-21.049859328,213.252392687,2.000018128));
#1035=DIRECTION('',(-1.,0.,0.));
#1036=VECTOR('',#1035,260.950158633);
#1037=LINE('',#1034,#1036);
#1038=EDGE_CURVE('',#1027,#835,#1037,.T.);
#1039=ORIENTED_EDGE('',*,*,#1038,.T.);
#1040=EDGE_LOOP('',(#1017,#1025,#1033,#1039));
#1041=FACE_BOUND('',#1040,.T.);
#1042=ADVANCED_FACE('',(#1041),#1016,.T.);
#1043=CARTESIAN_POINT('',(-100.049877289,139.847571057,2.000018128));
#1044=DIRECTION('',(0.,-1.,0.));
#1045=DIRECTION('',(1.,0.,0.));
#1046=AXIS2_PLACEMENT_3D('',#1043,#1044,#1045);
#1047=PLANE('',#1046);
#1048=CARTESIAN_POINT('',(-21.049859328,139.847571057,2.000018128));
#1049=VERTEX_POINT('',#1048);
#1050=CARTESIAN_POINT('',(-282.000017961,139.847571057,2.000018128));
#1051=DIRECTION('',(1.,0.,0.));
#1052=VECTOR('',#1051,260.950158633);
#1053=LINE('',#1050,#1052);
#1054=EDGE_CURVE('',#860,#1049,#1053,.T.);
#1055=ORIENTED_EDGE('',*,*,#1054,.F.);
#1056=ORIENTED_EDGE('',*,*,#865,.T.);
#1057=CARTESIAN_POINT('',(-21.049859328,139.847571057,2.292911347));
#1058=VERTEX_POINT('',#1057);
#1059=CARTESIAN_POINT('',(-282.000017961,139.847571057,2.292911347));
#1060=DIRECTION('',(1.,0.,0.));
#1061=VECTOR('',#1060,260.950158633);
#1062=LINE('',#1059,#1061);
#1063=EDGE_CURVE('',#851,#1058,#1062,.T.);
#1064=ORIENTED_EDGE('',*,*,#1063,.T.);
#1065=CARTESIAN_POINT('',(-21.049859328,139.847571057,2.000018128));
#1066=DIRECTION('',(0.,0.,1.));
#1067=VECTOR('',#1066,0.292893219);
#1068=LINE('',#1065,#1067);
#1069=EDGE_CURVE('',#1049,#1058,#1068,.T.);
#1070=ORIENTED_EDGE('',*,*,#1069,.F.);
#1071=EDGE_LOOP('',(#1055,#1056,#1064,#1070));
#1072=FACE_BOUND('',#1071,.T.);
#1073=ADVANCED_FACE('',(#1072),#1047,.F.);
#1074=CARTESIAN_POINT('',(175.950122711,212.545285906,2.292911347));
#1075=DIRECTION('',(1.,-0.,0.));
#1076=DIRECTION('',(0.,1.,0.));
#1077=AXIS2_PLACEMENT_3D('',#1074,#1075,#1076);
#1078=CYLINDRICAL_SURFACE('',#1077,0.707106781);
#1079=ORIENTED_EDGE('',*,*,#890,.F.);
#1080=CARTESIAN_POINT('',(-280.707106781,213.204906225,2.547668161));
#1081=VERTEX_POINT('',#1080);
#1082=CARTESIAN_POINT('',(-280.707106781,213.204906225,2.547668161));
#1083=DIRECTION('',(-1.,0.,-0.));
#1084=VECTOR('',#1083,1.29291118);
#1085=LINE('',#1082,#1084);
#1086=EDGE_CURVE('',#1081,#875,#1085,.T.);
#1087=ORIENTED_EDGE('',*,*,#1086,.F.);
#1088=CARTESIAN_POINT('',(-280.000564414,212.545285906,3.000018128));
#1089=VERTEX_POINT('',#1088);
#1090=CARTESIAN_POINT('',(-280.707106781,213.204906225,2.547668163));
#1091=CARTESIAN_POINT('',(-280.657945093,213.204906308,2.547667949));
#1092=CARTESIAN_POINT('',(-280.608971118,213.200177569,2.560379174));
#1093=CARTESIAN_POINT('',(-280.564277387,213.191869064,2.579145902));
#1094=CARTESIAN_POINT('',(-280.519583656,213.183560559,2.597912629));
#1095=CARTESIAN_POINT('',(-280.477682118,213.171601898,2.622462844));
#1096=CARTESIAN_POINT('',(-280.438601082,213.156749506,2.648034237));
#1097=CARTESIAN_POINT('',(-280.360439009,213.127044722,2.699177021));
#1098=CARTESIAN_POINT('',(-280.289994232,213.084674334,2.756324608));
#1099=CARTESIAN_POINT('',(-280.227994346,213.029719656,2.808007398));
#1100=CARTESIAN_POINT('',(-280.196994403,213.002242317,2.833848793));
#1101=CARTESIAN_POINT('',(-280.168119407,212.971599892,2.858575701));
#1102=CARTESIAN_POINT('',(-280.141529796,212.937077123,2.881553549));
#1103=CARTESIAN_POINT('',(-280.114940185,212.902554353,2.904531398));
#1104=CARTESIAN_POINT('',(-280.090927849,212.864349874,2.925520607));
#1105=CARTESIAN_POINT('',(-280.07071113,212.823266768,2.943085662));
#1106=CARTESIAN_POINT('',(-280.030277691,212.741100556,2.978215773));
#1107=CARTESIAN_POINT('',(-280.004538562,212.644763724,3.000018174));
#1108=CARTESIAN_POINT('',(-280.000564414,212.545285906,3.000018128));
#1109=B_SPLINE_CURVE_WITH_KNOTS('',3,(#1090,#1091,#1092,#1093,#1094,#1095,#1096,#1097,#1098,#1099,#1100,#1101,#1102,#1103,#1104,#1105,#1106,#1107,#1108),.UNSPECIFIED.,.F.,.F.,(4,3,3,3,3,3,4),(0.000040632,0.000187989,0.000335345,0.000630058,0.000777415,0.000924771,0.001219484),.UNSPECIFIED.);
#1110=EDGE_CURVE('',#1081,#1089,#1109,.T.);
#1111=ORIENTED_EDGE('',*,*,#1110,.T.);
#1112=CARTESIAN_POINT('',(-21.049859328,212.545285906,3.000018128));
#1113=VERTEX_POINT('',#1112);
#1114=CARTESIAN_POINT('',(-21.049859328,212.545285906,3.000018128));
#1115=DIRECTION('',(-1.,0.,0.));
#1116=VECTOR('',#1115,258.950705086);
#1117=LINE('',#1114,#1116);
#1118=EDGE_CURVE('',#1113,#1089,#1117,.T.);
#1119=ORIENTED_EDGE('',*,*,#1118,.F.);
#1120=CARTESIAN_POINT('',(-21.049859328,212.545285906,2.292911347));
#1121=DIRECTION('',(-1.,-0.,0.));
#1122=DIRECTION('',(0.,-1.,0.));
#1123=AXIS2_PLACEMENT_3D('',#1120,#1121,#1122);
#1124=CIRCLE('',#1123,0.707106781);
#1125=EDGE_CURVE('',#1113,#1019,#1124,.T.);
#1126=ORIENTED_EDGE('',*,*,#1125,.T.);
#1127=ORIENTED_EDGE('',*,*,#1024,.F.);
#1128=EDGE_LOOP('',(#1079,#1087,#1111,#1119,#1126,#1127));
#1129=FACE_BOUND('',#1128,.T.);
#1130=ADVANCED_FACE('',(#1129),#1078,.T.);
#1131=CARTESIAN_POINT('',(109.950122711,323.550104583,2.000018128));
#1132=DIRECTION('',(0.,0.,-1.));
#1133=DIRECTION('',(1.,0.,0.));
#1134=AXIS2_PLACEMENT_3D('',#1131,#1132,#1133);
#1135=PLANE('',#1134);
#1136=ORIENTED_EDGE('',*,*,#773,.T.);
#1137=ORIENTED_EDGE('',*,*,#871,.T.);
#1138=ORIENTED_EDGE('',*,*,#1054,.T.);
#1139=CARTESIAN_POINT('',(-21.049859328,140.847571057,2.000018128));
#1140=VERTEX_POINT('',#1139);
#1141=CARTESIAN_POINT('',(-21.049859328,140.847571057,2.000018128));
#1142=DIRECTION('',(0.,-1.,0.));
#1143=VECTOR('',#1142,1.);
#1144=LINE('',#1141,#1143);
#1145=EDGE_CURVE('',#1140,#1049,#1144,.T.);
#1146=ORIENTED_EDGE('',*,*,#1145,.F.);
#1147=CARTESIAN_POINT('',(-280.535186366,140.847571057,2.000018128));
#1148=DIRECTION('',(1.,0.,0.));
#1149=VECTOR('',#1148,259.485327038);
#1150=LINE('',#1147,#1149);
#1151=EDGE_CURVE('',#915,#1140,#1150,.T.);
#1152=ORIENTED_EDGE('',*,*,#1151,.F.);
#1153=ORIENTED_EDGE('',*,*,#921,.F.);
#1154=EDGE_LOOP('',(#1136,#1137,#1138,#1146,#1152,#1153));
#1155=FACE_BOUND('',#1154,.T.);
#1156=ADVANCED_FACE('',(#1155),#1135,.F.);
#1157=CARTESIAN_POINT('',(109.950122711,323.550104583,2.000018128));
#1158=DIRECTION('',(0.,0.,-1.));
#1159=DIRECTION('',(1.,0.,0.));
#1160=AXIS2_PLACEMENT_3D('',#1157,#1158,#1159);
#1161=PLANE('',#1160);
#1162=CARTESIAN_POINT('',(-280.707106781,214.175502083,2.000018128));
#1163=VERTEX_POINT('',#1162);
#1164=CARTESIAN_POINT('',(-282.000017961,214.175502083,2.000018128));
#1165=DIRECTION('',(1.,0.,0.));
#1166=VECTOR('',#1165,1.29291118);
#1167=LINE('',#1164,#1166);
#1168=EDGE_CURVE('',#833,#1163,#1167,.T.);
#1169=ORIENTED_EDGE('',*,*,#1168,.F.);
#1170=ORIENTED_EDGE('',*,*,#840,.T.);
#1171=ORIENTED_EDGE('',*,*,#1038,.F.);
#1172=CARTESIAN_POINT('',(-21.049859328,214.252392687,2.000018128));
#1173=VERTEX_POINT('',#1172);
#1174=CARTESIAN_POINT('',(-21.049859328,213.252392687,2.000018128));
#1175=DIRECTION('',(-0.,1.,0.));
#1176=VECTOR('',#1175,1.);
#1177=LINE('',#1174,#1176);
#1178=EDGE_CURVE('',#1027,#1173,#1177,.T.);
#1179=ORIENTED_EDGE('',*,*,#1178,.T.);
#1180=CARTESIAN_POINT('',(-280.386740679,214.252392687,2.000018128));
#1181=VERTEX_POINT('',#1180);
#1182=CARTESIAN_POINT('',(-21.049859328,214.252392687,2.000018128));
#1183=DIRECTION('',(-1.,0.,0.));
#1184=VECTOR('',#1183,259.336881351);
#1185=LINE('',#1182,#1184);
#1186=EDGE_CURVE('',#1173,#1181,#1185,.T.);
#1187=ORIENTED_EDGE('',*,*,#1186,.T.);
#1188=CARTESIAN_POINT('',(-280.707106781,214.175502083,2.000018128));
#1189=CARTESIAN_POINT('',(-280.651203301,214.175502083,2.000018128));
#1190=CARTESIAN_POINT('',(-280.596388933,214.182052767,2.000018128));
#1191=CARTESIAN_POINT('',(-280.542627499,214.194936541,2.000018128));
#1192=CARTESIAN_POINT('',(-280.488866066,214.207820315,2.000018128));
#1193=CARTESIAN_POINT('',(-280.435907171,214.227355526,2.000018128));
#1194=CARTESIAN_POINT('',(-280.386740679,214.252392687,2.000018128));
#1195=B_SPLINE_CURVE_WITH_KNOTS('',3,(#1188,#1189,#1190,#1191,#1192,#1193,#1194),.UNSPECIFIED.,.F.,.F.,(4,3,4),(0.001905436,0.00207087,0.002236305),.UNSPECIFIED.);
#1196=EDGE_CURVE('',#1163,#1181,#1195,.T.);
#1197=ORIENTED_EDGE('',*,*,#1196,.F.);
#1198=EDGE_LOOP('',(#1169,#1170,#1171,#1179,#1187,#1197));
#1199=FACE_BOUND('',#1198,.T.);
#1200=ADVANCED_FACE('',(#1199),#1161,.F.);
#1201=CARTESIAN_POINT('',(-100.049877289,139.140464276,2.292911347));
#1202=DIRECTION('',(1.,0.,0.));
#1203=DIRECTION('',(-0.,1.,0.));
#1204=AXIS2_PLACEMENT_3D('',#1201,#1202,#1203);
#1205=CYLINDRICAL_SURFACE('',#1204,0.707106781);
#1206=ORIENTED_EDGE('',*,*,#664,.F.);
#1207=ORIENTED_EDGE('',*,*,#104,.T.);
#1208=CARTESIAN_POINT('',(-21.049859328,139.140464276,2.292911347));
#1209=DIRECTION('',(-1.,-0.,0.));
#1210=DIRECTION('',(0.,-1.,0.));
#1211=AXIS2_PLACEMENT_3D('',#1208,#1209,#1210);
#1212=CIRCLE('',#1211,0.707106781);
#1213=EDGE_CURVE('',#98,#1058,#1212,.T.);
#1214=ORIENTED_EDGE('',*,*,#1213,.T.);
#1215=ORIENTED_EDGE('',*,*,#1063,.F.);
#1216=ORIENTED_EDGE('',*,*,#857,.F.);
#1217=ORIENTED_EDGE('',*,*,#815,.T.);
#1218=ORIENTED_EDGE('',*,*,#989,.T.);
#1219=EDGE_LOOP('',(#1206,#1207,#1214,#1215,#1216,#1217,#1218));
#1220=FACE_BOUND('',#1219,.T.);
#1221=ADVANCED_FACE('',(#1220),#1205,.T.);
#1222=CARTESIAN_POINT('',(-100.049877289,214.952392687,0.000018128));
#1223=DIRECTION('',(0.,1.,0.));
#1224=DIRECTION('',(-1.,0.,0.));
#1225=AXIS2_PLACEMENT_3D('',#1222,#1223,#1224);
#1226=PLANE('',#1225);
#1227=CARTESIAN_POINT('',(-21.049859328,214.952392687,3.000018128));
#1228=VERTEX_POINT('',#1227);
#1229=CARTESIAN_POINT('',(-21.049859328,214.952392687,3.000018128));
#1230=DIRECTION('',(0.,0.,-1.));
#1231=VECTOR('',#1230,0.000035714);
#1232=LINE('',#1229,#1231);
#1233=EDGE_CURVE('',#1228,#580,#1232,.T.);
#1234=ORIENTED_EDGE('',*,*,#1233,.F.);
#1235=CARTESIAN_POINT('',(-20.,214.952392687,3.000018128));
#1236=DIRECTION('',(-1.,0.,0.));
#1237=VECTOR('',#1236,1.049859328);
#1238=LINE('',#1235,#1237);
#1239=EDGE_CURVE('',#556,#1228,#1238,.T.);
#1240=ORIENTED_EDGE('',*,*,#1239,.F.);
#1241=ORIENTED_EDGE('',*,*,#561,.F.);
#1242=ORIENTED_EDGE('',*,*,#495,.T.);
#1243=ORIENTED_EDGE('',*,*,#300,.T.);
#1244=ORIENTED_EDGE('',*,*,#592,.F.);
#1245=EDGE_LOOP('',(#1234,#1240,#1241,#1242,#1243,#1244));
#1246=FACE_BOUND('',#1245,.T.);
#1247=ADVANCED_FACE('',(#1246),#1226,.T.);
#1248=CARTESIAN_POINT('',(-21.049859328,177.049372759,0.000018128));
#1249=DIRECTION('',(-1.,-0.,0.));
#1250=DIRECTION('',(0.,0.,-1.));
#1251=AXIS2_PLACEMENT_3D('',#1248,#1249,#1250);
#1252=PLANE('',#1251);
#1253=CARTESIAN_POINT('',(-21.049859328,214.952392687,3.000018128));
#1254=DIRECTION('',(0.,-1.,0.));
#1255=VECTOR('',#1254,2.407106781);
#1256=LINE('',#1253,#1255);
#1257=EDGE_CURVE('',#1228,#1113,#1256,.T.);
#1258=ORIENTED_EDGE('',*,*,#1257,.F.);
#1259=ORIENTED_EDGE('',*,*,#1233,.T.);
#1260=ORIENTED_EDGE('',*,*,#586,.F.);
#1261=CARTESIAN_POINT('',(-21.049859328,214.252392687,2.292911347));
#1262=DIRECTION('',(0.,0.,-1.));
#1263=VECTOR('',#1262,0.292893219);
#1264=LINE('',#1261,#1263);
#1265=EDGE_CURVE('',#578,#1173,#1264,.T.);
#1266=ORIENTED_EDGE('',*,*,#1265,.T.);
#1267=ORIENTED_EDGE('',*,*,#1178,.F.);
#1268=ORIENTED_EDGE('',*,*,#1032,.F.);
#1269=ORIENTED_EDGE('',*,*,#1125,.F.);
#1270=EDGE_LOOP('',(#1258,#1259,#1260,#1266,#1267,#1268,#1269));
#1271=FACE_BOUND('',#1270,.T.);
#1272=ADVANCED_FACE('',(#1271),#1252,.T.);
#1273=CARTESIAN_POINT('',(175.950122711,323.550104583,3.000018128));
#1274=DIRECTION('',(0.,0.,-1.));
#1275=DIRECTION('',(1.,0.,0.));
#1276=AXIS2_PLACEMENT_3D('',#1273,#1274,#1275);
#1277=PLANE('',#1276);
#1278=CARTESIAN_POINT('',(-21.049859328,141.554677838,3.000018128));
#1279=VERTEX_POINT('',#1278);
#1280=CARTESIAN_POINT('',(-21.049859328,141.554677838,3.000018128));
#1281=DIRECTION('',(0.,-1.,0.));
#1282=VECTOR('',#1281,2.398097805);
#1283=LINE('',#1280,#1282);
#1284=EDGE_CURVE('',#1279,#192,#1283,.T.);
#1285=ORIENTED_EDGE('',*,*,#1284,.T.);
#1286=ORIENTED_EDGE('',*,*,#198,.T.);
#1287=CARTESIAN_POINT('',(-19.292893219,139.774447895,3.000018128));
#1288=VERTEX_POINT('',#1287);
#1289=CARTESIAN_POINT('',(-19.994283638,139.156670305,3.000018128));
#1290=CARTESIAN_POINT('',(-19.983544605,139.240667427,3.000018128));
#1291=CARTESIAN_POINT('',(-19.957162491,139.324015663,3.000018128));
#1292=CARTESIAN_POINT('',(-19.917046427,139.399410465,3.000018128));
#1293=CARTESIAN_POINT('',(-19.876930364,139.474805266,3.000018128));
#1294=CARTESIAN_POINT('',(-19.823643436,139.542110627,3.000018128));
#1295=CARTESIAN_POINT('',(-19.759703222,139.598345468,3.000018128));
#1296=CARTESIAN_POINT('',(-19.695763009,139.65458031,3.000018128));
#1297=CARTESIAN_POINT('',(-19.621814995,139.698975831,3.000018128));
#1298=CARTESIAN_POINT('',(-19.542336016,139.728959308,3.000018128));
#1299=CARTESIAN_POINT('',(-19.462857038,139.758942785,3.000018128));
#1300=CARTESIAN_POINT('',(-19.377680981,139.774447895,3.000018128));
#1301=CARTESIAN_POINT('',(-19.292893219,139.774447895,3.000018128));
#1302=B_SPLINE_CURVE_WITH_KNOTS('',3,(#1289,#1290,#1291,#1292,#1293,#1294,#1295,#1296,#1297,#1298,#1299,#1300,#1301),.UNSPECIFIED.,.F.,.F.,(4,3,3,3,4),(0.00418968,0.004443434,0.004697188,0.004950942,0.005204696),.UNSPECIFIED.);
#1303=EDGE_CURVE('',#174,#1288,#1302,.T.);
#1304=ORIENTED_EDGE('',*,*,#1303,.T.);
#1305=CARTESIAN_POINT('',(-19.000017961,139.774447895,3.000018128));
#1306=VERTEX_POINT('',#1305);
#1307=CARTESIAN_POINT('',(-19.292893219,139.774447895,3.000018128));
#1308=DIRECTION('',(1.,0.,-0.));
#1309=VECTOR('',#1308,0.292875258);
#1310=LINE('',#1307,#1309);
#1311=EDGE_CURVE('',#1288,#1306,#1310,.T.);
#1312=ORIENTED_EDGE('',*,*,#1311,.T.);
#1313=CARTESIAN_POINT('',(-19.000017961,140.775126176,3.000018128));
#1314=VERTEX_POINT('',#1313);
#1315=CARTESIAN_POINT('',(-19.000017961,140.775126176,3.000018128));
#1316=DIRECTION('',(0.,-1.,0.));
#1317=VECTOR('',#1316,1.000678281);
#1318=LINE('',#1315,#1317);
#1319=EDGE_CURVE('',#1314,#1306,#1318,.T.);
#1320=ORIENTED_EDGE('',*,*,#1319,.F.);
#1321=CARTESIAN_POINT('',(-19.292893219,140.775126176,3.000018128));
#1322=VERTEX_POINT('',#1321);
#1323=CARTESIAN_POINT('',(-19.292893219,140.775126176,3.000018128));
#1324=DIRECTION('',(1.,0.,-0.));
#1325=VECTOR('',#1324,0.292875258);
#1326=LINE('',#1323,#1325);
#1327=EDGE_CURVE('',#1322,#1314,#1326,.T.);
#1328=ORIENTED_EDGE('',*,*,#1327,.F.);
#1329=CARTESIAN_POINT('',(-20.,141.482735634,3.000018128));
#1330=VERTEX_POINT('',#1329);
#1331=CARTESIAN_POINT('',(-19.292893219,140.775126176,3.000018128));
#1332=CARTESIAN_POINT('',(-19.386264057,140.775126176,3.000018128));
#1333=CARTESIAN_POINT('',(-19.477940029,140.793516958,3.000018128));
#1334=CARTESIAN_POINT('',(-19.563561783,140.82901828,3.000018128));
#1335=CARTESIAN_POINT('',(-19.649183536,140.864519601,3.000018128));
#1336=CARTESIAN_POINT('',(-19.727331063,140.916747326,3.000018128));
#1337=CARTESIAN_POINT('',(-19.792978635,140.982463634,3.000018128));
#1338=CARTESIAN_POINT('',(-19.92427378,141.113896251,3.000018128));
#1339=CARTESIAN_POINT('',(-20.,141.296224861,3.000018128));
#1340=CARTESIAN_POINT('',(-20.,141.482735634,3.000018128));
#1341=B_SPLINE_CURVE_WITH_KNOTS('',3,(#1331,#1332,#1333,#1334,#1335,#1336,#1337,#1338,#1339,#1340),.UNSPECIFIED.,.F.,.F.,(4,3,3,4),(0.003799567,0.004075794,0.00435202,0.004904473),.UNSPECIFIED.);
#1342=EDGE_CURVE('',#1322,#1330,#1341,.T.);
#1343=ORIENTED_EDGE('',*,*,#1342,.T.);
#1344=CARTESIAN_POINT('',(-20.,212.51701861,3.000018128));
#1345=VERTEX_POINT('',#1344);
#1346=CARTESIAN_POINT('',(-20.,141.482735634,3.000018128));
#1347=DIRECTION('',(-0.,1.,0.));
#1348=VECTOR('',#1347,71.034282976);
#1349=LINE('',#1346,#1348);
#1350=EDGE_CURVE('',#1330,#1345,#1349,.T.);
#1351=ORIENTED_EDGE('',*,*,#1350,.T.);
#1352=CARTESIAN_POINT('',(-19.292893219,213.224628068,3.000018128));
#1353=VERTEX_POINT('',#1352);
#1354=CARTESIAN_POINT('',(-20.,212.51701861,3.000018128));
#1355=CARTESIAN_POINT('',(-20.,212.56313643,3.000018128));
#1356=CARTESIAN_POINT('',(-19.995395486,212.609970253,3.000018128));
#1357=CARTESIAN_POINT('',(-19.986359348,212.655338291,3.000018128));
#1358=CARTESIAN_POINT('',(-19.97732321,212.700706329,3.000018128));
#1359=CARTESIAN_POINT('',(-19.963964557,212.744790297,3.000018128));
#1360=CARTESIAN_POINT('',(-19.946268087,212.787585649,3.000018128));
#1361=CARTESIAN_POINT('',(-19.928571618,212.830381001,3.000018128));
#1362=CARTESIAN_POINT('',(-19.906416099,212.871832533,3.000018128));
#1363=CARTESIAN_POINT('',(-19.880818416,212.910166682,3.000018128));
#1364=CARTESIAN_POINT('',(-19.855220733,212.948500832,3.000018128));
#1365=CARTESIAN_POINT('',(-19.826006934,212.984219095,3.000018128));
#1366=CARTESIAN_POINT('',(-19.793043954,213.017225214,3.000018128));
#1367=CARTESIAN_POINT('',(-19.727117993,213.083237452,3.000018128));
#1368=CARTESIAN_POINT('',(-19.649254892,213.135215164,3.000018128));
#1369=CARTESIAN_POINT('',(-19.563496097,213.170763196,3.000018128));
#1370=CARTESIAN_POINT('',(-19.520616699,213.188537212,3.000018128));
#1371=CARTESIAN_POINT('',(-19.476522933,213.201912473,3.000018128));
#1372=CARTESIAN_POINT('',(-19.431232757,213.210954022,3.000018128));
#1373=CARTESIAN_POINT('',(-19.38594258,213.219995572,3.000018128));
#1374=CARTESIAN_POINT('',(-19.339064094,213.224628068,3.000018128));
#1375=CARTESIAN_POINT('',(-19.292893219,213.224628068,3.000018128));
#1376=B_SPLINE_CURVE_WITH_KNOTS('',3,(#1354,#1355,#1356,#1357,#1358,#1359,#1360,#1361,#1362,#1363,#1364,#1365,#1366,#1367,#1368,#1369,#1370,#1371,#1372,#1373,#1374,#1375),.UNSPECIFIED.,.F.,.F.,(4,3,3,3,3,3,3,4),(0.000628412,0.000766601,0.000904791,0.00104298,0.00118117,0.001457549,0.001595738,0.001733928),.UNSPECIFIED.);
#1377=EDGE_CURVE('',#1345,#1353,#1376,.T.);
#1378=ORIENTED_EDGE('',*,*,#1377,.T.);
#1379=CARTESIAN_POINT('',(-19.000017961,213.224628068,3.000018128));
#1380=VERTEX_POINT('',#1379);
#1381=CARTESIAN_POINT('',(-19.000017961,213.224628068,3.000018128));
#1382=DIRECTION('',(-1.,-0.,0.));
#1383=VECTOR('',#1382,0.292875258);
#1384=LINE('',#1381,#1383);
#1385=EDGE_CURVE('',#1380,#1353,#1384,.T.);
#1386=ORIENTED_EDGE('',*,*,#1385,.F.);
#1387=CARTESIAN_POINT('',(-19.000017961,214.225306349,3.000018128));
#1388=VERTEX_POINT('',#1387);
#1389=CARTESIAN_POINT('',(-19.000017961,214.225306349,3.000018128));
#1390=DIRECTION('',(0.,-1.,0.));
#1391=VECTOR('',#1390,1.000678281);
#1392=LINE('',#1389,#1391);
#1393=EDGE_CURVE('',#1388,#1380,#1392,.T.);
#1394=ORIENTED_EDGE('',*,*,#1393,.F.);
#1395=CARTESIAN_POINT('',(-19.292893219,214.225306349,3.000018128));
#1396=VERTEX_POINT('',#1395);
#1397=CARTESIAN_POINT('',(-19.000017961,214.225306349,3.000018128));
#1398=DIRECTION('',(-1.,-0.,0.));
#1399=VECTOR('',#1398,0.292875258);
#1400=LINE('',#1397,#1399);
#1401=EDGE_CURVE('',#1388,#1396,#1400,.T.);
#1402=ORIENTED_EDGE('',*,*,#1401,.T.);
#1403=CARTESIAN_POINT('',(-19.292893219,214.225306349,3.000018128));
#1404=CARTESIAN_POINT('',(-19.386003773,214.225306349,3.000018128));
#1405=CARTESIAN_POINT('',(-19.477637926,214.243559247,3.000018128));
#1406=CARTESIAN_POINT('',(-19.563639453,214.279228564,3.000018128));
#1407=CARTESIAN_POINT('',(-19.64964098,214.314897881,3.000018128));
#1408=CARTESIAN_POINT('',(-19.728101768,214.367628463,3.000018128));
#1409=CARTESIAN_POINT('',(-19.793226988,214.432883285,3.000018128));
#1410=CARTESIAN_POINT('',(-19.825789598,214.465510696,3.000018128));
#1411=CARTESIAN_POINT('',(-19.855599611,214.501901472,3.000018128));
#1412=CARTESIAN_POINT('',(-19.881229838,214.54036926,3.000018128));
#1413=CARTESIAN_POINT('',(-19.906860065,214.578837048,3.000018128));
#1414=CARTESIAN_POINT('',(-19.928532651,214.61945579,3.000018128));
#1415=CARTESIAN_POINT('',(-19.946230527,214.66223476,3.000018128));
#1416=CARTESIAN_POINT('',(-19.98162628,214.747792701,3.000018128));
#1417=CARTESIAN_POINT('',(-20.,214.839595975,3.000018128));
#1418=CARTESIAN_POINT('',(-20.,214.932871155,3.000018128));
#1419=B_SPLINE_CURVE_WITH_KNOTS('',3,(#1403,#1404,#1405,#1406,#1407,#1408,#1409,#1410,#1411,#1412,#1413,#1414,#1415,#1416,#1417,#1418),.UNSPECIFIED.,.F.,.F.,(4,3,3,3,3,4),(0.004024561,0.004300783,0.004577005,0.004715116,0.004853227,0.005129449),.UNSPECIFIED.);
#1420=EDGE_CURVE('',#1396,#521,#1419,.T.);
#1421=ORIENTED_EDGE('',*,*,#1420,.T.);
#1422=ORIENTED_EDGE('',*,*,#567,.T.);
#1423=ORIENTED_EDGE('',*,*,#1239,.T.);
#1424=ORIENTED_EDGE('',*,*,#1257,.T.);
#1425=ORIENTED_EDGE('',*,*,#1118,.T.);
#1426=CARTESIAN_POINT('',(-280.,212.51701861,3.000018128));
#1427=CARTESIAN_POINT('',(-280.,212.526462517,3.000018128));
#1428=CARTESIAN_POINT('',(-280.000189266,212.535895487,3.000018128));
#1429=CARTESIAN_POINT('',(-280.000564414,212.545285906,3.000018128));
#1430=B_SPLINE_CURVE_WITH_KNOTS('',3,(#1426,#1427,#1428,#1429),.UNSPECIFIED.,.F.,.F.,(4,4),(0.000947304,0.000975251),.UNSPECIFIED.);
#1431=EDGE_CURVE('',#717,#1089,#1430,.T.);
#1432=ORIENTED_EDGE('',*,*,#1431,.F.);
#1433=ORIENTED_EDGE('',*,*,#722,.F.);
#1434=CARTESIAN_POINT('',(-280.,141.554677838,3.000018128));
#1435=DIRECTION('',(1.,0.,0.));
#1436=VECTOR('',#1435,258.950140672);
#1437=LINE('',#1434,#1436);
#1438=EDGE_CURVE('',#706,#1279,#1437,.T.);
#1439=ORIENTED_EDGE('',*,*,#1438,.T.);
#1440=EDGE_LOOP('',(#1285,#1286,#1304,#1312,#1320,#1328,#1343,#1351,#1378,#1386,#1394,#1402,#1421,#1422,#1423,#1424,#1425,#1432,#1433,#1439));
#1441=FACE_BOUND('',#1440,.T.);
#1442=ADVANCED_FACE('',(#1441),#1277,.F.);
#1443=CARTESIAN_POINT('',(-100.049877289,214.252392687,2.000018128));
#1444=DIRECTION('',(0.,1.,0.));
#1445=DIRECTION('',(-1.,0.,0.));
#1446=AXIS2_PLACEMENT_3D('',#1443,#1444,#1445);
#1447=PLANE('',#1446);
#1448=CARTESIAN_POINT('',(-280.386740679,214.252392687,2.000018128));
#1449=CARTESIAN_POINT('',(-280.398850661,214.252392687,2.097661642));
#1450=CARTESIAN_POINT('',(-280.411072739,214.252392687,2.195291444));
#1451=CARTESIAN_POINT('',(-280.423375751,214.252392687,2.292911347));
#1452=B_SPLINE_CURVE_WITH_KNOTS('',3,(#1448,#1449,#1450,#1451),.UNSPECIFIED.,.F.,.F.,(4,4),(0.000847053,0.001142227),.UNSPECIFIED.);
#1453=EDGE_CURVE('',#1181,#596,#1452,.T.);
#1454=ORIENTED_EDGE('',*,*,#1453,.F.);
#1455=ORIENTED_EDGE('',*,*,#1186,.F.);
#1456=ORIENTED_EDGE('',*,*,#1265,.F.);
#1457=ORIENTED_EDGE('',*,*,#623,.T.);
#1458=EDGE_LOOP('',(#1454,#1455,#1456,#1457));
#1459=FACE_BOUND('',#1458,.T.);
#1460=ADVANCED_FACE('',(#1459),#1447,.F.);
#1461=CARTESIAN_POINT('',(-100.049877289,140.847571057,2.000018128));
#1462=DIRECTION('',(0.,-1.,0.));
#1463=DIRECTION('',(1.,0.,0.));
#1464=AXIS2_PLACEMENT_3D('',#1461,#1462,#1463);
#1465=PLANE('',#1464);
#1466=CARTESIAN_POINT('',(-21.049859328,140.847571057,2.292911347));
#1467=VERTEX_POINT('',#1466);
#1468=CARTESIAN_POINT('',(-21.049859328,140.847571057,2.292911347));
#1469=DIRECTION('',(-1.,-0.,-0.));
#1470=VECTOR('',#1469,259.425487608);
#1471=LINE('',#1468,#1470);
#1472=EDGE_CURVE('',#1467,#924,#1471,.T.);
#1473=ORIENTED_EDGE('',*,*,#1472,.T.);
#1474=ORIENTED_EDGE('',*,*,#930,.T.);
#1475=ORIENTED_EDGE('',*,*,#1151,.T.);
#1476=CARTESIAN_POINT('',(-21.049859328,140.847571057,2.000018128));
#1477=DIRECTION('',(0.,0.,1.));
#1478=VECTOR('',#1477,0.292893219);
#1479=LINE('',#1476,#1478);
#1480=EDGE_CURVE('',#1140,#1467,#1479,.T.);
#1481=ORIENTED_EDGE('',*,*,#1480,.T.);
#1482=EDGE_LOOP('',(#1473,#1474,#1475,#1481));
#1483=FACE_BOUND('',#1482,.T.);
#1484=ADVANCED_FACE('',(#1483),#1465,.T.);
#1485=CARTESIAN_POINT('',(175.950122711,141.554677838,2.292911347));
#1486=DIRECTION('',(-1.,-0.,0.));
#1487=DIRECTION('',(0.,-1.,0.));
#1488=AXIS2_PLACEMENT_3D('',#1485,#1486,#1487);
#1489=CYLINDRICAL_SURFACE('',#1488,0.707106781);
#1490=ORIENTED_EDGE('',*,*,#1438,.F.);
#1491=ORIENTED_EDGE('',*,*,#714,.T.);
#1492=ORIENTED_EDGE('',*,*,#952,.T.);
#1493=ORIENTED_EDGE('',*,*,#1472,.F.);
#1494=CARTESIAN_POINT('',(-21.049859328,141.554677838,2.292911347));
#1495=DIRECTION('',(-1.,-0.,0.));
#1496=DIRECTION('',(0.,-1.,0.));
#1497=AXIS2_PLACEMENT_3D('',#1494,#1495,#1496);
#1498=CIRCLE('',#1497,0.707106781);
#1499=EDGE_CURVE('',#1467,#1279,#1498,.T.);
#1500=ORIENTED_EDGE('',*,*,#1499,.T.);
#1501=EDGE_LOOP('',(#1490,#1491,#1492,#1493,#1500));
#1502=FACE_BOUND('',#1501,.T.);
#1503=ADVANCED_FACE('',(#1502),#1489,.T.);
#1504=CARTESIAN_POINT('',(-21.049859328,177.049372759,0.000018128));
#1505=DIRECTION('',(-1.,-0.,0.));
#1506=DIRECTION('',(0.,0.,-1.));
#1507=AXIS2_PLACEMENT_3D('',#1504,#1505,#1506);
#1508=PLANE('',#1507);
#1509=ORIENTED_EDGE('',*,*,#205,.F.);
#1510=ORIENTED_EDGE('',*,*,#1284,.F.);
#1511=ORIENTED_EDGE('',*,*,#1499,.F.);
#1512=ORIENTED_EDGE('',*,*,#1480,.F.);
#1513=ORIENTED_EDGE('',*,*,#1145,.T.);
#1514=ORIENTED_EDGE('',*,*,#1069,.T.);
#1515=ORIENTED_EDGE('',*,*,#1213,.F.);
#1516=EDGE_LOOP('',(#1509,#1510,#1511,#1512,#1513,#1514,#1515));
#1517=FACE_BOUND('',#1516,.T.);
#1518=ADVANCED_FACE('',(#1517),#1508,.T.);
#1519=CARTESIAN_POINT('',(-20.,157.000008646,48.000018128));
#1520=DIRECTION('',(-1.,-0.,0.));
#1521=DIRECTION('',(-0.,1.,0.));
#1522=AXIS2_PLACEMENT_3D('',#1519,#1520,#1521);
#1523=PLANE('',#1522);
#1524=ORIENTED_EDGE('',*,*,#1350,.F.);
#1525=CARTESIAN_POINT('',(-20.,176.999877122,4.352763072));
#1526=DIRECTION('',(-1.,-0.,-0.));
#1527=DIRECTION('',(0.,0.,-1.));
#1528=AXIS2_PLACEMENT_3D('',#1525,#1526,#1527);
#1529=CIRCLE('',#1528,35.542893219);
#1530=EDGE_CURVE('',#1330,#1345,#1529,.T.);
#1531=ORIENTED_EDGE('',*,*,#1530,.T.);
#1532=EDGE_LOOP('',(#1524,#1531));
#1533=FACE_BOUND('',#1532,.T.);
#1534=ADVANCED_FACE('',(#1533),#1523,.T.);
#1535=CARTESIAN_POINT('',(-19.000017961,176.999877122,4.352763072));
#1536=DIRECTION('',(-1.,-0.,-0.));
#1537=DIRECTION('',(0.,0.,-1.));
#1538=AXIS2_PLACEMENT_3D('',#1535,#1536,#1537);
#1539=CYLINDRICAL_SURFACE('',#1538,36.25);
#1540=CARTESIAN_POINT('',(-19.292893219,176.999877122,4.352763072));
#1541=DIRECTION('',(1.,0.,0.));
#1542=DIRECTION('',(0.,0.,-1.));
#1543=AXIS2_PLACEMENT_3D('',#1540,#1541,#1542);
#1544=CIRCLE('',#1543,36.25);
#1545=EDGE_CURVE('',#1353,#1322,#1544,.T.);
#1546=ORIENTED_EDGE('',*,*,#1545,.T.);
#1547=ORIENTED_EDGE('',*,*,#1327,.T.);
#1548=CARTESIAN_POINT('',(-19.000017961,176.999877122,4.352763072));
#1549=DIRECTION('',(1.,0.,-0.));
#1550=DIRECTION('',(0.,0.,1.));
#1551=AXIS2_PLACEMENT_3D('',#1548,#1549,#1550);
#1552=CIRCLE('',#1551,36.25);
#1553=EDGE_CURVE('',#1380,#1314,#1552,.T.);
#1554=ORIENTED_EDGE('',*,*,#1553,.F.);
#1555=ORIENTED_EDGE('',*,*,#1385,.T.);
#1556=EDGE_LOOP('',(#1546,#1547,#1554,#1555));
#1557=FACE_BOUND('',#1556,.T.);
#1558=ADVANCED_FACE('',(#1557),#1539,.T.);
#1559=CARTESIAN_POINT('',(-19.000017961,176.999877122,4.352763072));
#1560=DIRECTION('',(-1.,-0.,-0.));
#1561=DIRECTION('',(0.,0.,-1.));
#1562=AXIS2_PLACEMENT_3D('',#1559,#1560,#1561);
#1563=CYLINDRICAL_SURFACE('',#1562,37.25);
#1564=ORIENTED_EDGE('',*,*,#1311,.F.);
#1565=CARTESIAN_POINT('',(-19.292893219,176.999877122,4.352763072));
#1566=DIRECTION('',(-1.,-0.,-0.));
#1567=DIRECTION('',(0.,0.,-1.));
#1568=AXIS2_PLACEMENT_3D('',#1565,#1566,#1567);
#1569=CIRCLE('',#1568,37.25);
#1570=EDGE_CURVE('',#1288,#1396,#1569,.T.);
#1571=ORIENTED_EDGE('',*,*,#1570,.T.);
#1572=ORIENTED_EDGE('',*,*,#1401,.F.);
#1573=CARTESIAN_POINT('',(-19.000017961,176.999877122,4.352763072));
#1574=DIRECTION('',(1.,0.,-0.));
#1575=DIRECTION('',(0.,0.,1.));
#1576=AXIS2_PLACEMENT_3D('',#1573,#1574,#1575);
#1577=CIRCLE('',#1576,37.25);
#1578=EDGE_CURVE('',#1388,#1306,#1577,.T.);
#1579=ORIENTED_EDGE('',*,*,#1578,.T.);
#1580=EDGE_LOOP('',(#1564,#1571,#1572,#1579));
#1581=FACE_BOUND('',#1580,.T.);
#1582=ADVANCED_FACE('',(#1581),#1563,.F.);
#1583=CARTESIAN_POINT('',(-19.000017961,2283.999999833,63.000018128));
#1584=DIRECTION('',(1.,0.,0.));
#1585=DIRECTION('',(0.,-1.,0.));
#1586=AXIS2_PLACEMENT_3D('',#1583,#1584,#1585);
#1587=PLANE('',#1586);
#1588=ORIENTED_EDGE('',*,*,#1578,.F.);
#1589=ORIENTED_EDGE('',*,*,#1393,.T.);
#1590=ORIENTED_EDGE('',*,*,#1553,.T.);
#1591=ORIENTED_EDGE('',*,*,#1319,.T.);
#1592=EDGE_LOOP('',(#1588,#1589,#1590,#1591));
#1593=FACE_BOUND('',#1592,.T.);
#1594=ADVANCED_FACE('',(#1593),#1587,.F.);
#1595=CARTESIAN_POINT('',(-19.292893219,176.999877122,4.352763072));
#1596=DIRECTION('',(-1.,-0.,-0.));
#1597=DIRECTION('',(0.,0.,-1.));
#1598=AXIS2_PLACEMENT_3D('',#1595,#1596,#1597);
#1599=TOROIDAL_SURFACE('',#1598,35.542893219,0.707106781);
#1600=ORIENTED_EDGE('',*,*,#1342,.F.);
#1601=ORIENTED_EDGE('',*,*,#1545,.F.);
#1602=ORIENTED_EDGE('',*,*,#1377,.F.);
#1603=ORIENTED_EDGE('',*,*,#1530,.F.);
#1604=EDGE_LOOP('',(#1600,#1601,#1602,#1603));
#1605=FACE_BOUND('',#1604,.T.);
#1606=ADVANCED_FACE('',(#1605),#1599,.T.);
#1607=CARTESIAN_POINT('',(-19.292893219,176.999877122,4.352763072));
#1608=DIRECTION('',(-1.,-0.,-0.));
#1609=DIRECTION('',(0.,0.,-1.));
#1610=AXIS2_PLACEMENT_3D('',#1607,#1608,#1609);
#1611=TOROIDAL_SURFACE('',#1610,37.957106781,0.707106781);
#1612=ORIENTED_EDGE('',*,*,#1303,.F.);
#1613=ORIENTED_EDGE('',*,*,#189,.F.);
#1614=ORIENTED_EDGE('',*,*,#527,.F.);
#1615=ORIENTED_EDGE('',*,*,#1420,.F.);
#1616=ORIENTED_EDGE('',*,*,#1570,.F.);
#1617=EDGE_LOOP('',(#1612,#1613,#1614,#1615,#1616));
#1618=FACE_BOUND('',#1617,.T.);
#1619=ADVANCED_FACE('',(#1618),#1611,.T.);
#1620=CARTESIAN_POINT('',(1730.,737.000017794,43.000018128));
#1621=DIRECTION('',(0.,0.,1.));
#1622=DIRECTION('',(-1.,-0.,0.));
#1623=AXIS2_PLACEMENT_3D('',#1620,#1621,#1622);
#1624=PLANE('',#1623);
#1625=ORIENTED_EDGE('',*,*,#422,.F.);
#1626=ORIENTED_EDGE('',*,*,#470,.F.);
#1627=CARTESIAN_POINT('',(-20.,188.3019861,43.000018128));
#1628=DIRECTION('',(0.99999995,0.000315372,0.));
#1629=VECTOR('',#1628,8.000000398);
#1630=LINE('',#1627,#1629);
#1631=EDGE_CURVE('',#532,#458,#1630,.T.);
#1632=ORIENTED_EDGE('',*,*,#1631,.F.);
#1633=ORIENTED_EDGE('',*,*,#537,.F.);
#1634=EDGE_LOOP('',(#1625,#1626,#1632,#1633));
#1635=FACE_BOUND('',#1634,.T.);
#1636=ADVANCED_FACE('',(#1635),#1624,.T.);
#1637=CARTESIAN_POINT('',(-309.99999435,176.965431988,4.352763072));
#1638=DIRECTION('',(0.99999995,0.000315372,0.));
#1639=DIRECTION('',(-0.000315372,0.99999995,0.));
#1640=AXIS2_PLACEMENT_3D('',#1637,#1638,#1639);
#1641=CYLINDRICAL_SURFACE('',#1640,40.25);
#1642=ORIENTED_EDGE('',*,*,#546,.T.);
#1643=ORIENTED_EDGE('',*,*,#1631,.T.);
#1644=ORIENTED_EDGE('',*,*,#464,.T.);
#1645=ORIENTED_EDGE('',*,*,#693,.F.);
#1646=EDGE_LOOP('',(#1642,#1643,#1644,#1645));
#1647=FACE_BOUND('',#1646,.T.);
#1648=ADVANCED_FACE('',(#1647),#1641,.T.);
#1649=CARTESIAN_POINT('',(-309.99999435,176.965431988,4.352763072));
#1650=DIRECTION('',(0.99999995,0.000315372,0.));
#1651=DIRECTION('',(-0.000315372,0.99999995,0.));
#1652=AXIS2_PLACEMENT_3D('',#1649,#1650,#1651);
#1653=CYLINDRICAL_SURFACE('',#1652,40.25);
#1654=ORIENTED_EDGE('',*,*,#317,.T.);
#1655=ORIENTED_EDGE('',*,*,#486,.F.);
#1656=ORIENTED_EDGE('',*,*,#389,.T.);
#1657=ORIENTED_EDGE('',*,*,#639,.F.);
#1658=EDGE_LOOP('',(#1654,#1655,#1656,#1657));
#1659=FACE_BOUND('',#1658,.T.);
#1660=ADVANCED_FACE('',(#1659),#1653,.T.);
#1661=CARTESIAN_POINT('',(-309.99999435,176.965431988,4.352763072));
#1662=DIRECTION('',(0.99999995,0.000315372,0.));
#1663=DIRECTION('',(-0.000315372,0.99999995,0.));
#1664=AXIS2_PLACEMENT_3D('',#1661,#1662,#1663);
#1665=CYLINDRICAL_SURFACE('',#1664,40.25);
#1666=ORIENTED_EDGE('',*,*,#372,.T.);
#1667=ORIENTED_EDGE('',*,*,#1006,.T.);
#1668=ORIENTED_EDGE('',*,*,#334,.T.);
#1669=ORIENTED_EDGE('',*,*,#647,.F.);
#1670=EDGE_LOOP('',(#1666,#1667,#1668,#1669));
#1671=FACE_BOUND('',#1670,.T.);
#1672=ADVANCED_FACE('',(#1671),#1665,.T.);
#1673=CARTESIAN_POINT('',(-282.000017961,176.999877122,4.352763072));
#1674=DIRECTION('',(1.,0.,-0.));
#1675=DIRECTION('',(0.,0.,1.));
#1676=AXIS2_PLACEMENT_3D('',#1673,#1674,#1675);
#1677=CYLINDRICAL_SURFACE('',#1676,36.25);
#1678=ORIENTED_EDGE('',*,*,#756,.F.);
#1679=CARTESIAN_POINT('',(-280.707106781,176.999877122,4.352763072));
#1680=DIRECTION('',(-1.,-0.,0.));
#1681=DIRECTION('',(0.,0.,1.));
#1682=AXIS2_PLACEMENT_3D('',#1679,#1680,#1681);
#1683=CIRCLE('',#1682,36.25);
#1684=EDGE_CURVE('',#749,#1081,#1683,.T.);
#1685=ORIENTED_EDGE('',*,*,#1684,.T.);
#1686=ORIENTED_EDGE('',*,*,#1086,.T.);
#1687=ORIENTED_EDGE('',*,*,#881,.F.);
#1688=EDGE_LOOP('',(#1678,#1685,#1686,#1687));
#1689=FACE_BOUND('',#1688,.T.);
#1690=ADVANCED_FACE('',(#1689),#1677,.T.);
#1691=CARTESIAN_POINT('',(-282.000017961,176.999877122,4.352763072));
#1692=DIRECTION('',(1.,0.,-0.));
#1693=DIRECTION('',(0.,0.,1.));
#1694=AXIS2_PLACEMENT_3D('',#1691,#1692,#1693);
#1695=CYLINDRICAL_SURFACE('',#1694,37.25);
#1696=ORIENTED_EDGE('',*,*,#798,.T.);
#1697=ORIENTED_EDGE('',*,*,#847,.T.);
#1698=ORIENTED_EDGE('',*,*,#1168,.T.);
#1699=CARTESIAN_POINT('',(-280.707106781,176.999877122,4.352763072));
#1700=DIRECTION('',(1.,0.,-0.));
#1701=DIRECTION('',(0.,0.,1.));
#1702=AXIS2_PLACEMENT_3D('',#1699,#1700,#1701);
#1703=CIRCLE('',#1702,37.25);
#1704=EDGE_CURVE('',#1163,#791,#1703,.T.);
#1705=ORIENTED_EDGE('',*,*,#1704,.T.);
#1706=EDGE_LOOP('',(#1696,#1697,#1698,#1705));
#1707=FACE_BOUND('',#1706,.T.);
#1708=ADVANCED_FACE('',(#1707),#1695,.F.);
#1709=CARTESIAN_POINT('',(-280.707106781,176.999877122,4.352763072));
#1710=DIRECTION('',(1.,0.,-0.));
#1711=DIRECTION('',(0.,0.,1.));
#1712=AXIS2_PLACEMENT_3D('',#1709,#1710,#1711);
#1713=TOROIDAL_SURFACE('',#1712,35.542893219,0.707106781);
#1714=ORIENTED_EDGE('',*,*,#911,.F.);
#1715=ORIENTED_EDGE('',*,*,#731,.F.);
#1716=ORIENTED_EDGE('',*,*,#1431,.T.);
#1717=ORIENTED_EDGE('',*,*,#1110,.F.);
#1718=ORIENTED_EDGE('',*,*,#1684,.F.);
#1719=EDGE_LOOP('',(#1714,#1715,#1716,#1717,#1718));
#1720=FACE_BOUND('',#1719,.T.);
#1721=ADVANCED_FACE('',(#1720),#1713,.T.);
#1722=CARTESIAN_POINT('',(-280.707106781,176.999877122,4.352763072));
#1723=DIRECTION('',(1.,0.,-0.));
#1724=DIRECTION('',(0.,0.,1.));
#1725=AXIS2_PLACEMENT_3D('',#1722,#1723,#1724);
#1726=TOROIDAL_SURFACE('',#1725,37.957106781,0.707106781);
#1727=ORIENTED_EDGE('',*,*,#968,.F.);
#1728=ORIENTED_EDGE('',*,*,#1704,.F.);
#1729=ORIENTED_EDGE('',*,*,#1196,.T.);
#1730=ORIENTED_EDGE('',*,*,#1453,.T.);
#1731=ORIENTED_EDGE('',*,*,#617,.F.);
#1732=ORIENTED_EDGE('',*,*,#283,.F.);
#1733=EDGE_LOOP('',(#1727,#1728,#1729,#1730,#1731,#1732));
#1734=FACE_BOUND('',#1733,.T.);
#1735=ADVANCED_FACE('',(#1734),#1726,.T.);
#1736=CLOSED_SHELL('',(#209,#252,#344,#400,#433,#474,#514,#571,#627,#651,#681,#699,#742,#784,#826,#900,#957,#994,#1011,#1042,#1073,#1130,#1156,#1200,#1221,#1247,
#1272,#1442,#1460,#1484,#1503,#1518,#1534,#1558,#1582,#1594,#1606,#1619,#1636,#1648,#1660,#1672,#1690,#1708,#1721,#1735));
#1737=MANIFOLD_SOLID_BREP('Body 10 (1)',#1736);
#1738=COLOUR_RGB('',0.627451003,0.627451003,0.643137276);
#1739=FILL_AREA_STYLE_COLOUR('',#1738);
#1740=FILL_AREA_STYLE('',(#1739));
#1741=SURFACE_STYLE_FILL_AREA(#1740);
#1742=SURFACE_SIDE_STYLE('',(#1741));
#1743=SURFACE_STYLE_USAGE(.BOTH.,#1742);
#1744=PRESENTATION_STYLE_ASSIGNMENT((#1743));
#26=STYLED_ITEM('',(#1744),#1737);
#1745=(NAMED_UNIT(*)PLANE_ANGLE_UNIT()SI_UNIT($,.RADIAN.));
#1746=PLANE_ANGLE_MEASURE_WITH_UNIT(PLANE_ANGLE_MEASURE(0.0174532925),#1745);
#1747=(CONVERSION_BASED_UNIT('DEGREE',#1746)NAMED_UNIT(#1748)PLANE_ANGLE_UNIT());
#1748=DIMENSIONAL_EXPONENTS(0.,0.,0.,0.,0.,0.,0.);
#1749=(NAMED_UNIT(*)SI_UNIT($,.STERADIAN.)SOLID_ANGLE_UNIT());
#1750=(LENGTH_UNIT()NAMED_UNIT(*)SI_UNIT(.MILLI.,.METRE.));
#1751=UNCERTAINTY_MEASURE_WITH_UNIT(LENGTH_MEASURE(1.000000E-03),#1750,'DISTANCE_ACCURACY_VALUE','Maximum Tolerance applied to model');
#1752=(GEOMETRIC_REPRESENTATION_CONTEXT(3)GLOBAL_UNCERTAINTY_ASSIGNED_CONTEXT((#1751))GLOBAL_UNIT_ASSIGNED_CONTEXT((#1750,#1747,#1749))REPRESENTATION_CONTEXT('','Act ii print plast.step'));
#1764=CARTESIAN_POINT('',(0.,0.,0.));
#1765=DIRECTION('',(0.,0.,1.));
#1766=DIRECTION('',(1.,0.,-0.));
#1767=AXIS2_PLACEMENT_3D('',#1764,#1765,#1766);
#1768=ITEM_DEFINED_TRANSFORMATION('','',#1767,#15);
#1769=(REPRESENTATION_RELATIONSHIP('','',#1754,#16)REPRESENTATION_RELATIONSHIP_WITH_TRANSFORMATION(#1768)SHAPE_REPRESENTATION_RELATIONSHIP());
#1770=NEXT_ASSEMBLY_USAGE_OCCURRENCE('Act ii print plast.step_1','Act ii print plast.step','Act ii print plast.step',#25,#1763,$);
#1771=PRODUCT_DEFINITION_SHAPE('','',#1770);
#1772=CONTEXT_DEPENDENT_SHAPE_REPRESENTATION(#1769,#1771);
#1773=(NAMED_UNIT(*)PLANE_ANGLE_UNIT()SI_UNIT($,.RADIAN.));
#1774=PLANE_ANGLE_MEASURE_WITH_UNIT(PLANE_ANGLE_MEASURE(0.0174532925),#1773);
#1775=(CONVERSION_BASED_UNIT('DEGREE',#1774)NAMED_UNIT(#1776)PLANE_ANGLE_UNIT());
#1776=DIMENSIONAL_EXPONENTS(0.,0.,0.,0.,0.,0.,0.);
#1777=(NAMED_UNIT(*)SI_UNIT($,.STERADIAN.)SOLID_ANGLE_UNIT());
#1778=(LENGTH_UNIT()NAMED_UNIT(*)SI_UNIT(.MILLI.,.METRE.));
#1779=UNCERTAINTY_MEASURE_WITH_UNIT(LENGTH_MEASURE(1.000000E-05),#1778,'DISTANCE_ACCURACY_VALUE','Maximum Tolerance applied to model');
#1780=(GEOMETRIC_REPRESENTATION_CONTEXT(3)GLOBAL_UNCERTAINTY_ASSIGNED_CONTEXT((#1779))GLOBAL_UNIT_ASSIGNED_CONTEXT((#1778,#1775,#1777))REPRESENTATION_CONTEXT('','Folder 33'));
#1792=CARTESIAN_POINT('',(0.,0.,0.));
#1793=DIRECTION('',(0.,0.,1.));
#1794=DIRECTION('',(1.,0.,-0.));
#1795=AXIS2_PLACEMENT_3D('',#1792,#1793,#1794);
#1796=ITEM_DEFINED_TRANSFORMATION('','',#1795,#15);
#1797=(REPRESENTATION_RELATIONSHIP('','',#1782,#1754)REPRESENTATION_RELATIONSHIP_WITH_TRANSFORMATION(#1796)SHAPE_REPRESENTATION_RELATIONSHIP());
#1798=NEXT_ASSEMBLY_USAGE_OCCURRENCE('Folder 33_2','Folder 33','Folder 33',#1763,#1791,$);
#1799=PRODUCT_DEFINITION_SHAPE('','',#1798);
#1800=CONTEXT_DEPENDENT_SHAPE_REPRESENTATION(#1797,#1799);
#1802=CARTESIAN_POINT('',(-20.000012968,177.082119626,4.352763072));
#1803=DIRECTION('',(-0.99999995,-0.000315372,0.));
#1804=DIRECTION('',(-0.000315372,0.99999995,0.));
#1805=AXIS2_PLACEMENT_3D('',#1802,#1803,#1804);
#1806=CYLINDRICAL_SURFACE('',#1805,19.25);
#1807=CARTESIAN_POINT('',(-280.006070951,196.250121949,4.352763072));
#1808=VERTEX_POINT('',#1807);
#1809=CARTESIAN_POINT('',(-20.00608388,196.332118669,4.352763072));
#1810=VERTEX_POINT('',#1809);
#1811=CARTESIAN_POINT('',(-280.006070951,196.250121949,4.352763072));
#1812=DIRECTION('',(0.99999995,0.000315372,-0.));
#1813=VECTOR('',#1812,260.000000001);
#1814=LINE('',#1811,#1813);
#1815=EDGE_CURVE('',#1808,#1810,#1814,.T.);
#1816=ORIENTED_EDGE('',*,*,#1815,.T.);
#1817=CARTESIAN_POINT('',(-20.005973583,195.982382027,0.700018128));
#1818=VERTEX_POINT('',#1817);
#1819=CARTESIAN_POINT('',(-20.000012969,177.082119626,4.352763072));
#1820=DIRECTION('',(-0.99999995,-0.000315372,0.));
#1821=DIRECTION('',(0.000315372,-0.99999995,0.));
#1822=AXIS2_PLACEMENT_3D('',#1819,#1820,#1821);
#1823=CIRCLE('',#1822,19.25);
#1824=EDGE_CURVE('',#1810,#1818,#1823,.T.);
#1825=ORIENTED_EDGE('',*,*,#1824,.T.);
#1826=CARTESIAN_POINT('',(-280.005960654,195.900385307,0.700018128));
#1827=VERTEX_POINT('',#1826);
#1828=CARTESIAN_POINT('',(-20.005973583,195.982382027,0.700018128));
#1829=DIRECTION('',(-0.99999995,-0.000315372,0.));
#1830=VECTOR('',#1829,260.000000001);
#1831=LINE('',#1828,#1830);
#1832=EDGE_CURVE('',#1818,#1827,#1831,.T.);
#1833=ORIENTED_EDGE('',*,*,#1832,.T.);
#1834=CARTESIAN_POINT('',(-280.00000004,177.000122906,4.352763072));
#1835=DIRECTION('',(-0.99999995,-0.000315372,0.));
#1836=DIRECTION('',(0.000315372,-0.99999995,0.));
#1837=AXIS2_PLACEMENT_3D('',#1834,#1835,#1836);
#1838=CIRCLE('',#1837,19.25);
#1839=EDGE_CURVE('',#1808,#1827,#1838,.T.);
#1840=ORIENTED_EDGE('',*,*,#1839,.F.);
#1841=EDGE_LOOP('',(#1816,#1825,#1833,#1840));
#1842=FACE_BOUND('',#1841,.T.);
#1843=ADVANCED_FACE('',(#1842),#1806,.T.);
#1844=CARTESIAN_POINT('',(-69.5,236.999981872,0.700018128));
#1845=DIRECTION('',(0.,0.,-1.));
#1846=DIRECTION('',(0.,1.,0.));
#1847=AXIS2_PLACEMENT_3D('',#1844,#1845,#1846);
#1848=PLANE('',#1847);
#1849=CARTESIAN_POINT('',(-19.994052355,158.181857225,0.700018128));
#1850=VERTEX_POINT('',#1849);
#1851=CARTESIAN_POINT('',(-20.005973364,195.982382028,0.700018128));
#1852=DIRECTION('',(0.000315372,-0.99999995,0.));
#1853=VECTOR('',#1852,37.800526683);
#1854=LINE('',#1851,#1853);
#1855=EDGE_CURVE('',#1818,#1850,#1854,.T.);
#1856=ORIENTED_EDGE('',*,*,#1855,.T.);
#1857=CARTESIAN_POINT('',(-279.994039426,158.099860504,0.700018128));
#1858=VERTEX_POINT('',#1857);
#1859=CARTESIAN_POINT('',(-279.994039426,158.099860504,0.700018128));
#1860=DIRECTION('',(0.99999995,0.000315372,-0.));
#1861=VECTOR('',#1860,260.000000001);
#1862=LINE('',#1859,#1861);
#1863=EDGE_CURVE('',#1858,#1850,#1862,.T.);
#1864=ORIENTED_EDGE('',*,*,#1863,.F.);
#1865=CARTESIAN_POINT('',(-280.005960434,195.900385308,0.700018128));
#1866=DIRECTION('',(0.000315372,-0.99999995,0.));
#1867=VECTOR('',#1866,37.800526683);
#1868=LINE('',#1865,#1867);
#1869=EDGE_CURVE('',#1827,#1858,#1868,.T.);
#1870=ORIENTED_EDGE('',*,*,#1869,.F.);
#1871=ORIENTED_EDGE('',*,*,#1832,.F.);
#1872=EDGE_LOOP('',(#1856,#1864,#1870,#1871));
#1873=FACE_BOUND('',#1872,.T.);
#1874=ADVANCED_FACE('',(#1873),#1848,.T.);
#1875=CARTESIAN_POINT('',(-19.335523907,-1929.917898305,63.000018128));
#1876=DIRECTION('',(-0.99999995,-0.000315372,0.));
#1877=DIRECTION('',(-0.000315372,0.99999995,0.));
#1878=AXIS2_PLACEMENT_3D('',#1875,#1876,#1877);
#1879=PLANE('',#1878);
#1880=ORIENTED_EDGE('',*,*,#1855,.F.);
#1881=ORIENTED_EDGE('',*,*,#1824,.F.);
#1882=CARTESIAN_POINT('',(-20.000012969,177.082119626,4.352763072));
#1883=DIRECTION('',(-0.99999995,-0.000315372,0.));
#1884=DIRECTION('',(0.000315372,-0.99999995,0.));
#1885=AXIS2_PLACEMENT_3D('',#1882,#1883,#1884);
#1886=CIRCLE('',#1885,19.25);
#1887=EDGE_CURVE('',#1850,#1810,#1886,.T.);
#1888=ORIENTED_EDGE('',*,*,#1887,.F.);
#1889=EDGE_LOOP('',(#1880,#1881,#1888));
#1890=FACE_BOUND('',#1889,.T.);
#1891=ADVANCED_FACE('',(#1890),#1879,.F.);
#1892=CARTESIAN_POINT('',(-279.335510977,-1929.999895052,63.000018128));
#1893=DIRECTION('',(-0.99999995,-0.000315372,0.));
#1894=DIRECTION('',(-0.000315372,0.99999995,0.));
#1895=AXIS2_PLACEMENT_3D('',#1892,#1893,#1894);
#1896=PLANE('',#1895);
#1897=CARTESIAN_POINT('',(-280.00000004,177.000122906,4.352763072));
#1898=DIRECTION('',(-0.99999995,-0.000315372,0.));
#1899=DIRECTION('',(0.000315372,-0.99999995,0.));
#1900=AXIS2_PLACEMENT_3D('',#1897,#1898,#1899);
#1901=CIRCLE('',#1900,19.25);
#1902=EDGE_CURVE('',#1858,#1808,#1901,.T.);
#1903=ORIENTED_EDGE('',*,*,#1902,.T.);
#1904=ORIENTED_EDGE('',*,*,#1839,.T.);
#1905=ORIENTED_EDGE('',*,*,#1869,.T.);
#1906=EDGE_LOOP('',(#1903,#1904,#1905));
#1907=FACE_BOUND('',#1906,.T.);
#1908=ADVANCED_FACE('',(#1907),#1896,.T.);
#1909=CARTESIAN_POINT('',(-20.000012968,177.082119626,4.352763072));
#1910=DIRECTION('',(-0.99999995,-0.000315372,0.));
#1911=DIRECTION('',(-0.000315372,0.99999995,0.));
#1912=AXIS2_PLACEMENT_3D('',#1909,#1910,#1911);
#1913=CYLINDRICAL_SURFACE('',#1912,19.25);
#1914=ORIENTED_EDGE('',*,*,#1815,.F.);
#1915=ORIENTED_EDGE('',*,*,#1902,.F.);
#1916=ORIENTED_EDGE('',*,*,#1863,.T.);
#1917=ORIENTED_EDGE('',*,*,#1887,.T.);
#1918=EDGE_LOOP('',(#1914,#1915,#1916,#1917));
#1919=FACE_BOUND('',#1918,.T.);
#1920=ADVANCED_FACE('',(#1919),#1913,.T.);
#1921=CLOSED_SHELL('',(#1843,#1874,#1891,#1908,#1920));
#1922=MANIFOLD_SOLID_BREP('Body 123 (1)',#1921);
#1801=STYLED_ITEM('',(#1744),#1922);
#1782=SHAPE_REPRESENTATION('Folder 33',(#15),#1780);
#1783=ADVANCED_BREP_SHAPE_REPRESENTATION('Folder 33',(#1922),#1780);
#1930=SHAPE_REPRESENTATION_RELATIONSHIP('','',#1782,#1783);
#1931=CARTESIAN_POINT('',(0.,0.,0.));
#1932=DIRECTION('',(0.,0.,1.));
#1933=DIRECTION('',(1.,0.,0.));
#1934=AXIS2_PLACEMENT_3D('',#1931,#1932,#1933);
#1936=MAPPED_ITEM('',#1935,#1934);
#1935=REPRESENTATION_MAP(#1934,#1782);
#1937=APPLICATION_CONTEXT('Managed model based 3d engineering');
#1938=APPLICATION_PROTOCOL_DEFINITION('international standard','ap242_managed_model_based_3d_engineering',2014,#1937);
#1939=PRODUCT_CONTEXT('',#1937,'mechanical');
#1940=PRODUCT_DEFINITION_CONTEXT('part definition',#1937,'design');
#1790=PRODUCT('Folder 33','Folder 33','',(#1939));
#1941=PRODUCT_RELATED_PRODUCT_CATEGORY('part','',(#1790));
#1942=PRODUCT_DEFINITION_FORMATION_WITH_SPECIFIED_SOURCE('','',#1790,.NOT_KNOWN.);
#1791=PRODUCT_DEFINITION('design','',#1942,#1940);
#1789=PRODUCT_DEFINITION_SHAPE('','',#1791);
#1943=SHAPE_DEFINITION_REPRESENTATION(#1789,#1782);
#1781=DRAUGHTING_MODEL('',(#1936),#1780);
#1754=SHAPE_REPRESENTATION('Act ii print plast.step',(#15,#1795),#1752);
#1944=CARTESIAN_POINT('',(0.,0.,0.));
#1945=DIRECTION('',(0.,0.,1.));
#1946=DIRECTION('',(1.,0.,0.));
#1947=AXIS2_PLACEMENT_3D('',#1944,#1945,#1946);
#1949=MAPPED_ITEM('',#1948,#1947);
#1948=REPRESENTATION_MAP(#1947,#1754);
#1762=PRODUCT('Act ii print plast.step','Act ii print plast.step','',(#1939));
#1950=PRODUCT_RELATED_PRODUCT_CATEGORY('part','',(#1762));
#1951=PRODUCT_DEFINITION_FORMATION_WITH_SPECIFIED_SOURCE('','',#1762,.NOT_KNOWN.);
#1763=PRODUCT_DEFINITION('design','',#1951,#1940);
#1761=PRODUCT_DEFINITION_SHAPE('','',#1763);
#1952=SHAPE_DEFINITION_REPRESENTATION(#1761,#1754);
#1753=DRAUGHTING_MODEL('',(#1949),#1752);
#16=SHAPE_REPRESENTATION('root',(#15,#1767),#10);
#17=ADVANCED_BREP_SHAPE_REPRESENTATION('root',(#1737),#10);
#1960=SHAPE_REPRESENTATION_RELATIONSHIP('','',#16,#17);
#1961=CARTESIAN_POINT('',(0.,0.,0.));
#1962=DIRECTION('',(0.,0.,1.));
#1963=DIRECTION('',(1.,0.,0.));
#1964=AXIS2_PLACEMENT_3D('',#1961,#1962,#1963);
#1966=MAPPED_ITEM('',#1965,#1964);
#1965=REPRESENTATION_MAP(#1964,#16);
#24=PRODUCT('root','root','',(#1939));
#1967=PRODUCT_RELATED_PRODUCT_CATEGORY('part','',(#24));
#1968=PRODUCT_DEFINITION_FORMATION_WITH_SPECIFIED_SOURCE('','',#24,.NOT_KNOWN.);
#25=PRODUCT_DEFINITION('design','',#1968,#1940);
#23=PRODUCT_DEFINITION_SHAPE('','',#25);
#1969=SHAPE_DEFINITION_REPRESENTATION(#23,#16);
#11=DRAUGHTING_MODEL('',(#1966),#10);
#1970=DESCRIPTIVE_REPRESENTATION_ITEM('KEY','/private/var/mobile/Containers/Data/Application/5F2095C5-6E5A-4F28-9900-660682EC0850/tmp/C300B517-399E-4054-ADDE-E0DC20A2D21F.tmp');
#1971=PROPERTY_DEFINITION('KEY','',#25);
#1972=REPRESENTATION('',(#1970),#10);
#1973=PROPERTY_DEFINITION_REPRESENTATION(#1971,#1972);
#1974=GENERAL_PROPERTY('','KEY','');
#1975=GENERAL_PROPERTY_ASSOCIATION('','',#1974,#1971);
#1=MECHANICAL_DESIGN_GEOMETRIC_PRESENTATION_REPRESENTATION('',(#26,#1801),#10);
ENDSEC;
END-ISO-10303-21;
