ISO-10303-21;
HEADER;

/* File generated by Shapr3D Version 26.50.0.10685 */

FILE_DESCRIPTION(('HOOPS Exchange Step'),'2;1');

FILE_NAME('/private/var/mobile/Containers/Data/Application/5F2095C5-6E5A-4F28-9900-660682EC0850/tmp/export/temp_export',
'2026-05-03T20:44:01+02:00',
('mobile'),
('Shapr3D Limited'),
'HOOPS Exchange 2025.9',
'Shapr3D',
'Authorized');

FILE_SCHEMA( ('AP242_MANAGED_MODEL_BASED_3D_ENGINEERING_MIM_LF {1 0 10303 442 1 1 4}') );

ENDSEC;

DATA;
#3=(NAMED_UNIT(*)PLANE_ANGLE_UNIT()SI_UNIT($,.RADIAN.));
#4=PLANE_ANGLE_MEASURE_WITH_UNIT(PLANE_ANGLE_MEASURE(0.0174532925),#3);
#5=(CONVERSION_BASED_UNIT('DEGREE',#4)NAMED_UNIT(#6)PLANE_ANGLE_UNIT());
#6=DIMENSIONAL_EXPONENTS(0.,0.,0.,0.,0.,0.,0.);
#7=(NAMED_UNIT(*)SI_UNIT($,.STERADIAN.)SOLID_ANGLE_UNIT());
#8=(LENGTH_UNIT()NAMED_UNIT(*)SI_UNIT(.MILLI.,.METRE.));
#9=UNCERTAINTY_MEASURE_WITH_UNIT(LENGTH_MEASURE(1.000000E-03),#8,'DISTANCE_ACCURACY_VALUE','Maximum Tolerance applied to model');
#10=(GEOMETRIC_REPRESENTATION_CONTEXT(3)GLOBAL_UNCERTAINTY_ASSIGNED_CONTEXT((#9))GLOBAL_UNIT_ASSIGNED_CONTEXT((#8,#5,#7))REPRESENTATION_CONTEXT('','root'));
#12=CARTESIAN_POINT('',(0.,0.,0.));
#13=DIRECTION('',(0.,0.,1.));
#14=DIRECTION('',(1.,0.,0.));
#15=AXIS2_PLACEMENT_3D('TS3D_PRODUCT_CSYS',#12,#13,#14);
#26=(NAMED_UNIT(*)PLANE_ANGLE_UNIT()SI_UNIT($,.RADIAN.));
#27=PLANE_ANGLE_MEASURE_WITH_UNIT(PLANE_ANGLE_MEASURE(0.0174532925),#26);
#28=(CONVERSION_BASED_UNIT('DEGREE',#27)NAMED_UNIT(#29)PLANE_ANGLE_UNIT());
#29=DIMENSIONAL_EXPONENTS(0.,0.,0.,0.,0.,0.,0.);
#30=(NAMED_UNIT(*)SI_UNIT($,.STERADIAN.)SOLID_ANGLE_UNIT());
#31=(LENGTH_UNIT()NAMED_UNIT(*)SI_UNIT(.MILLI.,.METRE.));
#32=UNCERTAINTY_MEASURE_WITH_UNIT(LENGTH_MEASURE(1.000000E-05),#31,'DISTANCE_ACCURACY_VALUE','Maximum Tolerance applied to model');
#33=(GEOMETRIC_REPRESENTATION_CONTEXT(3)GLOBAL_UNCERTAINTY_ASSIGNED_CONTEXT((#32))GLOBAL_UNIT_ASSIGNED_CONTEXT((#31,#28,#30))REPRESENTATION_CONTEXT('','Folder 35'));
#45=CARTESIAN_POINT('',(0.,0.,0.));
#46=DIRECTION('',(0.,0.,1.));
#47=DIRECTION('',(1.,0.,-0.));
#48=AXIS2_PLACEMENT_3D('',#45,#46,#47);
#49=ITEM_DEFINED_TRANSFORMATION('','',#48,#15);
#50=(REPRESENTATION_RELATIONSHIP('','',#35,#16)REPRESENTATION_RELATIONSHIP_WITH_TRANSFORMATION(#49)SHAPE_REPRESENTATION_RELATIONSHIP());
#51=NEXT_ASSEMBLY_USAGE_OCCURRENCE('Folder 35_1','Folder 35','Folder 35',#25,#44,$);
#52=PRODUCT_DEFINITION_SHAPE('','',#51);
#53=CONTEXT_DEPENDENT_SHAPE_REPRESENTATION(#50,#52);
#55=CARTESIAN_POINT('',(-1947.,-32.000018128,63.000018128));
#56=DIRECTION('',(0.,1.,0.));
#57=DIRECTION('',(1.,0.,0.));
#58=AXIS2_PLACEMENT_3D('',#55,#56,#57);
#59=PLANE('',#58);
#60=CARTESIAN_POINT('',(140.797711896,-32.000018128,3.000018128));
#61=VERTEX_POINT('',#60);
#62=CARTESIAN_POINT('',(179.250122711,-32.000018128,4.352763072));
#63=VERTEX_POINT('',#62);
#64=CARTESIAN_POINT('',(160.000122711,-32.000018128,4.352763072));
#65=DIRECTION('',(-0.,1.,0.));
#66=DIRECTION('',(1.,0.,0.));
#67=AXIS2_PLACEMENT_3D('',#64,#65,#66);
#68=CIRCLE('',#67,19.25);
#69=EDGE_CURVE('',#61,#63,#68,.T.);
#70=ORIENTED_EDGE('',*,*,#69,.T.);
#71=CARTESIAN_POINT('',(179.202533526,-32.000018128,3.000018128));
#72=VERTEX_POINT('',#71);
#73=CARTESIAN_POINT('',(160.000122711,-32.000018128,4.352763072));
#74=DIRECTION('',(-0.,1.,0.));
#75=DIRECTION('',(1.,0.,0.));
#76=AXIS2_PLACEMENT_3D('',#73,#74,#75);
#77=CIRCLE('',#76,19.25);
#78=EDGE_CURVE('',#63,#72,#77,.T.);
#79=ORIENTED_EDGE('',*,*,#78,.T.);
#80=CARTESIAN_POINT('',(179.202533526,-32.000018128,3.000018128));
#81=DIRECTION('',(-1.,0.,0.));
#82=VECTOR('',#81,38.40482163);
#83=LINE('',#80,#82);
#84=EDGE_CURVE('',#72,#61,#83,.T.);
#85=ORIENTED_EDGE('',*,*,#84,.T.);
#86=EDGE_LOOP('',(#70,#79,#85));
#87=FACE_BOUND('',#86,.T.);
#88=ADVANCED_FACE('',(#87),#59,.T.);
#89=CARTESIAN_POINT('',(160.000122711,-112.000018128,4.352763072));
#90=DIRECTION('',(-0.,1.,0.));
#91=DIRECTION('',(1.,0.,0.));
#92=AXIS2_PLACEMENT_3D('',#89,#90,#91);
#93=CYLINDRICAL_SURFACE('',#92,19.25);
#94=CARTESIAN_POINT('',(179.250122711,-192.000018128,4.352763072));
#95=VERTEX_POINT('',#94);
#96=CARTESIAN_POINT('',(179.250122711,-32.000018128,4.352763072));
#97=DIRECTION('',(-0.,-1.,-0.));
#98=VECTOR('',#97,160.);
#99=LINE('',#96,#98);
#100=EDGE_CURVE('',#63,#95,#99,.T.);
#101=ORIENTED_EDGE('',*,*,#100,.T.);
#102=CARTESIAN_POINT('',(179.202533526,-192.000018128,3.000018128));
#103=VERTEX_POINT('',#102);
#104=CARTESIAN_POINT('',(160.000122711,-192.000018128,4.352763072));
#105=DIRECTION('',(-0.,1.,0.));
#106=DIRECTION('',(1.,0.,0.));
#107=AXIS2_PLACEMENT_3D('',#104,#105,#106);
#108=CIRCLE('',#107,19.25);
#109=EDGE_CURVE('',#95,#103,#108,.T.);
#110=ORIENTED_EDGE('',*,*,#109,.T.);
#111=CARTESIAN_POINT('',(179.202533526,-192.000018128,3.000018128));
#112=DIRECTION('',(0.,1.,0.));
#113=VECTOR('',#112,160.);
#114=LINE('',#111,#113);
#115=EDGE_CURVE('',#103,#72,#114,.T.);
#116=ORIENTED_EDGE('',*,*,#115,.T.);
#117=ORIENTED_EDGE('',*,*,#78,.F.);
#118=EDGE_LOOP('',(#101,#110,#116,#117));
#119=FACE_BOUND('',#118,.T.);
#120=ADVANCED_FACE('',(#119),#93,.T.);
#121=CARTESIAN_POINT('',(13.5,97.999981872,3.000018128));
#122=DIRECTION('',(0.,0.,-1.));
#123=DIRECTION('',(0.,1.,0.));
#124=AXIS2_PLACEMENT_3D('',#121,#122,#123);
#125=PLANE('',#124);
#126=ORIENTED_EDGE('',*,*,#84,.F.);
#127=ORIENTED_EDGE('',*,*,#115,.F.);
#128=CARTESIAN_POINT('',(140.797711896,-192.000018128,3.000018128));
#129=VERTEX_POINT('',#128);
#130=CARTESIAN_POINT('',(179.202533526,-192.000018128,3.000018128));
#131=DIRECTION('',(-1.,0.,0.));
#132=VECTOR('',#131,38.40482163);
#133=LINE('',#130,#132);
#134=EDGE_CURVE('',#103,#129,#133,.T.);
#135=ORIENTED_EDGE('',*,*,#134,.T.);
#136=CARTESIAN_POINT('',(140.797711896,-32.000018128,3.000018128));
#137=DIRECTION('',(-0.,-1.,-0.));
#138=VECTOR('',#137,160.);
#139=LINE('',#136,#138);
#140=EDGE_CURVE('',#61,#129,#139,.T.);
#141=ORIENTED_EDGE('',*,*,#140,.F.);
#142=EDGE_LOOP('',(#126,#127,#135,#141));
#143=FACE_BOUND('',#142,.T.);
#144=ADVANCED_FACE('',(#143),#125,.T.);
#145=CARTESIAN_POINT('',(-1947.,-192.000018128,63.000018128));
#146=DIRECTION('',(0.,1.,0.));
#147=DIRECTION('',(1.,0.,0.));
#148=AXIS2_PLACEMENT_3D('',#145,#146,#147);
#149=PLANE('',#148);
#150=ORIENTED_EDGE('',*,*,#134,.F.);
#151=ORIENTED_EDGE('',*,*,#109,.F.);
#152=CARTESIAN_POINT('',(160.000122711,-192.000018128,4.352763072));
#153=DIRECTION('',(-0.,1.,0.));
#154=DIRECTION('',(1.,0.,0.));
#155=AXIS2_PLACEMENT_3D('',#152,#153,#154);
#156=CIRCLE('',#155,19.25);
#157=EDGE_CURVE('',#129,#95,#156,.T.);
#158=ORIENTED_EDGE('',*,*,#157,.F.);
#159=EDGE_LOOP('',(#150,#151,#158));
#160=FACE_BOUND('',#159,.T.);
#161=ADVANCED_FACE('',(#160),#149,.F.);
#162=CARTESIAN_POINT('',(160.000122711,-112.000018128,4.352763072));
#163=DIRECTION('',(-0.,1.,0.));
#164=DIRECTION('',(1.,0.,0.));
#165=AXIS2_PLACEMENT_3D('',#162,#163,#164);
#166=CYLINDRICAL_SURFACE('',#165,19.25);
#167=ORIENTED_EDGE('',*,*,#100,.F.);
#168=ORIENTED_EDGE('',*,*,#69,.F.);
#169=ORIENTED_EDGE('',*,*,#140,.T.);
#170=ORIENTED_EDGE('',*,*,#157,.T.);
#171=EDGE_LOOP('',(#167,#168,#169,#170));
#172=FACE_BOUND('',#171,.T.);
#173=ADVANCED_FACE('',(#172),#166,.T.);
#174=CLOSED_SHELL('',(#88,#120,#144,#161,#173));
#175=MANIFOLD_SOLID_BREP('Body 121 (2)',#174);
#176=COLOUR_RGB('',0.627451003,0.627451003,0.643137276);
#177=FILL_AREA_STYLE_COLOUR('',#176);
#178=FILL_AREA_STYLE('',(#177));
#179=SURFACE_STYLE_FILL_AREA(#178);
#180=SURFACE_SIDE_STYLE('',(#179));
#181=SURFACE_STYLE_USAGE(.BOTH.,#180);
#182=PRESENTATION_STYLE_ASSIGNMENT((#181));
#54=STYLED_ITEM('',(#182),#175);
#184=CARTESIAN_POINT('',(179.999991187,-200.000000167,48.000018128));
#185=DIRECTION('',(0.,-1.,-0.));
#186=DIRECTION('',(-1.,-0.,-0.));
#187=AXIS2_PLACEMENT_3D('',#184,#185,#186);
#188=PLANE('',#187);
#189=CARTESIAN_POINT('',(200.000000335,-200.000000167,3.000018128));
#190=VERTEX_POINT('',#189);
#191=CARTESIAN_POINT('',(119.999999665,-200.000000167,3.000018128));
#192=VERTEX_POINT('',#191);
#193=CARTESIAN_POINT('',(200.000000335,-200.000000167,3.000018128));
#194=DIRECTION('',(-1.,-0.,-0.));
#195=VECTOR('',#194,80.000000669);
#196=LINE('',#193,#195);
#197=EDGE_CURVE('',#190,#192,#196,.T.);
#198=ORIENTED_EDGE('',*,*,#197,.F.);
#199=CARTESIAN_POINT('',(200.000000335,-200.000000167,43.000018128));
#200=VERTEX_POINT('',#199);
#201=CARTESIAN_POINT('',(200.000000335,-200.000000167,43.000018128));
#202=DIRECTION('',(0.,0.,-1.));
#203=VECTOR('',#202,40.);
#204=LINE('',#201,#203);
#205=EDGE_CURVE('',#200,#190,#204,.T.);
#206=ORIENTED_EDGE('',*,*,#205,.F.);
#207=CARTESIAN_POINT('',(119.999999665,-200.000000167,43.000018128));
#208=VERTEX_POINT('',#207);
#209=CARTESIAN_POINT('',(200.000000335,-200.000000167,43.000018128));
#210=DIRECTION('',(-1.,-0.,-0.));
#211=VECTOR('',#210,80.000000669);
#212=LINE('',#209,#211);
#213=EDGE_CURVE('',#200,#208,#212,.T.);
#214=ORIENTED_EDGE('',*,*,#213,.T.);
#215=CARTESIAN_POINT('',(119.999999665,-200.000000167,43.000018128));
#216=DIRECTION('',(0.,0.,-1.));
#217=VECTOR('',#216,40.);
#218=LINE('',#215,#217);
#219=EDGE_CURVE('',#208,#192,#218,.T.);
#220=ORIENTED_EDGE('',*,*,#219,.T.);
#221=EDGE_LOOP('',(#198,#206,#214,#220));
#222=FACE_BOUND('',#221,.T.);
#223=ADVANCED_FACE('',(#222),#188,.T.);
#224=CARTESIAN_POINT('',(200.000000335,-195.000000167,48.000018128));
#225=DIRECTION('',(1.,0.,0.));
#226=DIRECTION('',(0.,-1.,-0.));
#227=AXIS2_PLACEMENT_3D('',#224,#225,#226);
#228=PLANE('',#227);
#229=CARTESIAN_POINT('',(200.000000335,-192.000000167,3.000018128));
#230=VERTEX_POINT('',#229);
#231=CARTESIAN_POINT('',(200.000000335,-192.000000167,3.000018128));
#232=DIRECTION('',(0.,-1.,-0.));
#233=VECTOR('',#232,8.);
#234=LINE('',#231,#233);
#235=EDGE_CURVE('',#230,#190,#234,.T.);
#236=ORIENTED_EDGE('',*,*,#235,.F.);
#237=CARTESIAN_POINT('',(200.000000335,-192.000000167,43.000018128));
#238=VERTEX_POINT('',#237);
#239=CARTESIAN_POINT('',(200.000000335,-192.000000167,43.000018128));
#240=DIRECTION('',(0.,0.,-1.));
#241=VECTOR('',#240,40.);
#242=LINE('',#239,#241);
#243=EDGE_CURVE('',#238,#230,#242,.T.);
#244=ORIENTED_EDGE('',*,*,#243,.F.);
#245=CARTESIAN_POINT('',(200.000000335,-192.000000167,43.000018128));
#246=DIRECTION('',(0.,-1.,-0.));
#247=VECTOR('',#246,8.);
#248=LINE('',#245,#247);
#249=EDGE_CURVE('',#238,#200,#248,.T.);
#250=ORIENTED_EDGE('',*,*,#249,.T.);
#251=ORIENTED_EDGE('',*,*,#205,.T.);
#252=EDGE_LOOP('',(#236,#244,#250,#251));
#253=FACE_BOUND('',#252,.T.);
#254=ADVANCED_FACE('',(#253),#228,.T.);
#255=CARTESIAN_POINT('',(182.500915115,-192.000000167,48.000018128));
#256=DIRECTION('',(-0.,1.,0.));
#257=DIRECTION('',(1.,0.,0.));
#258=AXIS2_PLACEMENT_3D('',#255,#256,#257);
#259=PLANE('',#258);
#260=CARTESIAN_POINT('',(120.001463314,-192.000000167,3.000018128));
#261=VERTEX_POINT('',#260);
#262=CARTESIAN_POINT('',(120.001463314,-192.000000167,3.000018128));
#263=DIRECTION('',(1.,0.,0.));
#264=VECTOR('',#263,79.998537021);
#265=LINE('',#262,#264);
#266=EDGE_CURVE('',#261,#230,#265,.T.);
#267=ORIENTED_EDGE('',*,*,#266,.F.);
#268=CARTESIAN_POINT('',(120.001463314,-192.000000167,43.000018128));
#269=VERTEX_POINT('',#268);
#270=CARTESIAN_POINT('',(120.001463314,-192.000000167,43.000018128));
#271=DIRECTION('',(0.,0.,-1.));
#272=VECTOR('',#271,40.);
#273=LINE('',#270,#272);
#274=EDGE_CURVE('',#269,#261,#273,.T.);
#275=ORIENTED_EDGE('',*,*,#274,.F.);
#276=CARTESIAN_POINT('',(120.001463314,-192.000000167,43.000018128));
#277=DIRECTION('',(1.,0.,0.));
#278=VECTOR('',#277,79.998537021);
#279=LINE('',#276,#278);
#280=EDGE_CURVE('',#269,#238,#279,.T.);
#281=ORIENTED_EDGE('',*,*,#280,.T.);
#282=ORIENTED_EDGE('',*,*,#243,.T.);
#283=EDGE_LOOP('',(#267,#275,#281,#282));
#284=FACE_BOUND('',#283,.T.);
#285=ADVANCED_FACE('',(#284),#259,.T.);
#286=CARTESIAN_POINT('',(120.000915784,-194.992681926,48.000018128));
#287=DIRECTION('',(0.999999983,-0.000182956,-0.));
#288=DIRECTION('',(-0.000182956,-0.999999983,-0.));
#289=AXIS2_PLACEMENT_3D('',#286,#287,#288);
#290=PLANE('',#289);
#291=CARTESIAN_POINT('',(120.001463314,-192.000000167,3.000018128));
#292=DIRECTION('',(-0.000182956,-0.999999983,-0.));
#293=VECTOR('',#292,8.000000134);
#294=LINE('',#291,#293);
#295=EDGE_CURVE('',#261,#192,#294,.T.);
#296=ORIENTED_EDGE('',*,*,#295,.T.);
#297=ORIENTED_EDGE('',*,*,#219,.F.);
#298=CARTESIAN_POINT('',(120.001463314,-192.000000167,43.000018128));
#299=DIRECTION('',(-0.000182956,-0.999999983,-0.));
#300=VECTOR('',#299,8.000000134);
#301=LINE('',#298,#300);
#302=EDGE_CURVE('',#269,#208,#301,.T.);
#303=ORIENTED_EDGE('',*,*,#302,.F.);
#304=ORIENTED_EDGE('',*,*,#274,.T.);
#305=EDGE_LOOP('',(#296,#297,#303,#304));
#306=FACE_BOUND('',#305,.T.);
#307=ADVANCED_FACE('',(#306),#290,.F.);
#308=CARTESIAN_POINT('',(-400.000017961,1549.999999833,43.000018128));
#309=DIRECTION('',(0.,-0.,1.));
#310=DIRECTION('',(0.,-1.,-0.));
#311=AXIS2_PLACEMENT_3D('',#308,#309,#310);
#312=PLANE('',#311);
#313=ORIENTED_EDGE('',*,*,#213,.F.);
#314=ORIENTED_EDGE('',*,*,#249,.F.);
#315=ORIENTED_EDGE('',*,*,#280,.F.);
#316=ORIENTED_EDGE('',*,*,#302,.T.);
#317=EDGE_LOOP('',(#313,#314,#315,#316));
#318=FACE_BOUND('',#317,.T.);
#319=ADVANCED_FACE('',(#318),#312,.T.);
#320=CARTESIAN_POINT('',(-400.000017961,1549.999999833,3.000018128));
#321=DIRECTION('',(0.,-0.,1.));
#322=DIRECTION('',(0.,-1.,-0.));
#323=AXIS2_PLACEMENT_3D('',#320,#321,#322);
#324=PLANE('',#323);
#325=ORIENTED_EDGE('',*,*,#197,.T.);
#326=ORIENTED_EDGE('',*,*,#295,.F.);
#327=ORIENTED_EDGE('',*,*,#266,.T.);
#328=ORIENTED_EDGE('',*,*,#235,.T.);
#329=EDGE_LOOP('',(#325,#326,#327,#328));
#330=FACE_BOUND('',#329,.T.);
#331=ADVANCED_FACE('',(#330),#324,.F.);
#332=CLOSED_SHELL('',(#223,#254,#285,#307,#319,#331));
#333=MANIFOLD_SOLID_BREP('Body 120 (6)',#332);
#183=STYLED_ITEM('',(#182),#333);
#335=CARTESIAN_POINT('',(179.999991187,-32.000000167,48.000018128));
#336=DIRECTION('',(0.,-1.,-0.));
#337=DIRECTION('',(-1.,-0.,-0.));
#338=AXIS2_PLACEMENT_3D('',#335,#336,#337);
#339=PLANE('',#338);
#340=CARTESIAN_POINT('',(200.000000335,-32.000000167,3.000018128));
#341=VERTEX_POINT('',#340);
#342=CARTESIAN_POINT('',(119.999999665,-32.000000167,3.000018128));
#343=VERTEX_POINT('',#342);
#344=CARTESIAN_POINT('',(200.000000335,-32.000000167,3.000018128));
#345=DIRECTION('',(-1.,-0.,-0.));
#346=VECTOR('',#345,80.000000669);
#347=LINE('',#344,#346);
#348=EDGE_CURVE('',#341,#343,#347,.T.);
#349=ORIENTED_EDGE('',*,*,#348,.F.);
#350=CARTESIAN_POINT('',(200.000000335,-32.000000167,43.000018128));
#351=VERTEX_POINT('',#350);
#352=CARTESIAN_POINT('',(200.000000335,-32.000000167,43.000018128));
#353=DIRECTION('',(0.,0.,-1.));
#354=VECTOR('',#353,40.);
#355=LINE('',#352,#354);
#356=EDGE_CURVE('',#351,#341,#355,.T.);
#357=ORIENTED_EDGE('',*,*,#356,.F.);
#358=CARTESIAN_POINT('',(119.999999665,-32.000000167,43.000018128));
#359=VERTEX_POINT('',#358);
#360=CARTESIAN_POINT('',(200.000000335,-32.000000167,43.000018128));
#361=DIRECTION('',(-1.,-0.,-0.));
#362=VECTOR('',#361,80.000000669);
#363=LINE('',#360,#362);
#364=EDGE_CURVE('',#351,#359,#363,.T.);
#365=ORIENTED_EDGE('',*,*,#364,.T.);
#366=CARTESIAN_POINT('',(119.999999665,-32.000000167,43.000018128));
#367=DIRECTION('',(0.,0.,-1.));
#368=VECTOR('',#367,40.);
#369=LINE('',#366,#368);
#370=EDGE_CURVE('',#359,#343,#369,.T.);
#371=ORIENTED_EDGE('',*,*,#370,.T.);
#372=EDGE_LOOP('',(#349,#357,#365,#371));
#373=FACE_BOUND('',#372,.T.);
#374=ADVANCED_FACE('',(#373),#339,.T.);
#375=CARTESIAN_POINT('',(200.000000335,-27.000000167,48.000018128));
#376=DIRECTION('',(1.,0.,0.));
#377=DIRECTION('',(0.,-1.,-0.));
#378=AXIS2_PLACEMENT_3D('',#375,#376,#377);
#379=PLANE('',#378);
#380=CARTESIAN_POINT('',(200.000000335,-24.000000167,3.000018128));
#381=VERTEX_POINT('',#380);
#382=CARTESIAN_POINT('',(200.000000335,-24.000000167,3.000018128));
#383=DIRECTION('',(0.,-1.,-0.));
#384=VECTOR('',#383,8.);
#385=LINE('',#382,#384);
#386=EDGE_CURVE('',#381,#341,#385,.T.);
#387=ORIENTED_EDGE('',*,*,#386,.F.);
#388=CARTESIAN_POINT('',(200.000000335,-24.000000167,43.000018128));
#389=VERTEX_POINT('',#388);
#390=CARTESIAN_POINT('',(200.000000335,-24.000000167,43.000018128));
#391=DIRECTION('',(0.,0.,-1.));
#392=VECTOR('',#391,40.);
#393=LINE('',#390,#392);
#394=EDGE_CURVE('',#389,#381,#393,.T.);
#395=ORIENTED_EDGE('',*,*,#394,.F.);
#396=CARTESIAN_POINT('',(200.000000335,-24.000000167,43.000018128));
#397=DIRECTION('',(0.,-1.,-0.));
#398=VECTOR('',#397,8.);
#399=LINE('',#396,#398);
#400=EDGE_CURVE('',#389,#351,#399,.T.);
#401=ORIENTED_EDGE('',*,*,#400,.T.);
#402=ORIENTED_EDGE('',*,*,#356,.T.);
#403=EDGE_LOOP('',(#387,#395,#401,#402));
#404=FACE_BOUND('',#403,.T.);
#405=ADVANCED_FACE('',(#404),#379,.T.);
#406=CARTESIAN_POINT('',(182.500915115,-24.000000167,48.000018128));
#407=DIRECTION('',(-0.,1.,0.));
#408=DIRECTION('',(1.,0.,0.));
#409=AXIS2_PLACEMENT_3D('',#406,#407,#408);
#410=PLANE('',#409);
#411=CARTESIAN_POINT('',(120.001463314,-24.000000167,3.000018128));
#412=VERTEX_POINT('',#411);
#413=CARTESIAN_POINT('',(120.001463314,-24.000000167,3.000018128));
#414=DIRECTION('',(1.,0.,0.));
#415=VECTOR('',#414,79.998537021);
#416=LINE('',#413,#415);
#417=EDGE_CURVE('',#412,#381,#416,.T.);
#418=ORIENTED_EDGE('',*,*,#417,.F.);
#419=CARTESIAN_POINT('',(120.001463314,-24.000000167,43.000018128));
#420=VERTEX_POINT('',#419);
#421=CARTESIAN_POINT('',(120.001463314,-24.000000167,43.000018128));
#422=DIRECTION('',(0.,0.,-1.));
#423=VECTOR('',#422,40.);
#424=LINE('',#421,#423);
#425=EDGE_CURVE('',#420,#412,#424,.T.);
#426=ORIENTED_EDGE('',*,*,#425,.F.);
#427=CARTESIAN_POINT('',(120.001463314,-24.000000167,43.000018128));
#428=DIRECTION('',(1.,0.,0.));
#429=VECTOR('',#428,79.998537021);
#430=LINE('',#427,#429);
#431=EDGE_CURVE('',#420,#389,#430,.T.);
#432=ORIENTED_EDGE('',*,*,#431,.T.);
#433=ORIENTED_EDGE('',*,*,#394,.T.);
#434=EDGE_LOOP('',(#418,#426,#432,#433));
#435=FACE_BOUND('',#434,.T.);
#436=ADVANCED_FACE('',(#435),#410,.T.);
#437=CARTESIAN_POINT('',(120.000915784,-26.992681926,48.000018128));
#438=DIRECTION('',(0.999999983,-0.000182956,-0.));
#439=DIRECTION('',(-0.000182956,-0.999999983,-0.));
#440=AXIS2_PLACEMENT_3D('',#437,#438,#439);
#441=PLANE('',#440);
#442=CARTESIAN_POINT('',(120.001463314,-24.000000167,3.000018128));
#443=DIRECTION('',(-0.000182956,-0.999999983,-0.));
#444=VECTOR('',#443,8.000000134);
#445=LINE('',#442,#444);
#446=EDGE_CURVE('',#412,#343,#445,.T.);
#447=ORIENTED_EDGE('',*,*,#446,.T.);
#448=ORIENTED_EDGE('',*,*,#370,.F.);
#449=CARTESIAN_POINT('',(120.001463314,-24.000000167,43.000018128));
#450=DIRECTION('',(-0.000182956,-0.999999983,-0.));
#451=VECTOR('',#450,8.000000134);
#452=LINE('',#449,#451);
#453=EDGE_CURVE('',#420,#359,#452,.T.);
#454=ORIENTED_EDGE('',*,*,#453,.F.);
#455=ORIENTED_EDGE('',*,*,#425,.T.);
#456=EDGE_LOOP('',(#447,#448,#454,#455));
#457=FACE_BOUND('',#456,.T.);
#458=ADVANCED_FACE('',(#457),#441,.F.);
#459=CARTESIAN_POINT('',(-400.000017961,1717.999999833,43.000018128));
#460=DIRECTION('',(0.,-0.,1.));
#461=DIRECTION('',(0.,-1.,-0.));
#462=AXIS2_PLACEMENT_3D('',#459,#460,#461);
#463=PLANE('',#462);
#464=ORIENTED_EDGE('',*,*,#364,.F.);
#465=ORIENTED_EDGE('',*,*,#400,.F.);
#466=ORIENTED_EDGE('',*,*,#431,.F.);
#467=ORIENTED_EDGE('',*,*,#453,.T.);
#468=EDGE_LOOP('',(#464,#465,#466,#467));
#469=FACE_BOUND('',#468,.T.);
#470=ADVANCED_FACE('',(#469),#463,.T.);
#471=CARTESIAN_POINT('',(-400.000017961,1717.999999833,3.000018128));
#472=DIRECTION('',(0.,-0.,1.));
#473=DIRECTION('',(0.,-1.,-0.));
#474=AXIS2_PLACEMENT_3D('',#471,#472,#473);
#475=PLANE('',#474);
#476=ORIENTED_EDGE('',*,*,#348,.T.);
#477=ORIENTED_EDGE('',*,*,#446,.F.);
#478=ORIENTED_EDGE('',*,*,#417,.T.);
#479=ORIENTED_EDGE('',*,*,#386,.T.);
#480=EDGE_LOOP('',(#476,#477,#478,#479));
#481=FACE_BOUND('',#480,.T.);
#482=ADVANCED_FACE('',(#481),#475,.F.);
#483=CLOSED_SHELL('',(#374,#405,#436,#458,#470,#482));
#484=MANIFOLD_SOLID_BREP('Body 120 (5)',#483);
#334=STYLED_ITEM('',(#182),#484);
#35=SHAPE_REPRESENTATION('Folder 35',(#15),#33);
#36=ADVANCED_BREP_SHAPE_REPRESENTATION('Folder 35',(#175,#333,#484),#33);
#492=SHAPE_REPRESENTATION_RELATIONSHIP('','',#35,#36);
#493=CARTESIAN_POINT('',(0.,0.,0.));
#494=DIRECTION('',(0.,0.,1.));
#495=DIRECTION('',(1.,0.,0.));
#496=AXIS2_PLACEMENT_3D('',#493,#494,#495);
#498=MAPPED_ITEM('',#497,#496);
#497=REPRESENTATION_MAP(#496,#35);
#499=APPLICATION_CONTEXT('Managed model based 3d engineering');
#500=APPLICATION_PROTOCOL_DEFINITION('international standard','ap242_managed_model_based_3d_engineering',2014,#499);
#501=PRODUCT_CONTEXT('',#499,'mechanical');
#502=PRODUCT_DEFINITION_CONTEXT('part definition',#499,'design');
#43=PRODUCT('Folder 35','Folder 35','',(#501));
#503=PRODUCT_RELATED_PRODUCT_CATEGORY('part','',(#43));
#504=PRODUCT_DEFINITION_FORMATION_WITH_SPECIFIED_SOURCE('','',#43,.NOT_KNOWN.);
#44=PRODUCT_DEFINITION('design','',#504,#502);
#42=PRODUCT_DEFINITION_SHAPE('','',#44);
#505=SHAPE_DEFINITION_REPRESENTATION(#42,#35);
#34=DRAUGHTING_MODEL('',(#498),#33);
#16=SHAPE_REPRESENTATION('root',(#15,#48),#10);
#506=CARTESIAN_POINT('',(0.,0.,0.));
#507=DIRECTION('',(0.,0.,1.));
#508=DIRECTION('',(1.,0.,0.));
#509=AXIS2_PLACEMENT_3D('',#506,#507,#508);
#511=MAPPED_ITEM('',#510,#509);
#510=REPRESENTATION_MAP(#509,#16);
#24=PRODUCT('root','root','',(#501));
#512=PRODUCT_RELATED_PRODUCT_CATEGORY('part','',(#24));
#513=PRODUCT_DEFINITION_FORMATION_WITH_SPECIFIED_SOURCE('','',#24,.NOT_KNOWN.);
#25=PRODUCT_DEFINITION('design','',#513,#502);
#23=PRODUCT_DEFINITION_SHAPE('','',#25);
#514=SHAPE_DEFINITION_REPRESENTATION(#23,#16);
#11=DRAUGHTING_MODEL('',(#511),#10);
#515=DESCRIPTIVE_REPRESENTATION_ITEM('KEY','/private/var/mobile/Containers/Data/Application/5F2095C5-6E5A-4F28-9900-660682EC0850/tmp/EBF4807D-3589-423B-8106-5400EDA0BF85.tmp');
#516=PROPERTY_DEFINITION('KEY','',#25);
#517=REPRESENTATION('',(#515),#10);
#518=PROPERTY_DEFINITION_REPRESENTATION(#516,#517);
#519=GENERAL_PROPERTY('','KEY','');
#520=GENERAL_PROPERTY_ASSOCIATION('','',#519,#516);
#1=MECHANICAL_DESIGN_GEOMETRIC_PRESENTATION_REPRESENTATION('',(#54,#183,#334),#10);
ENDSEC;
END-ISO-10303-21;
